<?xml version="1.0" encoding="UTF-8" standalone="no"?>
<!DOCTYPE svg PUBLIC "-//W3C//DTD SVG 1.1//EN"
 "http://www.w3.org/Graphics/SVG/1.1/DTD/svg11.dtd">
<!-- Generated by graphviz version 2.36.0 (20140111.2315)
 -->
<!-- Title: src/zmq_utils.cpp Pages: 1 -->
<svg width="561pt" height="84pt"
 viewBox="0.00 0.00 561.00 84.00" xmlns="http://www.w3.org/2000/svg" xmlns:xlink="http://www.w3.org/1999/xlink">
<g id="graph0" class="graph" transform="scale(1 1) rotate(0) translate(4 80)">
<title>src/zmq_utils.cpp</title>
<polygon fill="white" stroke="none" points="-4,4 -4,-80 557,-80 557,4 -4,4"/>
<!-- Node1 -->
<g id="node1" class="node"><title>Node1</title>
<polygon fill="#bfbfbf" stroke="black" points="266,-56.5 266,-75.5 360,-75.5 360,-56.5 266,-56.5"/>
<text text-anchor="middle" x="313" y="-63.5" font-family="Helvetica,sans-Serif" font-size="10.00">src/zmq_utils.cpp</text>
</g>
<!-- Node2 -->
<g id="node2" class="node"><title>Node2</title>
<polygon fill="white" stroke="#bfbfbf" points="-0.5,-0.5 -0.5,-19.5 70.5,-19.5 70.5,-0.5 -0.5,-0.5"/>
<text text-anchor="middle" x="35" y="-7.5" font-family="Helvetica,sans-Serif" font-size="10.00">platform.hpp</text>
</g>
<!-- Node1&#45;&gt;Node2 -->
<g id="edge1" class="edge"><title>Node1&#45;&gt;Node2</title>
<path fill="none" stroke="midnightblue" d="M268.315,-56.4608C223.506,-47.8775 152.251,-34.1733 80.9199,-20.1709"/>
<polygon fill="midnightblue" stroke="midnightblue" points="81.3443,-16.6874 70.8571,-18.1936 79.9946,-23.5561 81.3443,-16.6874"/>
</g>
<!-- Node3 -->
<g id="node3" class="node"><title>Node3</title>
<polygon fill="white" stroke="#bfbfbf" points="89,-0.5 89,-19.5 199,-19.5 199,-0.5 89,-0.5"/>
<text text-anchor="middle" x="144" y="-7.5" font-family="Helvetica,sans-Serif" font-size="10.00">../include/zmq_utils.h</text>
</g>
<!-- Node1&#45;&gt;Node3 -->
<g id="edge2" class="edge"><title>Node1&#45;&gt;Node3</title>
<path fill="none" stroke="midnightblue" d="M286.221,-56.4435C257.667,-47.3196 212.267,-32.8133 180.463,-22.6509"/>
<polygon fill="midnightblue" stroke="midnightblue" points="181.244,-19.2262 170.653,-19.5164 179.114,-25.8941 181.244,-19.2262"/>
</g>
<!-- Node4 -->
<g id="node4" class="node"><title>Node4</title>
<polygon fill="white" stroke="#bfbfbf" points="217,-0.5 217,-19.5 265,-19.5 265,-0.5 217,-0.5"/>
<text text-anchor="middle" x="241" y="-7.5" font-family="Helvetica,sans-Serif" font-size="10.00">stdlib.h</text>
</g>
<!-- Node1&#45;&gt;Node4 -->
<g id="edge3" class="edge"><title>Node1&#45;&gt;Node4</title>
<path fill="none" stroke="midnightblue" d="M301.432,-56.324C290.58,-48.1849 274.119,-35.8395 261.117,-26.0874"/>
<polygon fill="midnightblue" stroke="midnightblue" points="262.879,-23.0339 252.779,-19.8339 258.679,-28.6339 262.879,-23.0339"/>
</g>
<!-- Node5 -->
<g id="node5" class="node"><title>Node5</title>
<polygon fill="white" stroke="#bfbfbf" points="283.5,-0.5 283.5,-19.5 342.5,-19.5 342.5,-0.5 283.5,-0.5"/>
<text text-anchor="middle" x="313" y="-7.5" font-family="Helvetica,sans-Serif" font-size="10.00">stdint.hpp</text>
</g>
<!-- Node1&#45;&gt;Node5 -->
<g id="edge4" class="edge"><title>Node1&#45;&gt;Node5</title>
<path fill="none" stroke="midnightblue" d="M313,-56.083C313,-49.0059 313,-38.8611 313,-29.9865"/>
<polygon fill="midnightblue" stroke="midnightblue" points="316.5,-29.751 313,-19.7511 309.5,-29.7511 316.5,-29.751"/>
</g>
<!-- Node6 -->
<g id="node6" class="node"><title>Node6</title>
<polygon fill="white" stroke="#bfbfbf" points="360.5,-0.5 360.5,-19.5 419.5,-19.5 419.5,-0.5 360.5,-0.5"/>
<text text-anchor="middle" x="390" y="-7.5" font-family="Helvetica,sans-Serif" font-size="10.00">clock.hpp</text>
</g>
<!-- Node1&#45;&gt;Node6 -->
<g id="edge5" class="edge"><title>Node1&#45;&gt;Node6</title>
<path fill="none" stroke="midnightblue" d="M325.371,-56.324C337.158,-48.0577 355.132,-35.4527 369.136,-25.6322"/>
<polygon fill="midnightblue" stroke="midnightblue" points="371.482,-28.2619 377.659,-19.6545 367.462,-22.5307 371.482,-28.2619"/>
</g>
<!-- Node7 -->
<g id="node7" class="node"><title>Node7</title>
<polygon fill="white" stroke="#bfbfbf" points="437.5,-0.5 437.5,-19.5 484.5,-19.5 484.5,-0.5 437.5,-0.5"/>
<text text-anchor="middle" x="461" y="-7.5" font-family="Helvetica,sans-Serif" font-size="10.00">err.hpp</text>
</g>
<!-- Node1&#45;&gt;Node7 -->
<g id="edge6" class="edge"><title>Node1&#45;&gt;Node7</title>
<path fill="none" stroke="midnightblue" d="M336.451,-56.4435C361.133,-47.4381 400.185,-33.1891 427.977,-23.049"/>
<polygon fill="midnightblue" stroke="midnightblue" points="429.464,-26.2321 437.659,-19.5164 427.065,-19.6561 429.464,-26.2321"/>
</g>
<!-- Node8 -->
<g id="node8" class="node"><title>Node8</title>
<polygon fill="white" stroke="#bfbfbf" points="502.5,-0.5 502.5,-19.5 553.5,-19.5 553.5,-0.5 502.5,-0.5"/>
<text text-anchor="middle" x="528" y="-7.5" font-family="Helvetica,sans-Serif" font-size="10.00">unistd.h</text>
</g>
<!-- Node1&#45;&gt;Node8 -->
<g id="edge7" class="edge"><title>Node1&#45;&gt;Node8</title>
<path fill="none" stroke="midnightblue" d="M347.524,-56.4419C381.79,-47.9318 436.07,-34.4076 492.567,-20.0971"/>
<polygon fill="midnightblue" stroke="midnightblue" points="493.558,-23.4567 502.391,-17.6063 491.837,-16.6713 493.558,-23.4567"/>
</g>
</g>
</svg>
