<?xml version="1.0" encoding="UTF-8" standalone="no"?>
<!DOCTYPE svg PUBLIC "-//W3C//DTD SVG 1.1//EN"
 "http://www.w3.org/Graphics/SVG/1.1/DTD/svg11.dtd">
<!-- Generated by graphviz version 2.36.0 (20140111.2315)
 -->
<!-- Title: src/msg.cpp Pages: 1 -->
<svg width="572pt" height="84pt"
 viewBox="0.00 0.00 572.00 84.00" xmlns="http://www.w3.org/2000/svg" xmlns:xlink="http://www.w3.org/1999/xlink">
<g id="graph0" class="graph" transform="scale(1 1) rotate(0) translate(4 80)">
<title>src/msg.cpp</title>
<polygon fill="white" stroke="none" points="-4,4 -4,-80 568,-80 568,4 -4,4"/>
<!-- Node1 -->
<g id="node1" class="node"><title>Node1</title>
<polygon fill="#bfbfbf" stroke="black" points="262.5,-56.5 262.5,-75.5 333.5,-75.5 333.5,-56.5 262.5,-56.5"/>
<text text-anchor="middle" x="298" y="-63.5" font-family="Helvetica,sans-Serif" font-size="10.00">src/msg.cpp</text>
</g>
<!-- Node2 -->
<g id="node2" class="node"><title>Node2</title>
<polygon fill="white" stroke="#bfbfbf" points="0,-0.5 0,-19.5 54,-19.5 54,-0.5 0,-0.5"/>
<text text-anchor="middle" x="27" y="-7.5" font-family="Helvetica,sans-Serif" font-size="10.00">msg.hpp</text>
</g>
<!-- Node1&#45;&gt;Node2 -->
<g id="edge1" class="edge"><title>Node1&#45;&gt;Node2</title>
<path fill="none" stroke="midnightblue" d="M262.441,-58.8283C218.196,-51.0093 140.12,-36.7545 63.8607,-20.0946"/>
<polygon fill="midnightblue" stroke="midnightblue" points="64.6072,-16.6752 54.0886,-17.9441 63.1026,-23.5116 64.6072,-16.6752"/>
</g>
<!-- Node3 -->
<g id="node3" class="node"><title>Node3</title>
<polygon fill="white" stroke="#bfbfbf" points="72,-0.5 72,-19.5 158,-19.5 158,-0.5 72,-0.5"/>
<text text-anchor="middle" x="115" y="-7.5" font-family="Helvetica,sans-Serif" font-size="10.00">../include/zmq.h</text>
</g>
<!-- Node1&#45;&gt;Node3 -->
<g id="edge2" class="edge"><title>Node1&#45;&gt;Node3</title>
<path fill="none" stroke="midnightblue" d="M269.003,-56.4435C237.815,-47.2406 188.07,-32.5617 153.592,-22.3879"/>
<polygon fill="midnightblue" stroke="midnightblue" points="154.443,-18.9898 143.861,-19.5164 152.462,-25.7036 154.443,-18.9898"/>
</g>
<!-- Node4 -->
<g id="node4" class="node"><title>Node4</title>
<polygon fill="white" stroke="#bfbfbf" points="176.5,-0.5 176.5,-19.5 225.5,-19.5 225.5,-0.5 176.5,-0.5"/>
<text text-anchor="middle" x="201" y="-7.5" font-family="Helvetica,sans-Serif" font-size="10.00">string.h</text>
</g>
<!-- Node1&#45;&gt;Node4 -->
<g id="edge3" class="edge"><title>Node1&#45;&gt;Node4</title>
<path fill="none" stroke="midnightblue" d="M282.415,-56.324C267.001,-47.7428 243.188,-34.486 225.29,-24.5224"/>
<polygon fill="midnightblue" stroke="midnightblue" points="226.986,-21.4606 216.546,-19.6545 223.581,-27.5767 226.986,-21.4606"/>
</g>
<!-- Node5 -->
<g id="node5" class="node"><title>Node5</title>
<polygon fill="white" stroke="#bfbfbf" points="244,-0.5 244,-19.5 292,-19.5 292,-0.5 244,-0.5"/>
<text text-anchor="middle" x="268" y="-7.5" font-family="Helvetica,sans-Serif" font-size="10.00">stdlib.h</text>
</g>
<!-- Node1&#45;&gt;Node5 -->
<g id="edge4" class="edge"><title>Node1&#45;&gt;Node5</title>
<path fill="none" stroke="midnightblue" d="M293.046,-56.083C288.896,-48.6127 282.847,-37.7244 277.733,-28.5199"/>
<polygon fill="midnightblue" stroke="midnightblue" points="280.778,-26.7929 272.862,-19.7511 274.659,-30.1924 280.778,-26.7929"/>
</g>
<!-- Node6 -->
<g id="node6" class="node"><title>Node6</title>
<polygon fill="white" stroke="#bfbfbf" points="310.5,-0.5 310.5,-19.5 345.5,-19.5 345.5,-0.5 310.5,-0.5"/>
<text text-anchor="middle" x="328" y="-7.5" font-family="Helvetica,sans-Serif" font-size="10.00">new</text>
</g>
<!-- Node1&#45;&gt;Node6 -->
<g id="edge5" class="edge"><title>Node1&#45;&gt;Node6</title>
<path fill="none" stroke="midnightblue" d="M302.954,-56.083C307.104,-48.6127 313.153,-37.7244 318.267,-28.5199"/>
<polygon fill="midnightblue" stroke="midnightblue" points="321.341,-30.1924 323.138,-19.7511 315.222,-26.7929 321.341,-30.1924"/>
</g>
<!-- Node7 -->
<g id="node7" class="node"><title>Node7</title>
<polygon fill="white" stroke="#bfbfbf" points="363.5,-0.5 363.5,-19.5 422.5,-19.5 422.5,-0.5 363.5,-0.5"/>
<text text-anchor="middle" x="393" y="-7.5" font-family="Helvetica,sans-Serif" font-size="10.00">stdint.hpp</text>
</g>
<!-- Node1&#45;&gt;Node7 -->
<g id="edge6" class="edge"><title>Node1&#45;&gt;Node7</title>
<path fill="none" stroke="midnightblue" d="M313.263,-56.324C328.221,-47.8215 351.255,-34.7288 368.727,-24.7975"/>
<polygon fill="midnightblue" stroke="midnightblue" points="370.81,-27.639 377.774,-19.6545 367.351,-21.5534 370.81,-27.639"/>
</g>
<!-- Node8 -->
<g id="node8" class="node"><title>Node8</title>
<polygon fill="white" stroke="#bfbfbf" points="441,-0.5 441,-19.5 499,-19.5 499,-0.5 441,-0.5"/>
<text text-anchor="middle" x="470" y="-7.5" font-family="Helvetica,sans-Serif" font-size="10.00">likely.hpp</text>
</g>
<!-- Node1&#45;&gt;Node8 -->
<g id="edge7" class="edge"><title>Node1&#45;&gt;Node8</title>
<path fill="none" stroke="midnightblue" d="M325.254,-56.4435C354.441,-47.2801 400.921,-32.6876 433.309,-22.5192"/>
<polygon fill="midnightblue" stroke="midnightblue" points="434.381,-25.8512 442.874,-19.5164 432.284,-19.1726 434.381,-25.8512"/>
</g>
<!-- Node9 -->
<g id="node9" class="node"><title>Node9</title>
<polygon fill="white" stroke="#bfbfbf" points="517.5,-0.5 517.5,-19.5 564.5,-19.5 564.5,-0.5 517.5,-0.5"/>
<text text-anchor="middle" x="541" y="-7.5" font-family="Helvetica,sans-Serif" font-size="10.00">err.hpp</text>
</g>
<!-- Node1&#45;&gt;Node9 -->
<g id="edge8" class="edge"><title>Node1&#45;&gt;Node9</title>
<path fill="none" stroke="midnightblue" d="M333.615,-57.8595C375.304,-49.3793 446.365,-34.5446 507,-20 507.104,-19.9751 507.208,-19.9501 507.312,-19.925"/>
<polygon fill="midnightblue" stroke="midnightblue" points="508.406,-23.2592 517.257,-17.436 506.707,-16.4686 508.406,-23.2592"/>
</g>
</g>
</svg>
