<?xml version="1.0" encoding="UTF-8" standalone="no"?>
<!DOCTYPE svg PUBLIC "-//W3C//DTD SVG 1.1//EN"
 "http://www.w3.org/Graphics/SVG/1.1/DTD/svg11.dtd">
<!-- Generated by graphviz version 2.36.0 (20140111.2315)
 -->
<!-- Title: src/tcp.cpp Pages: 1 -->
<!--zoomable 106 -->
<svg id="main" version="1.1" xmlns="http://www.w3.org/2000/svg" xmlns:xlink="http://www.w3.org/1999/xlink" xml:space="preserve" onload="init(evt)">
<style type="text/css"><![CDATA[
.edge:hover path { stroke: red; }
.edge:hover polygon { stroke: red; fill: red; }
]]></style>
<script type="text/javascript"><![CDATA[
var edges = document.getElementsByTagName('g');
if (edges && edges.length) {
  for (var i=0;i<edges.length;i++) {
    if (edges[i].id.substr(0,4)=='edge') {
      edges[i].setAttribute('class','edge');
    }
  }
}
]]></script>
        <defs>
                <circle id="rim" cx="0" cy="0" r="7"/>
                <circle id="rim2" cx="0" cy="0" r="3.5"/>
                <g id="zoomPlus">
                        <use xlink:href="#rim" fill="#404040">
                                <set attributeName="fill" to="#808080" begin="zoomplus.mouseover" end="zoomplus.mouseout"/>
                        </use>
                        <path d="M-4,0h8M0,-4v8" fill="none" stroke="white" stroke-width="1.5" pointer-events="none"/>
                </g>
                <g id="zoomMin">
                        <use xlink:href="#rim" fill="#404040">
                                <set attributeName="fill" to="#808080" begin="zoomminus.mouseover" end="zoomminus.mouseout"/>
                        </use>
                        <path d="M-4,0h8" fill="none" stroke="white" stroke-width="1.5" pointer-events="none"/>
                </g>
                <g id="dirArrow">
                        <path fill="none" stroke="white" stroke-width="1.5" d="M0,-3.0v7 M-2.5,-0.5L0,-3.0L2.5,-0.5"/>
                </g>
               <g id="resetDef">
                       <use xlink:href="#rim2" fill="#404040">
                               <set attributeName="fill" to="#808080" begin="reset.mouseover" end="reset.mouseout"/>
                       </use>
               </g>
        </defs>

<script type="text/javascript">
var viewWidth = 834;
var viewHeight = 106;
var sectionId = 'dynsection-0';
</script>
<script xlink:href="../../svgpan.js"/>
<svg id="graph" class="graph">
<g id="viewport">
<title>src/tcp.cpp</title>
<polygon fill="white" stroke="none" points="-4,4 -4,-102 830,-102 830,4 -4,4"/>
<!-- Node1 -->
<g id="node1" class="node"><title>Node1</title>
<polygon fill="#bfbfbf" stroke="black" points="384.5,-78.5 384.5,-97.5 449.5,-97.5 449.5,-78.5 384.5,-78.5"/>
<text text-anchor="middle" x="417" y="-85.5" font-family="Helvetica,sans-Serif" font-size="10.00">src/tcp.cpp</text>
</g>
<!-- Node2 -->
<g id="node2" class="node"><title>Node2</title>
<polygon fill="white" stroke="#bfbfbf" points="-0.5,-11.5 -0.5,-30.5 42.5,-30.5 42.5,-11.5 -0.5,-11.5"/>
<text text-anchor="middle" x="21" y="-18.5" font-family="Helvetica,sans-Serif" font-size="10.00">ip.hpp</text>
</g>
<!-- Node1&#45;&gt;Node2 -->
<g id="edge1" class="edge"><title>Node1&#45;&gt;Node2</title>
<path fill="none" stroke="midnightblue" d="M384.267,-84.9179C306.367,-79.6525 111.925,-64.5969 51,-42 47.0843,-40.5477 43.1719,-38.4939 39.5271,-36.2508"/>
<polygon fill="midnightblue" stroke="midnightblue" points="41.3954,-33.2881 31.1686,-30.5197 37.4369,-39.0614 41.3954,-33.2881"/>
</g>
<!-- Node3 -->
<g id="node3" class="node"><title>Node3</title>
<polygon fill="white" stroke="#bfbfbf" points="60.5,-11.5 60.5,-30.5 109.5,-30.5 109.5,-11.5 60.5,-11.5"/>
<text text-anchor="middle" x="85" y="-18.5" font-family="Helvetica,sans-Serif" font-size="10.00">tcp.hpp</text>
</g>
<!-- Node1&#45;&gt;Node3 -->
<g id="edge2" class="edge"><title>Node1&#45;&gt;Node3</title>
<path fill="none" stroke="midnightblue" d="M384.27,-86.1017C328.342,-83.688 211.463,-74.7907 119,-42 114.522,-40.412 109.974,-38.2159 105.723,-35.858"/>
<polygon fill="midnightblue" stroke="midnightblue" points="107.403,-32.7838 97.0339,-30.6106 103.785,-38.776 107.403,-32.7838"/>
</g>
<!-- Node4 -->
<g id="node4" class="node"><title>Node4</title>
<polygon fill="white" stroke="#bfbfbf" points="128,-0.5 128,-41.5 260,-41.5 260,-0.5 128,-0.5"/>
<text text-anchor="start" x="136" y="-29.5" font-family="Helvetica,sans-Serif" font-size="10.00">/home/hebert/Documentos</text>
<text text-anchor="start" x="136" y="-18.5" font-family="Helvetica,sans-Serif" font-size="10.00">/DAS/zeromq&#45;3.2.1/src</text>
<text text-anchor="middle" x="194" y="-7.5" font-family="Helvetica,sans-Serif" font-size="10.00">/fd.hpp</text>
</g>
<!-- Node1&#45;&gt;Node4 -->
<g id="edge3" class="edge"><title>Node1&#45;&gt;Node4</title>
<path fill="none" stroke="midnightblue" d="M387.387,-78.3685C357.616,-69.6908 310.487,-55.9535 270.208,-44.213"/>
<polygon fill="midnightblue" stroke="midnightblue" points="270.978,-40.7919 260.398,-41.3536 269.019,-47.5122 270.978,-40.7919"/>
</g>
<!-- Node5 -->
<g id="node5" class="node"><title>Node5</title>
<polygon fill="white" stroke="#bfbfbf" points="278.5,-11.5 278.5,-30.5 325.5,-30.5 325.5,-11.5 278.5,-11.5"/>
<text text-anchor="middle" x="302" y="-18.5" font-family="Helvetica,sans-Serif" font-size="10.00">err.hpp</text>
</g>
<!-- Node1&#45;&gt;Node5 -->
<g id="edge4" class="edge"><title>Node1&#45;&gt;Node5</title>
<path fill="none" stroke="midnightblue" d="M400.613,-78.4984C383.75,-69.6613 356.8,-55.2887 334,-42 330.692,-40.0722 327.227,-37.9823 323.849,-35.9049"/>
<polygon fill="midnightblue" stroke="midnightblue" points="325.614,-32.8805 315.277,-30.5545 321.907,-38.8187 325.614,-32.8805"/>
</g>
<!-- Node6 -->
<g id="node6" class="node"><title>Node6</title>
<polygon fill="white" stroke="#bfbfbf" points="343.5,-11.5 343.5,-30.5 414.5,-30.5 414.5,-11.5 343.5,-11.5"/>
<text text-anchor="middle" x="379" y="-18.5" font-family="Helvetica,sans-Serif" font-size="10.00">platform.hpp</text>
</g>
<!-- Node1&#45;&gt;Node6 -->
<g id="edge5" class="edge"><title>Node1&#45;&gt;Node6</title>
<path fill="none" stroke="midnightblue" d="M411.875,-78.2338C406.063,-68.2928 396.444,-51.8377 389.108,-39.2892"/>
<polygon fill="midnightblue" stroke="midnightblue" points="392.112,-37.4938 384.044,-30.6273 386.069,-41.0267 392.112,-37.4938"/>
</g>
<!-- Node7 -->
<g id="node7" class="node"><title>Node7</title>
<polygon fill="white" stroke="#bfbfbf" points="433,-11.5 433,-30.5 477,-30.5 477,-11.5 433,-11.5"/>
<text text-anchor="middle" x="455" y="-18.5" font-family="Helvetica,sans-Serif" font-size="10.00">fcntl.h</text>
</g>
<!-- Node1&#45;&gt;Node7 -->
<g id="edge6" class="edge"><title>Node1&#45;&gt;Node7</title>
<path fill="none" stroke="midnightblue" d="M422.125,-78.2338C427.937,-68.2928 437.556,-51.8377 444.892,-39.2892"/>
<polygon fill="midnightblue" stroke="midnightblue" points="447.931,-41.0267 449.956,-30.6273 441.888,-37.4938 447.931,-41.0267"/>
</g>
<!-- Node8 -->
<g id="node8" class="node"><title>Node8</title>
<polygon fill="white" stroke="#bfbfbf" points="495,-11.5 495,-30.5 563,-30.5 563,-11.5 495,-11.5"/>
<text text-anchor="middle" x="529" y="-18.5" font-family="Helvetica,sans-Serif" font-size="10.00">sys/types.h</text>
</g>
<!-- Node1&#45;&gt;Node8 -->
<g id="edge7" class="edge"><title>Node1&#45;&gt;Node8</title>
<path fill="none" stroke="midnightblue" d="M432.105,-78.2338C450.913,-67.3182 483.255,-48.5487 505.358,-35.7209"/>
<polygon fill="midnightblue" stroke="midnightblue" points="507.242,-38.674 514.134,-30.6273 503.729,-32.6197 507.242,-38.674"/>
</g>
<!-- Node9 -->
<g id="node9" class="node"><title>Node9</title>
<polygon fill="white" stroke="#bfbfbf" points="581.5,-11.5 581.5,-30.5 654.5,-30.5 654.5,-11.5 581.5,-11.5"/>
<text text-anchor="middle" x="618" y="-18.5" font-family="Helvetica,sans-Serif" font-size="10.00">sys/socket.h</text>
</g>
<!-- Node1&#45;&gt;Node9 -->
<g id="edge8" class="edge"><title>Node1&#45;&gt;Node9</title>
<path fill="none" stroke="midnightblue" d="M449.745,-78.7943C481.385,-70.5617 530.488,-56.9813 572,-42 578.128,-39.7885 584.603,-37.1615 590.699,-34.5507"/>
<polygon fill="midnightblue" stroke="midnightblue" points="592.115,-37.7516 599.861,-30.5235 589.298,-31.3433 592.115,-37.7516"/>
</g>
<!-- Node10 -->
<g id="node10" class="node"><title>Node10</title>
<polygon fill="white" stroke="#bfbfbf" points="672.5,-11.5 672.5,-30.5 737.5,-30.5 737.5,-11.5 672.5,-11.5"/>
<text text-anchor="middle" x="705" y="-18.5" font-family="Helvetica,sans-Serif" font-size="10.00">netinet/in.h</text>
</g>
<!-- Node1&#45;&gt;Node10 -->
<g id="edge9" class="edge"><title>Node1&#45;&gt;Node10</title>
<path fill="none" stroke="midnightblue" d="M449.509,-83.8128C497.229,-78.5207 588.639,-66.0394 663,-42 668.667,-40.1679 674.555,-37.7315 680.066,-35.1911"/>
<polygon fill="midnightblue" stroke="midnightblue" points="681.996,-38.1439 689.449,-30.614 678.927,-31.8525 681.996,-38.1439"/>
</g>
<!-- Node11 -->
<g id="node11" class="node"><title>Node11</title>
<polygon fill="white" stroke="#bfbfbf" points="755.5,-11.5 755.5,-30.5 826.5,-30.5 826.5,-11.5 755.5,-11.5"/>
<text text-anchor="middle" x="791" y="-18.5" font-family="Helvetica,sans-Serif" font-size="10.00">netinet/tcp.h</text>
</g>
<!-- Node1&#45;&gt;Node11 -->
<g id="edge10" class="edge"><title>Node1&#45;&gt;Node11</title>
<path fill="none" stroke="midnightblue" d="M449.846,-85.5698C509.763,-82.2915 640.366,-72.0418 746,-42 752.476,-40.1583 759.226,-37.5571 765.468,-34.838"/>
<polygon fill="midnightblue" stroke="midnightblue" points="767.132,-37.9251 774.748,-30.5602 764.202,-31.568 767.132,-37.9251"/>
</g>
</g>
</svg>
        <g id="navigator" transform="translate(0 0)" fill="#404254">
                <rect fill="#f2f5e9" fill-opacity="0.5" stroke="#606060" stroke-width=".5" x="0" y="0" width="60" height="60"/>
                <use id="zoomplus" xlink:href="#zoomPlus" x="17" y="9" onmousedown="handleZoom(evt,'in')"/>
                <use id="zoomminus" xlink:href="#zoomMin" x="42" y="9" onmousedown="handleZoom(evt,'out')"/>
                <use id="reset" xlink:href="#resetDef" x="30" y="36" onmousedown="handleReset()"/>
                <g id="arrowUp" xlink:href="#dirArrow" transform="translate(30 24)" onmousedown="handlePan(0,-1)">
                  <use xlink:href="#rim" fill="#404040">
                        <set attributeName="fill" to="#808080" begin="arrowUp.mouseover" end="arrowUp.mouseout"/>
                  </use>
                  <path fill="none" stroke="white" stroke-width="1.5" d="M0,-3.0v7 M-2.5,-0.5L0,-3.0L2.5,-0.5"/>
                </g>
                <g id="arrowRight" xlink:href="#dirArrow" transform="rotate(90) translate(36 -43)" onmousedown="handlePan(1,0)">
                  <use xlink:href="#rim" fill="#404040">
                        <set attributeName="fill" to="#808080" begin="arrowRight.mouseover" end="arrowRight.mouseout"/>
                  </use>
                  <path fill="none" stroke="white" stroke-width="1.5" d="M0,-3.0v7 M-2.5,-0.5L0,-3.0L2.5,-0.5"/>
                </g>
                <g id="arrowDown" xlink:href="#dirArrow" transform="rotate(180) translate(-30 -48)" onmousedown="handlePan(0,1)">
                  <use xlink:href="#rim" fill="#404040">
                        <set attributeName="fill" to="#808080" begin="arrowDown.mouseover" end="arrowDown.mouseout"/>
                  </use>
                  <path fill="none" stroke="white" stroke-width="1.5" d="M0,-3.0v7 M-2.5,-0.5L0,-3.0L2.5,-0.5"/>
                </g>
                <g id="arrowLeft" xlink:href="#dirArrow" transform="rotate(270) translate(-36 17)" onmousedown="handlePan(-1,0)">
                  <use xlink:href="#rim" fill="#404040">
                        <set attributeName="fill" to="#808080" begin="arrowLeft.mouseover" end="arrowLeft.mouseout"/>
                  </use>
                  <path fill="none" stroke="white" stroke-width="1.5" d="M0,-3.0v7 M-2.5,-0.5L0,-3.0L2.5,-0.5"/>
                </g>
        </g>
        <svg viewBox="0 0 15 15" width="100%" height="30px" preserveAspectRatio="xMaxYMin meet">
         <g id="arrow_out" transform="scale(0.3 0.3)">
          <a xlink:href="tcp_8cpp__incl_org.svg" target="_base">
           <rect id="button" ry="5" rx="5" y="6" x="6" height="38" width="38"
                fill="#f2f5e9" fill-opacity="0.5" stroke="#606060" stroke-width="1.0"/>
           <path id="arrow"
             d="M 11.500037,31.436501 C 11.940474,20.09759 22.043105,11.32322 32.158766,21.979434 L 37.068811,17.246167 C 37.068811,17.246167 37.088388,32 37.088388,32 L 22.160133,31.978069 C 22.160133,31.978069 26.997745,27.140456 26.997745,27.140456 C 18.528582,18.264221 13.291696,25.230495 11.500037,31.436501 z"
             style="fill:#404040;"/>
          </a>
         </g>
        </svg>
</svg>
