<?xml version="1.0" encoding="UTF-8" standalone="no"?>
<!DOCTYPE svg PUBLIC "-//W3C//DTD SVG 1.1//EN"
 "http://www.w3.org/Graphics/SVG/1.1/DTD/svg11.dtd">
<!-- Generated by graphviz version 2.36.0 (20140111.2315)
 -->
<!-- Title: src/fq.cpp Pages: 1 -->
<svg width="261pt" height="84pt"
 viewBox="0.00 0.00 261.00 84.00" xmlns="http://www.w3.org/2000/svg" xmlns:xlink="http://www.w3.org/1999/xlink">
<g id="graph0" class="graph" transform="scale(1 1) rotate(0) translate(4 80)">
<title>src/fq.cpp</title>
<polygon fill="white" stroke="none" points="-4,4 -4,-80 257,-80 257,4 -4,4"/>
<!-- Node1 -->
<g id="node1" class="node"><title>Node1</title>
<polygon fill="#bfbfbf" stroke="black" points="93,-56.5 93,-75.5 153,-75.5 153,-56.5 93,-56.5"/>
<text text-anchor="middle" x="123" y="-63.5" font-family="Helvetica,sans-Serif" font-size="10.00">src/fq.cpp</text>
</g>
<!-- Node2 -->
<g id="node2" class="node"><title>Node2</title>
<polygon fill="white" stroke="#bfbfbf" points="0,-0.5 0,-19.5 44,-19.5 44,-0.5 0,-0.5"/>
<text text-anchor="middle" x="22" y="-7.5" font-family="Helvetica,sans-Serif" font-size="10.00">fq.hpp</text>
</g>
<!-- Node1&#45;&gt;Node2 -->
<g id="edge1" class="edge"><title>Node1&#45;&gt;Node2</title>
<path fill="none" stroke="midnightblue" d="M106.773,-56.324C90.649,-47.7034 65.6998,-34.3643 47.0359,-24.3855"/>
<polygon fill="midnightblue" stroke="midnightblue" points="48.6561,-21.283 38.1871,-19.6545 45.3556,-27.456 48.6561,-21.283"/>
</g>
<!-- Node3 -->
<g id="node3" class="node"><title>Node3</title>
<polygon fill="white" stroke="#bfbfbf" points="62.5,-0.5 62.5,-19.5 115.5,-19.5 115.5,-0.5 62.5,-0.5"/>
<text text-anchor="middle" x="89" y="-7.5" font-family="Helvetica,sans-Serif" font-size="10.00">pipe.hpp</text>
</g>
<!-- Node1&#45;&gt;Node3 -->
<g id="edge2" class="edge"><title>Node1&#45;&gt;Node3</title>
<path fill="none" stroke="midnightblue" d="M117.386,-56.083C112.633,-48.5341 105.682,-37.4948 99.8484,-28.2298"/>
<polygon fill="midnightblue" stroke="midnightblue" points="102.8,-26.3486 94.5099,-19.7511 96.8763,-30.0783 102.8,-26.3486"/>
</g>
<!-- Node4 -->
<g id="node4" class="node"><title>Node4</title>
<polygon fill="white" stroke="#bfbfbf" points="133.5,-0.5 133.5,-19.5 180.5,-19.5 180.5,-0.5 133.5,-0.5"/>
<text text-anchor="middle" x="157" y="-7.5" font-family="Helvetica,sans-Serif" font-size="10.00">err.hpp</text>
</g>
<!-- Node1&#45;&gt;Node4 -->
<g id="edge3" class="edge"><title>Node1&#45;&gt;Node4</title>
<path fill="none" stroke="midnightblue" d="M128.614,-56.083C133.367,-48.5341 140.318,-37.4948 146.152,-28.2298"/>
<polygon fill="midnightblue" stroke="midnightblue" points="149.124,-30.0783 151.49,-19.7511 143.2,-26.3486 149.124,-30.0783"/>
</g>
<!-- Node5 -->
<g id="node5" class="node"><title>Node5</title>
<polygon fill="white" stroke="#bfbfbf" points="199,-0.5 199,-19.5 253,-19.5 253,-0.5 199,-0.5"/>
<text text-anchor="middle" x="226" y="-7.5" font-family="Helvetica,sans-Serif" font-size="10.00">msg.hpp</text>
</g>
<!-- Node1&#45;&gt;Node5 -->
<g id="edge4" class="edge"><title>Node1&#45;&gt;Node5</title>
<path fill="none" stroke="midnightblue" d="M139.549,-56.324C155.992,-47.7034 181.435,-34.3643 200.468,-24.3855"/>
<polygon fill="midnightblue" stroke="midnightblue" points="202.261,-27.3977 209.492,-19.6545 199.011,-21.198 202.261,-27.3977"/>
</g>
</g>
</svg>
