<?xml version="1.0" encoding="UTF-8" standalone="no"?>
<!DOCTYPE svg PUBLIC "-//W3C//DTD SVG 1.1//EN"
 "http://www.w3.org/Graphics/SVG/1.1/DTD/svg11.dtd">
<!-- Generated by graphviz version 2.36.0 (20140111.2315)
 -->
<!-- Title: src/mailbox.cpp Pages: 1 -->
<svg width="141pt" height="84pt"
 viewBox="0.00 0.00 141.00 84.00" xmlns="http://www.w3.org/2000/svg" xmlns:xlink="http://www.w3.org/1999/xlink">
<g id="graph0" class="graph" transform="scale(1 1) rotate(0) translate(4 80)">
<title>src/mailbox.cpp</title>
<polygon fill="white" stroke="none" points="-4,4 -4,-80 137,-80 137,4 -4,4"/>
<!-- Node1 -->
<g id="node1" class="node"><title>Node1</title>
<polygon fill="#bfbfbf" stroke="black" points="29,-56.5 29,-75.5 115,-75.5 115,-56.5 29,-56.5"/>
<text text-anchor="middle" x="72" y="-63.5" font-family="Helvetica,sans-Serif" font-size="10.00">src/mailbox.cpp</text>
</g>
<!-- Node2 -->
<g id="node2" class="node"><title>Node2</title>
<polygon fill="white" stroke="#bfbfbf" points="-0.5,-0.5 -0.5,-19.5 68.5,-19.5 68.5,-0.5 -0.5,-0.5"/>
<text text-anchor="middle" x="34" y="-7.5" font-family="Helvetica,sans-Serif" font-size="10.00">mailbox.hpp</text>
</g>
<!-- Node1&#45;&gt;Node2 -->
<g id="edge1" class="edge"><title>Node1&#45;&gt;Node2</title>
<path fill="none" stroke="midnightblue" d="M65.7251,-56.083C60.3575,-48.4554 52.4824,-37.2645 45.9213,-27.9408"/>
<polygon fill="midnightblue" stroke="midnightblue" points="48.7755,-25.9149 40.1582,-19.7511 43.0508,-29.9434 48.7755,-25.9149"/>
</g>
<!-- Node3 -->
<g id="node3" class="node"><title>Node3</title>
<polygon fill="white" stroke="#bfbfbf" points="86.5,-0.5 86.5,-19.5 133.5,-19.5 133.5,-0.5 86.5,-0.5"/>
<text text-anchor="middle" x="110" y="-7.5" font-family="Helvetica,sans-Serif" font-size="10.00">err.hpp</text>
</g>
<!-- Node1&#45;&gt;Node3 -->
<g id="edge2" class="edge"><title>Node1&#45;&gt;Node3</title>
<path fill="none" stroke="midnightblue" d="M78.2749,-56.083C83.6425,-48.4554 91.5176,-37.2645 98.0787,-27.9408"/>
<polygon fill="midnightblue" stroke="midnightblue" points="100.949,-29.9434 103.842,-19.7511 95.2245,-25.9149 100.949,-29.9434"/>
</g>
</g>
</svg>
