<?xml version="1.0" encoding="UTF-8" standalone="no"?>
<!DOCTYPE svg PUBLIC "-//W3C//DTD SVG 1.1//EN"
 "http://www.w3.org/Graphics/SVG/1.1/DTD/svg11.dtd">
<!-- Generated by graphviz version 2.36.0 (20140111.2315)
 -->
<!-- Title: src/decoder.cpp Pages: 1 -->
<svg width="1420pt" height="106pt"
 viewBox="0.00 0.00 1420.00 106.00" xmlns="http://www.w3.org/2000/svg" xmlns:xlink="http://www.w3.org/1999/xlink">
<g id="graph0" class="graph" transform="scale(1 1) rotate(0) translate(4 102)">
<title>src/decoder.cpp</title>
<polygon fill="white" stroke="none" points="-4,4 -4,-102 1416,-102 1416,4 -4,4"/>
<!-- Node1 -->
<g id="node1" class="node"><title>Node1</title>
<polygon fill="#bfbfbf" stroke="black" points="537,-78.5 537,-97.5 623,-97.5 623,-78.5 537,-78.5"/>
<text text-anchor="middle" x="580" y="-85.5" font-family="Helvetica,sans-Serif" font-size="10.00">src/decoder.cpp</text>
</g>
<!-- Node2 -->
<g id="node2" class="node"><title>Node2</title>
<polygon fill="white" stroke="#bfbfbf" points="0,-11.5 0,-30.5 48,-30.5 48,-11.5 0,-11.5"/>
<text text-anchor="middle" x="24" y="-18.5" font-family="Helvetica,sans-Serif" font-size="10.00">stdlib.h</text>
</g>
<!-- Node1&#45;&gt;Node2 -->
<g id="edge1" class="edge"><title>Node1&#45;&gt;Node2</title>
<path fill="none" stroke="midnightblue" d="M536.971,-85.8156C428.446,-82.4275 145.914,-71.0069 57,-42 52.5079,-40.5345 47.9862,-38.3584 43.7921,-35.9745"/>
<polygon fill="midnightblue" stroke="midnightblue" points="45.6016,-32.9779 35.2726,-30.6191 41.8761,-38.9043 45.6016,-32.9779"/>
</g>
<!-- Node3 -->
<g id="node3" class="node"><title>Node3</title>
<polygon fill="white" stroke="#bfbfbf" points="66.5,-11.5 66.5,-30.5 115.5,-30.5 115.5,-11.5 66.5,-11.5"/>
<text text-anchor="middle" x="91" y="-18.5" font-family="Helvetica,sans-Serif" font-size="10.00">string.h</text>
</g>
<!-- Node1&#45;&gt;Node3 -->
<g id="edge2" class="edge"><title>Node1&#45;&gt;Node3</title>
<path fill="none" stroke="midnightblue" d="M536.888,-85.1028C438.675,-80.4001 200.941,-66.758 125,-42 120.408,-40.5028 115.765,-38.3125 111.448,-35.9246"/>
<polygon fill="midnightblue" stroke="midnightblue" points="113.026,-32.7876 102.665,-30.574 109.384,-38.7656 113.026,-32.7876"/>
</g>
<!-- Node4 -->
<g id="node4" class="node"><title>Node4</title>
<polygon fill="white" stroke="#bfbfbf" points="134,-11.5 134,-30.5 174,-30.5 174,-11.5 134,-11.5"/>
<text text-anchor="middle" x="154" y="-18.5" font-family="Helvetica,sans-Serif" font-size="10.00">limits</text>
</g>
<!-- Node1&#45;&gt;Node4 -->
<g id="edge3" class="edge"><title>Node1&#45;&gt;Node4</title>
<path fill="none" stroke="midnightblue" d="M536.993,-84.7684C448.097,-79.7273 247.066,-65.9912 183,-42 179.288,-40.6099 175.597,-38.6417 172.153,-36.4773"/>
<polygon fill="midnightblue" stroke="midnightblue" points="173.961,-33.4686 163.775,-30.5518 169.919,-39.1837 173.961,-33.4686"/>
</g>
<!-- Node5 -->
<g id="node5" class="node"><title>Node5</title>
<polygon fill="white" stroke="#bfbfbf" points="192.5,-11.5 192.5,-30.5 263.5,-30.5 263.5,-11.5 192.5,-11.5"/>
<text text-anchor="middle" x="228" y="-18.5" font-family="Helvetica,sans-Serif" font-size="10.00">platform.hpp</text>
</g>
<!-- Node1&#45;&gt;Node5 -->
<g id="edge4" class="edge"><title>Node1&#45;&gt;Node5</title>
<path fill="none" stroke="midnightblue" d="M536.756,-84.3849C476.599,-79.9131 364.713,-68.5596 273,-42 266.533,-40.1272 259.787,-37.5141 253.544,-34.7933"/>
<polygon fill="midnightblue" stroke="midnightblue" points="254.81,-31.523 244.263,-30.5201 251.883,-37.8815 254.81,-31.523"/>
</g>
<!-- Node6 -->
<g id="node6" class="node"><title>Node6</title>
<polygon fill="white" stroke="#bfbfbf" points="282,-11.5 282,-30.5 352,-30.5 352,-11.5 282,-11.5"/>
<text text-anchor="middle" x="317" y="-18.5" font-family="Helvetica,sans-Serif" font-size="10.00">decoder.hpp</text>
</g>
<!-- Node1&#45;&gt;Node6 -->
<g id="edge5" class="edge"><title>Node1&#45;&gt;Node6</title>
<path fill="none" stroke="midnightblue" d="M536.874,-81.062C492.167,-74.2319 420.609,-61.4 361,-42 355.071,-40.0702 348.876,-37.5755 343.07,-35.0065"/>
<polygon fill="midnightblue" stroke="midnightblue" points="344.325,-31.7306 333.78,-30.6994 341.38,-38.0812 344.325,-31.7306"/>
</g>
<!-- Node7 -->
<g id="node7" class="node"><title>Node7</title>
<polygon fill="white" stroke="#bfbfbf" points="370,-11.5 370,-30.5 422,-30.5 422,-11.5 370,-11.5"/>
<text text-anchor="middle" x="396" y="-18.5" font-family="Helvetica,sans-Serif" font-size="10.00">stddef.h</text>
</g>
<!-- Node1&#45;&gt;Node7 -->
<g id="edge6" class="edge"><title>Node1&#45;&gt;Node7</title>
<path fill="none" stroke="midnightblue" d="M543.669,-78.4816C512.99,-70.7131 468.234,-58.0164 431,-42 426.689,-40.1454 422.234,-37.8901 418.008,-35.5711"/>
<polygon fill="midnightblue" stroke="midnightblue" points="419.673,-32.4914 409.263,-30.524 416.174,-38.5541 419.673,-32.4914"/>
</g>
<!-- Node8 -->
<g id="node8" class="node"><title>Node8</title>
<polygon fill="white" stroke="#bfbfbf" points="440,-11.5 440,-30.5 496,-30.5 496,-11.5 440,-11.5"/>
<text text-anchor="middle" x="468" y="-18.5" font-family="Helvetica,sans-Serif" font-size="10.00">algorithm</text>
</g>
<!-- Node1&#45;&gt;Node8 -->
<g id="edge7" class="edge"><title>Node1&#45;&gt;Node8</title>
<path fill="none" stroke="midnightblue" d="M564.895,-78.2338C546.087,-67.3182 513.745,-48.5487 491.642,-35.7209"/>
<polygon fill="midnightblue" stroke="midnightblue" points="493.271,-32.6197 482.866,-30.6273 489.758,-38.674 493.271,-32.6197"/>
</g>
<!-- Node9 -->
<g id="node9" class="node"><title>Node9</title>
<polygon fill="white" stroke="#bfbfbf" points="514,-0.5 514,-41.5 646,-41.5 646,-0.5 514,-0.5"/>
<text text-anchor="start" x="522" y="-29.5" font-family="Helvetica,sans-Serif" font-size="10.00">/home/hebert/Documentos</text>
<text text-anchor="start" x="522" y="-18.5" font-family="Helvetica,sans-Serif" font-size="10.00">/DAS/zeromq&#45;3.2.1/src</text>
<text text-anchor="middle" x="580" y="-7.5" font-family="Helvetica,sans-Serif" font-size="10.00">/err.hpp</text>
</g>
<!-- Node1&#45;&gt;Node9 -->
<g id="edge8" class="edge"><title>Node1&#45;&gt;Node9</title>
<path fill="none" stroke="midnightblue" d="M580,-78.2338C580,-71.3628 580,-61.3799 580,-51.7259"/>
<polygon fill="midnightblue" stroke="midnightblue" points="583.5,-51.542 580,-41.5421 576.5,-51.5421 583.5,-51.542"/>
</g>
<!-- Node10 -->
<g id="node10" class="node"><title>Node10</title>
<polygon fill="white" stroke="#bfbfbf" points="664,-0.5 664,-41.5 796,-41.5 796,-0.5 664,-0.5"/>
<text text-anchor="start" x="672" y="-29.5" font-family="Helvetica,sans-Serif" font-size="10.00">/home/hebert/Documentos</text>
<text text-anchor="start" x="672" y="-18.5" font-family="Helvetica,sans-Serif" font-size="10.00">/DAS/zeromq&#45;3.2.1/src</text>
<text text-anchor="middle" x="730" y="-7.5" font-family="Helvetica,sans-Serif" font-size="10.00">/msg.hpp</text>
</g>
<!-- Node1&#45;&gt;Node10 -->
<g id="edge9" class="edge"><title>Node1&#45;&gt;Node10</title>
<path fill="none" stroke="midnightblue" d="M599.919,-78.3685C619.083,-70.0642 648.939,-57.1263 675.217,-45.7391"/>
<polygon fill="midnightblue" stroke="midnightblue" points="676.927,-48.813 684.711,-41.6254 674.143,-42.3901 676.927,-48.813"/>
</g>
<!-- Node11 -->
<g id="node11" class="node"><title>Node11</title>
<polygon fill="white" stroke="#bfbfbf" points="814,-0.5 814,-41.5 946,-41.5 946,-0.5 814,-0.5"/>
<text text-anchor="start" x="822" y="-29.5" font-family="Helvetica,sans-Serif" font-size="10.00">/home/hebert/Documentos</text>
<text text-anchor="start" x="822" y="-18.5" font-family="Helvetica,sans-Serif" font-size="10.00">/DAS/zeromq&#45;3.2.1/src</text>
<text text-anchor="middle" x="880" y="-7.5" font-family="Helvetica,sans-Serif" font-size="10.00">/i_decoder.hpp</text>
</g>
<!-- Node1&#45;&gt;Node11 -->
<g id="edge10" class="edge"><title>Node1&#45;&gt;Node11</title>
<path fill="none" stroke="midnightblue" d="M623.309,-79.1794C666.613,-71.1723 735.33,-57.9615 803.719,-42.2338"/>
<polygon fill="midnightblue" stroke="midnightblue" points="804.853,-45.5639 813.804,-39.8954 803.271,-38.7448 804.853,-45.5639"/>
</g>
<!-- Node12 -->
<g id="node12" class="node"><title>Node12</title>
<polygon fill="white" stroke="#bfbfbf" points="964,-0.5 964,-41.5 1096,-41.5 1096,-0.5 964,-0.5"/>
<text text-anchor="start" x="972" y="-29.5" font-family="Helvetica,sans-Serif" font-size="10.00">/home/hebert/Documentos</text>
<text text-anchor="start" x="972" y="-18.5" font-family="Helvetica,sans-Serif" font-size="10.00">/DAS/zeromq&#45;3.2.1/src</text>
<text text-anchor="middle" x="1030" y="-7.5" font-family="Helvetica,sans-Serif" font-size="10.00">/stdint.hpp</text>
</g>
<!-- Node1&#45;&gt;Node12 -->
<g id="edge11" class="edge"><title>Node1&#45;&gt;Node12</title>
<path fill="none" stroke="midnightblue" d="M623.046,-83.8229C691.24,-78.3573 828.397,-65.6076 953.711,-42.1114"/>
<polygon fill="midnightblue" stroke="midnightblue" points="954.695,-45.487 963.864,-40.1787 953.386,-38.6104 954.695,-45.487"/>
</g>
<!-- Node13 -->
<g id="node13" class="node"><title>Node13</title>
<polygon fill="white" stroke="#bfbfbf" points="1114.5,-11.5 1114.5,-30.5 1199.5,-30.5 1199.5,-11.5 1114.5,-11.5"/>
<text text-anchor="middle" x="1157" y="-18.5" font-family="Helvetica,sans-Serif" font-size="10.00">i_msg_sink.hpp</text>
</g>
<!-- Node1&#45;&gt;Node13 -->
<g id="edge12" class="edge"><title>Node1&#45;&gt;Node13</title>
<path fill="none" stroke="midnightblue" d="M623.164,-87.3752C713.706,-87.2772 929.604,-82.3912 1105,-42 1113.09,-40.138 1121.59,-37.2783 1129.33,-34.2985"/>
<polygon fill="midnightblue" stroke="midnightblue" points="1130.67,-37.5288 1138.63,-30.5259 1128.04,-31.0424 1130.67,-37.5288"/>
</g>
<!-- Node14 -->
<g id="node14" class="node"><title>Node14</title>
<polygon fill="white" stroke="#bfbfbf" points="1218,-11.5 1218,-30.5 1276,-30.5 1276,-11.5 1218,-11.5"/>
<text text-anchor="middle" x="1247" y="-18.5" font-family="Helvetica,sans-Serif" font-size="10.00">likely.hpp</text>
</g>
<!-- Node1&#45;&gt;Node14 -->
<g id="edge13" class="edge"><title>Node1&#45;&gt;Node14</title>
<path fill="none" stroke="midnightblue" d="M623.276,-86.1476C746.526,-83.3648 1097.6,-72.8744 1208,-42 1213.59,-40.4374 1219.31,-38.0313 1224.58,-35.4228"/>
<polygon fill="midnightblue" stroke="midnightblue" points="1226.32,-38.4612 1233.48,-30.6475 1223.01,-32.2936 1226.32,-38.4612"/>
</g>
<!-- Node15 -->
<g id="node15" class="node"><title>Node15</title>
<polygon fill="white" stroke="#bfbfbf" points="1294.5,-11.5 1294.5,-30.5 1347.5,-30.5 1347.5,-11.5 1294.5,-11.5"/>
<text text-anchor="middle" x="1321" y="-18.5" font-family="Helvetica,sans-Serif" font-size="10.00">wire.hpp</text>
</g>
<!-- Node1&#45;&gt;Node15 -->
<g id="edge14" class="edge"><title>Node1&#45;&gt;Node15</title>
<path fill="none" stroke="midnightblue" d="M623.239,-86.6553C756.419,-85.2144 1158.93,-77.9227 1284,-42 1289.22,-40.5014 1294.53,-38.1865 1299.43,-35.6558"/>
<polygon fill="midnightblue" stroke="midnightblue" points="1301.25,-38.6466 1308.24,-30.6812 1297.81,-32.5516 1301.25,-38.6466"/>
</g>
<!-- Node16 -->
<g id="node16" class="node"><title>Node16</title>
<polygon fill="white" stroke="#bfbfbf" points="1365.5,-11.5 1365.5,-30.5 1412.5,-30.5 1412.5,-11.5 1365.5,-11.5"/>
<text text-anchor="middle" x="1389" y="-18.5" font-family="Helvetica,sans-Serif" font-size="10.00">err.hpp</text>
</g>
<!-- Node1&#45;&gt;Node16 -->
<g id="edge15" class="edge"><title>Node1&#45;&gt;Node16</title>
<path fill="none" stroke="midnightblue" d="M623.173,-87.2218C765.339,-87.5284 1217.63,-85.0142 1356,-42 1360.59,-40.5744 1365.19,-38.3788 1369.45,-35.9564"/>
<polygon fill="midnightblue" stroke="midnightblue" points="1371.48,-38.8106 1378.05,-30.5017 1367.73,-32.8977 1371.48,-38.8106"/>
</g>
</g>
</svg>
