<?xml version="1.0" encoding="UTF-8" standalone="no"?>
<!DOCTYPE svg PUBLIC "-//W3C//DTD SVG 1.1//EN"
 "http://www.w3.org/Graphics/SVG/1.1/DTD/svg11.dtd">
<!-- Generated by graphviz version 2.36.0 (20140111.2315)
 -->
<!-- Title: src/kqueue.cpp Pages: 1 -->
<svg width="225pt" height="106pt"
 viewBox="0.00 0.00 225.00 106.00" xmlns="http://www.w3.org/2000/svg" xmlns:xlink="http://www.w3.org/1999/xlink">
<g id="graph0" class="graph" transform="scale(1 1) rotate(0) translate(4 102)">
<title>src/kqueue.cpp</title>
<polygon fill="white" stroke="none" points="-4,4 -4,-102 221,-102 221,4 -4,4"/>
<!-- Node1 -->
<g id="node1" class="node"><title>Node1</title>
<polygon fill="#bfbfbf" stroke="black" points="50.5,-78.5 50.5,-97.5 133.5,-97.5 133.5,-78.5 50.5,-78.5"/>
<text text-anchor="middle" x="92" y="-85.5" font-family="Helvetica,sans-Serif" font-size="10.00">src/kqueue.cpp</text>
</g>
<!-- Node2 -->
<g id="node2" class="node"><title>Node2</title>
<polygon fill="white" stroke="#bfbfbf" points="-0.5,-11.5 -0.5,-30.5 66.5,-30.5 66.5,-11.5 -0.5,-11.5"/>
<text text-anchor="middle" x="33" y="-18.5" font-family="Helvetica,sans-Serif" font-size="10.00">kqueue.hpp</text>
</g>
<!-- Node1&#45;&gt;Node2 -->
<g id="edge1" class="edge"><title>Node1&#45;&gt;Node2</title>
<path fill="none" stroke="midnightblue" d="M84.043,-78.2338C74.7542,-68.0004 59.1998,-50.8642 47.6977,-38.1924"/>
<polygon fill="midnightblue" stroke="midnightblue" points="50.1436,-35.6795 40.8309,-30.6273 44.9604,-40.3843 50.1436,-35.6795"/>
</g>
<!-- Node3 -->
<g id="node3" class="node"><title>Node3</title>
<polygon fill="white" stroke="#bfbfbf" points="85,-0.5 85,-41.5 217,-41.5 217,-0.5 85,-0.5"/>
<text text-anchor="start" x="93" y="-29.5" font-family="Helvetica,sans-Serif" font-size="10.00">/home/hebert/Documentos</text>
<text text-anchor="start" x="93" y="-18.5" font-family="Helvetica,sans-Serif" font-size="10.00">/DAS/zeromq&#45;3.2.1/src</text>
<text text-anchor="middle" x="151" y="-7.5" font-family="Helvetica,sans-Serif" font-size="10.00">/poller.hpp</text>
</g>
<!-- Node1&#45;&gt;Node3 -->
<g id="edge2" class="edge"><title>Node1&#45;&gt;Node3</title>
<path fill="none" stroke="midnightblue" d="M99.957,-78.2338C106.791,-70.705 117.016,-59.4398 126.524,-48.9649"/>
<polygon fill="midnightblue" stroke="midnightblue" points="129.132,-51.299 133.262,-41.5421 123.949,-46.5943 129.132,-51.299"/>
</g>
</g>
</svg>
