<?xml version="1.0" encoding="UTF-8" standalone="no"?>
<!DOCTYPE svg PUBLIC "-//W3C//DTD SVG 1.1//EN"
 "http://www.w3.org/Graphics/SVG/1.1/DTD/svg11.dtd">
<!-- Generated by graphviz version 2.36.0 (20140111.2315)
 -->
<!-- Title: src/router.cpp Pages: 1 -->
<svg width="438pt" height="84pt"
 viewBox="0.00 0.00 438.00 84.00" xmlns="http://www.w3.org/2000/svg" xmlns:xlink="http://www.w3.org/1999/xlink">
<g id="graph0" class="graph" transform="scale(1 1) rotate(0) translate(4 80)">
<title>src/router.cpp</title>
<polygon fill="white" stroke="none" points="-4,4 -4,-80 434,-80 434,4 -4,4"/>
<!-- Node1 -->
<g id="node1" class="node"><title>Node1</title>
<polygon fill="#bfbfbf" stroke="black" points="176.5,-56.5 176.5,-75.5 253.5,-75.5 253.5,-56.5 176.5,-56.5"/>
<text text-anchor="middle" x="215" y="-63.5" font-family="Helvetica,sans-Serif" font-size="10.00">src/router.cpp</text>
</g>
<!-- Node2 -->
<g id="node2" class="node"><title>Node2</title>
<polygon fill="white" stroke="#bfbfbf" points="0,-0.5 0,-19.5 60,-19.5 60,-0.5 0,-0.5"/>
<text text-anchor="middle" x="30" y="-7.5" font-family="Helvetica,sans-Serif" font-size="10.00">router.hpp</text>
</g>
<!-- Node1&#45;&gt;Node2 -->
<g id="edge1" class="edge"><title>Node1&#45;&gt;Node2</title>
<path fill="none" stroke="midnightblue" d="M185.686,-56.4435C154.158,-47.2406 103.869,-32.5617 69.0143,-22.3879"/>
<polygon fill="midnightblue" stroke="midnightblue" points="69.7568,-18.9587 59.1767,-19.5164 67.7954,-25.6783 69.7568,-18.9587"/>
</g>
<!-- Node3 -->
<g id="node3" class="node"><title>Node3</title>
<polygon fill="white" stroke="#bfbfbf" points="78.5,-0.5 78.5,-19.5 131.5,-19.5 131.5,-0.5 78.5,-0.5"/>
<text text-anchor="middle" x="105" y="-7.5" font-family="Helvetica,sans-Serif" font-size="10.00">pipe.hpp</text>
</g>
<!-- Node1&#45;&gt;Node3 -->
<g id="edge2" class="edge"><title>Node1&#45;&gt;Node3</title>
<path fill="none" stroke="midnightblue" d="M197.327,-56.324C179.606,-47.6247 152.097,-34.1202 131.712,-24.113"/>
<polygon fill="midnightblue" stroke="midnightblue" points="133.149,-20.9195 122.63,-19.6545 130.064,-27.2031 133.149,-20.9195"/>
</g>
<!-- Node4 -->
<g id="node4" class="node"><title>Node4</title>
<polygon fill="white" stroke="#bfbfbf" points="149.5,-0.5 149.5,-19.5 202.5,-19.5 202.5,-0.5 149.5,-0.5"/>
<text text-anchor="middle" x="176" y="-7.5" font-family="Helvetica,sans-Serif" font-size="10.00">wire.hpp</text>
</g>
<!-- Node1&#45;&gt;Node4 -->
<g id="edge3" class="edge"><title>Node1&#45;&gt;Node4</title>
<path fill="none" stroke="midnightblue" d="M208.56,-56.083C203.051,-48.4554 194.969,-37.2645 188.235,-27.9408"/>
<polygon fill="midnightblue" stroke="midnightblue" points="191.013,-25.8087 182.32,-19.7511 185.338,-29.9071 191.013,-25.8087"/>
</g>
<!-- Node5 -->
<g id="node5" class="node"><title>Node5</title>
<polygon fill="white" stroke="#bfbfbf" points="221,-0.5 221,-19.5 289,-19.5 289,-0.5 221,-0.5"/>
<text text-anchor="middle" x="255" y="-7.5" font-family="Helvetica,sans-Serif" font-size="10.00">random.hpp</text>
</g>
<!-- Node1&#45;&gt;Node5 -->
<g id="edge4" class="edge"><title>Node1&#45;&gt;Node5</title>
<path fill="none" stroke="midnightblue" d="M221.605,-56.083C227.255,-48.4554 235.545,-37.2645 242.451,-27.9408"/>
<polygon fill="midnightblue" stroke="midnightblue" points="245.378,-29.87 248.518,-19.7511 239.753,-25.7034 245.378,-29.87"/>
</g>
<!-- Node6 -->
<g id="node6" class="node"><title>Node6</title>
<polygon fill="white" stroke="#bfbfbf" points="307,-0.5 307,-19.5 365,-19.5 365,-0.5 307,-0.5"/>
<text text-anchor="middle" x="336" y="-7.5" font-family="Helvetica,sans-Serif" font-size="10.00">likely.hpp</text>
</g>
<!-- Node1&#45;&gt;Node6 -->
<g id="edge5" class="edge"><title>Node1&#45;&gt;Node6</title>
<path fill="none" stroke="midnightblue" d="M234.173,-56.4435C253.909,-47.6356 284.885,-33.8116 307.493,-23.722"/>
<polygon fill="midnightblue" stroke="midnightblue" points="309.211,-26.788 316.917,-19.5164 306.359,-20.3957 309.211,-26.788"/>
</g>
<!-- Node7 -->
<g id="node7" class="node"><title>Node7</title>
<polygon fill="white" stroke="#bfbfbf" points="383.5,-0.5 383.5,-19.5 430.5,-19.5 430.5,-0.5 383.5,-0.5"/>
<text text-anchor="middle" x="407" y="-7.5" font-family="Helvetica,sans-Serif" font-size="10.00">err.hpp</text>
</g>
<!-- Node1&#45;&gt;Node7 -->
<g id="edge6" class="edge"><title>Node1&#45;&gt;Node7</title>
<path fill="none" stroke="midnightblue" d="M245.423,-56.4435C280.262,-46.6451 337.172,-30.6391 373.321,-20.4723"/>
<polygon fill="midnightblue" stroke="midnightblue" points="374.698,-23.7207 383.377,-17.6439 372.803,-16.9821 374.698,-23.7207"/>
</g>
</g>
</svg>
