<?xml version="1.0" encoding="UTF-8" standalone="no"?>
<!DOCTYPE svg PUBLIC "-//W3C//DTD SVG 1.1//EN"
 "http://www.w3.org/Graphics/SVG/1.1/DTD/svg11.dtd">
<!-- Generated by graphviz version 2.36.0 (20140111.2315)
 -->
<!-- Title: src/trie.cpp Pages: 1 -->
<svg width="405pt" height="84pt"
 viewBox="0.00 0.00 405.00 84.00" xmlns="http://www.w3.org/2000/svg" xmlns:xlink="http://www.w3.org/1999/xlink">
<g id="graph0" class="graph" transform="scale(1 1) rotate(0) translate(4 80)">
<title>src/trie.cpp</title>
<polygon fill="white" stroke="none" points="-4,4 -4,-80 401,-80 401,4 -4,4"/>
<!-- Node1 -->
<g id="node1" class="node"><title>Node1</title>
<polygon fill="#bfbfbf" stroke="black" points="156.5,-56.5 156.5,-75.5 221.5,-75.5 221.5,-56.5 156.5,-56.5"/>
<text text-anchor="middle" x="189" y="-63.5" font-family="Helvetica,sans-Serif" font-size="10.00">src/trie.cpp</text>
</g>
<!-- Node2 -->
<g id="node2" class="node"><title>Node2</title>
<polygon fill="white" stroke="#bfbfbf" points="0,-0.5 0,-19.5 48,-19.5 48,-0.5 0,-0.5"/>
<text text-anchor="middle" x="24" y="-7.5" font-family="Helvetica,sans-Serif" font-size="10.00">stdlib.h</text>
</g>
<!-- Node1&#45;&gt;Node2 -->
<g id="edge1" class="edge"><title>Node1&#45;&gt;Node2</title>
<path fill="none" stroke="midnightblue" d="M162.855,-56.4435C134.403,-47.1318 88.8195,-32.2137 57.6993,-22.0289"/>
<polygon fill="midnightblue" stroke="midnightblue" points="58.7362,-18.6856 48.1436,-18.9015 56.5589,-25.3384 58.7362,-18.6856"/>
</g>
<!-- Node3 -->
<g id="node3" class="node"><title>Node3</title>
<polygon fill="white" stroke="#bfbfbf" points="66.5,-0.5 66.5,-19.5 101.5,-19.5 101.5,-0.5 66.5,-0.5"/>
<text text-anchor="middle" x="84" y="-7.5" font-family="Helvetica,sans-Serif" font-size="10.00">new</text>
</g>
<!-- Node1&#45;&gt;Node3 -->
<g id="edge2" class="edge"><title>Node1&#45;&gt;Node3</title>
<path fill="none" stroke="midnightblue" d="M172.13,-56.324C155.291,-47.6641 129.193,-34.2424 109.762,-24.249"/>
<polygon fill="midnightblue" stroke="midnightblue" points="111.322,-21.1155 100.828,-19.6545 108.12,-27.3405 111.322,-21.1155"/>
</g>
<!-- Node4 -->
<g id="node4" class="node"><title>Node4</title>
<polygon fill="white" stroke="#bfbfbf" points="120,-0.5 120,-19.5 176,-19.5 176,-0.5 120,-0.5"/>
<text text-anchor="middle" x="148" y="-7.5" font-family="Helvetica,sans-Serif" font-size="10.00">algorithm</text>
</g>
<!-- Node1&#45;&gt;Node4 -->
<g id="edge3" class="edge"><title>Node1&#45;&gt;Node4</title>
<path fill="none" stroke="midnightblue" d="M182.23,-56.083C176.438,-48.4554 167.942,-37.2645 160.862,-27.9408"/>
<polygon fill="midnightblue" stroke="midnightblue" points="163.479,-25.5991 154.644,-19.7511 157.904,-29.8321 163.479,-25.5991"/>
</g>
<!-- Node5 -->
<g id="node5" class="node"><title>Node5</title>
<polygon fill="white" stroke="#bfbfbf" points="194.5,-0.5 194.5,-19.5 265.5,-19.5 265.5,-0.5 194.5,-0.5"/>
<text text-anchor="middle" x="230" y="-7.5" font-family="Helvetica,sans-Serif" font-size="10.00">platform.hpp</text>
</g>
<!-- Node1&#45;&gt;Node5 -->
<g id="edge4" class="edge"><title>Node1&#45;&gt;Node5</title>
<path fill="none" stroke="midnightblue" d="M195.77,-56.083C201.562,-48.4554 210.058,-37.2645 217.138,-27.9408"/>
<polygon fill="midnightblue" stroke="midnightblue" points="220.096,-29.8321 223.356,-19.7511 214.521,-25.5991 220.096,-29.8321"/>
</g>
<!-- Node6 -->
<g id="node6" class="node"><title>Node6</title>
<polygon fill="white" stroke="#bfbfbf" points="283.5,-0.5 283.5,-19.5 330.5,-19.5 330.5,-0.5 283.5,-0.5"/>
<text text-anchor="middle" x="307" y="-7.5" font-family="Helvetica,sans-Serif" font-size="10.00">err.hpp</text>
</g>
<!-- Node1&#45;&gt;Node6 -->
<g id="edge5" class="edge"><title>Node1&#45;&gt;Node6</title>
<path fill="none" stroke="midnightblue" d="M207.697,-56.4435C226.944,-47.6356 257.152,-33.8116 279.2,-23.722"/>
<polygon fill="midnightblue" stroke="midnightblue" points="280.753,-26.8603 288.39,-19.5164 277.84,-20.4951 280.753,-26.8603"/>
</g>
<!-- Node7 -->
<g id="node7" class="node"><title>Node7</title>
<polygon fill="white" stroke="#bfbfbf" points="348.5,-0.5 348.5,-19.5 397.5,-19.5 397.5,-0.5 348.5,-0.5"/>
<text text-anchor="middle" x="373" y="-7.5" font-family="Helvetica,sans-Serif" font-size="10.00">trie.hpp</text>
</g>
<!-- Node1&#45;&gt;Node7 -->
<g id="edge6" class="edge"><title>Node1&#45;&gt;Node7</title>
<path fill="none" stroke="midnightblue" d="M218.155,-56.4435C250.897,-46.8346 303.98,-31.2558 338.692,-21.0686"/>
<polygon fill="midnightblue" stroke="midnightblue" points="339.788,-24.3948 348.397,-18.2203 337.817,-17.678 339.788,-24.3948"/>
</g>
</g>
</svg>
