<?xml version="1.0" encoding="UTF-8" standalone="no"?>
<!DOCTYPE svg PUBLIC "-//W3C//DTD SVG 1.1//EN"
 "http://www.w3.org/Graphics/SVG/1.1/DTD/svg11.dtd">
<!-- Generated by graphviz version 2.36.0 (20140111.2315)
 -->
<!-- Title: src/encoder.cpp Pages: 1 -->
<svg width="1217pt" height="106pt"
 viewBox="0.00 0.00 1217.00 106.00" xmlns="http://www.w3.org/2000/svg" xmlns:xlink="http://www.w3.org/1999/xlink">
<g id="graph0" class="graph" transform="scale(1 1) rotate(0) translate(4 102)">
<title>src/encoder.cpp</title>
<polygon fill="white" stroke="none" points="-4,4 -4,-102 1213,-102 1213,4 -4,4"/>
<!-- Node1 -->
<g id="node1" class="node"><title>Node1</title>
<polygon fill="#bfbfbf" stroke="black" points="464,-78.5 464,-97.5 550,-97.5 550,-78.5 464,-78.5"/>
<text text-anchor="middle" x="507" y="-85.5" font-family="Helvetica,sans-Serif" font-size="10.00">src/encoder.cpp</text>
</g>
<!-- Node2 -->
<g id="node2" class="node"><title>Node2</title>
<polygon fill="white" stroke="#bfbfbf" points="0,-11.5 0,-30.5 70,-30.5 70,-11.5 0,-11.5"/>
<text text-anchor="middle" x="35" y="-18.5" font-family="Helvetica,sans-Serif" font-size="10.00">encoder.hpp</text>
</g>
<!-- Node1&#45;&gt;Node2 -->
<g id="edge1" class="edge"><title>Node1&#45;&gt;Node2</title>
<path fill="none" stroke="midnightblue" d="M463.946,-87.0058C385.835,-86.0255 216.158,-79.3241 79,-42 72.6239,-40.2649 66.007,-37.7047 59.9008,-34.9913"/>
<polygon fill="midnightblue" stroke="midnightblue" points="61.3694,-31.8142 50.8336,-30.6977 58.3736,-38.1408 61.3694,-31.8142"/>
</g>
<!-- Node3 -->
<g id="node3" class="node"><title>Node3</title>
<polygon fill="white" stroke="#bfbfbf" points="88,-11.5 88,-30.5 140,-30.5 140,-11.5 88,-11.5"/>
<text text-anchor="middle" x="114" y="-18.5" font-family="Helvetica,sans-Serif" font-size="10.00">stddef.h</text>
</g>
<!-- Node1&#45;&gt;Node3 -->
<g id="edge2" class="edge"><title>Node1&#45;&gt;Node3</title>
<path fill="none" stroke="midnightblue" d="M463.919,-86.9819C395.444,-85.7706 258.334,-78.4863 149,-42 144.394,-40.4631 139.715,-38.2904 135.339,-35.9393"/>
<polygon fill="midnightblue" stroke="midnightblue" points="136.789,-32.7318 126.394,-30.6854 133.244,-38.7677 136.789,-32.7318"/>
</g>
<!-- Node4 -->
<g id="node4" class="node"><title>Node4</title>
<polygon fill="white" stroke="#bfbfbf" points="158.5,-11.5 158.5,-30.5 207.5,-30.5 207.5,-11.5 158.5,-11.5"/>
<text text-anchor="middle" x="183" y="-18.5" font-family="Helvetica,sans-Serif" font-size="10.00">string.h</text>
</g>
<!-- Node1&#45;&gt;Node4 -->
<g id="edge3" class="edge"><title>Node1&#45;&gt;Node4</title>
<path fill="none" stroke="midnightblue" d="M463.989,-85.366C406.255,-82.0526 301.213,-72.0582 217,-42 212.525,-40.4029 207.979,-38.2027 203.729,-35.8434"/>
<polygon fill="midnightblue" stroke="midnightblue" points="205.408,-32.7692 195.039,-30.5973 201.791,-38.7619 205.408,-32.7692"/>
</g>
<!-- Node5 -->
<g id="node5" class="node"><title>Node5</title>
<polygon fill="white" stroke="#bfbfbf" points="226,-11.5 226,-30.5 274,-30.5 274,-11.5 226,-11.5"/>
<text text-anchor="middle" x="250" y="-18.5" font-family="Helvetica,sans-Serif" font-size="10.00">stdlib.h</text>
</g>
<!-- Node1&#45;&gt;Node5 -->
<g id="edge4" class="edge"><title>Node1&#45;&gt;Node5</title>
<path fill="none" stroke="midnightblue" d="M463.644,-82.7925C417.583,-77.299 343.243,-65.4743 283,-42 278.857,-40.3856 274.644,-38.2638 270.675,-36.0063"/>
<polygon fill="midnightblue" stroke="midnightblue" points="272.358,-32.9324 262.009,-30.6674 268.687,-38.8923 272.358,-32.9324"/>
</g>
<!-- Node6 -->
<g id="node6" class="node"><title>Node6</title>
<polygon fill="white" stroke="#bfbfbf" points="292,-11.5 292,-30.5 348,-30.5 348,-11.5 292,-11.5"/>
<text text-anchor="middle" x="320" y="-18.5" font-family="Helvetica,sans-Serif" font-size="10.00">algorithm</text>
</g>
<!-- Node1&#45;&gt;Node6 -->
<g id="edge5" class="edge"><title>Node1&#45;&gt;Node6</title>
<path fill="none" stroke="midnightblue" d="M471.133,-78.4436C440.291,-70.569 394.917,-57.7413 357,-42 352.555,-40.1548 347.947,-37.9341 343.554,-35.6535"/>
<polygon fill="midnightblue" stroke="midnightblue" points="344.884,-32.3926 334.427,-30.688 341.538,-38.5415 344.884,-32.3926"/>
</g>
<!-- Node7 -->
<g id="node7" class="node"><title>Node7</title>
<polygon fill="white" stroke="#bfbfbf" points="366,-0.5 366,-41.5 498,-41.5 498,-0.5 366,-0.5"/>
<text text-anchor="start" x="374" y="-29.5" font-family="Helvetica,sans-Serif" font-size="10.00">/home/hebert/Documentos</text>
<text text-anchor="start" x="374" y="-18.5" font-family="Helvetica,sans-Serif" font-size="10.00">/DAS/zeromq&#45;3.2.1/src</text>
<text text-anchor="middle" x="432" y="-7.5" font-family="Helvetica,sans-Serif" font-size="10.00">/err.hpp</text>
</g>
<!-- Node1&#45;&gt;Node7 -->
<g id="edge6" class="edge"><title>Node1&#45;&gt;Node7</title>
<path fill="none" stroke="midnightblue" d="M496.885,-78.2338C488.029,-70.5588 474.693,-59.0009 462.41,-48.3557"/>
<polygon fill="midnightblue" stroke="midnightblue" points="464.398,-45.4465 454.549,-41.5421 459.813,-50.7363 464.398,-45.4465"/>
</g>
<!-- Node8 -->
<g id="node8" class="node"><title>Node8</title>
<polygon fill="white" stroke="#bfbfbf" points="516,-0.5 516,-41.5 648,-41.5 648,-0.5 516,-0.5"/>
<text text-anchor="start" x="524" y="-29.5" font-family="Helvetica,sans-Serif" font-size="10.00">/home/hebert/Documentos</text>
<text text-anchor="start" x="524" y="-18.5" font-family="Helvetica,sans-Serif" font-size="10.00">/DAS/zeromq&#45;3.2.1/src</text>
<text text-anchor="middle" x="582" y="-7.5" font-family="Helvetica,sans-Serif" font-size="10.00">/msg.hpp</text>
</g>
<!-- Node1&#45;&gt;Node8 -->
<g id="edge7" class="edge"><title>Node1&#45;&gt;Node8</title>
<path fill="none" stroke="midnightblue" d="M517.115,-78.2338C525.971,-70.5588 539.307,-59.0009 551.59,-48.3557"/>
<polygon fill="midnightblue" stroke="midnightblue" points="554.187,-50.7363 559.451,-41.5421 549.602,-45.4465 554.187,-50.7363"/>
</g>
<!-- Node9 -->
<g id="node9" class="node"><title>Node9</title>
<polygon fill="white" stroke="#bfbfbf" points="666,-0.5 666,-41.5 798,-41.5 798,-0.5 666,-0.5"/>
<text text-anchor="start" x="674" y="-29.5" font-family="Helvetica,sans-Serif" font-size="10.00">/home/hebert/Documentos</text>
<text text-anchor="start" x="674" y="-18.5" font-family="Helvetica,sans-Serif" font-size="10.00">/DAS/zeromq&#45;3.2.1/src</text>
<text text-anchor="middle" x="732" y="-7.5" font-family="Helvetica,sans-Serif" font-size="10.00">/i_encoder.hpp</text>
</g>
<!-- Node1&#45;&gt;Node9 -->
<g id="edge8" class="edge"><title>Node1&#45;&gt;Node9</title>
<path fill="none" stroke="midnightblue" d="M536.878,-78.3685C567.201,-69.6085 615.372,-55.6925 656.263,-43.8796"/>
<polygon fill="midnightblue" stroke="midnightblue" points="657.308,-47.2208 665.944,-41.0828 655.366,-40.4958 657.308,-47.2208"/>
</g>
<!-- Node10 -->
<g id="node10" class="node"><title>Node10</title>
<polygon fill="white" stroke="#bfbfbf" points="816,-0.5 816,-41.5 948,-41.5 948,-0.5 816,-0.5"/>
<text text-anchor="start" x="824" y="-29.5" font-family="Helvetica,sans-Serif" font-size="10.00">/home/hebert/Documentos</text>
<text text-anchor="start" x="824" y="-18.5" font-family="Helvetica,sans-Serif" font-size="10.00">/DAS/zeromq&#45;3.2.1/src</text>
<text text-anchor="middle" x="882" y="-7.5" font-family="Helvetica,sans-Serif" font-size="10.00">/stdint.hpp</text>
</g>
<!-- Node1&#45;&gt;Node10 -->
<g id="edge9" class="edge"><title>Node1&#45;&gt;Node10</title>
<path fill="none" stroke="midnightblue" d="M550.241,-82.0543C606.843,-75.2419 709.283,-61.7536 805.909,-42.1164"/>
<polygon fill="midnightblue" stroke="midnightblue" points="806.754,-45.5161 815.842,-40.0714 805.342,-38.6599 806.754,-45.5161"/>
</g>
<!-- Node11 -->
<g id="node11" class="node"><title>Node11</title>
<polygon fill="white" stroke="#bfbfbf" points="966,-11.5 966,-30.5 1062,-30.5 1062,-11.5 966,-11.5"/>
<text text-anchor="middle" x="1014" y="-18.5" font-family="Helvetica,sans-Serif" font-size="10.00">i_msg_source.hpp</text>
</g>
<!-- Node1&#45;&gt;Node11 -->
<g id="edge10" class="edge"><title>Node1&#45;&gt;Node11</title>
<path fill="none" stroke="midnightblue" d="M550.035,-86.0878C630.762,-83.6322 810.03,-74.6436 957,-42 965.904,-40.0224 975.336,-37.0802 983.911,-34.0571"/>
<polygon fill="midnightblue" stroke="midnightblue" points="985.326,-37.2657 993.499,-30.524 982.906,-30.6974 985.326,-37.2657"/>
</g>
<!-- Node12 -->
<g id="node12" class="node"><title>Node12</title>
<polygon fill="white" stroke="#bfbfbf" points="1080,-11.5 1080,-30.5 1138,-30.5 1138,-11.5 1080,-11.5"/>
<text text-anchor="middle" x="1109" y="-18.5" font-family="Helvetica,sans-Serif" font-size="10.00">likely.hpp</text>
</g>
<!-- Node1&#45;&gt;Node12 -->
<g id="edge11" class="edge"><title>Node1&#45;&gt;Node12</title>
<path fill="none" stroke="midnightblue" d="M550.346,-85.7952C664.862,-82.2541 973.351,-70.296 1071,-42 1076.32,-40.4574 1081.76,-38.1241 1086.79,-35.5893"/>
<polygon fill="midnightblue" stroke="midnightblue" points="1088.76,-38.5014 1095.85,-30.6219 1085.4,-32.3648 1088.76,-38.5014"/>
</g>
<!-- Node13 -->
<g id="node13" class="node"><title>Node13</title>
<polygon fill="white" stroke="#bfbfbf" points="1156.5,-11.5 1156.5,-30.5 1209.5,-30.5 1209.5,-11.5 1156.5,-11.5"/>
<text text-anchor="middle" x="1183" y="-18.5" font-family="Helvetica,sans-Serif" font-size="10.00">wire.hpp</text>
</g>
<!-- Node1&#45;&gt;Node13 -->
<g id="edge12" class="edge"><title>Node1&#45;&gt;Node13</title>
<path fill="none" stroke="midnightblue" d="M550.174,-86.3293C674.859,-84.0188 1033.74,-74.6382 1146,-42 1151.21,-40.4845 1156.52,-38.1625 1161.42,-35.6303"/>
<polygon fill="midnightblue" stroke="midnightblue" points="1163.24,-38.6219 1170.23,-30.6584 1159.8,-32.526 1163.24,-38.6219"/>
</g>
</g>
</svg>
