<?xml version="1.0" encoding="UTF-8" standalone="no"?>
<!DOCTYPE svg PUBLIC "-//W3C//DTD SVG 1.1//EN"
 "http://www.w3.org/Graphics/SVG/1.1/DTD/svg11.dtd">
<!-- Generated by graphviz version 2.36.0 (20140111.2315)
 -->
<!-- Title: src/dist.cpp Pages: 1 -->
<svg width="706pt" height="106pt"
 viewBox="0.00 0.00 706.00 106.00" xmlns="http://www.w3.org/2000/svg" xmlns:xlink="http://www.w3.org/1999/xlink">
<g id="graph0" class="graph" transform="scale(1 1) rotate(0) translate(4 102)">
<title>src/dist.cpp</title>
<polygon fill="white" stroke="none" points="-4,4 -4,-102 702,-102 702,4 -4,4"/>
<!-- Node1 -->
<g id="node1" class="node"><title>Node1</title>
<polygon fill="#bfbfbf" stroke="black" points="368,-78.5 368,-97.5 436,-97.5 436,-78.5 368,-78.5"/>
<text text-anchor="middle" x="402" y="-85.5" font-family="Helvetica,sans-Serif" font-size="10.00">src/dist.cpp</text>
</g>
<!-- Node2 -->
<g id="node2" class="node"><title>Node2</title>
<polygon fill="white" stroke="#bfbfbf" points="-0.5,-11.5 -0.5,-30.5 50.5,-30.5 50.5,-11.5 -0.5,-11.5"/>
<text text-anchor="middle" x="25" y="-18.5" font-family="Helvetica,sans-Serif" font-size="10.00">dist.hpp</text>
</g>
<!-- Node1&#45;&gt;Node2 -->
<g id="edge1" class="edge"><title>Node1&#45;&gt;Node2</title>
<path fill="none" stroke="midnightblue" d="M367.523,-86.8237C304.704,-85.5588 168.113,-78.4267 60,-42 55.3989,-40.4498 50.7213,-38.2709 46.3464,-35.9181"/>
<polygon fill="midnightblue" stroke="midnightblue" points="47.7958,-32.7105 37.4001,-30.6659 44.2518,-38.7471 47.7958,-32.7105"/>
</g>
<!-- Node3 -->
<g id="node3" class="node"><title>Node3</title>
<polygon fill="white" stroke="#bfbfbf" points="69,-11.5 69,-30.5 113,-30.5 113,-11.5 69,-11.5"/>
<text text-anchor="middle" x="91" y="-18.5" font-family="Helvetica,sans-Serif" font-size="10.00">vector</text>
</g>
<!-- Node1&#45;&gt;Node3 -->
<g id="edge2" class="edge"><title>Node1&#45;&gt;Node3</title>
<path fill="none" stroke="midnightblue" d="M367.646,-85.9997C313.644,-83.4423 206.357,-74.3467 122,-42 118.075,-40.4951 114.126,-38.4475 110.422,-36.2343"/>
<polygon fill="midnightblue" stroke="midnightblue" points="112.152,-33.1829 101.875,-30.6064 108.302,-39.0292 112.152,-33.1829"/>
</g>
<!-- Node4 -->
<g id="node4" class="node"><title>Node4</title>
<polygon fill="white" stroke="#bfbfbf" points="131,-0.5 131,-41.5 263,-41.5 263,-0.5 131,-0.5"/>
<text text-anchor="start" x="139" y="-29.5" font-family="Helvetica,sans-Serif" font-size="10.00">/home/hebert/Documentos</text>
<text text-anchor="start" x="139" y="-18.5" font-family="Helvetica,sans-Serif" font-size="10.00">/DAS/zeromq&#45;3.2.1/src</text>
<text text-anchor="middle" x="197" y="-7.5" font-family="Helvetica,sans-Serif" font-size="10.00">/array.hpp</text>
</g>
<!-- Node1&#45;&gt;Node4 -->
<g id="edge3" class="edge"><title>Node1&#45;&gt;Node4</title>
<path fill="none" stroke="midnightblue" d="M374.778,-78.3685C347.783,-69.8093 305.264,-56.3275 268.576,-44.6949"/>
<polygon fill="midnightblue" stroke="midnightblue" points="269.486,-41.3116 258.896,-41.6254 267.37,-47.9843 269.486,-41.3116"/>
</g>
<!-- Node5 -->
<g id="node5" class="node"><title>Node5</title>
<polygon fill="white" stroke="#bfbfbf" points="281,-0.5 281,-41.5 413,-41.5 413,-0.5 281,-0.5"/>
<text text-anchor="start" x="289" y="-29.5" font-family="Helvetica,sans-Serif" font-size="10.00">/home/hebert/Documentos</text>
<text text-anchor="start" x="289" y="-18.5" font-family="Helvetica,sans-Serif" font-size="10.00">/DAS/zeromq&#45;3.2.1/src</text>
<text text-anchor="middle" x="347" y="-7.5" font-family="Helvetica,sans-Serif" font-size="10.00">/pipe.hpp</text>
</g>
<!-- Node1&#45;&gt;Node5 -->
<g id="edge4" class="edge"><title>Node1&#45;&gt;Node5</title>
<path fill="none" stroke="midnightblue" d="M394.582,-78.2338C388.274,-70.7781 378.865,-59.6581 370.075,-49.2703"/>
<polygon fill="midnightblue" stroke="midnightblue" points="372.667,-46.9151 363.536,-41.5421 367.323,-51.4368 372.667,-46.9151"/>
</g>
<!-- Node6 -->
<g id="node6" class="node"><title>Node6</title>
<polygon fill="white" stroke="#bfbfbf" points="431.5,-11.5 431.5,-30.5 484.5,-30.5 484.5,-11.5 431.5,-11.5"/>
<text text-anchor="middle" x="458" y="-18.5" font-family="Helvetica,sans-Serif" font-size="10.00">pipe.hpp</text>
</g>
<!-- Node1&#45;&gt;Node6 -->
<g id="edge5" class="edge"><title>Node1&#45;&gt;Node6</title>
<path fill="none" stroke="midnightblue" d="M409.552,-78.2338C418.285,-68.0979 432.852,-51.1899 443.737,-38.5556"/>
<polygon fill="midnightblue" stroke="midnightblue" points="446.692,-40.4879 450.567,-30.6273 441.388,-35.9189 446.692,-40.4879"/>
</g>
<!-- Node7 -->
<g id="node7" class="node"><title>Node7</title>
<polygon fill="white" stroke="#bfbfbf" points="502.5,-11.5 502.5,-30.5 549.5,-30.5 549.5,-11.5 502.5,-11.5"/>
<text text-anchor="middle" x="526" y="-18.5" font-family="Helvetica,sans-Serif" font-size="10.00">err.hpp</text>
</g>
<!-- Node1&#45;&gt;Node7 -->
<g id="edge6" class="edge"><title>Node1&#45;&gt;Node7</title>
<path fill="none" stroke="midnightblue" d="M420.364,-78.4867C438.913,-69.7559 468.28,-55.5704 493,-42 496.432,-40.1161 500.016,-38.0501 503.505,-35.9833"/>
<polygon fill="midnightblue" stroke="midnightblue" points="505.601,-38.806 512.346,-30.6352 501.978,-32.8166 505.601,-38.806"/>
</g>
<!-- Node8 -->
<g id="node8" class="node"><title>Node8</title>
<polygon fill="white" stroke="#bfbfbf" points="568,-11.5 568,-30.5 622,-30.5 622,-11.5 568,-11.5"/>
<text text-anchor="middle" x="595" y="-18.5" font-family="Helvetica,sans-Serif" font-size="10.00">msg.hpp</text>
</g>
<!-- Node1&#45;&gt;Node8 -->
<g id="edge7" class="edge"><title>Node1&#45;&gt;Node8</title>
<path fill="none" stroke="midnightblue" d="M436.183,-79.3843C468.274,-71.7137 517.299,-58.6445 558,-42 562.655,-40.0963 567.483,-37.7693 572.055,-35.3846"/>
<polygon fill="midnightblue" stroke="midnightblue" points="573.846,-38.3944 580.94,-30.5255 570.487,-32.2528 573.846,-38.3944"/>
</g>
<!-- Node9 -->
<g id="node9" class="node"><title>Node9</title>
<polygon fill="white" stroke="#bfbfbf" points="640,-11.5 640,-30.5 698,-30.5 698,-11.5 640,-11.5"/>
<text text-anchor="middle" x="669" y="-18.5" font-family="Helvetica,sans-Serif" font-size="10.00">likely.hpp</text>
</g>
<!-- Node1&#45;&gt;Node9 -->
<g id="edge8" class="edge"><title>Node1&#45;&gt;Node9</title>
<path fill="none" stroke="midnightblue" d="M436.188,-83.4225C481.676,-77.9605 564.136,-65.5962 631,-42 636.055,-40.216 641.269,-37.8563 646.152,-35.385"/>
<polygon fill="midnightblue" stroke="midnightblue" points="647.863,-38.439 655.01,-30.6174 644.546,-32.2752 647.863,-38.439"/>
</g>
</g>
</svg>
