<?xml version="1.0" encoding="UTF-8" standalone="no"?>
<!DOCTYPE svg PUBLIC "-//W3C//DTD SVG 1.1//EN"
 "http://www.w3.org/Graphics/SVG/1.1/DTD/svg11.dtd">
<!-- Generated by graphviz version 2.36.0 (20140111.2315)
 -->
<!-- Title: src/proxy.cpp Pages: 1 -->
<svg width="581pt" height="84pt"
 viewBox="0.00 0.00 581.00 84.00" xmlns="http://www.w3.org/2000/svg" xmlns:xlink="http://www.w3.org/1999/xlink">
<g id="graph0" class="graph" transform="scale(1 1) rotate(0) translate(4 80)">
<title>src/proxy.cpp</title>
<polygon fill="white" stroke="none" points="-4,4 -4,-80 577,-80 577,4 -4,4"/>
<!-- Node1 -->
<g id="node1" class="node"><title>Node1</title>
<polygon fill="#bfbfbf" stroke="black" points="255,-56.5 255,-75.5 331,-75.5 331,-56.5 255,-56.5"/>
<text text-anchor="middle" x="293" y="-63.5" font-family="Helvetica,sans-Serif" font-size="10.00">src/proxy.cpp</text>
</g>
<!-- Node2 -->
<g id="node2" class="node"><title>Node2</title>
<polygon fill="white" stroke="#bfbfbf" points="0,-0.5 0,-19.5 52,-19.5 52,-0.5 0,-0.5"/>
<text text-anchor="middle" x="26" y="-7.5" font-family="Helvetica,sans-Serif" font-size="10.00">stddef.h</text>
</g>
<!-- Node1&#45;&gt;Node2 -->
<g id="edge1" class="edge"><title>Node1&#45;&gt;Node2</title>
<path fill="none" stroke="midnightblue" d="M254.674,-58.2951C210.534,-50.4125 135.63,-36.5449 62.2096,-20.1721"/>
<polygon fill="midnightblue" stroke="midnightblue" points="62.8564,-16.7302 52.3322,-17.9519 61.3212,-23.5598 62.8564,-16.7302"/>
</g>
<!-- Node3 -->
<g id="node3" class="node"><title>Node3</title>
<polygon fill="white" stroke="#bfbfbf" points="70,-0.5 70,-19.5 156,-19.5 156,-0.5 70,-0.5"/>
<text text-anchor="middle" x="113" y="-7.5" font-family="Helvetica,sans-Serif" font-size="10.00">../include/zmq.h</text>
</g>
<!-- Node1&#45;&gt;Node3 -->
<g id="edge2" class="edge"><title>Node1&#45;&gt;Node3</title>
<path fill="none" stroke="midnightblue" d="M264.478,-56.4435C233.934,-47.2801 185.292,-32.6876 151.397,-22.5192"/>
<polygon fill="midnightblue" stroke="midnightblue" points="151.972,-19.0376 141.388,-19.5164 149.961,-25.7424 151.972,-19.0376"/>
</g>
<!-- Node4 -->
<g id="node4" class="node"><title>Node4</title>
<polygon fill="white" stroke="#bfbfbf" points="174.5,-0.5 174.5,-19.5 245.5,-19.5 245.5,-0.5 174.5,-0.5"/>
<text text-anchor="middle" x="210" y="-7.5" font-family="Helvetica,sans-Serif" font-size="10.00">platform.hpp</text>
</g>
<!-- Node1&#45;&gt;Node4 -->
<g id="edge3" class="edge"><title>Node1&#45;&gt;Node4</title>
<path fill="none" stroke="midnightblue" d="M279.665,-56.324C266.838,-47.979 247.215,-35.2122 232.06,-25.3524"/>
<polygon fill="midnightblue" stroke="midnightblue" points="233.593,-22.1742 223.302,-19.6545 229.776,-28.0417 233.593,-22.1742"/>
</g>
<!-- Node5 -->
<g id="node5" class="node"><title>Node5</title>
<polygon fill="white" stroke="#bfbfbf" points="263.5,-0.5 263.5,-19.5 322.5,-19.5 322.5,-0.5 263.5,-0.5"/>
<text text-anchor="middle" x="293" y="-7.5" font-family="Helvetica,sans-Serif" font-size="10.00">proxy.hpp</text>
</g>
<!-- Node1&#45;&gt;Node5 -->
<g id="edge4" class="edge"><title>Node1&#45;&gt;Node5</title>
<path fill="none" stroke="midnightblue" d="M293,-56.083C293,-49.0059 293,-38.8611 293,-29.9865"/>
<polygon fill="midnightblue" stroke="midnightblue" points="296.5,-29.751 293,-19.7511 289.5,-29.7511 296.5,-29.751"/>
</g>
<!-- Node6 -->
<g id="node6" class="node"><title>Node6</title>
<polygon fill="white" stroke="#bfbfbf" points="340.5,-0.5 340.5,-19.5 431.5,-19.5 431.5,-0.5 340.5,-0.5"/>
<text text-anchor="middle" x="386" y="-7.5" font-family="Helvetica,sans-Serif" font-size="10.00">socket_base.hpp</text>
</g>
<!-- Node1&#45;&gt;Node6 -->
<g id="edge5" class="edge"><title>Node1&#45;&gt;Node6</title>
<path fill="none" stroke="midnightblue" d="M307.942,-56.324C322.585,-47.8215 345.134,-34.7288 362.238,-24.7975"/>
<polygon fill="midnightblue" stroke="midnightblue" points="364.205,-27.7027 371.095,-19.6545 360.69,-21.6491 364.205,-27.7027"/>
</g>
<!-- Node7 -->
<g id="node7" class="node"><title>Node7</title>
<polygon fill="white" stroke="#bfbfbf" points="450,-0.5 450,-19.5 508,-19.5 508,-0.5 450,-0.5"/>
<text text-anchor="middle" x="479" y="-7.5" font-family="Helvetica,sans-Serif" font-size="10.00">likely.hpp</text>
</g>
<!-- Node1&#45;&gt;Node7 -->
<g id="edge6" class="edge"><title>Node1&#45;&gt;Node7</title>
<path fill="none" stroke="midnightblue" d="M322.472,-56.4435C354.264,-47.2135 405.03,-32.4753 440.084,-22.2983"/>
<polygon fill="midnightblue" stroke="midnightblue" points="441.344,-25.5769 449.972,-19.4275 439.392,-18.8545 441.344,-25.5769"/>
</g>
<!-- Node8 -->
<g id="node8" class="node"><title>Node8</title>
<polygon fill="white" stroke="#bfbfbf" points="526.5,-0.5 526.5,-19.5 573.5,-19.5 573.5,-0.5 526.5,-0.5"/>
<text text-anchor="middle" x="550" y="-7.5" font-family="Helvetica,sans-Serif" font-size="10.00">err.hpp</text>
</g>
<!-- Node1&#45;&gt;Node8 -->
<g id="edge7" class="edge"><title>Node1&#45;&gt;Node8</title>
<path fill="none" stroke="midnightblue" d="M331.028,-58.0418C375.535,-49.7328 451.379,-35.0588 516,-20 516.104,-19.9757 516.208,-19.9514 516.313,-19.927"/>
<polygon fill="midnightblue" stroke="midnightblue" points="517.394,-23.2654 526.267,-17.4755 515.72,-16.4684 517.394,-23.2654"/>
</g>
</g>
</svg>
