<?xml version="1.0" encoding="UTF-8" standalone="no"?>
<!DOCTYPE svg PUBLIC "-//W3C//DTD SVG 1.1//EN"
 "http://www.w3.org/Graphics/SVG/1.1/DTD/svg11.dtd">
<!-- Generated by graphviz version 2.36.0 (20140111.2315)
 -->
<!-- Title: src/v1_decoder.cpp Pages: 1 -->
<svg width="633pt" height="84pt"
 viewBox="0.00 0.00 633.00 84.00" xmlns="http://www.w3.org/2000/svg" xmlns:xlink="http://www.w3.org/1999/xlink">
<g id="graph0" class="graph" transform="scale(1 1) rotate(0) translate(4 80)">
<title>src/v1_decoder.cpp</title>
<polygon fill="white" stroke="none" points="-4,4 -4,-80 629,-80 629,4 -4,4"/>
<!-- Node1 -->
<g id="node1" class="node"><title>Node1</title>
<polygon fill="#bfbfbf" stroke="black" points="267,-56.5 267,-75.5 369,-75.5 369,-56.5 267,-56.5"/>
<text text-anchor="middle" x="318" y="-63.5" font-family="Helvetica,sans-Serif" font-size="10.00">src/v1_decoder.cpp</text>
</g>
<!-- Node2 -->
<g id="node2" class="node"><title>Node2</title>
<polygon fill="white" stroke="#bfbfbf" points="0,-0.5 0,-19.5 48,-19.5 48,-0.5 0,-0.5"/>
<text text-anchor="middle" x="24" y="-7.5" font-family="Helvetica,sans-Serif" font-size="10.00">stdlib.h</text>
</g>
<!-- Node1&#45;&gt;Node2 -->
<g id="edge1" class="edge"><title>Node1&#45;&gt;Node2</title>
<path fill="none" stroke="midnightblue" d="M266.705,-57.6377C216.036,-50.0334 136.156,-37.1576 58.0888,-20.0695"/>
<polygon fill="midnightblue" stroke="midnightblue" points="58.6047,-16.599 48.0844,-17.8539 57.0911,-23.4334 58.6047,-16.599"/>
</g>
<!-- Node3 -->
<g id="node3" class="node"><title>Node3</title>
<polygon fill="white" stroke="#bfbfbf" points="66.5,-0.5 66.5,-19.5 115.5,-19.5 115.5,-0.5 66.5,-0.5"/>
<text text-anchor="middle" x="91" y="-7.5" font-family="Helvetica,sans-Serif" font-size="10.00">string.h</text>
</g>
<!-- Node1&#45;&gt;Node3 -->
<g id="edge2" class="edge"><title>Node1&#45;&gt;Node3</title>
<path fill="none" stroke="midnightblue" d="M279.246,-56.4698C242.08,-48.1869 184.153,-35.0123 125.618,-20.3465"/>
<polygon fill="midnightblue" stroke="midnightblue" points="126.391,-16.9322 115.839,-17.8839 124.682,-23.7202 126.391,-16.9322"/>
</g>
<!-- Node4 -->
<g id="node4" class="node"><title>Node4</title>
<polygon fill="white" stroke="#bfbfbf" points="133.5,-0.5 133.5,-19.5 204.5,-19.5 204.5,-0.5 133.5,-0.5"/>
<text text-anchor="middle" x="169" y="-7.5" font-family="Helvetica,sans-Serif" font-size="10.00">platform.hpp</text>
</g>
<!-- Node1&#45;&gt;Node4 -->
<g id="edge3" class="edge"><title>Node1&#45;&gt;Node4</title>
<path fill="none" stroke="midnightblue" d="M294.391,-56.4435C269.542,-47.4381 230.226,-33.1891 202.246,-23.049"/>
<polygon fill="midnightblue" stroke="midnightblue" points="203.093,-19.6332 192.499,-19.5164 200.708,-26.2144 203.093,-19.6332"/>
</g>
<!-- Node5 -->
<g id="node5" class="node"><title>Node5</title>
<polygon fill="white" stroke="#bfbfbf" points="223,-0.5 223,-19.5 309,-19.5 309,-0.5 223,-0.5"/>
<text text-anchor="middle" x="266" y="-7.5" font-family="Helvetica,sans-Serif" font-size="10.00">v1_protocol.hpp</text>
</g>
<!-- Node1&#45;&gt;Node5 -->
<g id="edge4" class="edge"><title>Node1&#45;&gt;Node5</title>
<path fill="none" stroke="midnightblue" d="M309.413,-56.083C301.841,-48.2195 290.622,-36.5688 281.486,-27.0813"/>
<polygon fill="midnightblue" stroke="midnightblue" points="283.885,-24.5266 274.427,-19.7511 278.842,-29.3821 283.885,-24.5266"/>
</g>
<!-- Node6 -->
<g id="node6" class="node"><title>Node6</title>
<polygon fill="white" stroke="#bfbfbf" points="327,-0.5 327,-19.5 413,-19.5 413,-0.5 327,-0.5"/>
<text text-anchor="middle" x="370" y="-7.5" font-family="Helvetica,sans-Serif" font-size="10.00">v1_decoder.hpp</text>
</g>
<!-- Node1&#45;&gt;Node6 -->
<g id="edge5" class="edge"><title>Node1&#45;&gt;Node6</title>
<path fill="none" stroke="midnightblue" d="M326.587,-56.083C334.159,-48.2195 345.378,-36.5688 354.514,-27.0813"/>
<polygon fill="midnightblue" stroke="midnightblue" points="357.158,-29.3821 361.573,-19.7511 352.115,-24.5266 357.158,-29.3821"/>
</g>
<!-- Node7 -->
<g id="node7" class="node"><title>Node7</title>
<polygon fill="white" stroke="#bfbfbf" points="431,-0.5 431,-19.5 489,-19.5 489,-0.5 431,-0.5"/>
<text text-anchor="middle" x="460" y="-7.5" font-family="Helvetica,sans-Serif" font-size="10.00">likely.hpp</text>
</g>
<!-- Node1&#45;&gt;Node7 -->
<g id="edge6" class="edge"><title>Node1&#45;&gt;Node7</title>
<path fill="none" stroke="midnightblue" d="M340.5,-56.4435C364.077,-47.4776 401.322,-33.314 427.964,-23.1827"/>
<polygon fill="midnightblue" stroke="midnightblue" points="429.502,-26.3424 437.605,-19.5164 427.014,-19.7995 429.502,-26.3424"/>
</g>
<!-- Node8 -->
<g id="node8" class="node"><title>Node8</title>
<polygon fill="white" stroke="#bfbfbf" points="507.5,-0.5 507.5,-19.5 560.5,-19.5 560.5,-0.5 507.5,-0.5"/>
<text text-anchor="middle" x="534" y="-7.5" font-family="Helvetica,sans-Serif" font-size="10.00">wire.hpp</text>
</g>
<!-- Node1&#45;&gt;Node8 -->
<g id="edge7" class="edge"><title>Node1&#45;&gt;Node8</title>
<path fill="none" stroke="midnightblue" d="M352.226,-56.4435C391.924,-46.519 457.096,-30.2259 497.67,-20.0826"/>
<polygon fill="midnightblue" stroke="midnightblue" points="498.572,-23.4648 507.425,-17.6439 496.874,-16.6738 498.572,-23.4648"/>
</g>
<!-- Node9 -->
<g id="node9" class="node"><title>Node9</title>
<polygon fill="white" stroke="#bfbfbf" points="578.5,-0.5 578.5,-19.5 625.5,-19.5 625.5,-0.5 578.5,-0.5"/>
<text text-anchor="middle" x="602" y="-7.5" font-family="Helvetica,sans-Serif" font-size="10.00">err.hpp</text>
</g>
<!-- Node1&#45;&gt;Node9 -->
<g id="edge8" class="edge"><title>Node1&#45;&gt;Node9</title>
<path fill="none" stroke="midnightblue" d="M369.224,-57.1843C417.951,-49.4427 493.496,-36.6461 568.214,-20.0069"/>
<polygon fill="midnightblue" stroke="midnightblue" points="569.283,-23.3538 578.27,-17.7426 567.746,-16.5248 569.283,-23.3538"/>
</g>
</g>
</svg>
