<?xml version="1.0" encoding="UTF-8" standalone="no"?>
<!DOCTYPE svg PUBLIC "-//W3C//DTD SVG 1.1//EN"
 "http://www.w3.org/Graphics/SVG/1.1/DTD/svg11.dtd">
<!-- Generated by graphviz version 2.36.0 (20140111.2315)
 -->
<!-- Title: src/object.cpp Pages: 1 -->
<svg width="725pt" height="84pt"
 viewBox="0.00 0.00 725.00 84.00" xmlns="http://www.w3.org/2000/svg" xmlns:xlink="http://www.w3.org/1999/xlink">
<g id="graph0" class="graph" transform="scale(1 1) rotate(0) translate(4 80)">
<title>src/object.cpp</title>
<polygon fill="white" stroke="none" points="-4,4 -4,-80 721,-80 721,4 -4,4"/>
<!-- Node1 -->
<g id="node1" class="node"><title>Node1</title>
<polygon fill="#bfbfbf" stroke="black" points="269,-56.5 269,-75.5 347,-75.5 347,-56.5 269,-56.5"/>
<text text-anchor="middle" x="308" y="-63.5" font-family="Helvetica,sans-Serif" font-size="10.00">src/object.cpp</text>
</g>
<!-- Node2 -->
<g id="node2" class="node"><title>Node2</title>
<polygon fill="white" stroke="#bfbfbf" points="-0.5,-0.5 -0.5,-19.5 48.5,-19.5 48.5,-0.5 -0.5,-0.5"/>
<text text-anchor="middle" x="24" y="-7.5" font-family="Helvetica,sans-Serif" font-size="10.00">string.h</text>
</g>
<!-- Node1&#45;&gt;Node2 -->
<g id="edge1" class="edge"><title>Node1&#45;&gt;Node2</title>
<path fill="none" stroke="midnightblue" d="M268.832,-58.9538C221.378,-51.4074 138.82,-37.5724 58.5953,-19.9825"/>
<polygon fill="midnightblue" stroke="midnightblue" points="59.3461,-16.564 48.8258,-17.819 57.8325,-23.3985 59.3461,-16.564"/>
</g>
<!-- Node3 -->
<g id="node3" class="node"><title>Node3</title>
<polygon fill="white" stroke="#bfbfbf" points="67,-0.5 67,-19.5 119,-19.5 119,-0.5 67,-0.5"/>
<text text-anchor="middle" x="93" y="-7.5" font-family="Helvetica,sans-Serif" font-size="10.00">stdarg.h</text>
</g>
<!-- Node1&#45;&gt;Node3 -->
<g id="edge2" class="edge"><title>Node1&#45;&gt;Node3</title>
<path fill="none" stroke="midnightblue" d="M273.476,-56.4419C239.21,-47.9318 184.93,-34.4076 129.075,-20.2612"/>
<polygon fill="midnightblue" stroke="midnightblue" points="129.922,-16.8654 119.368,-17.8006 128.202,-23.6507 129.922,-16.8654"/>
</g>
<!-- Node4 -->
<g id="node4" class="node"><title>Node4</title>
<polygon fill="white" stroke="#bfbfbf" points="137,-0.5 137,-19.5 199,-19.5 199,-0.5 137,-0.5"/>
<text text-anchor="middle" x="168" y="-7.5" font-family="Helvetica,sans-Serif" font-size="10.00">object.hpp</text>
</g>
<!-- Node1&#45;&gt;Node4 -->
<g id="edge3" class="edge"><title>Node1&#45;&gt;Node4</title>
<path fill="none" stroke="midnightblue" d="M285.817,-56.4435C262.572,-47.4776 225.851,-33.314 199.585,-23.1827"/>
<polygon fill="midnightblue" stroke="midnightblue" points="200.669,-19.8497 190.08,-19.5164 198.15,-26.3807 200.669,-19.8497"/>
</g>
<!-- Node5 -->
<g id="node5" class="node"><title>Node5</title>
<polygon fill="white" stroke="#bfbfbf" points="217.5,-0.5 217.5,-19.5 266.5,-19.5 266.5,-0.5 217.5,-0.5"/>
<text text-anchor="middle" x="242" y="-7.5" font-family="Helvetica,sans-Serif" font-size="10.00">ctx.hpp</text>
</g>
<!-- Node1&#45;&gt;Node5 -->
<g id="edge4" class="edge"><title>Node1&#45;&gt;Node5</title>
<path fill="none" stroke="midnightblue" d="M297.396,-56.324C287.544,-48.2631 272.649,-36.0765 260.785,-26.3695"/>
<polygon fill="midnightblue" stroke="midnightblue" points="262.753,-23.4575 252.797,-19.8339 258.32,-28.8752 262.753,-23.4575"/>
</g>
<!-- Node6 -->
<g id="node6" class="node"><title>Node6</title>
<polygon fill="white" stroke="#bfbfbf" points="284.5,-0.5 284.5,-19.5 331.5,-19.5 331.5,-0.5 284.5,-0.5"/>
<text text-anchor="middle" x="308" y="-7.5" font-family="Helvetica,sans-Serif" font-size="10.00">err.hpp</text>
</g>
<!-- Node1&#45;&gt;Node6 -->
<g id="edge5" class="edge"><title>Node1&#45;&gt;Node6</title>
<path fill="none" stroke="midnightblue" d="M308,-56.083C308,-49.0059 308,-38.8611 308,-29.9865"/>
<polygon fill="midnightblue" stroke="midnightblue" points="311.5,-29.751 308,-19.7511 304.5,-29.7511 311.5,-29.751"/>
</g>
<!-- Node7 -->
<g id="node7" class="node"><title>Node7</title>
<polygon fill="white" stroke="#bfbfbf" points="349.5,-0.5 349.5,-19.5 402.5,-19.5 402.5,-0.5 349.5,-0.5"/>
<text text-anchor="middle" x="376" y="-7.5" font-family="Helvetica,sans-Serif" font-size="10.00">pipe.hpp</text>
</g>
<!-- Node1&#45;&gt;Node7 -->
<g id="edge6" class="edge"><title>Node1&#45;&gt;Node7</title>
<path fill="none" stroke="midnightblue" d="M318.925,-56.324C329.175,-48.1849 344.721,-35.8395 357.001,-26.0874"/>
<polygon fill="midnightblue" stroke="midnightblue" points="359.221,-28.7937 364.876,-19.8339 354.868,-23.3119 359.221,-28.7937"/>
</g>
<!-- Node8 -->
<g id="node8" class="node"><title>Node8</title>
<polygon fill="white" stroke="#bfbfbf" points="420.5,-0.5 420.5,-19.5 495.5,-19.5 495.5,-0.5 420.5,-0.5"/>
<text text-anchor="middle" x="458" y="-7.5" font-family="Helvetica,sans-Serif" font-size="10.00">io_thread.hpp</text>
</g>
<!-- Node1&#45;&gt;Node8 -->
<g id="edge7" class="edge"><title>Node1&#45;&gt;Node8</title>
<path fill="none" stroke="midnightblue" d="M331.768,-56.4435C356.893,-47.3986 396.711,-33.064 424.9,-22.9158"/>
<polygon fill="midnightblue" stroke="midnightblue" points="426.12,-26.1968 434.343,-19.5164 423.749,-19.6106 426.12,-26.1968"/>
</g>
<!-- Node9 -->
<g id="node9" class="node"><title>Node9</title>
<polygon fill="white" stroke="#bfbfbf" points="513.5,-0.5 513.5,-19.5 608.5,-19.5 608.5,-0.5 513.5,-0.5"/>
<text text-anchor="middle" x="561" y="-7.5" font-family="Helvetica,sans-Serif" font-size="10.00">session_base.hpp</text>
</g>
<!-- Node1&#45;&gt;Node9 -->
<g id="edge8" class="edge"><title>Node1&#45;&gt;Node9</title>
<path fill="none" stroke="midnightblue" d="M347.254,-56.6217C391.31,-47.2184 462.894,-31.9395 510.941,-21.6846"/>
<polygon fill="midnightblue" stroke="midnightblue" points="511.768,-25.0869 520.817,-19.5765 510.307,-18.241 511.768,-25.0869"/>
</g>
<!-- Node10 -->
<g id="node10" class="node"><title>Node10</title>
<polygon fill="white" stroke="#bfbfbf" points="626.5,-0.5 626.5,-19.5 717.5,-19.5 717.5,-0.5 626.5,-0.5"/>
<text text-anchor="middle" x="672" y="-7.5" font-family="Helvetica,sans-Serif" font-size="10.00">socket_base.hpp</text>
</g>
<!-- Node1&#45;&gt;Node10 -->
<g id="edge9" class="edge"><title>Node1&#45;&gt;Node10</title>
<path fill="none" stroke="midnightblue" d="M347.056,-59.5368C403.881,-51.5386 512.939,-36.0039 616.399,-20.0696"/>
<polygon fill="midnightblue" stroke="midnightblue" points="617.043,-23.5117 626.391,-18.5266 615.974,-16.5937 617.043,-23.5117"/>
</g>
</g>
</svg>
