<?xml version="1.0" encoding="UTF-8" standalone="no"?>
<!DOCTYPE svg PUBLIC "-//W3C//DTD SVG 1.1//EN"
 "http://www.w3.org/Graphics/SVG/1.1/DTD/svg11.dtd">
<!-- Generated by graphviz version 2.36.0 (20140111.2315)
 -->
<!-- Title: src/sub.cpp Pages: 1 -->
<svg width="131pt" height="84pt"
 viewBox="0.00 0.00 131.00 84.00" xmlns="http://www.w3.org/2000/svg" xmlns:xlink="http://www.w3.org/1999/xlink">
<g id="graph0" class="graph" transform="scale(1 1) rotate(0) translate(4 80)">
<title>src/sub.cpp</title>
<polygon fill="white" stroke="none" points="-4,4 -4,-80 127,-80 127,4 -4,4"/>
<!-- Node1 -->
<g id="node1" class="node"><title>Node1</title>
<polygon fill="#bfbfbf" stroke="black" points="26,-56.5 26,-75.5 94,-75.5 94,-56.5 26,-56.5"/>
<text text-anchor="middle" x="60" y="-63.5" font-family="Helvetica,sans-Serif" font-size="10.00">src/sub.cpp</text>
</g>
<!-- Node2 -->
<g id="node2" class="node"><title>Node2</title>
<polygon fill="white" stroke="#bfbfbf" points="-0.5,-0.5 -0.5,-19.5 50.5,-19.5 50.5,-0.5 -0.5,-0.5"/>
<text text-anchor="middle" x="25" y="-7.5" font-family="Helvetica,sans-Serif" font-size="10.00">sub.hpp</text>
</g>
<!-- Node1&#45;&gt;Node2 -->
<g id="edge1" class="edge"><title>Node1&#45;&gt;Node2</title>
<path fill="none" stroke="midnightblue" d="M54.2205,-56.083C49.3276,-48.5341 42.1726,-37.4948 36.1674,-28.2298"/>
<polygon fill="midnightblue" stroke="midnightblue" points="39.048,-26.239 30.672,-19.7511 33.174,-30.0463 39.048,-26.239"/>
</g>
<!-- Node3 -->
<g id="node3" class="node"><title>Node3</title>
<polygon fill="white" stroke="#bfbfbf" points="69,-0.5 69,-19.5 123,-19.5 123,-0.5 69,-0.5"/>
<text text-anchor="middle" x="96" y="-7.5" font-family="Helvetica,sans-Serif" font-size="10.00">msg.hpp</text>
</g>
<!-- Node1&#45;&gt;Node3 -->
<g id="edge2" class="edge"><title>Node1&#45;&gt;Node3</title>
<path fill="none" stroke="midnightblue" d="M65.9447,-56.083C70.9773,-48.5341 78.3368,-37.4948 84.5135,-28.2298"/>
<polygon fill="midnightblue" stroke="midnightblue" points="87.5311,-30.0131 90.1659,-19.7511 81.7067,-26.1301 87.5311,-30.0131"/>
</g>
</g>
</svg>
