<?xml version="1.0" encoding="UTF-8" standalone="no"?>
<!DOCTYPE svg PUBLIC "-//W3C//DTD SVG 1.1//EN"
 "http://www.w3.org/Graphics/SVG/1.1/DTD/svg11.dtd">
<!-- Generated by graphviz version 2.36.0 (20140111.2315)
 -->
<!-- Title: src/socket_base.cpp Pages: 1 -->
<!--zoomable 106 -->
<svg id="main" version="1.1" xmlns="http://www.w3.org/2000/svg" xmlns:xlink="http://www.w3.org/1999/xlink" xml:space="preserve" onload="init(evt)">
<style type="text/css"><![CDATA[
.edge:hover path { stroke: red; }
.edge:hover polygon { stroke: red; fill: red; }
]]></style>
<script type="text/javascript"><![CDATA[
var edges = document.getElementsByTagName('g');
if (edges && edges.length) {
  for (var i=0;i<edges.length;i++) {
    if (edges[i].id.substr(0,4)=='edge') {
      edges[i].setAttribute('class','edge');
    }
  }
}
]]></script>
        <defs>
                <circle id="rim" cx="0" cy="0" r="7"/>
                <circle id="rim2" cx="0" cy="0" r="3.5"/>
                <g id="zoomPlus">
                        <use xlink:href="#rim" fill="#404040">
                                <set attributeName="fill" to="#808080" begin="zoomplus.mouseover" end="zoomplus.mouseout"/>
                        </use>
                        <path d="M-4,0h8M0,-4v8" fill="none" stroke="white" stroke-width="1.5" pointer-events="none"/>
                </g>
                <g id="zoomMin">
                        <use xlink:href="#rim" fill="#404040">
                                <set attributeName="fill" to="#808080" begin="zoomminus.mouseover" end="zoomminus.mouseout"/>
                        </use>
                        <path d="M-4,0h8" fill="none" stroke="white" stroke-width="1.5" pointer-events="none"/>
                </g>
                <g id="dirArrow">
                        <path fill="none" stroke="white" stroke-width="1.5" d="M0,-3.0v7 M-2.5,-0.5L0,-3.0L2.5,-0.5"/>
                </g>
               <g id="resetDef">
                       <use xlink:href="#rim2" fill="#404040">
                               <set attributeName="fill" to="#808080" begin="reset.mouseover" end="reset.mouseout"/>
                       </use>
               </g>
        </defs>

<script type="text/javascript">
var viewWidth = 3427;
var viewHeight = 106;
var sectionId = 'dynsection-0';
</script>
<script xlink:href="../../svgpan.js"/>
<svg id="graph" class="graph">
<g id="viewport">
<title>src/socket_base.cpp</title>
<polygon fill="white" stroke="none" points="-4,4 -4,-102 3423,-102 3423,4 -4,4"/>
<!-- Node1 -->
<g id="node1" class="node"><title>Node1</title>
<polygon fill="#bfbfbf" stroke="black" points="1968.5,-78.5 1968.5,-97.5 2075.5,-97.5 2075.5,-78.5 1968.5,-78.5"/>
<text text-anchor="middle" x="2022" y="-85.5" font-family="Helvetica,sans-Serif" font-size="10.00">src/socket_base.cpp</text>
</g>
<!-- Node2 -->
<g id="node2" class="node"><title>Node2</title>
<polygon fill="white" stroke="#bfbfbf" points="-0.5,-11.5 -0.5,-30.5 34.5,-30.5 34.5,-11.5 -0.5,-11.5"/>
<text text-anchor="middle" x="17" y="-18.5" font-family="Helvetica,sans-Serif" font-size="10.00">new</text>
</g>
<!-- Node1&#45;&gt;Node2 -->
<g id="edge1" class="edge"><title>Node1&#45;&gt;Node2</title>
<path fill="none" stroke="midnightblue" d="M1968.29,-86.7219C1661.01,-85.0126 136.224,-74.8945 43,-42 39.5663,-40.7884 36.226,-38.9345 33.1465,-36.8346"/>
<polygon fill="midnightblue" stroke="midnightblue" points="35.3035,-34.0781 25.2977,-30.5944 30.9471,-39.5574 35.3035,-34.0781"/>
</g>
<!-- Node3 -->
<g id="node3" class="node"><title>Node3</title>
<polygon fill="white" stroke="#bfbfbf" points="52.5,-11.5 52.5,-30.5 93.5,-30.5 93.5,-11.5 52.5,-11.5"/>
<text text-anchor="middle" x="73" y="-18.5" font-family="Helvetica,sans-Serif" font-size="10.00">string</text>
</g>
<!-- Node1&#45;&gt;Node3 -->
<g id="edge2" class="edge"><title>Node1&#45;&gt;Node3</title>
<path fill="none" stroke="midnightblue" d="M1968.49,-86.5862C1667.35,-84.1521 194.268,-70.8058 103,-42 98.952,-40.7224 94.9436,-38.7183 91.2377,-36.4622"/>
<polygon fill="midnightblue" stroke="midnightblue" points="93.0098,-33.4318 82.799,-30.6052 89.0185,-39.1824 93.0098,-33.4318"/>
</g>
<!-- Node4 -->
<g id="node4" class="node"><title>Node4</title>
<polygon fill="white" stroke="#bfbfbf" points="112,-11.5 112,-30.5 168,-30.5 168,-11.5 112,-11.5"/>
<text text-anchor="middle" x="140" y="-18.5" font-family="Helvetica,sans-Serif" font-size="10.00">algorithm</text>
</g>
<!-- Node1&#45;&gt;Node4 -->
<g id="edge3" class="edge"><title>Node1&#45;&gt;Node4</title>
<path fill="none" stroke="midnightblue" d="M1968.36,-87.1838C1683.45,-87.9606 353.786,-89.0229 177,-42 171.668,-40.5817 166.26,-38.2582 161.285,-35.6875"/>
<polygon fill="midnightblue" stroke="midnightblue" points="162.808,-32.5267 152.388,-30.6122 159.34,-38.6071 162.808,-32.5267"/>
</g>
<!-- Node5 -->
<g id="node5" class="node"><title>Node5</title>
<polygon fill="white" stroke="#bfbfbf" points="186.5,-11.5 186.5,-30.5 257.5,-30.5 257.5,-11.5 186.5,-11.5"/>
<text text-anchor="middle" x="222" y="-18.5" font-family="Helvetica,sans-Serif" font-size="10.00">platform.hpp</text>
</g>
<!-- Node1&#45;&gt;Node5 -->
<g id="edge4" class="edge"><title>Node1&#45;&gt;Node5</title>
<path fill="none" stroke="midnightblue" d="M1968.3,-86.898C1691.8,-86.2025 435.124,-80.9085 266,-42 259.346,-40.4691 252.476,-37.8906 246.2,-35.0852"/>
<polygon fill="midnightblue" stroke="midnightblue" points="247.469,-31.8114 236.943,-30.6079 244.422,-38.113 247.469,-31.8114"/>
</g>
<!-- Node6 -->
<g id="node6" class="node"><title>Node6</title>
<polygon fill="white" stroke="#bfbfbf" points="275.5,-11.5 275.5,-30.5 326.5,-30.5 326.5,-11.5 275.5,-11.5"/>
<text text-anchor="middle" x="301" y="-18.5" font-family="Helvetica,sans-Serif" font-size="10.00">unistd.h</text>
</g>
<!-- Node1&#45;&gt;Node6 -->
<g id="edge5" class="edge"><title>Node1&#45;&gt;Node6</title>
<path fill="none" stroke="midnightblue" d="M1968.11,-87.1624C1697.65,-87.7635 494.831,-87.8211 335,-42 330.153,-40.6105 325.282,-38.366 320.801,-35.8732"/>
<polygon fill="midnightblue" stroke="midnightblue" points="322.631,-32.8893 312.286,-30.602 318.946,-38.8413 322.631,-32.8893"/>
</g>
<!-- Node7 -->
<g id="node7" class="node"><title>Node7</title>
<polygon fill="white" stroke="#bfbfbf" points="344.5,-11.5 344.5,-30.5 435.5,-30.5 435.5,-11.5 344.5,-11.5"/>
<text text-anchor="middle" x="390" y="-18.5" font-family="Helvetica,sans-Serif" font-size="10.00">socket_base.hpp</text>
</g>
<!-- Node1&#45;&gt;Node7 -->
<g id="edge6" class="edge"><title>Node1&#45;&gt;Node7</title>
<path fill="none" stroke="midnightblue" d="M1968.37,-86.4865C1709.67,-83.8729 597.006,-71.0209 445,-42 436.105,-40.3018 426.738,-37.362 418.304,-34.2508"/>
<polygon fill="midnightblue" stroke="midnightblue" points="419.506,-30.9628 408.918,-30.5841 416.959,-37.4829 419.506,-30.9628"/>
</g>
<!-- Node8 -->
<g id="node8" class="node"><title>Node8</title>
<polygon fill="white" stroke="#bfbfbf" points="454,-11.5 454,-30.5 540,-30.5 540,-11.5 454,-11.5"/>
<text text-anchor="middle" x="497" y="-18.5" font-family="Helvetica,sans-Serif" font-size="10.00">tcp_listener.hpp</text>
</g>
<!-- Node1&#45;&gt;Node8 -->
<g id="edge7" class="edge"><title>Node1&#45;&gt;Node8</title>
<path fill="none" stroke="midnightblue" d="M1968.23,-86.4262C1719.88,-83.6322 690,-70.4144 549,-42 540.733,-40.334 532.065,-37.483 524.229,-34.4473"/>
<polygon fill="midnightblue" stroke="midnightblue" points="525.42,-31.1525 514.84,-30.5788 522.753,-37.6246 525.42,-31.1525"/>
</g>
<!-- Node9 -->
<g id="node9" class="node"><title>Node9</title>
<polygon fill="white" stroke="#bfbfbf" points="558,-0.5 558,-41.5 690,-41.5 690,-0.5 558,-0.5"/>
<text text-anchor="start" x="566" y="-29.5" font-family="Helvetica,sans-Serif" font-size="10.00">/home/hebert/Documentos</text>
<text text-anchor="start" x="566" y="-18.5" font-family="Helvetica,sans-Serif" font-size="10.00">/DAS/zeromq&#45;3.2.1/src</text>
<text text-anchor="middle" x="624" y="-7.5" font-family="Helvetica,sans-Serif" font-size="10.00">/fd.hpp</text>
</g>
<!-- Node1&#45;&gt;Node9 -->
<g id="edge8" class="edge"><title>Node1&#45;&gt;Node9</title>
<path fill="none" stroke="midnightblue" d="M1968.29,-86.7948C1755.49,-85.7344 970.345,-79.4146 700.244,-41.9523"/>
<polygon fill="midnightblue" stroke="midnightblue" points="700.479,-38.4501 690.083,-40.4916 699.483,-45.3789 700.479,-38.4501"/>
</g>
<!-- Node10 -->
<g id="node10" class="node"><title>Node10</title>
<polygon fill="white" stroke="#bfbfbf" points="708,-0.5 708,-41.5 840,-41.5 840,-0.5 708,-0.5"/>
<text text-anchor="start" x="716" y="-29.5" font-family="Helvetica,sans-Serif" font-size="10.00">/home/hebert/Documentos</text>
<text text-anchor="start" x="716" y="-18.5" font-family="Helvetica,sans-Serif" font-size="10.00">/DAS/zeromq&#45;3.2.1/src</text>
<text text-anchor="middle" x="774" y="-7.5" font-family="Helvetica,sans-Serif" font-size="10.00">/own.hpp</text>
</g>
<!-- Node1&#45;&gt;Node10 -->
<g id="edge9" class="edge"><title>Node1&#45;&gt;Node10</title>
<path fill="none" stroke="midnightblue" d="M1968.38,-86.5239C1771.64,-84.5349 1089,-75.4377 850.102,-41.9345"/>
<polygon fill="midnightblue" stroke="midnightblue" points="850.485,-38.4534 840.085,-40.4757 849.476,-45.3804 850.485,-38.4534"/>
</g>
<!-- Node11 -->
<g id="node11" class="node"><title>Node11</title>
<polygon fill="white" stroke="#bfbfbf" points="858,-0.5 858,-41.5 990,-41.5 990,-0.5 858,-0.5"/>
<text text-anchor="start" x="866" y="-29.5" font-family="Helvetica,sans-Serif" font-size="10.00">/home/hebert/Documentos</text>
<text text-anchor="start" x="866" y="-18.5" font-family="Helvetica,sans-Serif" font-size="10.00">/DAS/zeromq&#45;3.2.1/src</text>
<text text-anchor="middle" x="924" y="-7.5" font-family="Helvetica,sans-Serif" font-size="10.00">/stdint.hpp</text>
</g>
<!-- Node1&#45;&gt;Node11 -->
<g id="edge10" class="edge"><title>Node1&#45;&gt;Node11</title>
<path fill="none" stroke="midnightblue" d="M1968.46,-86.1753C1788.84,-83.1729 1207.81,-71.4929 999.995,-41.9223"/>
<polygon fill="midnightblue" stroke="midnightblue" points="1000.49,-38.4581 990.088,-40.455 999.468,-45.3825 1000.49,-38.4581"/>
</g>
<!-- Node12 -->
<g id="node12" class="node"><title>Node12</title>
<polygon fill="white" stroke="#bfbfbf" points="1008,-0.5 1008,-41.5 1140,-41.5 1140,-0.5 1008,-0.5"/>
<text text-anchor="start" x="1016" y="-29.5" font-family="Helvetica,sans-Serif" font-size="10.00">/home/hebert/Documentos</text>
<text text-anchor="start" x="1016" y="-18.5" font-family="Helvetica,sans-Serif" font-size="10.00">/DAS/zeromq&#45;3.2.1/src</text>
<text text-anchor="middle" x="1074" y="-7.5" font-family="Helvetica,sans-Serif" font-size="10.00">/io_object.hpp</text>
</g>
<!-- Node1&#45;&gt;Node12 -->
<g id="edge11" class="edge"><title>Node1&#45;&gt;Node12</title>
<path fill="none" stroke="midnightblue" d="M1968.45,-85.707C1807.2,-81.5862 1326.96,-67.5934 1150.05,-41.9348"/>
<polygon fill="midnightblue" stroke="midnightblue" points="1150.5,-38.464 1140.09,-40.4273 1149.46,-45.3851 1150.5,-38.464"/>
</g>
<!-- Node13 -->
<g id="node13" class="node"><title>Node13</title>
<polygon fill="white" stroke="#bfbfbf" points="1158,-0.5 1158,-41.5 1290,-41.5 1290,-0.5 1158,-0.5"/>
<text text-anchor="start" x="1166" y="-29.5" font-family="Helvetica,sans-Serif" font-size="10.00">/home/hebert/Documentos</text>
<text text-anchor="start" x="1166" y="-18.5" font-family="Helvetica,sans-Serif" font-size="10.00">/DAS/zeromq&#45;3.2.1/src</text>
<text text-anchor="middle" x="1224" y="-7.5" font-family="Helvetica,sans-Serif" font-size="10.00">/tcp_address.hpp</text>
</g>
<!-- Node1&#45;&gt;Node13 -->
<g id="edge12" class="edge"><title>Node1&#45;&gt;Node13</title>
<path fill="none" stroke="midnightblue" d="M1968.08,-87.2829C1848.98,-87.126 1554.54,-82.4408 1300.27,-42.0272"/>
<polygon fill="midnightblue" stroke="midnightblue" points="1300.53,-38.5241 1290.1,-40.3882 1299.41,-45.4349 1300.53,-38.5241"/>
</g>
<!-- Node14 -->
<g id="node14" class="node"><title>Node14</title>
<polygon fill="white" stroke="#bfbfbf" points="1308,-6 1308,-36 1472,-36 1472,-6 1308,-6"/>
<text text-anchor="start" x="1316" y="-24" font-family="Helvetica,sans-Serif" font-size="10.00">/home/hebert/Documentos</text>
<text text-anchor="middle" x="1390" y="-13" font-family="Helvetica,sans-Serif" font-size="10.00">/DAS/zeromq&#45;3.2.1/include/zmq.h</text>
</g>
<!-- Node1&#45;&gt;Node14 -->
<g id="edge13" class="edge"><title>Node1&#45;&gt;Node14</title>
<path fill="none" stroke="midnightblue" d="M1968.36,-84.9104C1870.87,-80.5866 1658.3,-68.7358 1481,-42 1473.66,-40.8932 1466.03,-39.5405 1458.44,-38.0656"/>
<polygon fill="midnightblue" stroke="midnightblue" points="1459.02,-34.6122 1448.53,-36.0668 1457.64,-41.4742 1459.02,-34.6122"/>
</g>
<!-- Node15 -->
<g id="node15" class="node"><title>Node15</title>
<polygon fill="white" stroke="#bfbfbf" points="1490.5,-11.5 1490.5,-30.5 1575.5,-30.5 1575.5,-11.5 1490.5,-11.5"/>
<text text-anchor="middle" x="1533" y="-18.5" font-family="Helvetica,sans-Serif" font-size="10.00">ipc_listener.hpp</text>
</g>
<!-- Node1&#45;&gt;Node15 -->
<g id="edge14" class="edge"><title>Node1&#45;&gt;Node15</title>
<path fill="none" stroke="midnightblue" d="M1968.29,-86.1468C1884.9,-83.784 1719.76,-74.9423 1584,-42 1576.37,-40.1498 1568.37,-37.4149 1561.02,-34.5579"/>
<polygon fill="midnightblue" stroke="midnightblue" points="1562.08,-31.2101 1551.5,-30.6576 1559.42,-37.6875 1562.08,-31.2101"/>
</g>
<!-- Node16 -->
<g id="node16" class="node"><title>Node16</title>
<polygon fill="white" stroke="#bfbfbf" points="1593.5,-11.5 1593.5,-30.5 1690.5,-30.5 1690.5,-11.5 1593.5,-11.5"/>
<text text-anchor="middle" x="1642" y="-18.5" font-family="Helvetica,sans-Serif" font-size="10.00">tcp_connecter.hpp</text>
</g>
<!-- Node1&#45;&gt;Node16 -->
<g id="edge15" class="edge"><title>Node1&#45;&gt;Node16</title>
<path fill="none" stroke="midnightblue" d="M1968.23,-82.8065C1903.63,-77.0136 1792.26,-64.6198 1699,-42 1690.28,-39.8858 1681.03,-36.9517 1672.57,-33.9817"/>
<polygon fill="midnightblue" stroke="midnightblue" points="1673.67,-30.6601 1663.08,-30.5256 1671.28,-37.2372 1673.67,-30.6601"/>
</g>
<!-- Node17 -->
<g id="node17" class="node"><title>Node17</title>
<polygon fill="white" stroke="#bfbfbf" points="1708.5,-11.5 1708.5,-30.5 1783.5,-30.5 1783.5,-11.5 1708.5,-11.5"/>
<text text-anchor="middle" x="1746" y="-18.5" font-family="Helvetica,sans-Serif" font-size="10.00">io_thread.hpp</text>
</g>
<!-- Node1&#45;&gt;Node17 -->
<g id="edge16" class="edge"><title>Node1&#45;&gt;Node17</title>
<path fill="none" stroke="midnightblue" d="M1968.2,-79.8518C1921.06,-72.794 1851.05,-60.3751 1792,-42 1785.56,-39.9964 1778.81,-37.375 1772.52,-34.6927"/>
<polygon fill="midnightblue" stroke="midnightblue" points="1773.69,-31.3839 1763.14,-30.5079 1770.84,-37.7771 1773.69,-31.3839"/>
</g>
<!-- Node18 -->
<g id="node18" class="node"><title>Node18</title>
<polygon fill="white" stroke="#bfbfbf" points="1801.5,-11.5 1801.5,-30.5 1896.5,-30.5 1896.5,-11.5 1801.5,-11.5"/>
<text text-anchor="middle" x="1849" y="-18.5" font-family="Helvetica,sans-Serif" font-size="10.00">session_base.hpp</text>
</g>
<!-- Node1&#45;&gt;Node18 -->
<g id="edge17" class="edge"><title>Node1&#45;&gt;Node18</title>
<path fill="none" stroke="midnightblue" d="M1999.03,-78.3685C1968.83,-67.0219 1915.6,-47.0246 1881.34,-34.1522"/>
<polygon fill="midnightblue" stroke="midnightblue" points="1882.38,-30.8045 1871.79,-30.5637 1879.92,-37.3573 1882.38,-30.8045"/>
</g>
<!-- Node19 -->
<g id="node19" class="node"><title>Node19</title>
<polygon fill="white" stroke="#bfbfbf" points="1915,-11.5 1915,-30.5 1977,-30.5 1977,-11.5 1915,-11.5"/>
<text text-anchor="middle" x="1946" y="-18.5" font-family="Helvetica,sans-Serif" font-size="10.00">config.hpp</text>
</g>
<!-- Node1&#45;&gt;Node19 -->
<g id="edge18" class="edge"><title>Node1&#45;&gt;Node19</title>
<path fill="none" stroke="midnightblue" d="M2011.75,-78.2338C1999.56,-67.8055 1978.98,-50.2088 1964.09,-37.4732"/>
<polygon fill="midnightblue" stroke="midnightblue" points="1965.96,-34.4671 1956.09,-30.6273 1961.41,-39.7869 1965.96,-34.4671"/>
</g>
<!-- Node20 -->
<g id="node20" class="node"><title>Node20</title>
<polygon fill="white" stroke="#bfbfbf" points="1995.5,-11.5 1995.5,-30.5 2048.5,-30.5 2048.5,-11.5 1995.5,-11.5"/>
<text text-anchor="middle" x="2022" y="-18.5" font-family="Helvetica,sans-Serif" font-size="10.00">pipe.hpp</text>
</g>
<!-- Node1&#45;&gt;Node20 -->
<g id="edge19" class="edge"><title>Node1&#45;&gt;Node20</title>
<path fill="none" stroke="midnightblue" d="M2022,-78.2338C2022,-68.6826 2022,-53.1183 2022,-40.7829"/>
<polygon fill="midnightblue" stroke="midnightblue" points="2025.5,-40.6273 2022,-30.6273 2018.5,-40.6273 2025.5,-40.6273"/>
</g>
<!-- Node21 -->
<g id="node21" class="node"><title>Node21</title>
<polygon fill="white" stroke="#bfbfbf" points="2066.5,-11.5 2066.5,-30.5 2113.5,-30.5 2113.5,-11.5 2066.5,-11.5"/>
<text text-anchor="middle" x="2090" y="-18.5" font-family="Helvetica,sans-Serif" font-size="10.00">err.hpp</text>
</g>
<!-- Node1&#45;&gt;Node21 -->
<g id="edge20" class="edge"><title>Node1&#45;&gt;Node21</title>
<path fill="none" stroke="midnightblue" d="M2031.17,-78.2338C2041.98,-67.903 2060.15,-50.5371 2073.44,-37.8315"/>
<polygon fill="midnightblue" stroke="midnightblue" points="2076.16,-40.0672 2080.97,-30.6273 2071.33,-35.0071 2076.16,-40.0672"/>
</g>
<!-- Node22 -->
<g id="node22" class="node"><title>Node22</title>
<polygon fill="white" stroke="#bfbfbf" points="2131.5,-11.5 2131.5,-30.5 2180.5,-30.5 2180.5,-11.5 2131.5,-11.5"/>
<text text-anchor="middle" x="2156" y="-18.5" font-family="Helvetica,sans-Serif" font-size="10.00">ctx.hpp</text>
</g>
<!-- Node1&#45;&gt;Node22 -->
<g id="edge21" class="edge"><title>Node1&#45;&gt;Node22</title>
<path fill="none" stroke="midnightblue" d="M2043,-78.3402C2063.45,-69.7208 2095.28,-55.8179 2122,-42 2125.73,-40.0731 2129.62,-37.9234 2133.38,-35.7678"/>
<polygon fill="midnightblue" stroke="midnightblue" points="2135.45,-38.6078 2142.3,-30.5207 2131.9,-32.5743 2135.45,-38.6078"/>
</g>
<!-- Node23 -->
<g id="node23" class="node"><title>Node23</title>
<polygon fill="white" stroke="#bfbfbf" points="2199,-11.5 2199,-30.5 2257,-30.5 2257,-11.5 2199,-11.5"/>
<text text-anchor="middle" x="2228" y="-18.5" font-family="Helvetica,sans-Serif" font-size="10.00">likely.hpp</text>
</g>
<!-- Node1&#45;&gt;Node23 -->
<g id="edge22" class="edge"><title>Node1&#45;&gt;Node23</title>
<path fill="none" stroke="midnightblue" d="M2063.26,-78.4345C2097.54,-70.7175 2147.26,-58.1175 2189,-42 2194.02,-40.0623 2199.24,-37.6698 2204.17,-35.2215"/>
<polygon fill="midnightblue" stroke="midnightblue" points="2205.9,-38.2673 2213.15,-30.5492 2202.67,-32.0564 2205.9,-38.2673"/>
</g>
<!-- Node24 -->
<g id="node24" class="node"><title>Node24</title>
<polygon fill="white" stroke="#bfbfbf" points="2275,-11.5 2275,-30.5 2329,-30.5 2329,-11.5 2275,-11.5"/>
<text text-anchor="middle" x="2302" y="-18.5" font-family="Helvetica,sans-Serif" font-size="10.00">msg.hpp</text>
</g>
<!-- Node1&#45;&gt;Node24 -->
<g id="edge23" class="edge"><title>Node1&#45;&gt;Node24</title>
<path fill="none" stroke="midnightblue" d="M2075.86,-81.907C2125.95,-76.0394 2202.09,-64.2072 2265,-42 2269.82,-40.2971 2274.78,-38.0283 2279.43,-35.6309"/>
<polygon fill="midnightblue" stroke="midnightblue" points="2281.36,-38.5664 2288.42,-30.6693 2277.97,-32.4382 2281.36,-38.5664"/>
</g>
<!-- Node25 -->
<g id="node25" class="node"><title>Node25</title>
<polygon fill="white" stroke="#bfbfbf" points="2347,-11.5 2347,-30.5 2417,-30.5 2417,-11.5 2347,-11.5"/>
<text text-anchor="middle" x="2382" y="-18.5" font-family="Helvetica,sans-Serif" font-size="10.00">address.hpp</text>
</g>
<!-- Node1&#45;&gt;Node25 -->
<g id="edge24" class="edge"><title>Node1&#45;&gt;Node25</title>
<path fill="none" stroke="midnightblue" d="M2075.53,-84.034C2139.18,-79.4492 2248.1,-68.2444 2338,-42 2344.34,-40.1482 2350.95,-37.5432 2357.05,-34.8235"/>
<polygon fill="midnightblue" stroke="midnightblue" points="2358.57,-37.9769 2366.12,-30.5472 2355.59,-31.6451 2358.57,-37.9769"/>
</g>
<!-- Node26 -->
<g id="node26" class="node"><title>Node26</title>
<polygon fill="white" stroke="#bfbfbf" points="2435,-11.5 2435,-30.5 2523,-30.5 2523,-11.5 2435,-11.5"/>
<text text-anchor="middle" x="2479" y="-18.5" font-family="Helvetica,sans-Serif" font-size="10.00">ipc_address.hpp</text>
</g>
<!-- Node1&#45;&gt;Node26 -->
<g id="edge25" class="edge"><title>Node1&#45;&gt;Node26</title>
<path fill="none" stroke="midnightblue" d="M2075.67,-85.2773C2153.76,-81.8174 2302.83,-71.6048 2426,-42 2434.07,-40.0607 2442.58,-37.2272 2450.36,-34.2995"/>
<polygon fill="midnightblue" stroke="midnightblue" points="2451.72,-37.5257 2459.73,-30.6011 2449.15,-31.0137 2451.72,-37.5257"/>
</g>
<!-- Node27 -->
<g id="node27" class="node"><title>Node27</title>
<polygon fill="white" stroke="#bfbfbf" points="2540.5,-11.5 2540.5,-30.5 2629.5,-30.5 2629.5,-11.5 2540.5,-11.5"/>
<text text-anchor="middle" x="2585" y="-18.5" font-family="Helvetica,sans-Serif" font-size="10.00">tcp_address.hpp</text>
</g>
<!-- Node1&#45;&gt;Node27 -->
<g id="edge26" class="edge"><title>Node1&#45;&gt;Node27</title>
<path fill="none" stroke="midnightblue" d="M2075.85,-86.92C2169.53,-85.7479 2368.08,-78.6798 2531,-42 2539.46,-40.0955 2548.39,-37.1857 2556.49,-34.1705"/>
<polygon fill="midnightblue" stroke="midnightblue" points="2557.84,-37.3998 2565.88,-30.5007 2555.3,-30.8798 2557.84,-37.3998"/>
</g>
<!-- Node28 -->
<g id="node28" class="node"><title>Node28</title>
<polygon fill="white" stroke="#bfbfbf" points="2647.5,-11.5 2647.5,-30.5 2698.5,-30.5 2698.5,-11.5 2647.5,-11.5"/>
<text text-anchor="middle" x="2673" y="-18.5" font-family="Helvetica,sans-Serif" font-size="10.00">pair.hpp</text>
</g>
<!-- Node1&#45;&gt;Node28 -->
<g id="edge27" class="edge"><title>Node1&#45;&gt;Node28</title>
<path fill="none" stroke="midnightblue" d="M2075.93,-86.1145C2205.95,-83.4906 2533.64,-73.8294 2638,-42 2642.85,-40.5211 2647.76,-38.2778 2652.3,-35.8211"/>
<polygon fill="midnightblue" stroke="midnightblue" points="2654.18,-38.7762 2660.98,-30.6552 2650.6,-32.7604 2654.18,-38.7762"/>
</g>
<!-- Node29 -->
<g id="node29" class="node"><title>Node29</title>
<polygon fill="white" stroke="#bfbfbf" points="2716.5,-11.5 2716.5,-30.5 2767.5,-30.5 2767.5,-11.5 2716.5,-11.5"/>
<text text-anchor="middle" x="2742" y="-18.5" font-family="Helvetica,sans-Serif" font-size="10.00">pub.hpp</text>
</g>
<!-- Node1&#45;&gt;Node29 -->
<g id="edge28" class="edge"><title>Node1&#45;&gt;Node29</title>
<path fill="none" stroke="midnightblue" d="M2075.71,-86.5814C2215.72,-84.9959 2589.17,-77.467 2707,-42 2711.85,-40.5388 2716.76,-38.3033 2721.31,-35.8485"/>
<polygon fill="midnightblue" stroke="midnightblue" points="2723.19,-38.8027 2729.99,-30.6798 2719.61,-32.7879 2723.19,-38.8027"/>
</g>
<!-- Node30 -->
<g id="node30" class="node"><title>Node30</title>
<polygon fill="white" stroke="#bfbfbf" points="2785.5,-11.5 2785.5,-30.5 2836.5,-30.5 2836.5,-11.5 2785.5,-11.5"/>
<text text-anchor="middle" x="2811" y="-18.5" font-family="Helvetica,sans-Serif" font-size="10.00">sub.hpp</text>
</g>
<!-- Node1&#45;&gt;Node30 -->
<g id="edge29" class="edge"><title>Node1&#45;&gt;Node30</title>
<path fill="none" stroke="midnightblue" d="M2075.63,-86.9608C2225.22,-86.352 2644.66,-81.1044 2776,-42 2780.86,-40.5534 2785.77,-38.3241 2790.32,-35.8709"/>
<polygon fill="midnightblue" stroke="midnightblue" points="2792.2,-38.8244 2799,-30.7 2788.61,-32.8104 2792.2,-38.8244"/>
</g>
<!-- Node31 -->
<g id="node31" class="node"><title>Node31</title>
<polygon fill="white" stroke="#bfbfbf" points="2854.5,-11.5 2854.5,-30.5 2903.5,-30.5 2903.5,-11.5 2854.5,-11.5"/>
<text text-anchor="middle" x="2879" y="-18.5" font-family="Helvetica,sans-Serif" font-size="10.00">req.hpp</text>
</g>
<!-- Node1&#45;&gt;Node31 -->
<g id="edge30" class="edge"><title>Node1&#45;&gt;Node31</title>
<path fill="none" stroke="midnightblue" d="M2075.67,-87.3607C2234.55,-87.9108 2700.39,-85.6537 2845,-42 2849.83,-40.5429 2854.69,-38.2696 2859.17,-35.7702"/>
<polygon fill="midnightblue" stroke="midnightblue" points="2861.02,-38.7424 2867.69,-30.5112 2857.34,-32.7859 2861.02,-38.7424"/>
</g>
<!-- Node32 -->
<g id="node32" class="node"><title>Node32</title>
<polygon fill="white" stroke="#bfbfbf" points="2921.5,-11.5 2921.5,-30.5 2970.5,-30.5 2970.5,-11.5 2921.5,-11.5"/>
<text text-anchor="middle" x="2946" y="-18.5" font-family="Helvetica,sans-Serif" font-size="10.00">rep.hpp</text>
</g>
<!-- Node1&#45;&gt;Node32 -->
<g id="edge31" class="edge"><title>Node1&#45;&gt;Node32</title>
<path fill="none" stroke="midnightblue" d="M2075.78,-85.7739C2256.06,-81.4577 2832.16,-65.9239 2912,-42 2916.83,-40.5528 2921.69,-38.2838 2926.17,-35.7853"/>
<polygon fill="midnightblue" stroke="midnightblue" points="2928.02,-38.7569 2934.69,-30.5245 2924.34,-32.801 2928.02,-38.7569"/>
</g>
<!-- Node33 -->
<g id="node33" class="node"><title>Node33</title>
<polygon fill="white" stroke="#bfbfbf" points="2989,-11.5 2989,-30.5 3039,-30.5 3039,-11.5 2989,-11.5"/>
<text text-anchor="middle" x="3014" y="-18.5" font-family="Helvetica,sans-Serif" font-size="10.00">pull.hpp</text>
</g>
<!-- Node1&#45;&gt;Node33 -->
<g id="edge32" class="edge"><title>Node1&#45;&gt;Node33</title>
<path fill="none" stroke="midnightblue" d="M2075.51,-85.9466C2264.25,-82.0294 2892.31,-67.2169 2979,-42 2983.95,-40.5609 2988.94,-38.2953 2993.55,-35.7976"/>
<polygon fill="midnightblue" stroke="midnightblue" points="2995.55,-38.6805 3002.33,-30.5353 2991.95,-32.6775 2995.55,-38.6805"/>
</g>
<!-- Node34 -->
<g id="node34" class="node"><title>Node34</title>
<polygon fill="white" stroke="#bfbfbf" points="3057,-11.5 3057,-30.5 3113,-30.5 3113,-11.5 3057,-11.5"/>
<text text-anchor="middle" x="3085" y="-18.5" font-family="Helvetica,sans-Serif" font-size="10.00">push.hpp</text>
</g>
<!-- Node1&#45;&gt;Node34 -->
<g id="edge33" class="edge"><title>Node1&#45;&gt;Node34</title>
<path fill="none" stroke="midnightblue" d="M2075.55,-86.0565C2273.07,-82.3843 2954.13,-67.9492 3048,-42 3053.32,-40.5299 3058.72,-38.1852 3063.69,-35.6103"/>
<polygon fill="midnightblue" stroke="midnightblue" points="3065.63,-38.5329 3072.59,-30.5444 3062.17,-32.4493 3065.63,-38.5329"/>
</g>
<!-- Node35 -->
<g id="node35" class="node"><title>Node35</title>
<polygon fill="white" stroke="#bfbfbf" points="3131,-11.5 3131,-30.5 3193,-30.5 3193,-11.5 3131,-11.5"/>
<text text-anchor="middle" x="3162" y="-18.5" font-family="Helvetica,sans-Serif" font-size="10.00">dealer.hpp</text>
</g>
<!-- Node1&#45;&gt;Node35 -->
<g id="edge34" class="edge"><title>Node1&#45;&gt;Node35</title>
<path fill="none" stroke="midnightblue" d="M2075.75,-86.0939C2282.4,-82.4332 3019.29,-67.6886 3121,-42 3127.1,-40.4595 3133.36,-37.9492 3139.1,-35.2195"/>
<polygon fill="midnightblue" stroke="midnightblue" points="3140.86,-38.2505 3148.13,-30.5506 3137.64,-32.0317 3140.86,-38.2505"/>
</g>
<!-- Node36 -->
<g id="node36" class="node"><title>Node36</title>
<polygon fill="white" stroke="#bfbfbf" points="3211,-11.5 3211,-30.5 3271,-30.5 3271,-11.5 3211,-11.5"/>
<text text-anchor="middle" x="3241" y="-18.5" font-family="Helvetica,sans-Serif" font-size="10.00">router.hpp</text>
</g>
<!-- Node1&#45;&gt;Node36 -->
<g id="edge35" class="edge"><title>Node1&#45;&gt;Node36</title>
<path fill="none" stroke="midnightblue" d="M2075.57,-86.2874C2291.46,-83.2343 3091.31,-70.1137 3201,-42 3206.83,-40.5061 3212.79,-38.0837 3218.28,-35.432"/>
<polygon fill="midnightblue" stroke="midnightblue" points="3220.29,-38.3269 3227.5,-30.5621 3217.02,-32.137 3220.29,-38.3269"/>
</g>
<!-- Node37 -->
<g id="node37" class="node"><title>Node37</title>
<polygon fill="white" stroke="#bfbfbf" points="3289,-11.5 3289,-30.5 3345,-30.5 3345,-11.5 3289,-11.5"/>
<text text-anchor="middle" x="3317" y="-18.5" font-family="Helvetica,sans-Serif" font-size="10.00">xpub.hpp</text>
</g>
<!-- Node1&#45;&gt;Node37 -->
<g id="edge36" class="edge"><title>Node1&#45;&gt;Node37</title>
<path fill="none" stroke="midnightblue" d="M2075.67,-86.487C2300.67,-84.1454 3161.75,-73.2073 3279,-42 3284.58,-40.5139 3290.27,-38.0946 3295.48,-35.4434"/>
<polygon fill="midnightblue" stroke="midnightblue" points="3297.2,-38.4937 3304.24,-30.5721 3293.8,-32.3772 3297.2,-38.4937"/>
</g>
<!-- Node38 -->
<g id="node38" class="node"><title>Node38</title>
<polygon fill="white" stroke="#bfbfbf" points="3363,-11.5 3363,-30.5 3419,-30.5 3419,-11.5 3363,-11.5"/>
<text text-anchor="middle" x="3391" y="-18.5" font-family="Helvetica,sans-Serif" font-size="10.00">xsub.hpp</text>
</g>
<!-- Node1&#45;&gt;Node38 -->
<g id="edge37" class="edge"><title>Node1&#45;&gt;Node38</title>
<path fill="none" stroke="midnightblue" d="M2075.65,-86.6025C2308.85,-84.6833 3228.27,-75.0669 3353,-42 3358.58,-40.5195 3364.27,-38.1024 3369.48,-35.4515"/>
<polygon fill="midnightblue" stroke="midnightblue" points="3371.2,-38.5015 3378.24,-30.5792 3367.8,-32.3854 3371.2,-38.5015"/>
</g>
</g>
</svg>
        <g id="navigator" transform="translate(0 0)" fill="#404254">
                <rect fill="#f2f5e9" fill-opacity="0.5" stroke="#606060" stroke-width=".5" x="0" y="0" width="60" height="60"/>
                <use id="zoomplus" xlink:href="#zoomPlus" x="17" y="9" onmousedown="handleZoom(evt,'in')"/>
                <use id="zoomminus" xlink:href="#zoomMin" x="42" y="9" onmousedown="handleZoom(evt,'out')"/>
                <use id="reset" xlink:href="#resetDef" x="30" y="36" onmousedown="handleReset()"/>
                <g id="arrowUp" xlink:href="#dirArrow" transform="translate(30 24)" onmousedown="handlePan(0,-1)">
                  <use xlink:href="#rim" fill="#404040">
                        <set attributeName="fill" to="#808080" begin="arrowUp.mouseover" end="arrowUp.mouseout"/>
                  </use>
                  <path fill="none" stroke="white" stroke-width="1.5" d="M0,-3.0v7 M-2.5,-0.5L0,-3.0L2.5,-0.5"/>
                </g>
                <g id="arrowRight" xlink:href="#dirArrow" transform="rotate(90) translate(36 -43)" onmousedown="handlePan(1,0)">
                  <use xlink:href="#rim" fill="#404040">
                        <set attributeName="fill" to="#808080" begin="arrowRight.mouseover" end="arrowRight.mouseout"/>
                  </use>
                  <path fill="none" stroke="white" stroke-width="1.5" d="M0,-3.0v7 M-2.5,-0.5L0,-3.0L2.5,-0.5"/>
                </g>
                <g id="arrowDown" xlink:href="#dirArrow" transform="rotate(180) translate(-30 -48)" onmousedown="handlePan(0,1)">
                  <use xlink:href="#rim" fill="#404040">
                        <set attributeName="fill" to="#808080" begin="arrowDown.mouseover" end="arrowDown.mouseout"/>
                  </use>
                  <path fill="none" stroke="white" stroke-width="1.5" d="M0,-3.0v7 M-2.5,-0.5L0,-3.0L2.5,-0.5"/>
                </g>
                <g id="arrowLeft" xlink:href="#dirArrow" transform="rotate(270) translate(-36 17)" onmousedown="handlePan(-1,0)">
                  <use xlink:href="#rim" fill="#404040">
                        <set attributeName="fill" to="#808080" begin="arrowLeft.mouseover" end="arrowLeft.mouseout"/>
                  </use>
                  <path fill="none" stroke="white" stroke-width="1.5" d="M0,-3.0v7 M-2.5,-0.5L0,-3.0L2.5,-0.5"/>
                </g>
        </g>
        <svg viewBox="0 0 15 15" width="100%" height="30px" preserveAspectRatio="xMaxYMin meet">
         <g id="arrow_out" transform="scale(0.3 0.3)">
          <a xlink:href="socket__base_8cpp__incl_org.svg" target="_base">
           <rect id="button" ry="5" rx="5" y="6" x="6" height="38" width="38"
                fill="#f2f5e9" fill-opacity="0.5" stroke="#606060" stroke-width="1.0"/>
           <path id="arrow"
             d="M 11.500037,31.436501 C 11.940474,20.09759 22.043105,11.32322 32.158766,21.979434 L 37.068811,17.246167 C 37.068811,17.246167 37.088388,32 37.088388,32 L 22.160133,31.978069 C 22.160133,31.978069 26.997745,27.140456 26.997745,27.140456 C 18.528582,18.264221 13.291696,25.230495 11.500037,31.436501 z"
             style="fill:#404040;"/>
          </a>
         </g>
        </svg>
</svg>
