<?xml version="1.0" encoding="UTF-8" standalone="no"?>
<!DOCTYPE svg PUBLIC "-//W3C//DTD SVG 1.1//EN"
 "http://www.w3.org/Graphics/SVG/1.1/DTD/svg11.dtd">
<!-- Generated by graphviz version 2.36.0 (20140111.2315)
 -->
<!-- Title: src/ip.cpp Pages: 1 -->
<svg width="767pt" height="106pt"
 viewBox="0.00 0.00 767.00 106.00" xmlns="http://www.w3.org/2000/svg" xmlns:xlink="http://www.w3.org/1999/xlink">
<g id="graph0" class="graph" transform="scale(1 1) rotate(0) translate(4 102)">
<title>src/ip.cpp</title>
<polygon fill="white" stroke="none" points="-4,4 -4,-102 763,-102 763,4 -4,4"/>
<!-- Node1 -->
<g id="node1" class="node"><title>Node1</title>
<polygon fill="#bfbfbf" stroke="black" points="358.5,-78.5 358.5,-97.5 417.5,-97.5 417.5,-78.5 358.5,-78.5"/>
<text text-anchor="middle" x="388" y="-85.5" font-family="Helvetica,sans-Serif" font-size="10.00">src/ip.cpp</text>
</g>
<!-- Node2 -->
<g id="node2" class="node"><title>Node2</title>
<polygon fill="white" stroke="#bfbfbf" points="-0.5,-11.5 -0.5,-30.5 42.5,-30.5 42.5,-11.5 -0.5,-11.5"/>
<text text-anchor="middle" x="21" y="-18.5" font-family="Helvetica,sans-Serif" font-size="10.00">ip.hpp</text>
</g>
<!-- Node1&#45;&gt;Node2 -->
<g id="edge1" class="edge"><title>Node1&#45;&gt;Node2</title>
<path fill="none" stroke="midnightblue" d="M358.202,-87.3117C298.272,-87.0205 159.687,-81.6816 52,-42 48.0561,-40.5467 44.0971,-38.5242 40.3898,-36.3199"/>
<polygon fill="midnightblue" stroke="midnightblue" points="42.1205,-33.2687 31.8452,-30.6863 38.2674,-39.1128 42.1205,-33.2687"/>
</g>
<!-- Node3 -->
<g id="node3" class="node"><title>Node3</title>
<polygon fill="white" stroke="#bfbfbf" points="61,-0.5 61,-41.5 193,-41.5 193,-0.5 61,-0.5"/>
<text text-anchor="start" x="69" y="-29.5" font-family="Helvetica,sans-Serif" font-size="10.00">/home/hebert/Documentos</text>
<text text-anchor="start" x="69" y="-18.5" font-family="Helvetica,sans-Serif" font-size="10.00">/DAS/zeromq&#45;3.2.1/src</text>
<text text-anchor="middle" x="127" y="-7.5" font-family="Helvetica,sans-Serif" font-size="10.00">/fd.hpp</text>
</g>
<!-- Node1&#45;&gt;Node3 -->
<g id="edge2" class="edge"><title>Node1&#45;&gt;Node3</title>
<path fill="none" stroke="midnightblue" d="M358.311,-80.0416C323.42,-71.815 263.538,-57.544 202.957,-42.2189"/>
<polygon fill="midnightblue" stroke="midnightblue" points="203.785,-38.8183 193.232,-39.7511 202.064,-45.6033 203.785,-38.8183"/>
</g>
<!-- Node4 -->
<g id="node4" class="node"><title>Node4</title>
<polygon fill="white" stroke="#bfbfbf" points="211.5,-11.5 211.5,-30.5 258.5,-30.5 258.5,-11.5 211.5,-11.5"/>
<text text-anchor="middle" x="235" y="-18.5" font-family="Helvetica,sans-Serif" font-size="10.00">err.hpp</text>
</g>
<!-- Node1&#45;&gt;Node4 -->
<g id="edge3" class="edge"><title>Node1&#45;&gt;Node4</title>
<path fill="none" stroke="midnightblue" d="M359.941,-78.3612C334.979,-70.2577 297.767,-57.1413 267,-42 263.335,-40.1965 259.558,-38.0853 255.94,-35.9232"/>
<polygon fill="midnightblue" stroke="midnightblue" points="257.761,-32.9345 247.429,-30.5902 254.044,-38.8661 257.761,-32.9345"/>
</g>
<!-- Node5 -->
<g id="node5" class="node"><title>Node5</title>
<polygon fill="white" stroke="#bfbfbf" points="276.5,-11.5 276.5,-30.5 347.5,-30.5 347.5,-11.5 276.5,-11.5"/>
<text text-anchor="middle" x="312" y="-18.5" font-family="Helvetica,sans-Serif" font-size="10.00">platform.hpp</text>
</g>
<!-- Node1&#45;&gt;Node5 -->
<g id="edge4" class="edge"><title>Node1&#45;&gt;Node5</title>
<path fill="none" stroke="midnightblue" d="M377.75,-78.2338C365.557,-67.8055 344.983,-50.2088 330.092,-37.4732"/>
<polygon fill="midnightblue" stroke="midnightblue" points="331.962,-34.4671 322.087,-30.6273 327.412,-39.7869 331.962,-34.4671"/>
</g>
<!-- Node6 -->
<g id="node6" class="node"><title>Node6</title>
<polygon fill="white" stroke="#bfbfbf" points="366,-11.5 366,-30.5 410,-30.5 410,-11.5 366,-11.5"/>
<text text-anchor="middle" x="388" y="-18.5" font-family="Helvetica,sans-Serif" font-size="10.00">fcntl.h</text>
</g>
<!-- Node1&#45;&gt;Node6 -->
<g id="edge5" class="edge"><title>Node1&#45;&gt;Node6</title>
<path fill="none" stroke="midnightblue" d="M388,-78.2338C388,-68.6826 388,-53.1183 388,-40.7829"/>
<polygon fill="midnightblue" stroke="midnightblue" points="391.5,-40.6273 388,-30.6273 384.5,-40.6273 391.5,-40.6273"/>
</g>
<!-- Node7 -->
<g id="node7" class="node"><title>Node7</title>
<polygon fill="white" stroke="#bfbfbf" points="428,-11.5 428,-30.5 496,-30.5 496,-11.5 428,-11.5"/>
<text text-anchor="middle" x="462" y="-18.5" font-family="Helvetica,sans-Serif" font-size="10.00">sys/types.h</text>
</g>
<!-- Node1&#45;&gt;Node7 -->
<g id="edge6" class="edge"><title>Node1&#45;&gt;Node7</title>
<path fill="none" stroke="midnightblue" d="M397.98,-78.2338C409.852,-67.8055 429.885,-50.2088 444.384,-37.4732"/>
<polygon fill="midnightblue" stroke="midnightblue" points="446.975,-39.8564 452.178,-30.6273 442.355,-34.5971 446.975,-39.8564"/>
</g>
<!-- Node8 -->
<g id="node8" class="node"><title>Node8</title>
<polygon fill="white" stroke="#bfbfbf" points="514.5,-11.5 514.5,-30.5 587.5,-30.5 587.5,-11.5 514.5,-11.5"/>
<text text-anchor="middle" x="551" y="-18.5" font-family="Helvetica,sans-Serif" font-size="10.00">sys/socket.h</text>
</g>
<!-- Node1&#45;&gt;Node8 -->
<g id="edge7" class="edge"><title>Node1&#45;&gt;Node8</title>
<path fill="none" stroke="midnightblue" d="M410.982,-78.4938C434.658,-69.653 472.575,-55.2775 505,-42 510.679,-39.6746 516.717,-37.1139 522.486,-34.6238"/>
<polygon fill="midnightblue" stroke="midnightblue" points="524.06,-37.7559 531.83,-30.5535 521.265,-31.3383 524.06,-37.7559"/>
</g>
<!-- Node9 -->
<g id="node9" class="node"><title>Node9</title>
<polygon fill="white" stroke="#bfbfbf" points="605.5,-11.5 605.5,-30.5 670.5,-30.5 670.5,-11.5 605.5,-11.5"/>
<text text-anchor="middle" x="638" y="-18.5" font-family="Helvetica,sans-Serif" font-size="10.00">netinet/in.h</text>
</g>
<!-- Node1&#45;&gt;Node9 -->
<g id="edge8" class="edge"><title>Node1&#45;&gt;Node9</title>
<path fill="none" stroke="midnightblue" d="M417.516,-82.8206C458.367,-76.5426 534.107,-63.113 596,-42 601.542,-40.1096 607.313,-37.6859 612.74,-35.1825"/>
<polygon fill="midnightblue" stroke="midnightblue" points="614.539,-38.1999 622.011,-30.6884 611.486,-31.9009 614.539,-38.1999"/>
</g>
<!-- Node10 -->
<g id="node10" class="node"><title>Node10</title>
<polygon fill="white" stroke="#bfbfbf" points="688.5,-11.5 688.5,-30.5 759.5,-30.5 759.5,-11.5 688.5,-11.5"/>
<text text-anchor="middle" x="724" y="-18.5" font-family="Helvetica,sans-Serif" font-size="10.00">netinet/tcp.h</text>
</g>
<!-- Node1&#45;&gt;Node10 -->
<g id="edge9" class="edge"><title>Node1&#45;&gt;Node10</title>
<path fill="none" stroke="midnightblue" d="M417.892,-84.9973C471.26,-80.8479 586.055,-69.3137 679,-42 685.352,-40.1334 691.978,-37.566 698.132,-34.8927"/>
<polygon fill="midnightblue" stroke="midnightblue" points="699.673,-38.0369 707.306,-30.6899 696.757,-31.6729 699.673,-38.0369"/>
</g>
</g>
</svg>
