<?xml version="1.0" encoding="UTF-8" standalone="no"?>
<!DOCTYPE svg PUBLIC "-//W3C//DTD SVG 1.1//EN"
 "http://www.w3.org/Graphics/SVG/1.1/DTD/svg11.dtd">
<!-- Generated by graphviz version 2.36.0 (20140111.2315)
 -->
<!-- Title: src/tcp_connecter.cpp Pages: 1 -->
<svg width="1734pt" height="84pt"
 viewBox="0.00 0.00 1734.00 84.00" xmlns="http://www.w3.org/2000/svg" xmlns:xlink="http://www.w3.org/1999/xlink">
<g id="graph0" class="graph" transform="scale(1 1) rotate(0) translate(4 80)">
<title>src/tcp_connecter.cpp</title>
<polygon fill="white" stroke="none" points="-4,4 -4,-80 1730,-80 1730,4 -4,4"/>
<!-- Node1 -->
<g id="node1" class="node"><title>Node1</title>
<polygon fill="#bfbfbf" stroke="black" points="784.5,-56.5 784.5,-75.5 897.5,-75.5 897.5,-56.5 784.5,-56.5"/>
<text text-anchor="middle" x="841" y="-63.5" font-family="Helvetica,sans-Serif" font-size="10.00">src/tcp_connecter.cpp</text>
</g>
<!-- Node2 -->
<g id="node2" class="node"><title>Node2</title>
<polygon fill="white" stroke="#bfbfbf" points="-0.5,-0.5 -0.5,-19.5 34.5,-19.5 34.5,-0.5 -0.5,-0.5"/>
<text text-anchor="middle" x="17" y="-7.5" font-family="Helvetica,sans-Serif" font-size="10.00">new</text>
</g>
<!-- Node1&#45;&gt;Node2 -->
<g id="edge1" class="edge"><title>Node1&#45;&gt;Node2</title>
<path fill="none" stroke="midnightblue" d="M784.286,-63.8383C629.979,-60.361 204.015,-48.572 44.8176,-19.7821"/>
<polygon fill="midnightblue" stroke="midnightblue" points="45.2011,-16.2923 34.723,-17.861 43.8924,-23.1689 45.2011,-16.2923"/>
</g>
<!-- Node3 -->
<g id="node3" class="node"><title>Node3</title>
<polygon fill="white" stroke="#bfbfbf" points="52.5,-0.5 52.5,-19.5 93.5,-19.5 93.5,-0.5 52.5,-0.5"/>
<text text-anchor="middle" x="73" y="-7.5" font-family="Helvetica,sans-Serif" font-size="10.00">string</text>
</g>
<!-- Node1&#45;&gt;Node3 -->
<g id="edge2" class="edge"><title>Node1&#45;&gt;Node3</title>
<path fill="none" stroke="midnightblue" d="M784.254,-63.3069C638.29,-58.6766 251.491,-44.5977 103.962,-19.8945"/>
<polygon fill="midnightblue" stroke="midnightblue" points="104.215,-16.3853 93.7595,-18.0975 103.001,-23.2792 104.215,-16.3853"/>
</g>
<!-- Node4 -->
<g id="node4" class="node"><title>Node4</title>
<polygon fill="white" stroke="#bfbfbf" points="111.5,-0.5 111.5,-19.5 208.5,-19.5 208.5,-0.5 111.5,-0.5"/>
<text text-anchor="middle" x="160" y="-7.5" font-family="Helvetica,sans-Serif" font-size="10.00">tcp_connecter.hpp</text>
</g>
<!-- Node1&#45;&gt;Node4 -->
<g id="edge3" class="edge"><title>Node1&#45;&gt;Node4</title>
<path fill="none" stroke="midnightblue" d="M784.492,-62.5291C676.527,-57.459 433.284,-44.3563 218.964,-20.1417"/>
<polygon fill="midnightblue" stroke="midnightblue" points="219.113,-16.6361 208.781,-18.9802 218.319,-23.591 219.113,-16.6361"/>
</g>
<!-- Node5 -->
<g id="node5" class="node"><title>Node5</title>
<polygon fill="white" stroke="#bfbfbf" points="226.5,-0.5 226.5,-19.5 325.5,-19.5 325.5,-0.5 226.5,-0.5"/>
<text text-anchor="middle" x="276" y="-7.5" font-family="Helvetica,sans-Serif" font-size="10.00">stream_engine.hpp</text>
</g>
<!-- Node1&#45;&gt;Node5 -->
<g id="edge4" class="edge"><title>Node1&#45;&gt;Node5</title>
<path fill="none" stroke="midnightblue" d="M784.226,-61.1784C692.181,-54.7149 504.454,-40.4235 335.705,-20.1412"/>
<polygon fill="midnightblue" stroke="midnightblue" points="335.993,-16.6505 325.644,-18.922 335.151,-23.5997 335.993,-16.6505"/>
</g>
<!-- Node6 -->
<g id="node6" class="node"><title>Node6</title>
<polygon fill="white" stroke="#bfbfbf" points="343.5,-0.5 343.5,-19.5 418.5,-19.5 418.5,-0.5 343.5,-0.5"/>
<text text-anchor="middle" x="381" y="-7.5" font-family="Helvetica,sans-Serif" font-size="10.00">io_thread.hpp</text>
</g>
<!-- Node1&#45;&gt;Node6 -->
<g id="edge5" class="edge"><title>Node1&#45;&gt;Node6</title>
<path fill="none" stroke="midnightblue" d="M784.217,-60.3663C706.214,-53.6601 561.346,-39.9872 428.555,-20.1309"/>
<polygon fill="midnightblue" stroke="midnightblue" points="429.021,-16.6615 418.61,-18.6286 427.975,-23.583 429.021,-16.6615"/>
</g>
<!-- Node7 -->
<g id="node7" class="node"><title>Node7</title>
<polygon fill="white" stroke="#bfbfbf" points="436.5,-0.5 436.5,-19.5 507.5,-19.5 507.5,-0.5 436.5,-0.5"/>
<text text-anchor="middle" x="472" y="-7.5" font-family="Helvetica,sans-Serif" font-size="10.00">platform.hpp</text>
</g>
<!-- Node1&#45;&gt;Node7 -->
<g id="edge6" class="edge"><title>Node1&#45;&gt;Node7</title>
<path fill="none" stroke="midnightblue" d="M784.363,-58.1687C721.657,-50.3735 617.361,-36.7221 517.759,-20.041"/>
<polygon fill="midnightblue" stroke="midnightblue" points="518.269,-16.5777 507.826,-18.3646 517.104,-23.4801 518.269,-16.5777"/>
</g>
<!-- Node8 -->
<g id="node8" class="node"><title>Node8</title>
<polygon fill="white" stroke="#bfbfbf" points="526,-0.5 526,-19.5 594,-19.5 594,-0.5 526,-0.5"/>
<text text-anchor="middle" x="560" y="-7.5" font-family="Helvetica,sans-Serif" font-size="10.00">random.hpp</text>
</g>
<!-- Node1&#45;&gt;Node8 -->
<g id="edge7" class="edge"><title>Node1&#45;&gt;Node8</title>
<path fill="none" stroke="midnightblue" d="M794.431,-56.4719C748.572,-48.0116 676.26,-34.5062 604.391,-20.2487"/>
<polygon fill="midnightblue" stroke="midnightblue" points="604.746,-16.7509 594.255,-18.2324 603.38,-23.6164 604.746,-16.7509"/>
</g>
<!-- Node9 -->
<g id="node9" class="node"><title>Node9</title>
<polygon fill="white" stroke="#bfbfbf" points="612.5,-0.5 612.5,-19.5 659.5,-19.5 659.5,-0.5 612.5,-0.5"/>
<text text-anchor="middle" x="636" y="-7.5" font-family="Helvetica,sans-Serif" font-size="10.00">err.hpp</text>
</g>
<!-- Node1&#45;&gt;Node9 -->
<g id="edge8" class="edge"><title>Node1&#45;&gt;Node9</title>
<path fill="none" stroke="midnightblue" d="M807.46,-56.4841C774.613,-48.0984 722.891,-34.7721 669.697,-20.4258"/>
<polygon fill="midnightblue" stroke="midnightblue" points="670.318,-16.9682 659.751,-17.7362 668.491,-23.7255 670.318,-16.9682"/>
</g>
<!-- Node10 -->
<g id="node10" class="node"><title>Node10</title>
<polygon fill="white" stroke="#bfbfbf" points="677.5,-0.5 677.5,-19.5 720.5,-19.5 720.5,-0.5 677.5,-0.5"/>
<text text-anchor="middle" x="699" y="-7.5" font-family="Helvetica,sans-Serif" font-size="10.00">ip.hpp</text>
</g>
<!-- Node1&#45;&gt;Node10 -->
<g id="edge9" class="edge"><title>Node1&#45;&gt;Node10</title>
<path fill="none" stroke="midnightblue" d="M818.5,-56.4435C794.784,-47.4249 757.239,-33.1472 730.567,-23.0043"/>
<polygon fill="midnightblue" stroke="midnightblue" points="731.52,-19.6221 720.928,-19.339 729.031,-26.165 731.52,-19.6221"/>
</g>
<!-- Node11 -->
<g id="node11" class="node"><title>Node11</title>
<polygon fill="white" stroke="#bfbfbf" points="738.5,-0.5 738.5,-19.5 787.5,-19.5 787.5,-0.5 738.5,-0.5"/>
<text text-anchor="middle" x="763" y="-7.5" font-family="Helvetica,sans-Serif" font-size="10.00">tcp.hpp</text>
</g>
<!-- Node1&#45;&gt;Node11 -->
<g id="edge10" class="edge"><title>Node1&#45;&gt;Node11</title>
<path fill="none" stroke="midnightblue" d="M828.468,-56.324C816.414,-47.979 797.973,-35.2122 783.731,-25.3524"/>
<polygon fill="midnightblue" stroke="midnightblue" points="785.715,-22.469 775.501,-19.6545 781.731,-28.2243 785.715,-22.469"/>
</g>
<!-- Node12 -->
<g id="node12" class="node"><title>Node12</title>
<polygon fill="white" stroke="#bfbfbf" points="806,-0.5 806,-19.5 876,-19.5 876,-0.5 806,-0.5"/>
<text text-anchor="middle" x="841" y="-7.5" font-family="Helvetica,sans-Serif" font-size="10.00">address.hpp</text>
</g>
<!-- Node1&#45;&gt;Node12 -->
<g id="edge11" class="edge"><title>Node1&#45;&gt;Node12</title>
<path fill="none" stroke="midnightblue" d="M841,-56.083C841,-49.0059 841,-38.8611 841,-29.9865"/>
<polygon fill="midnightblue" stroke="midnightblue" points="844.5,-29.751 841,-19.7511 837.5,-29.7511 844.5,-29.751"/>
</g>
<!-- Node13 -->
<g id="node13" class="node"><title>Node13</title>
<polygon fill="white" stroke="#bfbfbf" points="894.5,-0.5 894.5,-19.5 983.5,-19.5 983.5,-0.5 894.5,-0.5"/>
<text text-anchor="middle" x="939" y="-7.5" font-family="Helvetica,sans-Serif" font-size="10.00">tcp_address.hpp</text>
</g>
<!-- Node1&#45;&gt;Node13 -->
<g id="edge12" class="edge"><title>Node1&#45;&gt;Node13</title>
<path fill="none" stroke="midnightblue" d="M856.745,-56.324C872.319,-47.7428 896.377,-34.486 914.459,-24.5224"/>
<polygon fill="midnightblue" stroke="midnightblue" points="916.224,-27.546 923.294,-19.6545 912.846,-21.4152 916.224,-27.546"/>
</g>
<!-- Node14 -->
<g id="node14" class="node"><title>Node14</title>
<polygon fill="white" stroke="#bfbfbf" points="1001.5,-0.5 1001.5,-19.5 1096.5,-19.5 1096.5,-0.5 1001.5,-0.5"/>
<text text-anchor="middle" x="1049" y="-7.5" font-family="Helvetica,sans-Serif" font-size="10.00">session_base.hpp</text>
</g>
<!-- Node1&#45;&gt;Node14 -->
<g id="edge13" class="edge"><title>Node1&#45;&gt;Node14</title>
<path fill="none" stroke="midnightblue" d="M873.958,-56.4435C909.787,-47.1419 967.163,-32.246 1006.39,-22.062"/>
<polygon fill="midnightblue" stroke="midnightblue" points="1007.4,-25.4171 1016.2,-19.5164 1005.64,-18.6417 1007.4,-25.4171"/>
</g>
<!-- Node15 -->
<g id="node15" class="node"><title>Node15</title>
<polygon fill="white" stroke="#bfbfbf" points="1114.5,-0.5 1114.5,-19.5 1165.5,-19.5 1165.5,-0.5 1114.5,-0.5"/>
<text text-anchor="middle" x="1140" y="-7.5" font-family="Helvetica,sans-Serif" font-size="10.00">unistd.h</text>
</g>
<!-- Node1&#45;&gt;Node15 -->
<g id="edge14" class="edge"><title>Node1&#45;&gt;Node15</title>
<path fill="none" stroke="midnightblue" d="M897.65,-56.734C949.085,-48.9144 1027.22,-36.2544 1104.53,-19.9449"/>
<polygon fill="midnightblue" stroke="midnightblue" points="1105.39,-23.3398 1114.44,-17.8323 1103.93,-16.4935 1105.39,-23.3398"/>
</g>
<!-- Node16 -->
<g id="node16" class="node"><title>Node16</title>
<polygon fill="white" stroke="#bfbfbf" points="1184,-0.5 1184,-19.5 1252,-19.5 1252,-0.5 1184,-0.5"/>
<text text-anchor="middle" x="1218" y="-7.5" font-family="Helvetica,sans-Serif" font-size="10.00">sys/types.h</text>
</g>
<!-- Node1&#45;&gt;Node16 -->
<g id="edge15" class="edge"><title>Node1&#45;&gt;Node16</title>
<path fill="none" stroke="midnightblue" d="M897.74,-58.5144C964.158,-50.6494 1077.37,-36.392 1174,-20 1174.1,-19.9829 1174.2,-19.9657 1174.3,-19.9485"/>
<polygon fill="midnightblue" stroke="midnightblue" points="1174.72,-23.4306 1183.93,-18.2045 1173.47,-16.5426 1174.72,-23.4306"/>
</g>
<!-- Node17 -->
<g id="node17" class="node"><title>Node17</title>
<polygon fill="white" stroke="#bfbfbf" points="1270.5,-0.5 1270.5,-19.5 1343.5,-19.5 1343.5,-0.5 1270.5,-0.5"/>
<text text-anchor="middle" x="1307" y="-7.5" font-family="Helvetica,sans-Serif" font-size="10.00">sys/socket.h</text>
</g>
<!-- Node1&#45;&gt;Node17 -->
<g id="edge16" class="edge"><title>Node1&#45;&gt;Node17</title>
<path fill="none" stroke="midnightblue" d="M897.584,-60.502C976.464,-53.8855 1124.13,-40.2453 1260.2,-19.9918"/>
<polygon fill="midnightblue" stroke="midnightblue" points="1261.02,-23.4073 1270.39,-18.4588 1259.98,-16.4852 1261.02,-23.4073"/>
</g>
<!-- Node18 -->
<g id="node18" class="node"><title>Node18</title>
<polygon fill="white" stroke="#bfbfbf" points="1362,-0.5 1362,-19.5 1424,-19.5 1424,-0.5 1362,-0.5"/>
<text text-anchor="middle" x="1393" y="-7.5" font-family="Helvetica,sans-Serif" font-size="10.00">arpa/inet.h</text>
</g>
<!-- Node1&#45;&gt;Node18 -->
<g id="edge17" class="edge"><title>Node1&#45;&gt;Node18</title>
<path fill="none" stroke="midnightblue" d="M897.616,-62.3905C990.375,-57.5947 1180.62,-45.5783 1351.79,-19.8114"/>
<polygon fill="midnightblue" stroke="midnightblue" points="1352.38,-23.2622 1361.74,-18.2952 1351.32,-16.3422 1352.38,-23.2622"/>
</g>
<!-- Node19 -->
<g id="node19" class="node"><title>Node19</title>
<polygon fill="white" stroke="#bfbfbf" points="1442.5,-0.5 1442.5,-19.5 1513.5,-19.5 1513.5,-0.5 1442.5,-0.5"/>
<text text-anchor="middle" x="1478" y="-7.5" font-family="Helvetica,sans-Serif" font-size="10.00">netinet/tcp.h</text>
</g>
<!-- Node1&#45;&gt;Node19 -->
<g id="edge18" class="edge"><title>Node1&#45;&gt;Node19</title>
<path fill="none" stroke="midnightblue" d="M897.871,-62.8884C1003.5,-58.4748 1236.98,-46.4098 1432,-20 1432.11,-19.9857 1432.21,-19.9712 1432.32,-19.9567"/>
<polygon fill="midnightblue" stroke="midnightblue" points="1433.06,-23.3831 1442.41,-18.3912 1431.99,-16.4658 1433.06,-23.3831"/>
</g>
<!-- Node20 -->
<g id="node20" class="node"><title>Node20</title>
<polygon fill="white" stroke="#bfbfbf" points="1531.5,-0.5 1531.5,-19.5 1596.5,-19.5 1596.5,-0.5 1531.5,-0.5"/>
<text text-anchor="middle" x="1564" y="-7.5" font-family="Helvetica,sans-Serif" font-size="10.00">netinet/in.h</text>
</g>
<!-- Node1&#45;&gt;Node20 -->
<g id="edge19" class="edge"><title>Node1&#45;&gt;Node20</title>
<path fill="none" stroke="midnightblue" d="M897.786,-64.028C1013.33,-61.4483 1284.18,-52.3338 1520.89,-19.94"/>
<polygon fill="midnightblue" stroke="midnightblue" points="1521.64,-23.3692 1531.07,-18.5297 1520.68,-16.4354 1521.64,-23.3692"/>
</g>
<!-- Node21 -->
<g id="node21" class="node"><title>Node21</title>
<polygon fill="white" stroke="#bfbfbf" points="1614.5,-0.5 1614.5,-19.5 1663.5,-19.5 1663.5,-0.5 1614.5,-0.5"/>
<text text-anchor="middle" x="1639" y="-7.5" font-family="Helvetica,sans-Serif" font-size="10.00">netdb.h</text>
</g>
<!-- Node1&#45;&gt;Node21 -->
<g id="edge20" class="edge"><title>Node1&#45;&gt;Node21</title>
<path fill="none" stroke="midnightblue" d="M897.969,-65.5171C1023.93,-65.8274 1335.53,-62.0123 1604.3,-19.7508"/>
<polygon fill="midnightblue" stroke="midnightblue" points="1604.92,-23.1963 1614.24,-18.1663 1603.81,-16.2835 1604.92,-23.1963"/>
</g>
<!-- Node22 -->
<g id="node22" class="node"><title>Node22</title>
<polygon fill="white" stroke="#bfbfbf" points="1682,-0.5 1682,-19.5 1726,-19.5 1726,-0.5 1682,-0.5"/>
<text text-anchor="middle" x="1704" y="-7.5" font-family="Helvetica,sans-Serif" font-size="10.00">fcntl.h</text>
</g>
<!-- Node1&#45;&gt;Node22 -->
<g id="edge21" class="edge"><title>Node1&#45;&gt;Node22</title>
<path fill="none" stroke="midnightblue" d="M897.642,-63.5566C1056.33,-59.26 1504.01,-45.3461 1671.83,-19.5268"/>
<polygon fill="midnightblue" stroke="midnightblue" points="1672.44,-22.9733 1681.76,-17.9295 1671.33,-16.0622 1672.44,-22.9733"/>
</g>
</g>
</svg>
