<?xml version="1.0" encoding="UTF-8" standalone="no"?>
<!DOCTYPE svg PUBLIC "-//W3C//DTD SVG 1.1//EN"
 "http://www.w3.org/Graphics/SVG/1.1/DTD/svg11.dtd">
<!-- Generated by graphviz version 2.36.0 (20140111.2315)
 -->
<!-- Title: src/pub.cpp Pages: 1 -->
<svg width="1152pt" height="106pt"
 viewBox="0.00 0.00 1152.00 106.00" xmlns="http://www.w3.org/2000/svg" xmlns:xlink="http://www.w3.org/1999/xlink">
<g id="graph0" class="graph" transform="scale(1 1) rotate(0) translate(4 102)">
<title>src/pub.cpp</title>
<polygon fill="white" stroke="none" points="-4,4 -4,-102 1148,-102 1148,4 -4,4"/>
<!-- Node1 -->
<g id="node1" class="node"><title>Node1</title>
<polygon fill="#bfbfbf" stroke="black" points="447,-78.5 447,-97.5 515,-97.5 515,-78.5 447,-78.5"/>
<text text-anchor="middle" x="481" y="-85.5" font-family="Helvetica,sans-Serif" font-size="10.00">src/pub.cpp</text>
</g>
<!-- Node2 -->
<g id="node2" class="node"><title>Node2</title>
<polygon fill="white" stroke="#bfbfbf" points="-0.5,-11.5 -0.5,-30.5 50.5,-30.5 50.5,-11.5 -0.5,-11.5"/>
<text text-anchor="middle" x="25" y="-18.5" font-family="Helvetica,sans-Serif" font-size="10.00">pub.hpp</text>
</g>
<!-- Node1&#45;&gt;Node2 -->
<g id="edge1" class="edge"><title>Node1&#45;&gt;Node2</title>
<path fill="none" stroke="midnightblue" d="M446.705,-85.1509C359.637,-80.1673 131.863,-65.2429 60,-42 55.1765,-40.4399 50.2804,-38.1614 45.739,-35.6959"/>
<polygon fill="midnightblue" stroke="midnightblue" points="47.4384,-32.6346 37.0521,-30.5429 43.8671,-38.655 47.4384,-32.6346"/>
</g>
<!-- Node3 -->
<g id="node3" class="node"><title>Node3</title>
<polygon fill="white" stroke="#bfbfbf" points="69,-0.5 69,-41.5 201,-41.5 201,-0.5 69,-0.5"/>
<text text-anchor="start" x="77" y="-29.5" font-family="Helvetica,sans-Serif" font-size="10.00">/home/hebert/Documentos</text>
<text text-anchor="start" x="77" y="-18.5" font-family="Helvetica,sans-Serif" font-size="10.00">/DAS/zeromq&#45;3.2.1/src</text>
<text text-anchor="middle" x="135" y="-7.5" font-family="Helvetica,sans-Serif" font-size="10.00">/xpub.hpp</text>
</g>
<!-- Node1&#45;&gt;Node3 -->
<g id="edge2" class="edge"><title>Node1&#45;&gt;Node3</title>
<path fill="none" stroke="midnightblue" d="M446.576,-82.3656C396.729,-75.4197 301.389,-61.2544 211.025,-42.1252"/>
<polygon fill="midnightblue" stroke="midnightblue" points="211.681,-38.6863 201.17,-40.0145 210.215,-45.5311 211.681,-38.6863"/>
</g>
<!-- Node4 -->
<g id="node4" class="node"><title>Node4</title>
<polygon fill="white" stroke="#bfbfbf" points="219.5,-11.5 219.5,-30.5 262.5,-30.5 262.5,-11.5 219.5,-11.5"/>
<text text-anchor="middle" x="241" y="-18.5" font-family="Helvetica,sans-Serif" font-size="10.00">deque</text>
</g>
<!-- Node1&#45;&gt;Node4 -->
<g id="edge3" class="edge"><title>Node1&#45;&gt;Node4</title>
<path fill="none" stroke="midnightblue" d="M446.719,-83.6586C404.136,-78.6171 329.909,-66.8749 271,-42 267.385,-40.4736 263.742,-38.4954 260.3,-36.3783"/>
<polygon fill="midnightblue" stroke="midnightblue" points="262.071,-33.3509 251.822,-30.6646 258.159,-39.1557 262.071,-33.3509"/>
</g>
<!-- Node5 -->
<g id="node5" class="node"><title>Node5</title>
<polygon fill="white" stroke="#bfbfbf" points="280.5,-11.5 280.5,-30.5 321.5,-30.5 321.5,-11.5 280.5,-11.5"/>
<text text-anchor="middle" x="301" y="-18.5" font-family="Helvetica,sans-Serif" font-size="10.00">string</text>
</g>
<!-- Node1&#45;&gt;Node5 -->
<g id="edge4" class="edge"><title>Node1&#45;&gt;Node5</title>
<path fill="none" stroke="midnightblue" d="M446.884,-79.8205C415.775,-72.57 369.01,-59.8817 331,-42 327.509,-40.3579 323.961,-38.3474 320.585,-36.2411"/>
<polygon fill="midnightblue" stroke="midnightblue" points="322.464,-33.2872 312.208,-30.6288 318.568,-39.1026 322.464,-33.2872"/>
</g>
<!-- Node6 -->
<g id="node6" class="node"><title>Node6</title>
<polygon fill="white" stroke="#bfbfbf" points="340,-0.5 340,-41.5 472,-41.5 472,-0.5 340,-0.5"/>
<text text-anchor="start" x="348" y="-29.5" font-family="Helvetica,sans-Serif" font-size="10.00">/home/hebert/Documentos</text>
<text text-anchor="start" x="348" y="-18.5" font-family="Helvetica,sans-Serif" font-size="10.00">/DAS/zeromq&#45;3.2.1/src</text>
<text text-anchor="middle" x="406" y="-7.5" font-family="Helvetica,sans-Serif" font-size="10.00">/socket_base.hpp</text>
</g>
<!-- Node1&#45;&gt;Node6 -->
<g id="edge5" class="edge"><title>Node1&#45;&gt;Node6</title>
<path fill="none" stroke="midnightblue" d="M470.885,-78.2338C462.029,-70.5588 448.693,-59.0009 436.41,-48.3557"/>
<polygon fill="midnightblue" stroke="midnightblue" points="438.398,-45.4465 428.549,-41.5421 433.813,-50.7363 438.398,-45.4465"/>
</g>
<!-- Node7 -->
<g id="node7" class="node"><title>Node7</title>
<polygon fill="white" stroke="#bfbfbf" points="490,-0.5 490,-41.5 622,-41.5 622,-0.5 490,-0.5"/>
<text text-anchor="start" x="498" y="-29.5" font-family="Helvetica,sans-Serif" font-size="10.00">/home/hebert/Documentos</text>
<text text-anchor="start" x="498" y="-18.5" font-family="Helvetica,sans-Serif" font-size="10.00">/DAS/zeromq&#45;3.2.1/src</text>
<text text-anchor="middle" x="556" y="-7.5" font-family="Helvetica,sans-Serif" font-size="10.00">/session_base.hpp</text>
</g>
<!-- Node1&#45;&gt;Node7 -->
<g id="edge6" class="edge"><title>Node1&#45;&gt;Node7</title>
<path fill="none" stroke="midnightblue" d="M491.115,-78.2338C499.971,-70.5588 513.307,-59.0009 525.59,-48.3557"/>
<polygon fill="midnightblue" stroke="midnightblue" points="528.187,-50.7363 533.451,-41.5421 523.602,-45.4465 528.187,-50.7363"/>
</g>
<!-- Node8 -->
<g id="node8" class="node"><title>Node8</title>
<polygon fill="white" stroke="#bfbfbf" points="640,-0.5 640,-41.5 772,-41.5 772,-0.5 640,-0.5"/>
<text text-anchor="start" x="648" y="-29.5" font-family="Helvetica,sans-Serif" font-size="10.00">/home/hebert/Documentos</text>
<text text-anchor="start" x="648" y="-18.5" font-family="Helvetica,sans-Serif" font-size="10.00">/DAS/zeromq&#45;3.2.1/src</text>
<text text-anchor="middle" x="706" y="-7.5" font-family="Helvetica,sans-Serif" font-size="10.00">/mtrie.hpp</text>
</g>
<!-- Node1&#45;&gt;Node8 -->
<g id="edge7" class="edge"><title>Node1&#45;&gt;Node8</title>
<path fill="none" stroke="midnightblue" d="M510.878,-78.3685C541.201,-69.6085 589.372,-55.6925 630.263,-43.8796"/>
<polygon fill="midnightblue" stroke="midnightblue" points="631.308,-47.2208 639.944,-41.0828 629.366,-40.4958 631.308,-47.2208"/>
</g>
<!-- Node9 -->
<g id="node9" class="node"><title>Node9</title>
<polygon fill="white" stroke="#bfbfbf" points="790,-0.5 790,-41.5 922,-41.5 922,-0.5 790,-0.5"/>
<text text-anchor="start" x="798" y="-29.5" font-family="Helvetica,sans-Serif" font-size="10.00">/home/hebert/Documentos</text>
<text text-anchor="start" x="798" y="-18.5" font-family="Helvetica,sans-Serif" font-size="10.00">/DAS/zeromq&#45;3.2.1/src</text>
<text text-anchor="middle" x="856" y="-7.5" font-family="Helvetica,sans-Serif" font-size="10.00">/array.hpp</text>
</g>
<!-- Node1&#45;&gt;Node9 -->
<g id="edge8" class="edge"><title>Node1&#45;&gt;Node9</title>
<path fill="none" stroke="midnightblue" d="M515.414,-83.1071C569.665,-76.6955 678.523,-62.7193 780.043,-42.0887"/>
<polygon fill="midnightblue" stroke="midnightblue" points="780.753,-45.5159 789.842,-40.0714 779.342,-38.6596 780.753,-45.5159"/>
</g>
<!-- Node10 -->
<g id="node10" class="node"><title>Node10</title>
<polygon fill="white" stroke="#bfbfbf" points="940,-0.5 940,-41.5 1072,-41.5 1072,-0.5 940,-0.5"/>
<text text-anchor="start" x="948" y="-29.5" font-family="Helvetica,sans-Serif" font-size="10.00">/home/hebert/Documentos</text>
<text text-anchor="start" x="948" y="-18.5" font-family="Helvetica,sans-Serif" font-size="10.00">/DAS/zeromq&#45;3.2.1/src</text>
<text text-anchor="middle" x="1006" y="-7.5" font-family="Helvetica,sans-Serif" font-size="10.00">/dist.hpp</text>
</g>
<!-- Node1&#45;&gt;Node10 -->
<g id="edge9" class="edge"><title>Node1&#45;&gt;Node10</title>
<path fill="none" stroke="midnightblue" d="M515.131,-85.4641C589.082,-81.7356 769.675,-70.4683 929.845,-42.058"/>
<polygon fill="midnightblue" stroke="midnightblue" points="930.656,-45.4683 939.877,-40.2509 929.415,-38.5792 930.656,-45.4683"/>
</g>
<!-- Node11 -->
<g id="node11" class="node"><title>Node11</title>
<polygon fill="white" stroke="#bfbfbf" points="1090,-11.5 1090,-30.5 1144,-30.5 1144,-11.5 1090,-11.5"/>
<text text-anchor="middle" x="1117" y="-18.5" font-family="Helvetica,sans-Serif" font-size="10.00">msg.hpp</text>
</g>
<!-- Node1&#45;&gt;Node11 -->
<g id="edge10" class="edge"><title>Node1&#45;&gt;Node11</title>
<path fill="none" stroke="midnightblue" d="M515.116,-86.3614C625.78,-83.9904 973.802,-74.1036 1081,-42 1085.96,-40.5142 1091,-38.2679 1095.67,-35.8105"/>
<polygon fill="midnightblue" stroke="midnightblue" points="1097.7,-38.6804 1104.6,-30.6457 1094.19,-32.62 1097.7,-38.6804"/>
</g>
</g>
</svg>
