<?xml version="1.0" encoding="UTF-8" standalone="no"?>
<!DOCTYPE svg PUBLIC "-//W3C//DTD SVG 1.1//EN"
 "http://www.w3.org/Graphics/SVG/1.1/DTD/svg11.dtd">
<!-- Generated by graphviz version 2.36.0 (20140111.2315)
 -->
<!-- Title: src/thread.cpp Pages: 1 -->
<svg width="293pt" height="84pt"
 viewBox="0.00 0.00 293.00 84.00" xmlns="http://www.w3.org/2000/svg" xmlns:xlink="http://www.w3.org/1999/xlink">
<g id="graph0" class="graph" transform="scale(1 1) rotate(0) translate(4 80)">
<title>src/thread.cpp</title>
<polygon fill="white" stroke="none" points="-4,4 -4,-80 289,-80 289,4 -4,4"/>
<!-- Node1 -->
<g id="node1" class="node"><title>Node1</title>
<polygon fill="#bfbfbf" stroke="black" points="102.5,-56.5 102.5,-75.5 181.5,-75.5 181.5,-56.5 102.5,-56.5"/>
<text text-anchor="middle" x="142" y="-63.5" font-family="Helvetica,sans-Serif" font-size="10.00">src/thread.cpp</text>
</g>
<!-- Node2 -->
<g id="node2" class="node"><title>Node2</title>
<polygon fill="white" stroke="#bfbfbf" points="0,-0.5 0,-19.5 62,-19.5 62,-0.5 0,-0.5"/>
<text text-anchor="middle" x="31" y="-7.5" font-family="Helvetica,sans-Serif" font-size="10.00">thread.hpp</text>
</g>
<!-- Node1&#45;&gt;Node2 -->
<g id="edge1" class="edge"><title>Node1&#45;&gt;Node2</title>
<path fill="none" stroke="midnightblue" d="M124.166,-56.324C106.284,-47.6247 78.5249,-34.1202 57.9544,-24.113"/>
<polygon fill="midnightblue" stroke="midnightblue" points="59.3133,-20.8819 48.7898,-19.6545 56.251,-27.1765 59.3133,-20.8819"/>
</g>
<!-- Node3 -->
<g id="node3" class="node"><title>Node3</title>
<polygon fill="white" stroke="#bfbfbf" points="80.5,-0.5 80.5,-19.5 127.5,-19.5 127.5,-0.5 80.5,-0.5"/>
<text text-anchor="middle" x="104" y="-7.5" font-family="Helvetica,sans-Serif" font-size="10.00">err.hpp</text>
</g>
<!-- Node1&#45;&gt;Node3 -->
<g id="edge2" class="edge"><title>Node1&#45;&gt;Node3</title>
<path fill="none" stroke="midnightblue" d="M135.725,-56.083C130.358,-48.4554 122.482,-37.2645 115.921,-27.9408"/>
<polygon fill="midnightblue" stroke="midnightblue" points="118.775,-25.9149 110.158,-19.7511 113.051,-29.9434 118.775,-25.9149"/>
</g>
<!-- Node4 -->
<g id="node4" class="node"><title>Node4</title>
<polygon fill="white" stroke="#bfbfbf" points="145.5,-0.5 145.5,-19.5 216.5,-19.5 216.5,-0.5 145.5,-0.5"/>
<text text-anchor="middle" x="181" y="-7.5" font-family="Helvetica,sans-Serif" font-size="10.00">platform.hpp</text>
</g>
<!-- Node1&#45;&gt;Node4 -->
<g id="edge3" class="edge"><title>Node1&#45;&gt;Node4</title>
<path fill="none" stroke="midnightblue" d="M148.44,-56.083C153.949,-48.4554 162.031,-37.2645 168.765,-27.9408"/>
<polygon fill="midnightblue" stroke="midnightblue" points="171.662,-29.9071 174.68,-19.7511 165.987,-25.8087 171.662,-29.9071"/>
</g>
<!-- Node5 -->
<g id="node5" class="node"><title>Node5</title>
<polygon fill="white" stroke="#bfbfbf" points="235,-0.5 235,-19.5 285,-19.5 285,-0.5 235,-0.5"/>
<text text-anchor="middle" x="260" y="-7.5" font-family="Helvetica,sans-Serif" font-size="10.00">signal.h</text>
</g>
<!-- Node1&#45;&gt;Node5 -->
<g id="edge4" class="edge"><title>Node1&#45;&gt;Node5</title>
<path fill="none" stroke="midnightblue" d="M160.697,-56.4435C179.944,-47.6356 210.152,-33.8116 232.2,-23.722"/>
<polygon fill="midnightblue" stroke="midnightblue" points="233.753,-26.8603 241.39,-19.5164 230.84,-20.4951 233.753,-26.8603"/>
</g>
</g>
</svg>
