<?xml version="1.0" encoding="UTF-8" standalone="no"?>
<!DOCTYPE svg PUBLIC "-//W3C//DTD SVG 1.1//EN"
 "http://www.w3.org/Graphics/SVG/1.1/DTD/svg11.dtd">
<!-- Generated by graphviz version 2.36.0 (20140111.2315)
 -->
<!-- Title: src/devpoll.cpp Pages: 1 -->
<svg width="224pt" height="106pt"
 viewBox="0.00 0.00 224.00 106.00" xmlns="http://www.w3.org/2000/svg" xmlns:xlink="http://www.w3.org/1999/xlink">
<g id="graph0" class="graph" transform="scale(1 1) rotate(0) translate(4 102)">
<title>src/devpoll.cpp</title>
<polygon fill="white" stroke="none" points="-4,4 -4,-102 220,-102 220,4 -4,4"/>
<!-- Node1 -->
<g id="node1" class="node"><title>Node1</title>
<polygon fill="#bfbfbf" stroke="black" points="49.5,-78.5 49.5,-97.5 132.5,-97.5 132.5,-78.5 49.5,-78.5"/>
<text text-anchor="middle" x="91" y="-85.5" font-family="Helvetica,sans-Serif" font-size="10.00">src/devpoll.cpp</text>
</g>
<!-- Node2 -->
<g id="node2" class="node"><title>Node2</title>
<polygon fill="white" stroke="#bfbfbf" points="0,-11.5 0,-30.5 66,-30.5 66,-11.5 0,-11.5"/>
<text text-anchor="middle" x="33" y="-18.5" font-family="Helvetica,sans-Serif" font-size="10.00">devpoll.hpp</text>
</g>
<!-- Node1&#45;&gt;Node2 -->
<g id="edge1" class="edge"><title>Node1&#45;&gt;Node2</title>
<path fill="none" stroke="midnightblue" d="M83.1779,-78.2338C74.0465,-68.0004 58.7557,-50.8642 47.4486,-38.1924"/>
<polygon fill="midnightblue" stroke="midnightblue" points="49.9676,-35.7585 40.6982,-30.6273 44.7446,-40.419 49.9676,-35.7585"/>
</g>
<!-- Node3 -->
<g id="node3" class="node"><title>Node3</title>
<polygon fill="white" stroke="#bfbfbf" points="84,-0.5 84,-41.5 216,-41.5 216,-0.5 84,-0.5"/>
<text text-anchor="start" x="92" y="-29.5" font-family="Helvetica,sans-Serif" font-size="10.00">/home/hebert/Documentos</text>
<text text-anchor="start" x="92" y="-18.5" font-family="Helvetica,sans-Serif" font-size="10.00">/DAS/zeromq&#45;3.2.1/src</text>
<text text-anchor="middle" x="150" y="-7.5" font-family="Helvetica,sans-Serif" font-size="10.00">/poller.hpp</text>
</g>
<!-- Node1&#45;&gt;Node3 -->
<g id="edge2" class="edge"><title>Node1&#45;&gt;Node3</title>
<path fill="none" stroke="midnightblue" d="M98.957,-78.2338C105.791,-70.705 116.016,-59.4398 125.524,-48.9649"/>
<polygon fill="midnightblue" stroke="midnightblue" points="128.132,-51.299 132.262,-41.5421 122.949,-46.5943 128.132,-51.299"/>
</g>
</g>
</svg>
