<?xml version="1.0" encoding="UTF-8" standalone="no"?>
<!DOCTYPE svg PUBLIC "-//W3C//DTD SVG 1.1//EN"
 "http://www.w3.org/Graphics/SVG/1.1/DTD/svg11.dtd">
<!-- Generated by graphviz version 2.36.0 (20140111.2315)
 -->
<!-- Title: src/push.cpp Pages: 1 -->
<svg width="723pt" height="106pt"
 viewBox="0.00 0.00 723.00 106.00" xmlns="http://www.w3.org/2000/svg" xmlns:xlink="http://www.w3.org/1999/xlink">
<g id="graph0" class="graph" transform="scale(1 1) rotate(0) translate(4 102)">
<title>src/push.cpp</title>
<polygon fill="white" stroke="none" points="-4,4 -4,-102 719,-102 719,4 -4,4"/>
<!-- Node1 -->
<g id="node1" class="node"><title>Node1</title>
<polygon fill="#bfbfbf" stroke="black" points="403.5,-78.5 403.5,-97.5 476.5,-97.5 476.5,-78.5 403.5,-78.5"/>
<text text-anchor="middle" x="440" y="-85.5" font-family="Helvetica,sans-Serif" font-size="10.00">src/push.cpp</text>
</g>
<!-- Node2 -->
<g id="node2" class="node"><title>Node2</title>
<polygon fill="white" stroke="#bfbfbf" points="0,-11.5 0,-30.5 56,-30.5 56,-11.5 0,-11.5"/>
<text text-anchor="middle" x="28" y="-18.5" font-family="Helvetica,sans-Serif" font-size="10.00">push.hpp</text>
</g>
<!-- Node1&#45;&gt;Node2 -->
<g id="edge1" class="edge"><title>Node1&#45;&gt;Node2</title>
<path fill="none" stroke="midnightblue" d="M403.372,-87.1075C335.147,-86.3321 184.679,-80.0056 65,-42 60.0414,-40.4253 54.9768,-38.1779 50.2494,-35.7543"/>
<polygon fill="midnightblue" stroke="midnightblue" points="51.6003,-32.5004 41.1612,-30.6908 48.1934,-38.6154 51.6003,-32.5004"/>
</g>
<!-- Node3 -->
<g id="node3" class="node"><title>Node3</title>
<polygon fill="white" stroke="#bfbfbf" points="74,-0.5 74,-41.5 206,-41.5 206,-0.5 74,-0.5"/>
<text text-anchor="start" x="82" y="-29.5" font-family="Helvetica,sans-Serif" font-size="10.00">/home/hebert/Documentos</text>
<text text-anchor="start" x="82" y="-18.5" font-family="Helvetica,sans-Serif" font-size="10.00">/DAS/zeromq&#45;3.2.1/src</text>
<text text-anchor="middle" x="140" y="-7.5" font-family="Helvetica,sans-Serif" font-size="10.00">/socket_base.hpp</text>
</g>
<!-- Node1&#45;&gt;Node3 -->
<g id="edge2" class="edge"><title>Node1&#45;&gt;Node3</title>
<path fill="none" stroke="midnightblue" d="M403.213,-80.3815C360.54,-72.5415 287.857,-58.6893 216.285,-42.2342"/>
<polygon fill="midnightblue" stroke="midnightblue" points="216.729,-38.7443 206.196,-39.8954 215.148,-45.5634 216.729,-38.7443"/>
</g>
<!-- Node4 -->
<g id="node4" class="node"><title>Node4</title>
<polygon fill="white" stroke="#bfbfbf" points="224,-0.5 224,-41.5 356,-41.5 356,-0.5 224,-0.5"/>
<text text-anchor="start" x="232" y="-29.5" font-family="Helvetica,sans-Serif" font-size="10.00">/home/hebert/Documentos</text>
<text text-anchor="start" x="232" y="-18.5" font-family="Helvetica,sans-Serif" font-size="10.00">/DAS/zeromq&#45;3.2.1/src</text>
<text text-anchor="middle" x="290" y="-7.5" font-family="Helvetica,sans-Serif" font-size="10.00">/session_base.hpp</text>
</g>
<!-- Node1&#45;&gt;Node4 -->
<g id="edge3" class="edge"><title>Node1&#45;&gt;Node4</title>
<path fill="none" stroke="midnightblue" d="M420.081,-78.3685C400.917,-70.0642 371.061,-57.1263 344.783,-45.7391"/>
<polygon fill="midnightblue" stroke="midnightblue" points="345.857,-42.3901 335.289,-41.6254 343.073,-48.813 345.857,-42.3901"/>
</g>
<!-- Node5 -->
<g id="node5" class="node"><title>Node5</title>
<polygon fill="white" stroke="#bfbfbf" points="374,-0.5 374,-41.5 506,-41.5 506,-0.5 374,-0.5"/>
<text text-anchor="start" x="382" y="-29.5" font-family="Helvetica,sans-Serif" font-size="10.00">/home/hebert/Documentos</text>
<text text-anchor="start" x="382" y="-18.5" font-family="Helvetica,sans-Serif" font-size="10.00">/DAS/zeromq&#45;3.2.1/src</text>
<text text-anchor="middle" x="440" y="-7.5" font-family="Helvetica,sans-Serif" font-size="10.00">/lb.hpp</text>
</g>
<!-- Node1&#45;&gt;Node5 -->
<g id="edge4" class="edge"><title>Node1&#45;&gt;Node5</title>
<path fill="none" stroke="midnightblue" d="M440,-78.2338C440,-71.3628 440,-61.3799 440,-51.7259"/>
<polygon fill="midnightblue" stroke="midnightblue" points="443.5,-51.542 440,-41.5421 436.5,-51.5421 443.5,-51.542"/>
</g>
<!-- Node6 -->
<g id="node6" class="node"><title>Node6</title>
<polygon fill="white" stroke="#bfbfbf" points="524.5,-11.5 524.5,-30.5 577.5,-30.5 577.5,-11.5 524.5,-11.5"/>
<text text-anchor="middle" x="551" y="-18.5" font-family="Helvetica,sans-Serif" font-size="10.00">pipe.hpp</text>
</g>
<!-- Node1&#45;&gt;Node6 -->
<g id="edge5" class="edge"><title>Node1&#45;&gt;Node6</title>
<path fill="none" stroke="midnightblue" d="M454.97,-78.2338C473.61,-67.3182 505.663,-48.5487 527.569,-35.7209"/>
<polygon fill="midnightblue" stroke="midnightblue" points="529.407,-38.7008 536.267,-30.6273 525.869,-32.6603 529.407,-38.7008"/>
</g>
<!-- Node7 -->
<g id="node7" class="node"><title>Node7</title>
<polygon fill="white" stroke="#bfbfbf" points="595.5,-11.5 595.5,-30.5 642.5,-30.5 642.5,-11.5 595.5,-11.5"/>
<text text-anchor="middle" x="619" y="-18.5" font-family="Helvetica,sans-Serif" font-size="10.00">err.hpp</text>
</g>
<!-- Node1&#45;&gt;Node7 -->
<g id="edge6" class="edge"><title>Node1&#45;&gt;Node7</title>
<path fill="none" stroke="midnightblue" d="M476.3,-78.4695C506.401,-70.7733 549.945,-58.1843 586,-42 589.988,-40.2099 594.087,-38.033 597.981,-35.7829"/>
<polygon fill="midnightblue" stroke="midnightblue" points="599.84,-38.7484 606.547,-30.5468 596.19,-32.7757 599.84,-38.7484"/>
</g>
<!-- Node8 -->
<g id="node8" class="node"><title>Node8</title>
<polygon fill="white" stroke="#bfbfbf" points="661,-11.5 661,-30.5 715,-30.5 715,-11.5 661,-11.5"/>
<text text-anchor="middle" x="688" y="-18.5" font-family="Helvetica,sans-Serif" font-size="10.00">msg.hpp</text>
</g>
<!-- Node1&#45;&gt;Node8 -->
<g id="edge7" class="edge"><title>Node1&#45;&gt;Node8</title>
<path fill="none" stroke="midnightblue" d="M476.724,-82.4119C519.534,-76.3294 591.951,-63.7447 651,-42 655.801,-40.2321 660.745,-37.9339 665.395,-35.528"/>
<polygon fill="midnightblue" stroke="midnightblue" points="667.316,-38.4656 674.385,-30.5738 663.938,-32.3348 667.316,-38.4656"/>
</g>
</g>
</svg>
