<?xml version="1.0" encoding="UTF-8" standalone="no"?>
<!DOCTYPE svg PUBLIC "-//W3C//DTD SVG 1.1//EN"
 "http://www.w3.org/Graphics/SVG/1.1/DTD/svg11.dtd">
<!-- Generated by graphviz version 2.36.0 (20140111.2315)
 -->
<!-- Title: src/epoll.cpp Pages: 1 -->
<svg width="732pt" height="84pt"
 viewBox="0.00 0.00 732.00 84.00" xmlns="http://www.w3.org/2000/svg" xmlns:xlink="http://www.w3.org/1999/xlink">
<g id="graph0" class="graph" transform="scale(1 1) rotate(0) translate(4 80)">
<title>src/epoll.cpp</title>
<polygon fill="white" stroke="none" points="-4,4 -4,-80 728,-80 728,4 -4,4"/>
<!-- Node1 -->
<g id="node1" class="node"><title>Node1</title>
<polygon fill="#bfbfbf" stroke="black" points="315,-56.5 315,-75.5 387,-75.5 387,-56.5 315,-56.5"/>
<text text-anchor="middle" x="351" y="-63.5" font-family="Helvetica,sans-Serif" font-size="10.00">src/epoll.cpp</text>
</g>
<!-- Node2 -->
<g id="node2" class="node"><title>Node2</title>
<polygon fill="white" stroke="#bfbfbf" points="0,-0.5 0,-19.5 56,-19.5 56,-0.5 0,-0.5"/>
<text text-anchor="middle" x="28" y="-7.5" font-family="Helvetica,sans-Serif" font-size="10.00">epoll.hpp</text>
</g>
<!-- Node1&#45;&gt;Node2 -->
<g id="edge1" class="edge"><title>Node1&#45;&gt;Node2</title>
<path fill="none" stroke="midnightblue" d="M314.712,-60.2688C262.104,-53.1967 161.399,-38.8606 66.3013,-20.1259"/>
<polygon fill="midnightblue" stroke="midnightblue" points="66.7193,-16.6405 56.2283,-18.1205 65.3524,-23.5058 66.7193,-16.6405"/>
</g>
<!-- Node3 -->
<g id="node3" class="node"><title>Node3</title>
<polygon fill="white" stroke="#bfbfbf" points="74,-0.5 74,-19.5 138,-19.5 138,-0.5 74,-0.5"/>
<text text-anchor="middle" x="106" y="-7.5" font-family="Helvetica,sans-Serif" font-size="10.00">sys/epoll.h</text>
</g>
<!-- Node1&#45;&gt;Node3 -->
<g id="edge2" class="edge"><title>Node1&#45;&gt;Node3</title>
<path fill="none" stroke="midnightblue" d="M314.849,-57.0321C270.331,-47.2198 194.854,-30.5841 147.862,-20.2268"/>
<polygon fill="midnightblue" stroke="midnightblue" points="148.521,-16.788 138.002,-18.0535 147.014,-23.624 148.521,-16.788"/>
</g>
<!-- Node4 -->
<g id="node4" class="node"><title>Node4</title>
<polygon fill="white" stroke="#bfbfbf" points="156,-0.5 156,-19.5 204,-19.5 204,-0.5 156,-0.5"/>
<text text-anchor="middle" x="180" y="-7.5" font-family="Helvetica,sans-Serif" font-size="10.00">stdlib.h</text>
</g>
<!-- Node1&#45;&gt;Node4 -->
<g id="edge3" class="edge"><title>Node1&#45;&gt;Node4</title>
<path fill="none" stroke="midnightblue" d="M323.905,-56.4435C294.162,-47.0513 246.358,-31.9553 214.092,-21.7658"/>
<polygon fill="midnightblue" stroke="midnightblue" points="214.794,-18.3172 204.204,-18.6433 212.686,-24.9923 214.794,-18.3172"/>
</g>
<!-- Node5 -->
<g id="node5" class="node"><title>Node5</title>
<polygon fill="white" stroke="#bfbfbf" points="222.5,-0.5 222.5,-19.5 271.5,-19.5 271.5,-0.5 222.5,-0.5"/>
<text text-anchor="middle" x="247" y="-7.5" font-family="Helvetica,sans-Serif" font-size="10.00">string.h</text>
</g>
<!-- Node1&#45;&gt;Node5 -->
<g id="edge4" class="edge"><title>Node1&#45;&gt;Node5</title>
<path fill="none" stroke="midnightblue" d="M334.291,-56.324C317.688,-47.7034 291.998,-34.3643 272.78,-24.3855"/>
<polygon fill="midnightblue" stroke="midnightblue" points="274.156,-21.1565 263.668,-19.6545 270.93,-27.3689 274.156,-21.1565"/>
</g>
<!-- Node6 -->
<g id="node6" class="node"><title>Node6</title>
<polygon fill="white" stroke="#bfbfbf" points="289.5,-0.5 289.5,-19.5 340.5,-19.5 340.5,-0.5 289.5,-0.5"/>
<text text-anchor="middle" x="315" y="-7.5" font-family="Helvetica,sans-Serif" font-size="10.00">unistd.h</text>
</g>
<!-- Node1&#45;&gt;Node6 -->
<g id="edge5" class="edge"><title>Node1&#45;&gt;Node6</title>
<path fill="none" stroke="midnightblue" d="M345.055,-56.083C340.023,-48.5341 332.663,-37.4948 326.487,-28.2298"/>
<polygon fill="midnightblue" stroke="midnightblue" points="329.293,-26.1301 320.834,-19.7511 323.469,-30.0131 329.293,-26.1301"/>
</g>
<!-- Node7 -->
<g id="node7" class="node"><title>Node7</title>
<polygon fill="white" stroke="#bfbfbf" points="359,-0.5 359,-19.5 415,-19.5 415,-0.5 359,-0.5"/>
<text text-anchor="middle" x="387" y="-7.5" font-family="Helvetica,sans-Serif" font-size="10.00">algorithm</text>
</g>
<!-- Node1&#45;&gt;Node7 -->
<g id="edge6" class="edge"><title>Node1&#45;&gt;Node7</title>
<path fill="none" stroke="midnightblue" d="M356.945,-56.083C361.977,-48.5341 369.337,-37.4948 375.513,-28.2298"/>
<polygon fill="midnightblue" stroke="midnightblue" points="378.531,-30.0131 381.166,-19.7511 372.707,-26.1301 378.531,-30.0131"/>
</g>
<!-- Node8 -->
<g id="node8" class="node"><title>Node8</title>
<polygon fill="white" stroke="#bfbfbf" points="433.5,-0.5 433.5,-19.5 468.5,-19.5 468.5,-0.5 433.5,-0.5"/>
<text text-anchor="middle" x="451" y="-7.5" font-family="Helvetica,sans-Serif" font-size="10.00">new</text>
</g>
<!-- Node1&#45;&gt;Node8 -->
<g id="edge7" class="edge"><title>Node1&#45;&gt;Node8</title>
<path fill="none" stroke="midnightblue" d="M367.067,-56.324C382.958,-47.7428 407.507,-34.486 425.958,-24.5224"/>
<polygon fill="midnightblue" stroke="midnightblue" points="427.837,-27.4857 434.973,-19.6545 424.511,-21.3264 427.837,-27.4857"/>
</g>
<!-- Node9 -->
<g id="node9" class="node"><title>Node9</title>
<polygon fill="white" stroke="#bfbfbf" points="486.5,-0.5 486.5,-19.5 533.5,-19.5 533.5,-0.5 486.5,-0.5"/>
<text text-anchor="middle" x="510" y="-7.5" font-family="Helvetica,sans-Serif" font-size="10.00">err.hpp</text>
</g>
<!-- Node1&#45;&gt;Node9 -->
<g id="edge8" class="edge"><title>Node1&#45;&gt;Node9</title>
<path fill="none" stroke="midnightblue" d="M376.194,-56.4435C403.415,-47.1988 446.906,-32.4281 476.876,-22.2495"/>
<polygon fill="midnightblue" stroke="midnightblue" points="478.136,-25.5183 486.479,-18.9883 475.884,-18.8901 478.136,-25.5183"/>
</g>
<!-- Node10 -->
<g id="node10" class="node"><title>Node10</title>
<polygon fill="white" stroke="#bfbfbf" points="552,-0.5 552,-19.5 614,-19.5 614,-0.5 552,-0.5"/>
<text text-anchor="middle" x="583" y="-7.5" font-family="Helvetica,sans-Serif" font-size="10.00">config.hpp</text>
</g>
<!-- Node1&#45;&gt;Node10 -->
<g id="edge9" class="edge"><title>Node1&#45;&gt;Node10</title>
<path fill="none" stroke="midnightblue" d="M387.25,-56.5625C429.222,-46.7931 498.193,-30.7395 542.062,-20.5287"/>
<polygon fill="midnightblue" stroke="midnightblue" points="542.886,-23.9306 551.832,-18.2546 541.299,-17.1128 542.886,-23.9306"/>
</g>
<!-- Node11 -->
<g id="node11" class="node"><title>Node11</title>
<polygon fill="white" stroke="#bfbfbf" points="632,-0.5 632,-19.5 724,-19.5 724,-0.5 632,-0.5"/>
<text text-anchor="middle" x="678" y="-7.5" font-family="Helvetica,sans-Serif" font-size="10.00">i_poll_events.hpp</text>
</g>
<!-- Node1&#45;&gt;Node11 -->
<g id="edge10" class="edge"><title>Node1&#45;&gt;Node11</title>
<path fill="none" stroke="midnightblue" d="M387.244,-59.0147C444.105,-49.6249 554.705,-31.3607 621.9,-20.2642"/>
<polygon fill="midnightblue" stroke="midnightblue" points="622.596,-23.6967 631.892,-18.6141 621.456,-16.7903 622.596,-23.6967"/>
</g>
</g>
</svg>
