<?xml version="1.0" encoding="UTF-8" standalone="no"?>
<!DOCTYPE svg PUBLIC "-//W3C//DTD SVG 1.1//EN"
 "http://www.w3.org/Graphics/SVG/1.1/DTD/svg11.dtd">
<!-- Generated by graphviz version 2.36.0 (20140111.2315)
 -->
<!-- Title: src/mtrie.cpp Pages: 1 -->
<svg width="753pt" height="106pt"
 viewBox="0.00 0.00 753.00 106.00" xmlns="http://www.w3.org/2000/svg" xmlns:xlink="http://www.w3.org/1999/xlink">
<g id="graph0" class="graph" transform="scale(1 1) rotate(0) translate(4 102)">
<title>src/mtrie.cpp</title>
<polygon fill="white" stroke="none" points="-4,4 -4,-102 749,-102 749,4 -4,4"/>
<!-- Node1 -->
<g id="node1" class="node"><title>Node1</title>
<polygon fill="#bfbfbf" stroke="black" points="304,-78.5 304,-97.5 378,-97.5 378,-78.5 304,-78.5"/>
<text text-anchor="middle" x="341" y="-85.5" font-family="Helvetica,sans-Serif" font-size="10.00">src/mtrie.cpp</text>
</g>
<!-- Node2 -->
<g id="node2" class="node"><title>Node2</title>
<polygon fill="white" stroke="#bfbfbf" points="0,-11.5 0,-30.5 48,-30.5 48,-11.5 0,-11.5"/>
<text text-anchor="middle" x="24" y="-18.5" font-family="Helvetica,sans-Serif" font-size="10.00">stdlib.h</text>
</g>
<!-- Node1&#45;&gt;Node2 -->
<g id="edge1" class="edge"><title>Node1&#45;&gt;Node2</title>
<path fill="none" stroke="midnightblue" d="M303.543,-85.651C248.095,-82.6459 141.613,-72.9824 57,-42 52.7537,-40.4452 48.4525,-38.3198 44.4204,-36.0329"/>
<polygon fill="midnightblue" stroke="midnightblue" points="45.9964,-32.8919 35.6533,-30.5959 42.3071,-38.8408 45.9964,-32.8919"/>
</g>
<!-- Node3 -->
<g id="node3" class="node"><title>Node3</title>
<polygon fill="white" stroke="#bfbfbf" points="66.5,-11.5 66.5,-30.5 101.5,-30.5 101.5,-11.5 66.5,-11.5"/>
<text text-anchor="middle" x="84" y="-18.5" font-family="Helvetica,sans-Serif" font-size="10.00">new</text>
</g>
<!-- Node1&#45;&gt;Node3 -->
<g id="edge2" class="edge"><title>Node1&#45;&gt;Node3</title>
<path fill="none" stroke="midnightblue" d="M303.643,-84.7663C256.846,-80.8467 175.032,-70.2407 111,-42 107.798,-40.5876 104.613,-38.7386 101.614,-36.7353"/>
<polygon fill="midnightblue" stroke="midnightblue" points="103.445,-33.7336 93.3411,-30.5446 99.2507,-39.3382 103.445,-33.7336"/>
</g>
<!-- Node4 -->
<g id="node4" class="node"><title>Node4</title>
<polygon fill="white" stroke="#bfbfbf" points="120,-11.5 120,-30.5 176,-30.5 176,-11.5 120,-11.5"/>
<text text-anchor="middle" x="148" y="-18.5" font-family="Helvetica,sans-Serif" font-size="10.00">algorithm</text>
</g>
<!-- Node1&#45;&gt;Node4 -->
<g id="edge3" class="edge"><title>Node1&#45;&gt;Node4</title>
<path fill="none" stroke="midnightblue" d="M303.998,-78.707C271.905,-70.9567 224.527,-58.1643 185,-42 180.345,-40.0963 175.517,-37.7693 170.945,-35.3846"/>
<polygon fill="midnightblue" stroke="midnightblue" points="172.513,-32.2528 162.06,-30.5255 169.154,-38.3944 172.513,-32.2528"/>
</g>
<!-- Node5 -->
<g id="node5" class="node"><title>Node5</title>
<polygon fill="white" stroke="#bfbfbf" points="194.5,-11.5 194.5,-30.5 265.5,-30.5 265.5,-11.5 194.5,-11.5"/>
<text text-anchor="middle" x="230" y="-18.5" font-family="Helvetica,sans-Serif" font-size="10.00">platform.hpp</text>
</g>
<!-- Node1&#45;&gt;Node5 -->
<g id="edge4" class="edge"><title>Node1&#45;&gt;Node5</title>
<path fill="none" stroke="midnightblue" d="M326.03,-78.2338C307.39,-67.3182 275.337,-48.5487 253.431,-35.7209"/>
<polygon fill="midnightblue" stroke="midnightblue" points="255.131,-32.6603 244.733,-30.6273 251.593,-38.7008 255.131,-32.6603"/>
</g>
<!-- Node6 -->
<g id="node6" class="node"><title>Node6</title>
<polygon fill="white" stroke="#bfbfbf" points="283.5,-11.5 283.5,-30.5 330.5,-30.5 330.5,-11.5 283.5,-11.5"/>
<text text-anchor="middle" x="307" y="-18.5" font-family="Helvetica,sans-Serif" font-size="10.00">err.hpp</text>
</g>
<!-- Node1&#45;&gt;Node6 -->
<g id="edge5" class="edge"><title>Node1&#45;&gt;Node6</title>
<path fill="none" stroke="midnightblue" d="M336.415,-78.2338C331.266,-68.3903 322.776,-52.1598 316.237,-39.6594"/>
<polygon fill="midnightblue" stroke="midnightblue" points="319.249,-37.866 311.513,-30.6273 313.046,-41.1106 319.249,-37.866"/>
</g>
<!-- Node7 -->
<g id="node7" class="node"><title>Node7</title>
<polygon fill="white" stroke="#bfbfbf" points="348.5,-11.5 348.5,-30.5 401.5,-30.5 401.5,-11.5 348.5,-11.5"/>
<text text-anchor="middle" x="375" y="-18.5" font-family="Helvetica,sans-Serif" font-size="10.00">pipe.hpp</text>
</g>
<!-- Node1&#45;&gt;Node7 -->
<g id="edge6" class="edge"><title>Node1&#45;&gt;Node7</title>
<path fill="none" stroke="midnightblue" d="M345.585,-78.2338C350.734,-68.3903 359.224,-52.1598 365.763,-39.6594"/>
<polygon fill="midnightblue" stroke="midnightblue" points="368.954,-41.1106 370.487,-30.6273 362.751,-37.866 368.954,-41.1106"/>
</g>
<!-- Node8 -->
<g id="node8" class="node"><title>Node8</title>
<polygon fill="white" stroke="#bfbfbf" points="419.5,-11.5 419.5,-30.5 476.5,-30.5 476.5,-11.5 419.5,-11.5"/>
<text text-anchor="middle" x="448" y="-18.5" font-family="Helvetica,sans-Serif" font-size="10.00">mtrie.hpp</text>
</g>
<!-- Node1&#45;&gt;Node8 -->
<g id="edge7" class="edge"><title>Node1&#45;&gt;Node8</title>
<path fill="none" stroke="midnightblue" d="M355.43,-78.2338C373.319,-67.3669 404.021,-48.7161 425.13,-35.8931"/>
<polygon fill="midnightblue" stroke="midnightblue" points="427.069,-38.8105 433.798,-30.6273 423.434,-32.8279 427.069,-38.8105"/>
</g>
<!-- Node9 -->
<g id="node9" class="node"><title>Node9</title>
<polygon fill="white" stroke="#bfbfbf" points="495,-11.5 495,-30.5 547,-30.5 547,-11.5 495,-11.5"/>
<text text-anchor="middle" x="521" y="-18.5" font-family="Helvetica,sans-Serif" font-size="10.00">stddef.h</text>
</g>
<!-- Node1&#45;&gt;Node9 -->
<g id="edge8" class="edge"><title>Node1&#45;&gt;Node9</title>
<path fill="none" stroke="midnightblue" d="M375.163,-78.4424C404.792,-70.5245 448.529,-57.6349 485,-42 489.331,-40.1434 493.818,-37.9171 498.094,-35.6347"/>
<polygon fill="midnightblue" stroke="midnightblue" points="499.953,-38.6049 506.973,-30.6698 496.537,-32.4951 499.953,-38.6049"/>
</g>
<!-- Node10 -->
<g id="node10" class="node"><title>Node10</title>
<polygon fill="white" stroke="#bfbfbf" points="565,-11.5 565,-30.5 595,-30.5 595,-11.5 565,-11.5"/>
<text text-anchor="middle" x="580" y="-18.5" font-family="Helvetica,sans-Serif" font-size="10.00">set</text>
</g>
<!-- Node1&#45;&gt;Node10 -->
<g id="edge9" class="edge"><title>Node1&#45;&gt;Node10</title>
<path fill="none" stroke="midnightblue" d="M378.121,-84.6995C422.423,-80.7485 497.811,-70.1467 556,-42 558.746,-40.6715 561.445,-38.9612 563.983,-37.1011"/>
<polygon fill="midnightblue" stroke="midnightblue" points="566.409,-39.6353 571.837,-30.5367 561.92,-34.2643 566.409,-39.6353"/>
</g>
<!-- Node11 -->
<g id="node11" class="node"><title>Node11</title>
<polygon fill="white" stroke="#bfbfbf" points="613,-0.5 613,-41.5 745,-41.5 745,-0.5 613,-0.5"/>
<text text-anchor="start" x="621" y="-29.5" font-family="Helvetica,sans-Serif" font-size="10.00">/home/hebert/Documentos</text>
<text text-anchor="start" x="621" y="-18.5" font-family="Helvetica,sans-Serif" font-size="10.00">/DAS/zeromq&#45;3.2.1/src</text>
<text text-anchor="middle" x="679" y="-7.5" font-family="Helvetica,sans-Serif" font-size="10.00">/stdint.hpp</text>
</g>
<!-- Node1&#45;&gt;Node11 -->
<g id="edge10" class="edge"><title>Node1&#45;&gt;Node11</title>
<path fill="none" stroke="midnightblue" d="M378.077,-81.6744C429.017,-74.1207 523.395,-59.2763 603,-42 603.1,-41.9783 603.2,-41.9566 603.3,-41.9348"/>
<polygon fill="midnightblue" stroke="midnightblue" points="603.781,-45.4144 612.763,-39.7945 602.237,-38.5868 603.781,-45.4144"/>
</g>
</g>
</svg>
