<?xml version="1.0" encoding="UTF-8" standalone="no"?>
<!DOCTYPE svg PUBLIC "-//W3C//DTD SVG 1.1//EN"
 "http://www.w3.org/Graphics/SVG/1.1/DTD/svg11.dtd">
<!-- Generated by graphviz version 2.36.0 (20140111.2315)
 -->
<!-- Title: src/dealer.cpp Pages: 1 -->
<svg width="2508pt" height="106pt"
 viewBox="0.00 0.00 2508.00 106.00" xmlns="http://www.w3.org/2000/svg" xmlns:xlink="http://www.w3.org/1999/xlink">
<g id="graph0" class="graph" transform="scale(1 1) rotate(0) translate(4 102)">
<title>src/dealer.cpp</title>
<polygon fill="white" stroke="none" points="-4,4 -4,-102 2504,-102 2504,4 -4,4"/>
<!-- Node1 -->
<g id="node1" class="node"><title>Node1</title>
<polygon fill="#bfbfbf" stroke="black" points="1132,-78.5 1132,-97.5 1210,-97.5 1210,-78.5 1132,-78.5"/>
<text text-anchor="middle" x="1171" y="-85.5" font-family="Helvetica,sans-Serif" font-size="10.00">src/dealer.cpp</text>
</g>
<!-- Node2 -->
<g id="node2" class="node"><title>Node2</title>
<polygon fill="white" stroke="#bfbfbf" points="0,-11.5 0,-30.5 62,-30.5 62,-11.5 0,-11.5"/>
<text text-anchor="middle" x="31" y="-18.5" font-family="Helvetica,sans-Serif" font-size="10.00">dealer.hpp</text>
</g>
<!-- Node1&#45;&gt;Node2 -->
<g id="edge1" class="edge"><title>Node1&#45;&gt;Node2</title>
<path fill="none" stroke="midnightblue" d="M1131.71,-86.371C947.651,-83.2925 175.225,-68.8647 71,-42 65.1733,-40.4981 59.2085,-38.0726 53.7233,-35.4203"/>
<polygon fill="midnightblue" stroke="midnightblue" points="54.9786,-32.1253 44.5013,-30.5519 51.7106,-38.3157 54.9786,-32.1253"/>
</g>
<!-- Node3 -->
<g id="node3" class="node"><title>Node3</title>
<polygon fill="white" stroke="#bfbfbf" points="80,-0.5 80,-41.5 212,-41.5 212,-0.5 80,-0.5"/>
<text text-anchor="start" x="88" y="-29.5" font-family="Helvetica,sans-Serif" font-size="10.00">/home/hebert/Documentos</text>
<text text-anchor="start" x="88" y="-18.5" font-family="Helvetica,sans-Serif" font-size="10.00">/DAS/zeromq&#45;3.2.1/src</text>
<text text-anchor="middle" x="146" y="-7.5" font-family="Helvetica,sans-Serif" font-size="10.00">/socket_base.hpp</text>
</g>
<!-- Node1&#45;&gt;Node3 -->
<g id="edge2" class="edge"><title>Node1&#45;&gt;Node3</title>
<path fill="none" stroke="midnightblue" d="M1131.9,-86.2598C978.993,-83.1959 420.531,-70.382 222.11,-41.9404"/>
<polygon fill="midnightblue" stroke="midnightblue" points="222.498,-38.4596 212.09,-40.4426 221.463,-45.3827 222.498,-38.4596"/>
</g>
<!-- Node4 -->
<g id="node4" class="node"><title>Node4</title>
<polygon fill="white" stroke="#bfbfbf" points="230,-0.5 230,-41.5 362,-41.5 362,-0.5 230,-0.5"/>
<text text-anchor="start" x="238" y="-29.5" font-family="Helvetica,sans-Serif" font-size="10.00">/home/hebert/Documentos</text>
<text text-anchor="start" x="238" y="-18.5" font-family="Helvetica,sans-Serif" font-size="10.00">/DAS/zeromq&#45;3.2.1/src</text>
<text text-anchor="middle" x="296" y="-7.5" font-family="Helvetica,sans-Serif" font-size="10.00">/session_base.hpp</text>
</g>
<!-- Node1&#45;&gt;Node4 -->
<g id="edge3" class="edge"><title>Node1&#45;&gt;Node4</title>
<path fill="none" stroke="midnightblue" d="M1131.99,-87.6136C1016.83,-88.8317 668.445,-88.2566 372.17,-42.0039"/>
<polygon fill="midnightblue" stroke="midnightblue" points="372.52,-38.5157 362.095,-40.4101 371.426,-45.4297 372.52,-38.5157"/>
</g>
<!-- Node5 -->
<g id="node5" class="node"><title>Node5</title>
<polygon fill="white" stroke="#bfbfbf" points="380.5,-11.5 380.5,-30.5 421.5,-30.5 421.5,-11.5 380.5,-11.5"/>
<text text-anchor="middle" x="401" y="-18.5" font-family="Helvetica,sans-Serif" font-size="10.00">string</text>
</g>
<!-- Node1&#45;&gt;Node5 -->
<g id="edge4" class="edge"><title>Node1&#45;&gt;Node5</title>
<path fill="none" stroke="midnightblue" d="M1131.63,-87.2943C997.981,-87.8771 562.605,-86.2516 431,-42 427.041,-40.669 423.109,-38.6732 419.457,-36.4497"/>
<polygon fill="midnightblue" stroke="midnightblue" points="421.326,-33.4875 411.104,-30.702 417.358,-39.2542 421.326,-33.4875"/>
</g>
<!-- Node6 -->
<g id="node6" class="node"><title>Node6</title>
<polygon fill="white" stroke="#bfbfbf" points="440,-11.5 440,-30.5 492,-30.5 492,-11.5 440,-11.5"/>
<text text-anchor="middle" x="466" y="-18.5" font-family="Helvetica,sans-Serif" font-size="10.00">stdarg.h</text>
</g>
<!-- Node1&#45;&gt;Node6 -->
<g id="edge5" class="edge"><title>Node1&#45;&gt;Node6</title>
<path fill="none" stroke="midnightblue" d="M1131.58,-86.6641C1006.56,-85.2377 620.143,-77.9571 501,-42 496.147,-40.5353 491.238,-38.2982 486.693,-35.843"/>
<polygon fill="midnightblue" stroke="midnightblue" points="488.394,-32.7824 478.011,-30.6749 484.813,-38.7974 488.394,-32.7824"/>
</g>
<!-- Node7 -->
<g id="node7" class="node"><title>Node7</title>
<polygon fill="white" stroke="#bfbfbf" points="510,-0.5 510,-41.5 642,-41.5 642,-0.5 510,-0.5"/>
<text text-anchor="start" x="518" y="-29.5" font-family="Helvetica,sans-Serif" font-size="10.00">/home/hebert/Documentos</text>
<text text-anchor="start" x="518" y="-18.5" font-family="Helvetica,sans-Serif" font-size="10.00">/DAS/zeromq&#45;3.2.1/src</text>
<text text-anchor="middle" x="576" y="-7.5" font-family="Helvetica,sans-Serif" font-size="10.00">/own.hpp</text>
</g>
<!-- Node1&#45;&gt;Node7 -->
<g id="edge6" class="edge"><title>Node1&#45;&gt;Node7</title>
<path fill="none" stroke="midnightblue" d="M1131.89,-85.9404C1046.38,-83.1265 836.396,-73.5084 651.987,-42.0115"/>
<polygon fill="midnightblue" stroke="midnightblue" points="652.565,-38.5595 642.114,-40.2997 651.369,-45.4566 652.565,-38.5595"/>
</g>
<!-- Node8 -->
<g id="node8" class="node"><title>Node8</title>
<polygon fill="white" stroke="#bfbfbf" points="660,-0.5 660,-41.5 792,-41.5 792,-0.5 660,-0.5"/>
<text text-anchor="start" x="668" y="-29.5" font-family="Helvetica,sans-Serif" font-size="10.00">/home/hebert/Documentos</text>
<text text-anchor="start" x="668" y="-18.5" font-family="Helvetica,sans-Serif" font-size="10.00">/DAS/zeromq&#45;3.2.1/src</text>
<text text-anchor="middle" x="726" y="-7.5" font-family="Helvetica,sans-Serif" font-size="10.00">/io_object.hpp</text>
</g>
<!-- Node1&#45;&gt;Node8 -->
<g id="edge7" class="edge"><title>Node1&#45;&gt;Node8</title>
<path fill="none" stroke="midnightblue" d="M1131.83,-84.0454C1065.79,-78.6717 927.963,-65.7767 802.317,-42.1187"/>
<polygon fill="midnightblue" stroke="midnightblue" points="802.617,-38.6127 792.137,-40.1729 801.302,-45.4882 802.617,-38.6127"/>
</g>
<!-- Node9 -->
<g id="node9" class="node"><title>Node9</title>
<polygon fill="white" stroke="#bfbfbf" points="810,-11.5 810,-30.5 862,-30.5 862,-11.5 810,-11.5"/>
<text text-anchor="middle" x="836" y="-18.5" font-family="Helvetica,sans-Serif" font-size="10.00">stddef.h</text>
</g>
<!-- Node1&#45;&gt;Node9 -->
<g id="edge8" class="edge"><title>Node1&#45;&gt;Node9</title>
<path fill="none" stroke="midnightblue" d="M1131.54,-85.6987C1073.11,-82.7538 960.808,-73.1653 871,-42 866.413,-40.4083 861.742,-38.2105 857.369,-35.852"/>
<polygon fill="midnightblue" stroke="midnightblue" points="858.818,-32.6441 848.421,-30.6051 855.277,-38.6826 858.818,-32.6441"/>
</g>
<!-- Node10 -->
<g id="node10" class="node"><title>Node10</title>
<polygon fill="white" stroke="#bfbfbf" points="880,-0.5 880,-41.5 1012,-41.5 1012,-0.5 880,-0.5"/>
<text text-anchor="start" x="888" y="-29.5" font-family="Helvetica,sans-Serif" font-size="10.00">/home/hebert/Documentos</text>
<text text-anchor="start" x="888" y="-18.5" font-family="Helvetica,sans-Serif" font-size="10.00">/DAS/zeromq&#45;3.2.1/src</text>
<text text-anchor="middle" x="946" y="-7.5" font-family="Helvetica,sans-Serif" font-size="10.00">/stdint.hpp</text>
</g>
<!-- Node1&#45;&gt;Node10 -->
<g id="edge9" class="edge"><title>Node1&#45;&gt;Node10</title>
<path fill="none" stroke="midnightblue" d="M1141.12,-78.3685C1110.8,-69.6085 1062.63,-55.6925 1021.74,-43.8796"/>
<polygon fill="midnightblue" stroke="midnightblue" points="1022.63,-40.4958 1012.06,-41.0828 1020.69,-47.2208 1022.63,-40.4958"/>
</g>
<!-- Node11 -->
<g id="node11" class="node"><title>Node11</title>
<polygon fill="white" stroke="#bfbfbf" points="1030,-0.5 1030,-41.5 1162,-41.5 1162,-0.5 1030,-0.5"/>
<text text-anchor="start" x="1038" y="-29.5" font-family="Helvetica,sans-Serif" font-size="10.00">/home/hebert/Documentos</text>
<text text-anchor="start" x="1038" y="-18.5" font-family="Helvetica,sans-Serif" font-size="10.00">/DAS/zeromq&#45;3.2.1/src</text>
<text text-anchor="middle" x="1096" y="-7.5" font-family="Helvetica,sans-Serif" font-size="10.00">/poller.hpp</text>
</g>
<!-- Node1&#45;&gt;Node11 -->
<g id="edge10" class="edge"><title>Node1&#45;&gt;Node11</title>
<path fill="none" stroke="midnightblue" d="M1160.89,-78.2338C1152.03,-70.5588 1138.69,-59.0009 1126.41,-48.3557"/>
<polygon fill="midnightblue" stroke="midnightblue" points="1128.4,-45.4465 1118.55,-41.5421 1123.81,-50.7363 1128.4,-45.4465"/>
</g>
<!-- Node12 -->
<g id="node12" class="node"><title>Node12</title>
<polygon fill="white" stroke="#bfbfbf" points="1180,-0.5 1180,-41.5 1312,-41.5 1312,-0.5 1180,-0.5"/>
<text text-anchor="start" x="1188" y="-29.5" font-family="Helvetica,sans-Serif" font-size="10.00">/home/hebert/Documentos</text>
<text text-anchor="start" x="1188" y="-18.5" font-family="Helvetica,sans-Serif" font-size="10.00">/DAS/zeromq&#45;3.2.1/src</text>
<text text-anchor="middle" x="1246" y="-7.5" font-family="Helvetica,sans-Serif" font-size="10.00">/i_poll_events.hpp</text>
</g>
<!-- Node1&#45;&gt;Node12 -->
<g id="edge11" class="edge"><title>Node1&#45;&gt;Node12</title>
<path fill="none" stroke="midnightblue" d="M1181.11,-78.2338C1189.97,-70.5588 1203.31,-59.0009 1215.59,-48.3557"/>
<polygon fill="midnightblue" stroke="midnightblue" points="1218.19,-50.7363 1223.45,-41.5421 1213.6,-45.4465 1218.19,-50.7363"/>
</g>
<!-- Node13 -->
<g id="node13" class="node"><title>Node13</title>
<polygon fill="white" stroke="#bfbfbf" points="1330,-0.5 1330,-41.5 1462,-41.5 1462,-0.5 1330,-0.5"/>
<text text-anchor="start" x="1338" y="-29.5" font-family="Helvetica,sans-Serif" font-size="10.00">/home/hebert/Documentos</text>
<text text-anchor="start" x="1338" y="-18.5" font-family="Helvetica,sans-Serif" font-size="10.00">/DAS/zeromq&#45;3.2.1/src</text>
<text text-anchor="middle" x="1396" y="-7.5" font-family="Helvetica,sans-Serif" font-size="10.00">/pipe.hpp</text>
</g>
<!-- Node1&#45;&gt;Node13 -->
<g id="edge12" class="edge"><title>Node1&#45;&gt;Node13</title>
<path fill="none" stroke="midnightblue" d="M1200.88,-78.3685C1231.2,-69.6085 1279.37,-55.6925 1320.26,-43.8796"/>
<polygon fill="midnightblue" stroke="midnightblue" points="1321.31,-47.2208 1329.94,-41.0828 1319.37,-40.4958 1321.31,-47.2208"/>
</g>
<!-- Node14 -->
<g id="node14" class="node"><title>Node14</title>
<polygon fill="white" stroke="#bfbfbf" points="1480,-0.5 1480,-41.5 1612,-41.5 1612,-0.5 1480,-0.5"/>
<text text-anchor="start" x="1488" y="-29.5" font-family="Helvetica,sans-Serif" font-size="10.00">/home/hebert/Documentos</text>
<text text-anchor="start" x="1488" y="-18.5" font-family="Helvetica,sans-Serif" font-size="10.00">/DAS/zeromq&#45;3.2.1/src</text>
<text text-anchor="middle" x="1546" y="-7.5" font-family="Helvetica,sans-Serif" font-size="10.00">/i_msg_source.hpp</text>
</g>
<!-- Node1&#45;&gt;Node14 -->
<g id="edge13" class="edge"><title>Node1&#45;&gt;Node14</title>
<path fill="none" stroke="midnightblue" d="M1210.08,-82.5529C1265.72,-75.9126 1371.11,-62.1957 1469.99,-42.1001"/>
<polygon fill="midnightblue" stroke="midnightblue" points="1470.75,-45.516 1479.84,-40.0714 1469.34,-38.6598 1470.75,-45.516"/>
</g>
<!-- Node15 -->
<g id="node15" class="node"><title>Node15</title>
<polygon fill="white" stroke="#bfbfbf" points="1630,-0.5 1630,-41.5 1762,-41.5 1762,-0.5 1630,-0.5"/>
<text text-anchor="start" x="1638" y="-29.5" font-family="Helvetica,sans-Serif" font-size="10.00">/home/hebert/Documentos</text>
<text text-anchor="start" x="1638" y="-18.5" font-family="Helvetica,sans-Serif" font-size="10.00">/DAS/zeromq&#45;3.2.1/src</text>
<text text-anchor="middle" x="1696" y="-7.5" font-family="Helvetica,sans-Serif" font-size="10.00">/i_msg_sink.hpp</text>
</g>
<!-- Node1&#45;&gt;Node15 -->
<g id="edge14" class="edge"><title>Node1&#45;&gt;Node15</title>
<path fill="none" stroke="midnightblue" d="M1210.12,-85.2093C1286.9,-81.239 1462.8,-69.8969 1619.58,-42.1054"/>
<polygon fill="midnightblue" stroke="midnightblue" points="1620.66,-45.4678 1629.88,-40.2509 1619.42,-38.5786 1620.66,-45.4678"/>
</g>
<!-- Node16 -->
<g id="node16" class="node"><title>Node16</title>
<polygon fill="white" stroke="#bfbfbf" points="1780,-0.5 1780,-41.5 1912,-41.5 1912,-0.5 1780,-0.5"/>
<text text-anchor="start" x="1788" y="-29.5" font-family="Helvetica,sans-Serif" font-size="10.00">/home/hebert/Documentos</text>
<text text-anchor="start" x="1788" y="-18.5" font-family="Helvetica,sans-Serif" font-size="10.00">/DAS/zeromq&#45;3.2.1/src</text>
<text text-anchor="middle" x="1846" y="-7.5" font-family="Helvetica,sans-Serif" font-size="10.00">/fq.hpp</text>
</g>
<!-- Node1&#45;&gt;Node16 -->
<g id="edge15" class="edge"><title>Node1&#45;&gt;Node16</title>
<path fill="none" stroke="midnightblue" d="M1210.26,-86.5703C1305.07,-84.997 1553.98,-77.6714 1769.96,-42.0063"/>
<polygon fill="midnightblue" stroke="midnightblue" points="1770.61,-45.4462 1779.89,-40.3417 1769.45,-38.5425 1770.61,-45.4462"/>
</g>
<!-- Node17 -->
<g id="node17" class="node"><title>Node17</title>
<polygon fill="white" stroke="#bfbfbf" points="1930,-0.5 1930,-41.5 2062,-41.5 2062,-0.5 1930,-0.5"/>
<text text-anchor="start" x="1938" y="-29.5" font-family="Helvetica,sans-Serif" font-size="10.00">/home/hebert/Documentos</text>
<text text-anchor="start" x="1938" y="-18.5" font-family="Helvetica,sans-Serif" font-size="10.00">/DAS/zeromq&#45;3.2.1/src</text>
<text text-anchor="middle" x="1996" y="-7.5" font-family="Helvetica,sans-Serif" font-size="10.00">/array.hpp</text>
</g>
<!-- Node1&#45;&gt;Node17 -->
<g id="edge16" class="edge"><title>Node1&#45;&gt;Node17</title>
<path fill="none" stroke="midnightblue" d="M1210.34,-87.4058C1320.92,-87.9612 1643.85,-85.5652 1919.7,-42.0294"/>
<polygon fill="midnightblue" stroke="midnightblue" points="1920.58,-45.4327 1929.9,-40.3964 1919.47,-38.5206 1920.58,-45.4327"/>
</g>
<!-- Node18 -->
<g id="node18" class="node"><title>Node18</title>
<polygon fill="white" stroke="#bfbfbf" points="2080,-0.5 2080,-41.5 2212,-41.5 2212,-0.5 2080,-0.5"/>
<text text-anchor="start" x="2088" y="-29.5" font-family="Helvetica,sans-Serif" font-size="10.00">/home/hebert/Documentos</text>
<text text-anchor="start" x="2088" y="-18.5" font-family="Helvetica,sans-Serif" font-size="10.00">/DAS/zeromq&#45;3.2.1/src</text>
<text text-anchor="middle" x="2146" y="-7.5" font-family="Helvetica,sans-Serif" font-size="10.00">/msg.hpp</text>
</g>
<!-- Node1&#45;&gt;Node18 -->
<g id="edge17" class="edge"><title>Node1&#45;&gt;Node18</title>
<path fill="none" stroke="midnightblue" d="M1210.07,-86.1419C1357.64,-82.7337 1881.85,-69.0756 2069.88,-41.9443"/>
<polygon fill="midnightblue" stroke="midnightblue" points="2070.54,-45.3836 2079.91,-40.433 2069.5,-38.4617 2070.54,-45.3836"/>
</g>
<!-- Node19 -->
<g id="node19" class="node"><title>Node19</title>
<polygon fill="white" stroke="#bfbfbf" points="2230,-0.5 2230,-41.5 2362,-41.5 2362,-0.5 2230,-0.5"/>
<text text-anchor="start" x="2238" y="-29.5" font-family="Helvetica,sans-Serif" font-size="10.00">/home/hebert/Documentos</text>
<text text-anchor="start" x="2238" y="-18.5" font-family="Helvetica,sans-Serif" font-size="10.00">/DAS/zeromq&#45;3.2.1/src</text>
<text text-anchor="middle" x="2296" y="-7.5" font-family="Helvetica,sans-Serif" font-size="10.00">/lb.hpp</text>
</g>
<!-- Node1&#45;&gt;Node19 -->
<g id="edge18" class="edge"><title>Node1&#45;&gt;Node19</title>
<path fill="none" stroke="midnightblue" d="M1210.21,-86.4618C1373.44,-84.0479 2000.44,-73.0135 2219.78,-41.9534"/>
<polygon fill="midnightblue" stroke="midnightblue" points="2220.53,-45.3806 2229.91,-40.4592 2219.51,-38.4555 2220.53,-45.3806"/>
</g>
<!-- Node20 -->
<g id="node20" class="node"><title>Node20</title>
<polygon fill="white" stroke="#bfbfbf" points="2380.5,-11.5 2380.5,-30.5 2427.5,-30.5 2427.5,-11.5 2380.5,-11.5"/>
<text text-anchor="middle" x="2404" y="-18.5" font-family="Helvetica,sans-Serif" font-size="10.00">err.hpp</text>
</g>
<!-- Node1&#45;&gt;Node20 -->
<g id="edge19" class="edge"><title>Node1&#45;&gt;Node20</title>
<path fill="none" stroke="midnightblue" d="M1210.3,-86.6979C1404.62,-85.0471 2257.85,-75.9085 2371,-42 2375.6,-40.6213 2380.21,-38.4464 2384.47,-36.0294"/>
<polygon fill="midnightblue" stroke="midnightblue" points="2386.51,-38.8808 2393.07,-30.5665 2382.76,-32.9709 2386.51,-38.8808"/>
</g>
<!-- Node21 -->
<g id="node21" class="node"><title>Node21</title>
<polygon fill="white" stroke="#bfbfbf" points="2446,-11.5 2446,-30.5 2500,-30.5 2500,-11.5 2446,-11.5"/>
<text text-anchor="middle" x="2473" y="-18.5" font-family="Helvetica,sans-Serif" font-size="10.00">msg.hpp</text>
</g>
<!-- Node1&#45;&gt;Node21 -->
<g id="edge20" class="edge"><title>Node1&#45;&gt;Node21</title>
<path fill="none" stroke="midnightblue" d="M1210.06,-86.6706C1410.13,-84.8418 2315.39,-74.8021 2436,-42 2441.32,-40.5519 2446.73,-38.2163 2451.7,-35.6431"/>
<polygon fill="midnightblue" stroke="midnightblue" points="2453.65,-38.5645 2460.6,-30.5732 2450.18,-32.4822 2453.65,-38.5645"/>
</g>
</g>
</svg>
