<?xml version="1.0" encoding="UTF-8" standalone="no"?>
<!DOCTYPE svg PUBLIC "-//W3C//DTD SVG 1.1//EN"
 "http://www.w3.org/Graphics/SVG/1.1/DTD/svg11.dtd">
<!-- Generated by graphviz version 2.36.0 (20140111.2315)
 -->
<!-- Title: src/tcp_listener.cpp Pages: 1 -->
<!--zoomable 84 -->
<svg id="main" version="1.1" xmlns="http://www.w3.org/2000/svg" xmlns:xlink="http://www.w3.org/1999/xlink" xml:space="preserve" onload="init(evt)">
<style type="text/css"><![CDATA[
.edge:hover path { stroke: red; }
.edge:hover polygon { stroke: red; fill: red; }
]]></style>
<script type="text/javascript"><![CDATA[
var edges = document.getElementsByTagName('g');
if (edges && edges.length) {
  for (var i=0;i<edges.length;i++) {
    if (edges[i].id.substr(0,4)=='edge') {
      edges[i].setAttribute('class','edge');
    }
  }
}
]]></script>
        <defs>
                <circle id="rim" cx="0" cy="0" r="7"/>
                <circle id="rim2" cx="0" cy="0" r="3.5"/>
                <g id="zoomPlus">
                        <use xlink:href="#rim" fill="#404040">
                                <set attributeName="fill" to="#808080" begin="zoomplus.mouseover" end="zoomplus.mouseout"/>
                        </use>
                        <path d="M-4,0h8M0,-4v8" fill="none" stroke="white" stroke-width="1.5" pointer-events="none"/>
                </g>
                <g id="zoomMin">
                        <use xlink:href="#rim" fill="#404040">
                                <set attributeName="fill" to="#808080" begin="zoomminus.mouseover" end="zoomminus.mouseout"/>
                        </use>
                        <path d="M-4,0h8" fill="none" stroke="white" stroke-width="1.5" pointer-events="none"/>
                </g>
                <g id="dirArrow">
                        <path fill="none" stroke="white" stroke-width="1.5" d="M0,-3.0v7 M-2.5,-0.5L0,-3.0L2.5,-0.5"/>
                </g>
               <g id="resetDef">
                       <use xlink:href="#rim2" fill="#404040">
                               <set attributeName="fill" to="#808080" begin="reset.mouseover" end="reset.mouseout"/>
                       </use>
               </g>
        </defs>

<script type="text/javascript">
var viewWidth = 1544;
var viewHeight = 84;
var sectionId = 'dynsection-0';
</script>
<script xlink:href="../../svgpan.js"/>
<svg id="graph" class="graph">
<g id="viewport">
<title>src/tcp_listener.cpp</title>
<polygon fill="white" stroke="none" points="-4,4 -4,-80 1540,-80 1540,4 -4,4"/>
<!-- Node1 -->
<g id="node1" class="node"><title>Node1</title>
<polygon fill="#bfbfbf" stroke="black" points="745,-56.5 745,-75.5 847,-75.5 847,-56.5 745,-56.5"/>
<text text-anchor="middle" x="796" y="-63.5" font-family="Helvetica,sans-Serif" font-size="10.00">src/tcp_listener.cpp</text>
</g>
<!-- Node2 -->
<g id="node2" class="node"><title>Node2</title>
<polygon fill="white" stroke="#bfbfbf" points="-0.5,-0.5 -0.5,-19.5 34.5,-19.5 34.5,-0.5 -0.5,-0.5"/>
<text text-anchor="middle" x="17" y="-7.5" font-family="Helvetica,sans-Serif" font-size="10.00">new</text>
</g>
<!-- Node1&#45;&gt;Node2 -->
<g id="edge1" class="edge"><title>Node1&#45;&gt;Node2</title>
<path fill="none" stroke="midnightblue" d="M744.863,-63.7634C601.465,-60.0139 196.608,-47.426 44.7831,-19.7823"/>
<polygon fill="midnightblue" stroke="midnightblue" points="45.205,-16.2995 34.7247,-17.8529 43.8862,-23.1741 45.205,-16.2995"/>
</g>
<!-- Node3 -->
<g id="node3" class="node"><title>Node3</title>
<polygon fill="white" stroke="#bfbfbf" points="52.5,-0.5 52.5,-19.5 93.5,-19.5 93.5,-0.5 52.5,-0.5"/>
<text text-anchor="middle" x="73" y="-7.5" font-family="Helvetica,sans-Serif" font-size="10.00">string</text>
</g>
<!-- Node1&#45;&gt;Node3 -->
<g id="edge2" class="edge"><title>Node1&#45;&gt;Node3</title>
<path fill="none" stroke="midnightblue" d="M744.99,-65.7849C631.049,-66.6622 347.351,-63.9803 103.863,-19.9426"/>
<polygon fill="midnightblue" stroke="midnightblue" points="104.229,-16.4514 93.7614,-18.0874 102.965,-23.3362 104.229,-16.4514"/>
</g>
<!-- Node4 -->
<g id="node4" class="node"><title>Node4</title>
<polygon fill="white" stroke="#bfbfbf" points="111.5,-0.5 111.5,-19.5 182.5,-19.5 182.5,-0.5 111.5,-0.5"/>
<text text-anchor="middle" x="147" y="-7.5" font-family="Helvetica,sans-Serif" font-size="10.00">platform.hpp</text>
</g>
<!-- Node1&#45;&gt;Node4 -->
<g id="edge3" class="edge"><title>Node1&#45;&gt;Node4</title>
<path fill="none" stroke="midnightblue" d="M744.869,-63.3139C642.149,-59.467 403.294,-48.2067 192.796,-19.9311"/>
<polygon fill="midnightblue" stroke="midnightblue" points="193.174,-16.4505 182.794,-18.5718 192.232,-23.3867 193.174,-16.4505"/>
</g>
<!-- Node5 -->
<g id="node5" class="node"><title>Node5</title>
<polygon fill="white" stroke="#bfbfbf" points="201,-0.5 201,-19.5 287,-19.5 287,-0.5 201,-0.5"/>
<text text-anchor="middle" x="244" y="-7.5" font-family="Helvetica,sans-Serif" font-size="10.00">tcp_listener.hpp</text>
</g>
<!-- Node1&#45;&gt;Node5 -->
<g id="edge4" class="edge"><title>Node1&#45;&gt;Node5</title>
<path fill="none" stroke="midnightblue" d="M744.743,-61.7735C655.791,-55.8714 466.889,-42.0026 297.206,-20.0576"/>
<polygon fill="midnightblue" stroke="midnightblue" points="297.458,-16.5609 287.089,-18.7365 296.551,-23.502 297.458,-16.5609"/>
</g>
<!-- Node6 -->
<g id="node6" class="node"><title>Node6</title>
<polygon fill="white" stroke="#bfbfbf" points="305.5,-0.5 305.5,-19.5 404.5,-19.5 404.5,-0.5 305.5,-0.5"/>
<text text-anchor="middle" x="355" y="-7.5" font-family="Helvetica,sans-Serif" font-size="10.00">stream_engine.hpp</text>
</g>
<!-- Node1&#45;&gt;Node6 -->
<g id="edge5" class="edge"><title>Node1&#45;&gt;Node6</title>
<path fill="none" stroke="midnightblue" d="M744.815,-59.5948C673.231,-51.9008 538.899,-36.9742 414.721,-20.196"/>
<polygon fill="midnightblue" stroke="midnightblue" points="415.037,-16.7068 404.656,-18.8289 414.094,-23.6431 415.037,-16.7068"/>
</g>
<!-- Node7 -->
<g id="node7" class="node"><title>Node7</title>
<polygon fill="white" stroke="#bfbfbf" points="422.5,-0.5 422.5,-19.5 497.5,-19.5 497.5,-0.5 422.5,-0.5"/>
<text text-anchor="middle" x="460" y="-7.5" font-family="Helvetica,sans-Serif" font-size="10.00">io_thread.hpp</text>
</g>
<!-- Node1&#45;&gt;Node7 -->
<g id="edge6" class="edge"><title>Node1&#45;&gt;Node7</title>
<path fill="none" stroke="midnightblue" d="M744.824,-57.6794C688.9,-49.5408 596.416,-35.6765 507.604,-20.2313"/>
<polygon fill="midnightblue" stroke="midnightblue" points="508.087,-16.7628 497.633,-18.4879 506.881,-23.6581 508.087,-16.7628"/>
</g>
<!-- Node8 -->
<g id="node8" class="node"><title>Node8</title>
<polygon fill="white" stroke="#bfbfbf" points="515.5,-0.5 515.5,-19.5 610.5,-19.5 610.5,-0.5 515.5,-0.5"/>
<text text-anchor="middle" x="563" y="-7.5" font-family="Helvetica,sans-Serif" font-size="10.00">session_base.hpp</text>
</g>
<!-- Node1&#45;&gt;Node8 -->
<g id="edge7" class="edge"><title>Node1&#45;&gt;Node8</title>
<path fill="none" stroke="midnightblue" d="M759.08,-56.4435C718.605,-47.0629 653.579,-31.9926 609.616,-21.8036"/>
<polygon fill="midnightblue" stroke="midnightblue" points="610.279,-18.3646 599.747,-19.5164 608.698,-25.1839 610.279,-18.3646"/>
</g>
<!-- Node9 -->
<g id="node9" class="node"><title>Node9</title>
<polygon fill="white" stroke="#bfbfbf" points="629,-0.5 629,-19.5 691,-19.5 691,-0.5 629,-0.5"/>
<text text-anchor="middle" x="660" y="-7.5" font-family="Helvetica,sans-Serif" font-size="10.00">config.hpp</text>
</g>
<!-- Node1&#45;&gt;Node9 -->
<g id="edge8" class="edge"><title>Node1&#45;&gt;Node9</title>
<path fill="none" stroke="midnightblue" d="M774.45,-56.4435C751.969,-47.5171 716.512,-33.4387 691.02,-23.3168"/>
<polygon fill="midnightblue" stroke="midnightblue" points="692.035,-19.9539 681.449,-19.5164 689.451,-26.4598 692.035,-19.9539"/>
</g>
<!-- Node10 -->
<g id="node10" class="node"><title>Node10</title>
<polygon fill="white" stroke="#bfbfbf" points="709.5,-0.5 709.5,-19.5 756.5,-19.5 756.5,-0.5 709.5,-0.5"/>
<text text-anchor="middle" x="733" y="-7.5" font-family="Helvetica,sans-Serif" font-size="10.00">err.hpp</text>
</g>
<!-- Node1&#45;&gt;Node10 -->
<g id="edge9" class="edge"><title>Node1&#45;&gt;Node10</title>
<path fill="none" stroke="midnightblue" d="M785.878,-56.324C776.474,-48.2631 762.256,-36.0765 750.931,-26.3695"/>
<polygon fill="midnightblue" stroke="midnightblue" points="753.177,-23.6844 743.306,-19.8339 748.621,-28.9993 753.177,-23.6844"/>
</g>
<!-- Node11 -->
<g id="node11" class="node"><title>Node11</title>
<polygon fill="white" stroke="#bfbfbf" points="774.5,-0.5 774.5,-19.5 817.5,-19.5 817.5,-0.5 774.5,-0.5"/>
<text text-anchor="middle" x="796" y="-7.5" font-family="Helvetica,sans-Serif" font-size="10.00">ip.hpp</text>
</g>
<!-- Node1&#45;&gt;Node11 -->
<g id="edge10" class="edge"><title>Node1&#45;&gt;Node11</title>
<path fill="none" stroke="midnightblue" d="M796,-56.083C796,-49.0059 796,-38.8611 796,-29.9865"/>
<polygon fill="midnightblue" stroke="midnightblue" points="799.5,-29.751 796,-19.7511 792.5,-29.7511 799.5,-29.751"/>
</g>
<!-- Node12 -->
<g id="node12" class="node"><title>Node12</title>
<polygon fill="white" stroke="#bfbfbf" points="835.5,-0.5 835.5,-19.5 884.5,-19.5 884.5,-0.5 835.5,-0.5"/>
<text text-anchor="middle" x="860" y="-7.5" font-family="Helvetica,sans-Serif" font-size="10.00">tcp.hpp</text>
</g>
<!-- Node1&#45;&gt;Node12 -->
<g id="edge11" class="edge"><title>Node1&#45;&gt;Node12</title>
<path fill="none" stroke="midnightblue" d="M806.283,-56.324C815.836,-48.2631 830.28,-36.0765 841.784,-26.3695"/>
<polygon fill="midnightblue" stroke="midnightblue" points="844.144,-28.9577 849.53,-19.8339 839.63,-23.6076 844.144,-28.9577"/>
</g>
<!-- Node13 -->
<g id="node13" class="node"><title>Node13</title>
<polygon fill="white" stroke="#bfbfbf" points="902.5,-0.5 902.5,-19.5 993.5,-19.5 993.5,-0.5 902.5,-0.5"/>
<text text-anchor="middle" x="948" y="-7.5" font-family="Helvetica,sans-Serif" font-size="10.00">socket_base.hpp</text>
</g>
<!-- Node1&#45;&gt;Node13 -->
<g id="edge12" class="edge"><title>Node1&#45;&gt;Node13</title>
<path fill="none" stroke="midnightblue" d="M820.085,-56.4435C845.545,-47.3986 885.894,-33.064 914.459,-22.9158"/>
<polygon fill="midnightblue" stroke="midnightblue" points="915.777,-26.1622 924.028,-19.5164 913.433,-19.5661 915.777,-26.1622"/>
</g>
<!-- Node14 -->
<g id="node14" class="node"><title>Node14</title>
<polygon fill="white" stroke="#bfbfbf" points="1011.5,-0.5 1011.5,-19.5 1062.5,-19.5 1062.5,-0.5 1011.5,-0.5"/>
<text text-anchor="middle" x="1037" y="-7.5" font-family="Helvetica,sans-Serif" font-size="10.00">unistd.h</text>
</g>
<!-- Node1&#45;&gt;Node14 -->
<g id="edge13" class="edge"><title>Node1&#45;&gt;Node14</title>
<path fill="none" stroke="midnightblue" d="M837.14,-56.4763C876.678,-48.1811 938.354,-34.9729 1001.3,-20.0963"/>
<polygon fill="midnightblue" stroke="midnightblue" points="1002.49,-23.4111 1011.41,-17.6948 1000.87,-16.6005 1002.49,-23.4111"/>
</g>
<!-- Node15 -->
<g id="node15" class="node"><title>Node15</title>
<polygon fill="white" stroke="#bfbfbf" points="1080.5,-0.5 1080.5,-19.5 1153.5,-19.5 1153.5,-0.5 1080.5,-0.5"/>
<text text-anchor="middle" x="1117" y="-7.5" font-family="Helvetica,sans-Serif" font-size="10.00">sys/socket.h</text>
</g>
<!-- Node1&#45;&gt;Node15 -->
<g id="edge14" class="edge"><title>Node1&#45;&gt;Node15</title>
<path fill="none" stroke="midnightblue" d="M847.018,-57.1364C900.184,-48.833 986.168,-35.0997 1070.37,-20.0663"/>
<polygon fill="midnightblue" stroke="midnightblue" points="1071.14,-23.4849 1080.36,-18.2748 1069.9,-16.5948 1071.14,-23.4849"/>
</g>
<!-- Node16 -->
<g id="node16" class="node"><title>Node16</title>
<polygon fill="white" stroke="#bfbfbf" points="1172,-0.5 1172,-19.5 1234,-19.5 1234,-0.5 1172,-0.5"/>
<text text-anchor="middle" x="1203" y="-7.5" font-family="Helvetica,sans-Serif" font-size="10.00">arpa/inet.h</text>
</g>
<!-- Node1&#45;&gt;Node16 -->
<g id="edge15" class="edge"><title>Node1&#45;&gt;Node16</title>
<path fill="none" stroke="midnightblue" d="M847.14,-60.2406C916.158,-53.4797 1043.12,-39.8544 1161.74,-19.8823"/>
<polygon fill="midnightblue" stroke="midnightblue" points="1162.45,-23.3115 1171.72,-18.1828 1161.27,-16.4108 1162.45,-23.3115"/>
</g>
<!-- Node17 -->
<g id="node17" class="node"><title>Node17</title>
<polygon fill="white" stroke="#bfbfbf" points="1252.5,-0.5 1252.5,-19.5 1323.5,-19.5 1323.5,-0.5 1252.5,-0.5"/>
<text text-anchor="middle" x="1288" y="-7.5" font-family="Helvetica,sans-Serif" font-size="10.00">netinet/tcp.h</text>
</g>
<!-- Node1&#45;&gt;Node17 -->
<g id="edge16" class="edge"><title>Node1&#45;&gt;Node17</title>
<path fill="none" stroke="midnightblue" d="M847.024,-61.3983C930.084,-55.1885 1099.58,-41.0715 1242,-20 1242.11,-19.9844 1242.21,-19.9687 1242.32,-19.9529"/>
<polygon fill="midnightblue" stroke="midnightblue" points="1243.09,-23.3727 1252.4,-18.3041 1241.96,-16.4646 1243.09,-23.3727"/>
</g>
<!-- Node18 -->
<g id="node18" class="node"><title>Node18</title>
<polygon fill="white" stroke="#bfbfbf" points="1341.5,-0.5 1341.5,-19.5 1406.5,-19.5 1406.5,-0.5 1341.5,-0.5"/>
<text text-anchor="middle" x="1374" y="-7.5" font-family="Helvetica,sans-Serif" font-size="10.00">netinet/in.h</text>
</g>
<!-- Node1&#45;&gt;Node18 -->
<g id="edge17" class="edge"><title>Node1&#45;&gt;Node18</title>
<path fill="none" stroke="midnightblue" d="M847.244,-62.8722C941.204,-58.4982 1147.48,-46.705 1330.95,-19.9649"/>
<polygon fill="midnightblue" stroke="midnightblue" points="1331.68,-23.3964 1341.06,-18.4737 1330.65,-16.4714 1331.68,-23.3964"/>
</g>
<!-- Node19 -->
<g id="node19" class="node"><title>Node19</title>
<polygon fill="white" stroke="#bfbfbf" points="1424.5,-0.5 1424.5,-19.5 1473.5,-19.5 1473.5,-0.5 1424.5,-0.5"/>
<text text-anchor="middle" x="1449" y="-7.5" font-family="Helvetica,sans-Serif" font-size="10.00">netdb.h</text>
</g>
<!-- Node1&#45;&gt;Node19 -->
<g id="edge18" class="edge"><title>Node1&#45;&gt;Node19</title>
<path fill="none" stroke="midnightblue" d="M847.335,-64.4892C952.259,-62.7505 1198.83,-55.1085 1414.32,-19.7749"/>
<polygon fill="midnightblue" stroke="midnightblue" points="1414.94,-23.2195 1424.23,-18.1261 1413.8,-16.3143 1414.94,-23.2195"/>
</g>
<!-- Node20 -->
<g id="node20" class="node"><title>Node20</title>
<polygon fill="white" stroke="#bfbfbf" points="1492,-0.5 1492,-19.5 1536,-19.5 1536,-0.5 1492,-0.5"/>
<text text-anchor="middle" x="1514" y="-7.5" font-family="Helvetica,sans-Serif" font-size="10.00">fcntl.h</text>
</g>
<!-- Node1&#45;&gt;Node20 -->
<g id="edge19" class="edge"><title>Node1&#45;&gt;Node20</title>
<path fill="none" stroke="midnightblue" d="M847.201,-65.2727C960.232,-65.0957 1239.54,-60.3771 1481.71,-19.6123"/>
<polygon fill="midnightblue" stroke="midnightblue" points="1482.49,-23.0298 1491.76,-17.8962 1481.31,-16.1297 1482.49,-23.0298"/>
</g>
</g>
</svg>
        <g id="navigator" transform="translate(0 0)" fill="#404254">
                <rect fill="#f2f5e9" fill-opacity="0.5" stroke="#606060" stroke-width=".5" x="0" y="0" width="60" height="60"/>
                <use id="zoomplus" xlink:href="#zoomPlus" x="17" y="9" onmousedown="handleZoom(evt,'in')"/>
                <use id="zoomminus" xlink:href="#zoomMin" x="42" y="9" onmousedown="handleZoom(evt,'out')"/>
                <use id="reset" xlink:href="#resetDef" x="30" y="36" onmousedown="handleReset()"/>
                <g id="arrowUp" xlink:href="#dirArrow" transform="translate(30 24)" onmousedown="handlePan(0,-1)">
                  <use xlink:href="#rim" fill="#404040">
                        <set attributeName="fill" to="#808080" begin="arrowUp.mouseover" end="arrowUp.mouseout"/>
                  </use>
                  <path fill="none" stroke="white" stroke-width="1.5" d="M0,-3.0v7 M-2.5,-0.5L0,-3.0L2.5,-0.5"/>
                </g>
                <g id="arrowRight" xlink:href="#dirArrow" transform="rotate(90) translate(36 -43)" onmousedown="handlePan(1,0)">
                  <use xlink:href="#rim" fill="#404040">
                        <set attributeName="fill" to="#808080" begin="arrowRight.mouseover" end="arrowRight.mouseout"/>
                  </use>
                  <path fill="none" stroke="white" stroke-width="1.5" d="M0,-3.0v7 M-2.5,-0.5L0,-3.0L2.5,-0.5"/>
                </g>
                <g id="arrowDown" xlink:href="#dirArrow" transform="rotate(180) translate(-30 -48)" onmousedown="handlePan(0,1)">
                  <use xlink:href="#rim" fill="#404040">
                        <set attributeName="fill" to="#808080" begin="arrowDown.mouseover" end="arrowDown.mouseout"/>
                  </use>
                  <path fill="none" stroke="white" stroke-width="1.5" d="M0,-3.0v7 M-2.5,-0.5L0,-3.0L2.5,-0.5"/>
                </g>
                <g id="arrowLeft" xlink:href="#dirArrow" transform="rotate(270) translate(-36 17)" onmousedown="handlePan(-1,0)">
                  <use xlink:href="#rim" fill="#404040">
                        <set attributeName="fill" to="#808080" begin="arrowLeft.mouseover" end="arrowLeft.mouseout"/>
                  </use>
                  <path fill="none" stroke="white" stroke-width="1.5" d="M0,-3.0v7 M-2.5,-0.5L0,-3.0L2.5,-0.5"/>
                </g>
        </g>
        <svg viewBox="0 0 15 15" width="100%" height="30px" preserveAspectRatio="xMaxYMin meet">
         <g id="arrow_out" transform="scale(0.3 0.3)">
          <a xlink:href="tcp__listener_8cpp__incl_org.svg" target="_base">
           <rect id="button" ry="5" rx="5" y="6" x="6" height="38" width="38"
                fill="#f2f5e9" fill-opacity="0.5" stroke="#606060" stroke-width="1.0"/>
           <path id="arrow"
             d="M 11.500037,31.436501 C 11.940474,20.09759 22.043105,11.32322 32.158766,21.979434 L 37.068811,17.246167 C 37.068811,17.246167 37.088388,32 37.088388,32 L 22.160133,31.978069 C 22.160133,31.978069 26.997745,27.140456 26.997745,27.140456 C 18.528582,18.264221 13.291696,25.230495 11.500037,31.436501 z"
             style="fill:#404040;"/>
          </a>
         </g>
        </svg>
</svg>
