<?xml version="1.0" encoding="UTF-8" standalone="no"?>
<!DOCTYPE svg PUBLIC "-//W3C//DTD SVG 1.1//EN"
 "http://www.w3.org/Graphics/SVG/1.1/DTD/svg11.dtd">
<!-- Generated by graphviz version 2.36.0 (20140111.2315)
 -->
<!-- Title: src/session_base.cpp Pages: 1 -->
<!--zoomable 106 -->
<svg id="main" version="1.1" xmlns="http://www.w3.org/2000/svg" xmlns:xlink="http://www.w3.org/1999/xlink" xml:space="preserve" onload="init(evt)">
<style type="text/css"><![CDATA[
.edge:hover path { stroke: red; }
.edge:hover polygon { stroke: red; fill: red; }
]]></style>
<script type="text/javascript"><![CDATA[
var edges = document.getElementsByTagName('g');
if (edges && edges.length) {
  for (var i=0;i<edges.length;i++) {
    if (edges[i].id.substr(0,4)=='edge') {
      edges[i].setAttribute('class','edge');
    }
  }
}
]]></script>
        <defs>
                <circle id="rim" cx="0" cy="0" r="7"/>
                <circle id="rim2" cx="0" cy="0" r="3.5"/>
                <g id="zoomPlus">
                        <use xlink:href="#rim" fill="#404040">
                                <set attributeName="fill" to="#808080" begin="zoomplus.mouseover" end="zoomplus.mouseout"/>
                        </use>
                        <path d="M-4,0h8M0,-4v8" fill="none" stroke="white" stroke-width="1.5" pointer-events="none"/>
                </g>
                <g id="zoomMin">
                        <use xlink:href="#rim" fill="#404040">
                                <set attributeName="fill" to="#808080" begin="zoomminus.mouseover" end="zoomminus.mouseout"/>
                        </use>
                        <path d="M-4,0h8" fill="none" stroke="white" stroke-width="1.5" pointer-events="none"/>
                </g>
                <g id="dirArrow">
                        <path fill="none" stroke="white" stroke-width="1.5" d="M0,-3.0v7 M-2.5,-0.5L0,-3.0L2.5,-0.5"/>
                </g>
               <g id="resetDef">
                       <use xlink:href="#rim2" fill="#404040">
                               <set attributeName="fill" to="#808080" begin="reset.mouseover" end="reset.mouseout"/>
                       </use>
               </g>
        </defs>

<script type="text/javascript">
var viewWidth = 3707;
var viewHeight = 106;
var sectionId = 'dynsection-0';
</script>
<script xlink:href="../../svgpan.js"/>
<svg id="graph" class="graph">
<g id="viewport">
<title>src/session_base.cpp</title>
<polygon fill="white" stroke="none" points="-4,4 -4,-102 3703,-102 3703,4 -4,4"/>
<!-- Node1 -->
<g id="node1" class="node"><title>Node1</title>
<polygon fill="#bfbfbf" stroke="black" points="1923,-78.5 1923,-97.5 2035,-97.5 2035,-78.5 1923,-78.5"/>
<text text-anchor="middle" x="1979" y="-85.5" font-family="Helvetica,sans-Serif" font-size="10.00">src/session_base.cpp</text>
</g>
<!-- Node2 -->
<g id="node2" class="node"><title>Node2</title>
<polygon fill="white" stroke="#bfbfbf" points="0,-11.5 0,-30.5 52,-30.5 52,-11.5 0,-11.5"/>
<text text-anchor="middle" x="26" y="-18.5" font-family="Helvetica,sans-Serif" font-size="10.00">stdarg.h</text>
</g>
<!-- Node1&#45;&gt;Node2 -->
<g id="edge1" class="edge"><title>Node1&#45;&gt;Node2</title>
<path fill="none" stroke="midnightblue" d="M1922.81,-86.459C1615.93,-83.4066 152.881,-67.5577 61,-42 56.0358,-40.6192 51.0321,-38.3783 46.4221,-35.8864"/>
<polygon fill="midnightblue" stroke="midnightblue" points="48.0253,-32.7664 37.6515,-30.6137 44.4186,-38.7658 48.0253,-32.7664"/>
</g>
<!-- Node3 -->
<g id="node3" class="node"><title>Node3</title>
<polygon fill="white" stroke="#bfbfbf" points="70.5,-11.5 70.5,-30.5 165.5,-30.5 165.5,-11.5 70.5,-11.5"/>
<text text-anchor="middle" x="118" y="-18.5" font-family="Helvetica,sans-Serif" font-size="10.00">session_base.hpp</text>
</g>
<!-- Node1&#45;&gt;Node3 -->
<g id="edge2" class="edge"><title>Node1&#45;&gt;Node3</title>
<path fill="none" stroke="midnightblue" d="M1922.91,-86.6606C1637.09,-84.7889 349.179,-74.597 174,-42 164.954,-40.3168 155.42,-37.3815 146.833,-34.2699"/>
<polygon fill="midnightblue" stroke="midnightblue" points="147.864,-30.9169 137.274,-30.6007 145.355,-37.452 147.864,-30.9169"/>
</g>
<!-- Node4 -->
<g id="node4" class="node"><title>Node4</title>
<polygon fill="white" stroke="#bfbfbf" points="183.5,-11.5 183.5,-30.5 254.5,-30.5 254.5,-11.5 183.5,-11.5"/>
<text text-anchor="middle" x="219" y="-18.5" font-family="Helvetica,sans-Serif" font-size="10.00">i_engine.hpp</text>
</g>
<!-- Node1&#45;&gt;Node4 -->
<g id="edge3" class="edge"><title>Node1&#45;&gt;Node4</title>
<path fill="none" stroke="midnightblue" d="M1922.9,-86.8557C1645.55,-85.9642 427.537,-79.9048 263,-42 256.346,-40.4671 249.477,-37.8879 243.201,-35.0825"/>
<polygon fill="midnightblue" stroke="midnightblue" points="244.47,-31.8086 233.944,-30.6055 241.422,-38.1103 244.47,-31.8086"/>
</g>
<!-- Node5 -->
<g id="node5" class="node"><title>Node5</title>
<polygon fill="white" stroke="#bfbfbf" points="272.5,-11.5 272.5,-30.5 319.5,-30.5 319.5,-11.5 272.5,-11.5"/>
<text text-anchor="middle" x="296" y="-18.5" font-family="Helvetica,sans-Serif" font-size="10.00">err.hpp</text>
</g>
<!-- Node1&#45;&gt;Node5 -->
<g id="edge4" class="edge"><title>Node1&#45;&gt;Node5</title>
<path fill="none" stroke="midnightblue" d="M1922.69,-87.2182C1651.07,-88.0352 483.106,-88.7801 328,-42 323.625,-40.6805 319.259,-38.5954 315.221,-36.2597"/>
<polygon fill="midnightblue" stroke="midnightblue" points="316.833,-33.1327 306.546,-30.5976 313.007,-38.9945 316.833,-33.1327"/>
</g>
<!-- Node6 -->
<g id="node6" class="node"><title>Node6</title>
<polygon fill="white" stroke="#bfbfbf" points="337.5,-11.5 337.5,-30.5 390.5,-30.5 390.5,-11.5 337.5,-11.5"/>
<text text-anchor="middle" x="364" y="-18.5" font-family="Helvetica,sans-Serif" font-size="10.00">pipe.hpp</text>
</g>
<!-- Node1&#45;&gt;Node6 -->
<g id="edge5" class="edge"><title>Node1&#45;&gt;Node6</title>
<path fill="none" stroke="midnightblue" d="M1922.57,-86.9769C1658.23,-86.6556 548.929,-82.8639 400,-42 394.79,-40.5705 389.519,-38.2424 384.677,-35.6707"/>
<polygon fill="midnightblue" stroke="midnightblue" points="386.421,-32.6358 376.024,-30.5975 382.881,-38.6745 386.421,-32.6358"/>
</g>
<!-- Node7 -->
<g id="node7" class="node"><title>Node7</title>
<polygon fill="white" stroke="#bfbfbf" points="409,-11.5 409,-30.5 467,-30.5 467,-11.5 409,-11.5"/>
<text text-anchor="middle" x="438" y="-18.5" font-family="Helvetica,sans-Serif" font-size="10.00">likely.hpp</text>
</g>
<!-- Node1&#45;&gt;Node7 -->
<g id="edge6" class="edge"><title>Node1&#45;&gt;Node7</title>
<path fill="none" stroke="midnightblue" d="M1922.72,-86.8533C1666.49,-85.978 616.583,-80.0785 475,-42 469.672,-40.567 464.265,-38.2375 459.291,-35.6655"/>
<polygon fill="midnightblue" stroke="midnightblue" points="460.814,-32.5047 450.393,-30.5929 457.347,-38.586 460.814,-32.5047"/>
</g>
<!-- Node8 -->
<g id="node8" class="node"><title>Node8</title>
<polygon fill="white" stroke="#bfbfbf" points="484.5,-11.5 484.5,-30.5 581.5,-30.5 581.5,-11.5 484.5,-11.5"/>
<text text-anchor="middle" x="533" y="-18.5" font-family="Helvetica,sans-Serif" font-size="10.00">tcp_connecter.hpp</text>
</g>
<!-- Node1&#45;&gt;Node8 -->
<g id="edge7" class="edge"><title>Node1&#45;&gt;Node8</title>
<path fill="none" stroke="midnightblue" d="M1922.95,-87.414C1697.05,-88.7384 853.003,-90.2816 591,-42 581.563,-40.2609 571.584,-37.2688 562.615,-34.1211"/>
<polygon fill="midnightblue" stroke="midnightblue" points="563.592,-30.7507 552.999,-30.5595 561.161,-37.3149 563.592,-30.7507"/>
</g>
<!-- Node9 -->
<g id="node9" class="node"><title>Node9</title>
<polygon fill="white" stroke="#bfbfbf" points="600,-0.5 600,-41.5 732,-41.5 732,-0.5 600,-0.5"/>
<text text-anchor="start" x="608" y="-29.5" font-family="Helvetica,sans-Serif" font-size="10.00">/home/hebert/Documentos</text>
<text text-anchor="start" x="608" y="-18.5" font-family="Helvetica,sans-Serif" font-size="10.00">/DAS/zeromq&#45;3.2.1/src</text>
<text text-anchor="middle" x="666" y="-7.5" font-family="Helvetica,sans-Serif" font-size="10.00">/fd.hpp</text>
</g>
<!-- Node1&#45;&gt;Node9 -->
<g id="edge8" class="edge"><title>Node1&#45;&gt;Node9</title>
<path fill="none" stroke="midnightblue" d="M1922.77,-86.6292C1715.51,-85.0059 993.756,-77.0193 742.268,-41.9568"/>
<polygon fill="midnightblue" stroke="midnightblue" points="742.482,-38.4513 732.084,-40.483 741.48,-45.3792 742.482,-38.4513"/>
</g>
<!-- Node10 -->
<g id="node10" class="node"><title>Node10</title>
<polygon fill="white" stroke="#bfbfbf" points="750,-0.5 750,-41.5 882,-41.5 882,-0.5 750,-0.5"/>
<text text-anchor="start" x="758" y="-29.5" font-family="Helvetica,sans-Serif" font-size="10.00">/home/hebert/Documentos</text>
<text text-anchor="start" x="758" y="-18.5" font-family="Helvetica,sans-Serif" font-size="10.00">/DAS/zeromq&#45;3.2.1/src</text>
<text text-anchor="middle" x="816" y="-7.5" font-family="Helvetica,sans-Serif" font-size="10.00">/own.hpp</text>
</g>
<!-- Node1&#45;&gt;Node10 -->
<g id="edge9" class="edge"><title>Node1&#45;&gt;Node10</title>
<path fill="none" stroke="midnightblue" d="M1922.73,-86.3011C1732.4,-83.6863 1112.75,-73.0642 892.28,-41.9613"/>
<polygon fill="midnightblue" stroke="midnightblue" points="892.489,-38.4545 882.087,-40.4647 891.472,-45.3803 892.489,-38.4545"/>
</g>
<!-- Node11 -->
<g id="node11" class="node"><title>Node11</title>
<polygon fill="white" stroke="#bfbfbf" points="900,-0.5 900,-41.5 1032,-41.5 1032,-0.5 900,-0.5"/>
<text text-anchor="start" x="908" y="-29.5" font-family="Helvetica,sans-Serif" font-size="10.00">/home/hebert/Documentos</text>
<text text-anchor="start" x="908" y="-18.5" font-family="Helvetica,sans-Serif" font-size="10.00">/DAS/zeromq&#45;3.2.1/src</text>
<text text-anchor="middle" x="966" y="-7.5" font-family="Helvetica,sans-Serif" font-size="10.00">/stdint.hpp</text>
</g>
<!-- Node1&#45;&gt;Node11 -->
<g id="edge10" class="edge"><title>Node1&#45;&gt;Node11</title>
<path fill="none" stroke="midnightblue" d="M1922.71,-85.8693C1750.53,-82.1676 1231.68,-69.1467 1042.21,-41.9557"/>
<polygon fill="midnightblue" stroke="midnightblue" points="1042.5,-38.46 1032.09,-40.4404 1041.46,-45.3828 1042.5,-38.46"/>
</g>
<!-- Node12 -->
<g id="node12" class="node"><title>Node12</title>
<polygon fill="white" stroke="#bfbfbf" points="1050,-0.5 1050,-41.5 1182,-41.5 1182,-0.5 1050,-0.5"/>
<text text-anchor="start" x="1058" y="-29.5" font-family="Helvetica,sans-Serif" font-size="10.00">/home/hebert/Documentos</text>
<text text-anchor="start" x="1058" y="-18.5" font-family="Helvetica,sans-Serif" font-size="10.00">/DAS/zeromq&#45;3.2.1/src</text>
<text text-anchor="middle" x="1116" y="-7.5" font-family="Helvetica,sans-Serif" font-size="10.00">/io_object.hpp</text>
</g>
<!-- Node1&#45;&gt;Node12 -->
<g id="edge11" class="edge"><title>Node1&#45;&gt;Node12</title>
<path fill="none" stroke="midnightblue" d="M1922.69,-87.696C1794.34,-88.4425 1470.33,-85.575 1191.98,-41.9752"/>
<polygon fill="midnightblue" stroke="midnightblue" points="1192.52,-38.5176 1182.1,-40.407 1191.42,-45.4311 1192.52,-38.5176"/>
</g>
<!-- Node13 -->
<g id="node13" class="node"><title>Node13</title>
<polygon fill="white" stroke="#bfbfbf" points="1200,-6 1200,-36 1364,-36 1364,-6 1200,-6"/>
<text text-anchor="start" x="1208" y="-24" font-family="Helvetica,sans-Serif" font-size="10.00">/home/hebert/Documentos</text>
<text text-anchor="middle" x="1282" y="-13" font-family="Helvetica,sans-Serif" font-size="10.00">/DAS/zeromq&#45;3.2.1/include/zmq.h</text>
</g>
<!-- Node1&#45;&gt;Node13 -->
<g id="edge12" class="edge"><title>Node1&#45;&gt;Node13</title>
<path fill="none" stroke="midnightblue" d="M1922.73,-85.4923C1815.34,-82.0249 1573.95,-71.3905 1373,-42 1365.54,-40.9094 1357.79,-39.5535 1350.09,-38.0648"/>
<polygon fill="midnightblue" stroke="midnightblue" points="1350.52,-34.5821 1340.03,-36.0426 1349.14,-41.4448 1350.52,-34.5821"/>
</g>
<!-- Node14 -->
<g id="node14" class="node"><title>Node14</title>
<polygon fill="white" stroke="#bfbfbf" points="1382,-11.5 1382,-30.5 1478,-30.5 1478,-11.5 1382,-11.5"/>
<text text-anchor="middle" x="1430" y="-18.5" font-family="Helvetica,sans-Serif" font-size="10.00">ipc_connecter.hpp</text>
</g>
<!-- Node1&#45;&gt;Node14 -->
<g id="edge13" class="edge"><title>Node1&#45;&gt;Node14</title>
<path fill="none" stroke="midnightblue" d="M1922.98,-86.341C1830.96,-84.2671 1642.47,-75.8418 1487,-42 1478.09,-40.0601 1468.65,-37.13 1460.08,-34.1064"/>
<polygon fill="midnightblue" stroke="midnightblue" points="1461.08,-30.747 1450.49,-30.5678 1458.66,-37.314 1461.08,-30.747"/>
</g>
<!-- Node15 -->
<g id="node15" class="node"><title>Node15</title>
<polygon fill="white" stroke="#bfbfbf" points="1496.5,-11.5 1496.5,-30.5 1585.5,-30.5 1585.5,-11.5 1496.5,-11.5"/>
<text text-anchor="middle" x="1541" y="-18.5" font-family="Helvetica,sans-Serif" font-size="10.00">pgm_sender.hpp</text>
</g>
<!-- Node1&#45;&gt;Node15 -->
<g id="edge14" class="edge"><title>Node1&#45;&gt;Node15</title>
<path fill="none" stroke="midnightblue" d="M1922.95,-84.6092C1847.51,-80.4482 1709.54,-69.507 1595,-42 1586.8,-40.0303 1578.14,-37.1864 1570.21,-34.2586"/>
<polygon fill="midnightblue" stroke="midnightblue" points="1571.24,-30.9048 1560.65,-30.5645 1568.72,-37.4342 1571.24,-30.9048"/>
</g>
<!-- Node16 -->
<g id="node16" class="node"><title>Node16</title>
<polygon fill="white" stroke="#bfbfbf" points="1604,-0.5 1604,-41.5 1736,-41.5 1736,-0.5 1604,-0.5"/>
<text text-anchor="start" x="1612" y="-29.5" font-family="Helvetica,sans-Serif" font-size="10.00">/home/hebert/Documentos</text>
<text text-anchor="start" x="1612" y="-18.5" font-family="Helvetica,sans-Serif" font-size="10.00">/DAS/zeromq&#45;3.2.1/src</text>
<text text-anchor="middle" x="1670" y="-7.5" font-family="Helvetica,sans-Serif" font-size="10.00">/platform.hpp</text>
</g>
<!-- Node1&#45;&gt;Node16 -->
<g id="edge15" class="edge"><title>Node1&#45;&gt;Node16</title>
<path fill="none" stroke="midnightblue" d="M1929.03,-78.4452C1883.73,-70.4534 1814.93,-57.7265 1746.31,-42.2287"/>
<polygon fill="midnightblue" stroke="midnightblue" points="1746.72,-38.7318 1736.19,-39.9222 1745.16,-45.5568 1746.72,-38.7318"/>
</g>
<!-- Node17 -->
<g id="node17" class="node"><title>Node17</title>
<polygon fill="white" stroke="#bfbfbf" points="1754,-11.5 1754,-30.5 1848,-30.5 1848,-11.5 1754,-11.5"/>
<text text-anchor="middle" x="1801" y="-18.5" font-family="Helvetica,sans-Serif" font-size="10.00">pgm_receiver.hpp</text>
</g>
<!-- Node1&#45;&gt;Node17 -->
<g id="edge16" class="edge"><title>Node1&#45;&gt;Node17</title>
<path fill="none" stroke="midnightblue" d="M1955.36,-78.3685C1924.29,-67.0219 1869.53,-47.0246 1834.28,-34.1522"/>
<polygon fill="midnightblue" stroke="midnightblue" points="1835.05,-30.7062 1824.45,-30.5637 1832.64,-37.2815 1835.05,-30.7062"/>
</g>
<!-- Node18 -->
<g id="node18" class="node"><title>Node18</title>
<polygon fill="white" stroke="#bfbfbf" points="1866,-11.5 1866,-30.5 1936,-30.5 1936,-11.5 1866,-11.5"/>
<text text-anchor="middle" x="1901" y="-18.5" font-family="Helvetica,sans-Serif" font-size="10.00">address.hpp</text>
</g>
<!-- Node1&#45;&gt;Node18 -->
<g id="edge17" class="edge"><title>Node1&#45;&gt;Node18</title>
<path fill="none" stroke="midnightblue" d="M1968.48,-78.2338C1955.85,-67.708 1934.46,-49.8793 1919.14,-37.1174"/>
<polygon fill="midnightblue" stroke="midnightblue" points="1921.28,-34.3404 1911.35,-30.6273 1916.79,-39.718 1921.28,-34.3404"/>
</g>
<!-- Node19 -->
<g id="node19" class="node"><title>Node19</title>
<polygon fill="white" stroke="#bfbfbf" points="1954.5,-11.5 1954.5,-30.5 2003.5,-30.5 2003.5,-11.5 1954.5,-11.5"/>
<text text-anchor="middle" x="1979" y="-18.5" font-family="Helvetica,sans-Serif" font-size="10.00">req.hpp</text>
</g>
<!-- Node1&#45;&gt;Node19 -->
<g id="edge18" class="edge"><title>Node1&#45;&gt;Node19</title>
<path fill="none" stroke="midnightblue" d="M1979,-78.2338C1979,-68.6826 1979,-53.1183 1979,-40.7829"/>
<polygon fill="midnightblue" stroke="midnightblue" points="1982.5,-40.6273 1979,-30.6273 1975.5,-40.6273 1982.5,-40.6273"/>
</g>
<!-- Node20 -->
<g id="node20" class="node"><title>Node20</title>
<polygon fill="white" stroke="#bfbfbf" points="2022,-11.5 2022,-30.5 2084,-30.5 2084,-11.5 2022,-11.5"/>
<text text-anchor="middle" x="2053" y="-18.5" font-family="Helvetica,sans-Serif" font-size="10.00">dealer.hpp</text>
</g>
<!-- Node1&#45;&gt;Node20 -->
<g id="edge19" class="edge"><title>Node1&#45;&gt;Node20</title>
<path fill="none" stroke="midnightblue" d="M1988.98,-78.2338C2000.85,-67.8055 2020.89,-50.2088 2035.38,-37.4732"/>
<polygon fill="midnightblue" stroke="midnightblue" points="2037.97,-39.8564 2043.18,-30.6273 2033.36,-34.5971 2037.97,-39.8564"/>
</g>
<!-- Node21 -->
<g id="node21" class="node"><title>Node21</title>
<polygon fill="white" stroke="#bfbfbf" points="2102.5,-11.5 2102.5,-30.5 2151.5,-30.5 2151.5,-11.5 2102.5,-11.5"/>
<text text-anchor="middle" x="2127" y="-18.5" font-family="Helvetica,sans-Serif" font-size="10.00">rep.hpp</text>
</g>
<!-- Node1&#45;&gt;Node21 -->
<g id="edge20" class="edge"><title>Node1&#45;&gt;Node21</title>
<path fill="none" stroke="midnightblue" d="M2003.23,-78.4728C2026.4,-70.0567 2062.13,-56.3923 2092,-42 2095.97,-40.0859 2100.11,-37.9027 2104.09,-35.6987"/>
<polygon fill="midnightblue" stroke="midnightblue" points="2106,-38.6393 2112.94,-30.6353 2102.52,-32.5634 2106,-38.6393"/>
</g>
<!-- Node22 -->
<g id="node22" class="node"><title>Node22</title>
<polygon fill="white" stroke="#bfbfbf" points="2170,-11.5 2170,-30.5 2230,-30.5 2230,-11.5 2170,-11.5"/>
<text text-anchor="middle" x="2200" y="-18.5" font-family="Helvetica,sans-Serif" font-size="10.00">router.hpp</text>
</g>
<!-- Node1&#45;&gt;Node22 -->
<g id="edge21" class="edge"><title>Node1&#45;&gt;Node22</title>
<path fill="none" stroke="midnightblue" d="M2025.21,-78.4388C2062.29,-70.8759 2115.35,-58.4852 2160,-42 2165.15,-40.0992 2170.5,-37.7233 2175.56,-35.2794"/>
<polygon fill="midnightblue" stroke="midnightblue" points="2177.44,-38.2489 2184.78,-30.6035 2174.27,-32.0062 2177.44,-38.2489"/>
</g>
<!-- Node23 -->
<g id="node23" class="node"><title>Node23</title>
<polygon fill="white" stroke="#bfbfbf" points="2248.5,-11.5 2248.5,-30.5 2299.5,-30.5 2299.5,-11.5 2248.5,-11.5"/>
<text text-anchor="middle" x="2274" y="-18.5" font-family="Helvetica,sans-Serif" font-size="10.00">pub.hpp</text>
</g>
<!-- Node1&#45;&gt;Node23 -->
<g id="edge22" class="edge"><title>Node1&#45;&gt;Node23</title>
<path fill="none" stroke="midnightblue" d="M2035.19,-82.6976C2088.59,-77.3472 2170.55,-65.8279 2238,-42 2242.8,-40.3033 2247.72,-38.0017 2252.32,-35.5635"/>
<polygon fill="midnightblue" stroke="midnightblue" points="2254.21,-38.5124 2261.16,-30.5167 2250.74,-32.4324 2254.21,-38.5124"/>
</g>
<!-- Node24 -->
<g id="node24" class="node"><title>Node24</title>
<polygon fill="white" stroke="#bfbfbf" points="2318,-11.5 2318,-30.5 2374,-30.5 2374,-11.5 2318,-11.5"/>
<text text-anchor="middle" x="2346" y="-18.5" font-family="Helvetica,sans-Serif" font-size="10.00">xpub.hpp</text>
</g>
<!-- Node1&#45;&gt;Node24 -->
<g id="edge23" class="edge"><title>Node1&#45;&gt;Node24</title>
<path fill="none" stroke="midnightblue" d="M2035.02,-85.2453C2101.56,-81.8255 2215.22,-71.7405 2308,-42 2313.19,-40.3359 2318.52,-37.9906 2323.48,-35.4891"/>
<polygon fill="midnightblue" stroke="midnightblue" points="2325.32,-38.4729 2332.43,-30.6241 2321.98,-32.3218 2325.32,-38.4729"/>
</g>
<!-- Node25 -->
<g id="node25" class="node"><title>Node25</title>
<polygon fill="white" stroke="#bfbfbf" points="2392.5,-11.5 2392.5,-30.5 2443.5,-30.5 2443.5,-11.5 2392.5,-11.5"/>
<text text-anchor="middle" x="2418" y="-18.5" font-family="Helvetica,sans-Serif" font-size="10.00">sub.hpp</text>
</g>
<!-- Node1&#45;&gt;Node25 -->
<g id="edge24" class="edge"><title>Node1&#45;&gt;Node25</title>
<path fill="none" stroke="midnightblue" d="M2035.19,-87.6313C2114.42,-86.9888 2262.63,-80.1261 2382,-42 2386.93,-40.4243 2391.96,-38.1389 2396.63,-35.6718"/>
<polygon fill="midnightblue" stroke="midnightblue" points="2398.65,-38.5462 2405.57,-30.5212 2395.15,-32.4809 2398.65,-38.5462"/>
</g>
<!-- Node26 -->
<g id="node26" class="node"><title>Node26</title>
<polygon fill="white" stroke="#bfbfbf" points="2462,-0.5 2462,-41.5 2594,-41.5 2594,-0.5 2462,-0.5"/>
<text text-anchor="start" x="2470" y="-29.5" font-family="Helvetica,sans-Serif" font-size="10.00">/home/hebert/Documentos</text>
<text text-anchor="start" x="2470" y="-18.5" font-family="Helvetica,sans-Serif" font-size="10.00">/DAS/zeromq&#45;3.2.1/src</text>
<text text-anchor="middle" x="2528" y="-7.5" font-family="Helvetica,sans-Serif" font-size="10.00">/xsub.hpp</text>
</g>
<!-- Node1&#45;&gt;Node26 -->
<g id="edge25" class="edge"><title>Node1&#45;&gt;Node26</title>
<path fill="none" stroke="midnightblue" d="M2035.1,-84.6151C2124.08,-80.1716 2302.77,-68.5525 2452,-42 2452.1,-41.9821 2452.2,-41.9641 2452.3,-41.946"/>
<polygon fill="midnightblue" stroke="midnightblue" points="2452.68,-45.4393 2461.82,-40.0923 2451.34,-38.5683 2452.68,-45.4393"/>
</g>
<!-- Node27 -->
<g id="node27" class="node"><title>Node27</title>
<polygon fill="white" stroke="#bfbfbf" points="2612,-0.5 2612,-41.5 2744,-41.5 2744,-0.5 2612,-0.5"/>
<text text-anchor="start" x="2620" y="-29.5" font-family="Helvetica,sans-Serif" font-size="10.00">/home/hebert/Documentos</text>
<text text-anchor="start" x="2620" y="-18.5" font-family="Helvetica,sans-Serif" font-size="10.00">/DAS/zeromq&#45;3.2.1/src</text>
<text text-anchor="middle" x="2678" y="-7.5" font-family="Helvetica,sans-Serif" font-size="10.00">/socket_base.hpp</text>
</g>
<!-- Node1&#45;&gt;Node27 -->
<g id="edge26" class="edge"><title>Node1&#45;&gt;Node27</title>
<path fill="none" stroke="midnightblue" d="M2035.36,-86.4839C2143.57,-84.7246 2387.94,-77.0352 2601.74,-42.0394"/>
<polygon fill="midnightblue" stroke="midnightblue" points="2602.6,-45.4436 2611.9,-40.3522 2601.46,-38.5382 2602.6,-45.4436"/>
</g>
<!-- Node28 -->
<g id="node28" class="node"><title>Node28</title>
<polygon fill="white" stroke="#bfbfbf" points="2762,-0.5 2762,-41.5 2894,-41.5 2894,-0.5 2762,-0.5"/>
<text text-anchor="start" x="2770" y="-29.5" font-family="Helvetica,sans-Serif" font-size="10.00">/home/hebert/Documentos</text>
<text text-anchor="start" x="2770" y="-18.5" font-family="Helvetica,sans-Serif" font-size="10.00">/DAS/zeromq&#45;3.2.1/src</text>
<text text-anchor="middle" x="2828" y="-7.5" font-family="Helvetica,sans-Serif" font-size="10.00">/session_base.hpp</text>
</g>
<!-- Node1&#45;&gt;Node28 -->
<g id="edge27" class="edge"><title>Node1&#45;&gt;Node28</title>
<path fill="none" stroke="midnightblue" d="M2035.27,-87.6118C2161.93,-88.1547 2479.01,-84.8489 2751.81,-42.0096"/>
<polygon fill="midnightblue" stroke="midnightblue" points="2752.58,-45.4316 2761.9,-40.4032 2751.48,-38.5186 2752.58,-45.4316"/>
</g>
<!-- Node29 -->
<g id="node29" class="node"><title>Node29</title>
<polygon fill="white" stroke="#bfbfbf" points="2912,-0.5 2912,-41.5 3044,-41.5 3044,-0.5 2912,-0.5"/>
<text text-anchor="start" x="2920" y="-29.5" font-family="Helvetica,sans-Serif" font-size="10.00">/home/hebert/Documentos</text>
<text text-anchor="start" x="2920" y="-18.5" font-family="Helvetica,sans-Serif" font-size="10.00">/DAS/zeromq&#45;3.2.1/src</text>
<text text-anchor="middle" x="2978" y="-7.5" font-family="Helvetica,sans-Serif" font-size="10.00">/dist.hpp</text>
</g>
<!-- Node1&#45;&gt;Node29 -->
<g id="edge28" class="edge"><title>Node1&#45;&gt;Node29</title>
<path fill="none" stroke="midnightblue" d="M2035.06,-85.8271C2205.29,-82.0242 2715.41,-68.7879 2901.95,-41.9339"/>
<polygon fill="midnightblue" stroke="midnightblue" points="2902.54,-45.384 2911.91,-40.4378 2901.5,-38.4616 2902.54,-45.384"/>
</g>
<!-- Node30 -->
<g id="node30" class="node"><title>Node30</title>
<polygon fill="white" stroke="#bfbfbf" points="3062,-0.5 3062,-41.5 3194,-41.5 3194,-0.5 3062,-0.5"/>
<text text-anchor="start" x="3070" y="-29.5" font-family="Helvetica,sans-Serif" font-size="10.00">/home/hebert/Documentos</text>
<text text-anchor="start" x="3070" y="-18.5" font-family="Helvetica,sans-Serif" font-size="10.00">/DAS/zeromq&#45;3.2.1/src</text>
<text text-anchor="middle" x="3128" y="-7.5" font-family="Helvetica,sans-Serif" font-size="10.00">/fq.hpp</text>
</g>
<!-- Node1&#45;&gt;Node30 -->
<g id="edge29" class="edge"><title>Node1&#45;&gt;Node30</title>
<path fill="none" stroke="midnightblue" d="M2035.21,-86.2667C2223.87,-83.5557 2834.38,-72.6956 3051.86,-41.9422"/>
<polygon fill="midnightblue" stroke="midnightblue" points="3052.53,-45.3811 3061.91,-40.4627 3051.51,-38.4557 3052.53,-45.3811"/>
</g>
<!-- Node31 -->
<g id="node31" class="node"><title>Node31</title>
<polygon fill="white" stroke="#bfbfbf" points="3212,-0.5 3212,-41.5 3344,-41.5 3344,-0.5 3212,-0.5"/>
<text text-anchor="start" x="3220" y="-29.5" font-family="Helvetica,sans-Serif" font-size="10.00">/home/hebert/Documentos</text>
<text text-anchor="start" x="3220" y="-18.5" font-family="Helvetica,sans-Serif" font-size="10.00">/DAS/zeromq&#45;3.2.1/src</text>
<text text-anchor="middle" x="3278" y="-7.5" font-family="Helvetica,sans-Serif" font-size="10.00">/trie.hpp</text>
</g>
<!-- Node1&#45;&gt;Node31 -->
<g id="edge30" class="edge"><title>Node1&#45;&gt;Node31</title>
<path fill="none" stroke="midnightblue" d="M2035.31,-86.6013C2241.17,-84.8874 2953.41,-76.642 3201.85,-41.9399"/>
<polygon fill="midnightblue" stroke="midnightblue" points="3202.52,-45.3799 3211.92,-40.4815 3201.52,-38.4523 3202.52,-45.3799"/>
</g>
<!-- Node32 -->
<g id="node32" class="node"><title>Node32</title>
<polygon fill="white" stroke="#bfbfbf" points="3362,-11.5 3362,-30.5 3414,-30.5 3414,-11.5 3362,-11.5"/>
<text text-anchor="middle" x="3388" y="-18.5" font-family="Helvetica,sans-Serif" font-size="10.00">stddef.h</text>
</g>
<!-- Node1&#45;&gt;Node32 -->
<g id="edge31" class="edge"><title>Node1&#45;&gt;Node32</title>
<path fill="none" stroke="midnightblue" d="M2035.23,-86.7567C2277.4,-85.4925 3224.98,-78.2523 3353,-42 3357.96,-40.5961 3362.96,-38.3455 3367.57,-35.8513"/>
<polygon fill="midnightblue" stroke="midnightblue" points="3369.57,-38.7321 3376.34,-30.5827 3365.97,-32.7313 3369.57,-38.7321"/>
</g>
<!-- Node33 -->
<g id="node33" class="node"><title>Node33</title>
<polygon fill="white" stroke="#bfbfbf" points="3432,-11.5 3432,-30.5 3488,-30.5 3488,-11.5 3432,-11.5"/>
<text text-anchor="middle" x="3460" y="-18.5" font-family="Helvetica,sans-Serif" font-size="10.00">xsub.hpp</text>
</g>
<!-- Node1&#45;&gt;Node33 -->
<g id="edge32" class="edge"><title>Node1&#45;&gt;Node33</title>
<path fill="none" stroke="midnightblue" d="M2035.11,-86.7783C2284.65,-85.5862 3287.46,-78.5432 3423,-42 3428.33,-40.5637 3433.73,-38.2328 3438.71,-35.6606"/>
<polygon fill="midnightblue" stroke="midnightblue" points="3440.65,-38.5813 3447.61,-30.5886 3437.18,-32.4998 3440.65,-38.5813"/>
</g>
<!-- Node34 -->
<g id="node34" class="node"><title>Node34</title>
<polygon fill="white" stroke="#bfbfbf" points="3506,-11.5 3506,-30.5 3562,-30.5 3562,-11.5 3506,-11.5"/>
<text text-anchor="middle" x="3534" y="-18.5" font-family="Helvetica,sans-Serif" font-size="10.00">push.hpp</text>
</g>
<!-- Node1&#45;&gt;Node34 -->
<g id="edge33" class="edge"><title>Node1&#45;&gt;Node34</title>
<path fill="none" stroke="midnightblue" d="M2035.33,-86.8331C2292.98,-85.8666 3352.9,-79.6187 3496,-42 3501.59,-40.531 3507.28,-38.1185 3512.49,-35.4684"/>
<polygon fill="midnightblue" stroke="midnightblue" points="3514.21,-38.5177 3521.24,-30.5939 3510.8,-32.4023 3514.21,-38.5177"/>
</g>
<!-- Node35 -->
<g id="node35" class="node"><title>Node35</title>
<polygon fill="white" stroke="#bfbfbf" points="3580,-11.5 3580,-30.5 3630,-30.5 3630,-11.5 3580,-11.5"/>
<text text-anchor="middle" x="3605" y="-18.5" font-family="Helvetica,sans-Serif" font-size="10.00">pull.hpp</text>
</g>
<!-- Node1&#45;&gt;Node35 -->
<g id="edge34" class="edge"><title>Node1&#45;&gt;Node35</title>
<path fill="none" stroke="midnightblue" d="M2035.42,-87.0289C2301.03,-86.9465 3420.1,-84.0846 3570,-42 3574.96,-40.6072 3579.96,-38.3613 3584.57,-35.8682"/>
<polygon fill="midnightblue" stroke="midnightblue" points="3586.58,-38.7483 3593.34,-30.5976 3582.97,-32.7482 3586.58,-38.7483"/>
</g>
<!-- Node36 -->
<g id="node36" class="node"><title>Node36</title>
<polygon fill="white" stroke="#bfbfbf" points="3648.5,-11.5 3648.5,-30.5 3699.5,-30.5 3699.5,-11.5 3648.5,-11.5"/>
<text text-anchor="middle" x="3674" y="-18.5" font-family="Helvetica,sans-Serif" font-size="10.00">pair.hpp</text>
</g>
<!-- Node1&#45;&gt;Node36 -->
<g id="edge35" class="edge"><title>Node1&#45;&gt;Node36</title>
<path fill="none" stroke="midnightblue" d="M2035.13,-87.1006C2307.21,-87.3706 3482.06,-85.9623 3639,-42 3643.96,-40.6101 3648.96,-38.3654 3653.57,-35.8726"/>
<polygon fill="midnightblue" stroke="midnightblue" points="3655.58,-38.7525 3662.35,-30.6015 3651.97,-32.7526 3655.58,-38.7525"/>
</g>
</g>
</svg>
        <g id="navigator" transform="translate(0 0)" fill="#404254">
                <rect fill="#f2f5e9" fill-opacity="0.5" stroke="#606060" stroke-width=".5" x="0" y="0" width="60" height="60"/>
                <use id="zoomplus" xlink:href="#zoomPlus" x="17" y="9" onmousedown="handleZoom(evt,'in')"/>
                <use id="zoomminus" xlink:href="#zoomMin" x="42" y="9" onmousedown="handleZoom(evt,'out')"/>
                <use id="reset" xlink:href="#resetDef" x="30" y="36" onmousedown="handleReset()"/>
                <g id="arrowUp" xlink:href="#dirArrow" transform="translate(30 24)" onmousedown="handlePan(0,-1)">
                  <use xlink:href="#rim" fill="#404040">
                        <set attributeName="fill" to="#808080" begin="arrowUp.mouseover" end="arrowUp.mouseout"/>
                  </use>
                  <path fill="none" stroke="white" stroke-width="1.5" d="M0,-3.0v7 M-2.5,-0.5L0,-3.0L2.5,-0.5"/>
                </g>
                <g id="arrowRight" xlink:href="#dirArrow" transform="rotate(90) translate(36 -43)" onmousedown="handlePan(1,0)">
                  <use xlink:href="#rim" fill="#404040">
                        <set attributeName="fill" to="#808080" begin="arrowRight.mouseover" end="arrowRight.mouseout"/>
                  </use>
                  <path fill="none" stroke="white" stroke-width="1.5" d="M0,-3.0v7 M-2.5,-0.5L0,-3.0L2.5,-0.5"/>
                </g>
                <g id="arrowDown" xlink:href="#dirArrow" transform="rotate(180) translate(-30 -48)" onmousedown="handlePan(0,1)">
                  <use xlink:href="#rim" fill="#404040">
                        <set attributeName="fill" to="#808080" begin="arrowDown.mouseover" end="arrowDown.mouseout"/>
                  </use>
                  <path fill="none" stroke="white" stroke-width="1.5" d="M0,-3.0v7 M-2.5,-0.5L0,-3.0L2.5,-0.5"/>
                </g>
                <g id="arrowLeft" xlink:href="#dirArrow" transform="rotate(270) translate(-36 17)" onmousedown="handlePan(-1,0)">
                  <use xlink:href="#rim" fill="#404040">
                        <set attributeName="fill" to="#808080" begin="arrowLeft.mouseover" end="arrowLeft.mouseout"/>
                  </use>
                  <path fill="none" stroke="white" stroke-width="1.5" d="M0,-3.0v7 M-2.5,-0.5L0,-3.0L2.5,-0.5"/>
                </g>
        </g>
        <svg viewBox="0 0 15 15" width="100%" height="30px" preserveAspectRatio="xMaxYMin meet">
         <g id="arrow_out" transform="scale(0.3 0.3)">
          <a xlink:href="session__base_8cpp__incl_org.svg" target="_base">
           <rect id="button" ry="5" rx="5" y="6" x="6" height="38" width="38"
                fill="#f2f5e9" fill-opacity="0.5" stroke="#606060" stroke-width="1.0"/>
           <path id="arrow"
             d="M 11.500037,31.436501 C 11.940474,20.09759 22.043105,11.32322 32.158766,21.979434 L 37.068811,17.246167 C 37.068811,17.246167 37.088388,32 37.088388,32 L 22.160133,31.978069 C 22.160133,31.978069 26.997745,27.140456 26.997745,27.140456 C 18.528582,18.264221 13.291696,25.230495 11.500037,31.436501 z"
             style="fill:#404040;"/>
          </a>
         </g>
        </svg>
</svg>
