<?xml version="1.0" encoding="UTF-8" standalone="no"?>
<!DOCTYPE svg PUBLIC "-//W3C//DTD SVG 1.1//EN"
 "http://www.w3.org/Graphics/SVG/1.1/DTD/svg11.dtd">
<!-- Generated by graphviz version 2.36.0 (20140111.2315)
 -->
<!-- Title: src/pair.cpp Pages: 1 -->
<!--zoomable 106 -->
<svg id="main" version="1.1" xmlns="http://www.w3.org/2000/svg" xmlns:xlink="http://www.w3.org/1999/xlink" xml:space="preserve" onload="init(evt)">
<style type="text/css"><![CDATA[
.edge:hover path { stroke: red; }
.edge:hover polygon { stroke: red; fill: red; }
]]></style>
<script type="text/javascript"><![CDATA[
var edges = document.getElementsByTagName('g');
if (edges && edges.length) {
  for (var i=0;i<edges.length;i++) {
    if (edges[i].id.substr(0,4)=='edge') {
      edges[i].setAttribute('class','edge');
    }
  }
}
]]></script>
        <defs>
                <circle id="rim" cx="0" cy="0" r="7"/>
                <circle id="rim2" cx="0" cy="0" r="3.5"/>
                <g id="zoomPlus">
                        <use xlink:href="#rim" fill="#404040">
                                <set attributeName="fill" to="#808080" begin="zoomplus.mouseover" end="zoomplus.mouseout"/>
                        </use>
                        <path d="M-4,0h8M0,-4v8" fill="none" stroke="white" stroke-width="1.5" pointer-events="none"/>
                </g>
                <g id="zoomMin">
                        <use xlink:href="#rim" fill="#404040">
                                <set attributeName="fill" to="#808080" begin="zoomminus.mouseover" end="zoomminus.mouseout"/>
                        </use>
                        <path d="M-4,0h8" fill="none" stroke="white" stroke-width="1.5" pointer-events="none"/>
                </g>
                <g id="dirArrow">
                        <path fill="none" stroke="white" stroke-width="1.5" d="M0,-3.0v7 M-2.5,-0.5L0,-3.0L2.5,-0.5"/>
                </g>
               <g id="resetDef">
                       <use xlink:href="#rim2" fill="#404040">
                               <set attributeName="fill" to="#808080" begin="reset.mouseover" end="reset.mouseout"/>
                       </use>
               </g>
        </defs>

<script type="text/javascript">
var viewWidth = 568;
var viewHeight = 106;
var sectionId = 'dynsection-0';
</script>
<script xlink:href="../../svgpan.js"/>
<svg id="graph" class="graph">
<g id="viewport">
<title>src/pair.cpp</title>
<polygon fill="white" stroke="none" points="-4,4 -4,-102 564,-102 564,4 -4,4"/>
<!-- Node1 -->
<g id="node1" class="node"><title>Node1</title>
<polygon fill="#bfbfbf" stroke="black" points="305,-78.5 305,-97.5 373,-97.5 373,-78.5 305,-78.5"/>
<text text-anchor="middle" x="339" y="-85.5" font-family="Helvetica,sans-Serif" font-size="10.00">src/pair.cpp</text>
</g>
<!-- Node2 -->
<g id="node2" class="node"><title>Node2</title>
<polygon fill="white" stroke="#bfbfbf" points="-0.5,-11.5 -0.5,-30.5 50.5,-30.5 50.5,-11.5 -0.5,-11.5"/>
<text text-anchor="middle" x="25" y="-18.5" font-family="Helvetica,sans-Serif" font-size="10.00">pair.hpp</text>
</g>
<!-- Node1&#45;&gt;Node2 -->
<g id="edge1" class="edge"><title>Node1&#45;&gt;Node2</title>
<path fill="none" stroke="midnightblue" d="M304.97,-85.4313C251.433,-82.1043 144.892,-71.9844 60,-42 55.422,-40.383 50.7548,-38.1736 46.3831,-35.8117"/>
<polygon fill="midnightblue" stroke="midnightblue" points="47.8313,-32.6037 37.4338,-30.5681 44.2925,-38.6434 47.8313,-32.6037"/>
</g>
<!-- Node3 -->
<g id="node3" class="node"><title>Node3</title>
<polygon fill="white" stroke="#bfbfbf" points="69,-0.5 69,-41.5 201,-41.5 201,-0.5 69,-0.5"/>
<text text-anchor="start" x="77" y="-29.5" font-family="Helvetica,sans-Serif" font-size="10.00">/home/hebert/Documentos</text>
<text text-anchor="start" x="77" y="-18.5" font-family="Helvetica,sans-Serif" font-size="10.00">/DAS/zeromq&#45;3.2.1/src</text>
<text text-anchor="middle" x="135" y="-7.5" font-family="Helvetica,sans-Serif" font-size="10.00">/socket_base.hpp</text>
</g>
<!-- Node1&#45;&gt;Node3 -->
<g id="edge2" class="edge"><title>Node1&#45;&gt;Node3</title>
<path fill="none" stroke="midnightblue" d="M311.91,-78.3685C285.048,-69.8093 242.736,-56.3275 206.227,-44.6949"/>
<polygon fill="midnightblue" stroke="midnightblue" points="207.184,-41.3266 196.594,-41.6254 205.059,-47.9962 207.184,-41.3266"/>
</g>
<!-- Node4 -->
<g id="node4" class="node"><title>Node4</title>
<polygon fill="white" stroke="#bfbfbf" points="219,-0.5 219,-41.5 351,-41.5 351,-0.5 219,-0.5"/>
<text text-anchor="start" x="227" y="-29.5" font-family="Helvetica,sans-Serif" font-size="10.00">/home/hebert/Documentos</text>
<text text-anchor="start" x="227" y="-18.5" font-family="Helvetica,sans-Serif" font-size="10.00">/DAS/zeromq&#45;3.2.1/src</text>
<text text-anchor="middle" x="285" y="-7.5" font-family="Helvetica,sans-Serif" font-size="10.00">/session_base.hpp</text>
</g>
<!-- Node1&#45;&gt;Node4 -->
<g id="edge3" class="edge"><title>Node1&#45;&gt;Node4</title>
<path fill="none" stroke="midnightblue" d="M331.717,-78.2338C325.523,-70.7781 316.285,-59.6581 307.655,-49.2703"/>
<polygon fill="midnightblue" stroke="midnightblue" points="310.317,-46.9974 301.235,-41.5421 304.933,-51.4706 310.317,-46.9974"/>
</g>
<!-- Node5 -->
<g id="node5" class="node"><title>Node5</title>
<polygon fill="white" stroke="#bfbfbf" points="369.5,-11.5 369.5,-30.5 416.5,-30.5 416.5,-11.5 369.5,-11.5"/>
<text text-anchor="middle" x="393" y="-18.5" font-family="Helvetica,sans-Serif" font-size="10.00">err.hpp</text>
</g>
<!-- Node1&#45;&gt;Node5 -->
<g id="edge4" class="edge"><title>Node1&#45;&gt;Node5</title>
<path fill="none" stroke="midnightblue" d="M346.283,-78.2338C354.703,-68.0979 368.75,-51.1899 379.246,-38.5556"/>
<polygon fill="midnightblue" stroke="midnightblue" points="382.135,-40.5558 385.833,-30.6273 376.75,-36.0826 382.135,-40.5558"/>
</g>
<!-- Node6 -->
<g id="node6" class="node"><title>Node6</title>
<polygon fill="white" stroke="#bfbfbf" points="434.5,-11.5 434.5,-30.5 487.5,-30.5 487.5,-11.5 434.5,-11.5"/>
<text text-anchor="middle" x="461" y="-18.5" font-family="Helvetica,sans-Serif" font-size="10.00">pipe.hpp</text>
</g>
<!-- Node1&#45;&gt;Node6 -->
<g id="edge5" class="edge"><title>Node1&#45;&gt;Node6</title>
<path fill="none" stroke="midnightblue" d="M355.552,-78.4952C372.916,-69.5362 400.973,-54.9578 425,-42 428.823,-39.9383 432.859,-37.7288 436.791,-35.5578"/>
<polygon fill="midnightblue" stroke="midnightblue" points="438.587,-38.5642 445.63,-30.6496 435.189,-32.4444 438.587,-38.5642"/>
</g>
<!-- Node7 -->
<g id="node7" class="node"><title>Node7</title>
<polygon fill="white" stroke="#bfbfbf" points="506,-11.5 506,-30.5 560,-30.5 560,-11.5 506,-11.5"/>
<text text-anchor="middle" x="533" y="-18.5" font-family="Helvetica,sans-Serif" font-size="10.00">msg.hpp</text>
</g>
<!-- Node1&#45;&gt;Node7 -->
<g id="edge6" class="edge"><title>Node1&#45;&gt;Node7</title>
<path fill="none" stroke="midnightblue" d="M373.095,-79.4869C405.387,-71.8472 454.913,-58.7618 496,-42 500.657,-40.1003 505.486,-37.7751 510.058,-35.3909"/>
<polygon fill="midnightblue" stroke="midnightblue" points="511.849,-38.4007 518.943,-30.5315 508.49,-32.2592 511.849,-38.4007"/>
</g>
</g>
</svg>
        <g id="navigator" transform="translate(0 0)" fill="#404254">
                <rect fill="#f2f5e9" fill-opacity="0.5" stroke="#606060" stroke-width=".5" x="0" y="0" width="60" height="60"/>
                <use id="zoomplus" xlink:href="#zoomPlus" x="17" y="9" onmousedown="handleZoom(evt,'in')"/>
                <use id="zoomminus" xlink:href="#zoomMin" x="42" y="9" onmousedown="handleZoom(evt,'out')"/>
                <use id="reset" xlink:href="#resetDef" x="30" y="36" onmousedown="handleReset()"/>
                <g id="arrowUp" xlink:href="#dirArrow" transform="translate(30 24)" onmousedown="handlePan(0,-1)">
                  <use xlink:href="#rim" fill="#404040">
                        <set attributeName="fill" to="#808080" begin="arrowUp.mouseover" end="arrowUp.mouseout"/>
                  </use>
                  <path fill="none" stroke="white" stroke-width="1.5" d="M0,-3.0v7 M-2.5,-0.5L0,-3.0L2.5,-0.5"/>
                </g>
                <g id="arrowRight" xlink:href="#dirArrow" transform="rotate(90) translate(36 -43)" onmousedown="handlePan(1,0)">
                  <use xlink:href="#rim" fill="#404040">
                        <set attributeName="fill" to="#808080" begin="arrowRight.mouseover" end="arrowRight.mouseout"/>
                  </use>
                  <path fill="none" stroke="white" stroke-width="1.5" d="M0,-3.0v7 M-2.5,-0.5L0,-3.0L2.5,-0.5"/>
                </g>
                <g id="arrowDown" xlink:href="#dirArrow" transform="rotate(180) translate(-30 -48)" onmousedown="handlePan(0,1)">
                  <use xlink:href="#rim" fill="#404040">
                        <set attributeName="fill" to="#808080" begin="arrowDown.mouseover" end="arrowDown.mouseout"/>
                  </use>
                  <path fill="none" stroke="white" stroke-width="1.5" d="M0,-3.0v7 M-2.5,-0.5L0,-3.0L2.5,-0.5"/>
                </g>
                <g id="arrowLeft" xlink:href="#dirArrow" transform="rotate(270) translate(-36 17)" onmousedown="handlePan(-1,0)">
                  <use xlink:href="#rim" fill="#404040">
                        <set attributeName="fill" to="#808080" begin="arrowLeft.mouseover" end="arrowLeft.mouseout"/>
                  </use>
                  <path fill="none" stroke="white" stroke-width="1.5" d="M0,-3.0v7 M-2.5,-0.5L0,-3.0L2.5,-0.5"/>
                </g>
        </g>
        <svg viewBox="0 0 15 15" width="100%" height="30px" preserveAspectRatio="xMaxYMin meet">
         <g id="arrow_out" transform="scale(0.3 0.3)">
          <a xlink:href="pair_8cpp__incl_org.svg" target="_base">
           <rect id="button" ry="5" rx="5" y="6" x="6" height="38" width="38"
                fill="#f2f5e9" fill-opacity="0.5" stroke="#606060" stroke-width="1.0"/>
           <path id="arrow"
             d="M 11.500037,31.436501 C 11.940474,20.09759 22.043105,11.32322 32.158766,21.979434 L 37.068811,17.246167 C 37.068811,17.246167 37.088388,32 37.088388,32 L 22.160133,31.978069 C 22.160133,31.978069 26.997745,27.140456 26.997745,27.140456 C 18.528582,18.264221 13.291696,25.230495 11.500037,31.436501 z"
             style="fill:#404040;"/>
          </a>
         </g>
        </svg>
</svg>
