<?xml version="1.0" encoding="UTF-8" standalone="no"?>
<!DOCTYPE svg PUBLIC "-//W3C//DTD SVG 1.1//EN"
 "http://www.w3.org/Graphics/SVG/1.1/DTD/svg11.dtd">
<!-- Generated by graphviz version 2.36.0 (20140111.2315)
 -->
<!-- Title: src/pull.cpp Pages: 1 -->
<svg width="717pt" height="106pt"
 viewBox="0.00 0.00 717.00 106.00" xmlns="http://www.w3.org/2000/svg" xmlns:xlink="http://www.w3.org/1999/xlink">
<g id="graph0" class="graph" transform="scale(1 1) rotate(0) translate(4 102)">
<title>src/pull.cpp</title>
<polygon fill="white" stroke="none" points="-4,4 -4,-102 713,-102 713,4 -4,4"/>
<!-- Node1 -->
<g id="node1" class="node"><title>Node1</title>
<polygon fill="#bfbfbf" stroke="black" points="400.5,-78.5 400.5,-97.5 467.5,-97.5 467.5,-78.5 400.5,-78.5"/>
<text text-anchor="middle" x="434" y="-85.5" font-family="Helvetica,sans-Serif" font-size="10.00">src/pull.cpp</text>
</g>
<!-- Node2 -->
<g id="node2" class="node"><title>Node2</title>
<polygon fill="white" stroke="#bfbfbf" points="0,-11.5 0,-30.5 50,-30.5 50,-11.5 0,-11.5"/>
<text text-anchor="middle" x="25" y="-18.5" font-family="Helvetica,sans-Serif" font-size="10.00">pull.hpp</text>
</g>
<!-- Node1&#45;&gt;Node2 -->
<g id="edge1" class="edge"><title>Node1&#45;&gt;Node2</title>
<path fill="none" stroke="midnightblue" d="M400.393,-87.5194C333.524,-87.5758 179.836,-82.7931 59,-42 54.4236,-40.455 49.788,-38.2432 45.4733,-35.8493"/>
<polygon fill="midnightblue" stroke="midnightblue" points="47.0504,-32.7121 36.6878,-30.506 43.413,-38.6928 47.0504,-32.7121"/>
</g>
<!-- Node3 -->
<g id="node3" class="node"><title>Node3</title>
<polygon fill="white" stroke="#bfbfbf" points="68,-0.5 68,-41.5 200,-41.5 200,-0.5 68,-0.5"/>
<text text-anchor="start" x="76" y="-29.5" font-family="Helvetica,sans-Serif" font-size="10.00">/home/hebert/Documentos</text>
<text text-anchor="start" x="76" y="-18.5" font-family="Helvetica,sans-Serif" font-size="10.00">/DAS/zeromq&#45;3.2.1/src</text>
<text text-anchor="middle" x="134" y="-7.5" font-family="Helvetica,sans-Serif" font-size="10.00">/socket_base.hpp</text>
</g>
<!-- Node1&#45;&gt;Node3 -->
<g id="edge2" class="edge"><title>Node1&#45;&gt;Node3</title>
<path fill="none" stroke="midnightblue" d="M400.312,-80.9499C358.086,-73.2161 283.288,-59.0222 210.049,-42.1797"/>
<polygon fill="midnightblue" stroke="midnightblue" points="210.729,-38.7445 200.196,-39.8954 209.148,-45.5636 210.729,-38.7445"/>
</g>
<!-- Node4 -->
<g id="node4" class="node"><title>Node4</title>
<polygon fill="white" stroke="#bfbfbf" points="218,-0.5 218,-41.5 350,-41.5 350,-0.5 218,-0.5"/>
<text text-anchor="start" x="226" y="-29.5" font-family="Helvetica,sans-Serif" font-size="10.00">/home/hebert/Documentos</text>
<text text-anchor="start" x="226" y="-18.5" font-family="Helvetica,sans-Serif" font-size="10.00">/DAS/zeromq&#45;3.2.1/src</text>
<text text-anchor="middle" x="284" y="-7.5" font-family="Helvetica,sans-Serif" font-size="10.00">/session_base.hpp</text>
</g>
<!-- Node1&#45;&gt;Node4 -->
<g id="edge3" class="edge"><title>Node1&#45;&gt;Node4</title>
<path fill="none" stroke="midnightblue" d="M414.081,-78.3685C394.917,-70.0642 365.061,-57.1263 338.783,-45.7391"/>
<polygon fill="midnightblue" stroke="midnightblue" points="339.857,-42.3901 329.289,-41.6254 337.073,-48.813 339.857,-42.3901"/>
</g>
<!-- Node5 -->
<g id="node5" class="node"><title>Node5</title>
<polygon fill="white" stroke="#bfbfbf" points="368,-0.5 368,-41.5 500,-41.5 500,-0.5 368,-0.5"/>
<text text-anchor="start" x="376" y="-29.5" font-family="Helvetica,sans-Serif" font-size="10.00">/home/hebert/Documentos</text>
<text text-anchor="start" x="376" y="-18.5" font-family="Helvetica,sans-Serif" font-size="10.00">/DAS/zeromq&#45;3.2.1/src</text>
<text text-anchor="middle" x="434" y="-7.5" font-family="Helvetica,sans-Serif" font-size="10.00">/fq.hpp</text>
</g>
<!-- Node1&#45;&gt;Node5 -->
<g id="edge4" class="edge"><title>Node1&#45;&gt;Node5</title>
<path fill="none" stroke="midnightblue" d="M434,-78.2338C434,-71.3628 434,-61.3799 434,-51.7259"/>
<polygon fill="midnightblue" stroke="midnightblue" points="437.5,-51.542 434,-41.5421 430.5,-51.5421 437.5,-51.542"/>
</g>
<!-- Node6 -->
<g id="node6" class="node"><title>Node6</title>
<polygon fill="white" stroke="#bfbfbf" points="518.5,-11.5 518.5,-30.5 565.5,-30.5 565.5,-11.5 518.5,-11.5"/>
<text text-anchor="middle" x="542" y="-18.5" font-family="Helvetica,sans-Serif" font-size="10.00">err.hpp</text>
</g>
<!-- Node1&#45;&gt;Node6 -->
<g id="edge5" class="edge"><title>Node1&#45;&gt;Node6</title>
<path fill="none" stroke="midnightblue" d="M448.389,-78.3921C463.496,-69.3492 487.934,-54.7031 509,-42 512.292,-40.0151 515.765,-37.9153 519.174,-35.8519"/>
<polygon fill="midnightblue" stroke="midnightblue" points="521.138,-38.7542 527.877,-30.5784 517.511,-32.7676 521.138,-38.7542"/>
</g>
<!-- Node7 -->
<g id="node7" class="node"><title>Node7</title>
<polygon fill="white" stroke="#bfbfbf" points="584,-11.5 584,-30.5 638,-30.5 638,-11.5 584,-11.5"/>
<text text-anchor="middle" x="611" y="-18.5" font-family="Helvetica,sans-Serif" font-size="10.00">msg.hpp</text>
</g>
<!-- Node1&#45;&gt;Node7 -->
<g id="edge6" class="edge"><title>Node1&#45;&gt;Node7</title>
<path fill="none" stroke="midnightblue" d="M466.305,-78.4523C495.082,-70.4087 538.072,-57.3289 574,-42 578.426,-40.1114 583.026,-37.8697 587.416,-35.5818"/>
<polygon fill="midnightblue" stroke="midnightblue" points="589.431,-38.4705 596.544,-30.6188 586.087,-32.3207 589.431,-38.4705"/>
</g>
<!-- Node8 -->
<g id="node8" class="node"><title>Node8</title>
<polygon fill="white" stroke="#bfbfbf" points="656.5,-11.5 656.5,-30.5 709.5,-30.5 709.5,-11.5 656.5,-11.5"/>
<text text-anchor="middle" x="683" y="-18.5" font-family="Helvetica,sans-Serif" font-size="10.00">pipe.hpp</text>
</g>
<!-- Node1&#45;&gt;Node8 -->
<g id="edge7" class="edge"><title>Node1&#45;&gt;Node8</title>
<path fill="none" stroke="midnightblue" d="M467.708,-83.0453C510.449,-77.3211 585.928,-64.8239 647,-42 651.692,-40.2464 656.513,-37.9546 661.04,-35.5505"/>
<polygon fill="midnightblue" stroke="midnightblue" points="662.81,-38.5703 669.784,-30.5947 659.359,-32.4802 662.81,-38.5703"/>
</g>
</g>
</svg>
