<?xml version="1.0" encoding="UTF-8" standalone="no"?>
<!DOCTYPE svg PUBLIC "-//W3C//DTD SVG 1.1//EN"
 "http://www.w3.org/Graphics/SVG/1.1/DTD/svg11.dtd">
<!-- Generated by graphviz version 2.36.0 (20140111.2315)
 -->
<!-- Title: src/io_object.cpp Pages: 1 -->
<svg width="240pt" height="84pt"
 viewBox="0.00 0.00 240.00 84.00" xmlns="http://www.w3.org/2000/svg" xmlns:xlink="http://www.w3.org/1999/xlink">
<g id="graph0" class="graph" transform="scale(1 1) rotate(0) translate(4 80)">
<title>src/io_object.cpp</title>
<polygon fill="white" stroke="none" points="-4,4 -4,-80 236,-80 236,4 -4,4"/>
<!-- Node1 -->
<g id="node1" class="node"><title>Node1</title>
<polygon fill="#bfbfbf" stroke="black" points="84.5,-56.5 84.5,-75.5 175.5,-75.5 175.5,-56.5 84.5,-56.5"/>
<text text-anchor="middle" x="130" y="-63.5" font-family="Helvetica,sans-Serif" font-size="10.00">src/io_object.cpp</text>
</g>
<!-- Node2 -->
<g id="node2" class="node"><title>Node2</title>
<polygon fill="white" stroke="#bfbfbf" points="0,-0.5 0,-19.5 74,-19.5 74,-0.5 0,-0.5"/>
<text text-anchor="middle" x="37" y="-7.5" font-family="Helvetica,sans-Serif" font-size="10.00">io_object.hpp</text>
</g>
<!-- Node1&#45;&gt;Node2 -->
<g id="edge1" class="edge"><title>Node1&#45;&gt;Node2</title>
<path fill="none" stroke="midnightblue" d="M115.058,-56.324C100.415,-47.8215 77.8663,-34.7288 60.7623,-24.7975"/>
<polygon fill="midnightblue" stroke="midnightblue" points="62.3104,-21.6491 51.905,-19.6545 58.7954,-27.7027 62.3104,-21.6491"/>
</g>
<!-- Node3 -->
<g id="node3" class="node"><title>Node3</title>
<polygon fill="white" stroke="#bfbfbf" points="92.5,-0.5 92.5,-19.5 167.5,-19.5 167.5,-0.5 92.5,-0.5"/>
<text text-anchor="middle" x="130" y="-7.5" font-family="Helvetica,sans-Serif" font-size="10.00">io_thread.hpp</text>
</g>
<!-- Node1&#45;&gt;Node3 -->
<g id="edge2" class="edge"><title>Node1&#45;&gt;Node3</title>
<path fill="none" stroke="midnightblue" d="M130,-56.083C130,-49.0059 130,-38.8611 130,-29.9865"/>
<polygon fill="midnightblue" stroke="midnightblue" points="133.5,-29.751 130,-19.7511 126.5,-29.7511 133.5,-29.751"/>
</g>
<!-- Node4 -->
<g id="node4" class="node"><title>Node4</title>
<polygon fill="white" stroke="#bfbfbf" points="185.5,-0.5 185.5,-19.5 232.5,-19.5 232.5,-0.5 185.5,-0.5"/>
<text text-anchor="middle" x="209" y="-7.5" font-family="Helvetica,sans-Serif" font-size="10.00">err.hpp</text>
</g>
<!-- Node1&#45;&gt;Node4 -->
<g id="edge3" class="edge"><title>Node1&#45;&gt;Node4</title>
<path fill="none" stroke="midnightblue" d="M142.693,-56.324C154.901,-47.979 173.578,-35.2122 188.003,-25.3524"/>
<polygon fill="midnightblue" stroke="midnightblue" points="190.058,-28.1871 196.339,-19.6545 186.108,-22.4082 190.058,-28.1871"/>
</g>
</g>
</svg>
