<?xml version="1.0" encoding="UTF-8" standalone="no"?>
<!DOCTYPE svg PUBLIC "-//W3C//DTD SVG 1.1//EN"
 "http://www.w3.org/Graphics/SVG/1.1/DTD/svg11.dtd">
<!-- Generated by graphviz version 2.36.0 (20140111.2315)
 -->
<!-- Title: src/clock.cpp Pages: 1 -->
<svg width="958pt" height="106pt"
 viewBox="0.00 0.00 958.00 106.00" xmlns="http://www.w3.org/2000/svg" xmlns:xlink="http://www.w3.org/1999/xlink">
<g id="graph0" class="graph" transform="scale(1 1) rotate(0) translate(4 102)">
<title>src/clock.cpp</title>
<polygon fill="white" stroke="none" points="-4,4 -4,-102 954,-102 954,4 -4,4"/>
<!-- Node1 -->
<g id="node1" class="node"><title>Node1</title>
<polygon fill="#bfbfbf" stroke="black" points="525.5,-78.5 525.5,-97.5 600.5,-97.5 600.5,-78.5 525.5,-78.5"/>
<text text-anchor="middle" x="563" y="-85.5" font-family="Helvetica,sans-Serif" font-size="10.00">src/clock.cpp</text>
</g>
<!-- Node2 -->
<g id="node2" class="node"><title>Node2</title>
<polygon fill="white" stroke="#bfbfbf" points="-0.5,-11.5 -0.5,-30.5 58.5,-30.5 58.5,-11.5 -0.5,-11.5"/>
<text text-anchor="middle" x="29" y="-18.5" font-family="Helvetica,sans-Serif" font-size="10.00">clock.hpp</text>
</g>
<!-- Node1&#45;&gt;Node2 -->
<g id="edge1" class="edge"><title>Node1&#45;&gt;Node2</title>
<path fill="none" stroke="midnightblue" d="M525.328,-85.4354C425.134,-80.9787 153.882,-66.9055 68,-42 62.4275,-40.384 56.7147,-37.9563 51.4395,-35.3439"/>
<polygon fill="midnightblue" stroke="midnightblue" points="53.0092,-32.2142 42.5415,-30.5773 49.7037,-38.3847 53.0092,-32.2142"/>
</g>
<!-- Node3 -->
<g id="node3" class="node"><title>Node3</title>
<polygon fill="white" stroke="#bfbfbf" points="77,-0.5 77,-41.5 209,-41.5 209,-0.5 77,-0.5"/>
<text text-anchor="start" x="85" y="-29.5" font-family="Helvetica,sans-Serif" font-size="10.00">/home/hebert/Documentos</text>
<text text-anchor="start" x="85" y="-18.5" font-family="Helvetica,sans-Serif" font-size="10.00">/DAS/zeromq&#45;3.2.1/src</text>
<text text-anchor="middle" x="143" y="-7.5" font-family="Helvetica,sans-Serif" font-size="10.00">/stdint.hpp</text>
</g>
<!-- Node1&#45;&gt;Node3 -->
<g id="edge2" class="edge"><title>Node1&#45;&gt;Node3</title>
<path fill="none" stroke="midnightblue" d="M525.471,-83.7286C463.561,-77.9803 336.032,-64.6586 218.988,-42.0685"/>
<polygon fill="midnightblue" stroke="midnightblue" points="219.63,-38.6277 209.143,-40.1413 218.285,-45.4973 219.63,-38.6277"/>
</g>
<!-- Node4 -->
<g id="node4" class="node"><title>Node4</title>
<polygon fill="white" stroke="#bfbfbf" points="227,-0.5 227,-41.5 359,-41.5 359,-0.5 227,-0.5"/>
<text text-anchor="start" x="235" y="-29.5" font-family="Helvetica,sans-Serif" font-size="10.00">/home/hebert/Documentos</text>
<text text-anchor="start" x="235" y="-18.5" font-family="Helvetica,sans-Serif" font-size="10.00">/DAS/zeromq&#45;3.2.1/src</text>
<text text-anchor="middle" x="293" y="-7.5" font-family="Helvetica,sans-Serif" font-size="10.00">/platform.hpp</text>
</g>
<!-- Node1&#45;&gt;Node4 -->
<g id="edge3" class="edge"><title>Node1&#45;&gt;Node4</title>
<path fill="none" stroke="midnightblue" d="M525.163,-78.6662C487.884,-70.3672 429.069,-57.039 369.223,-42.2688"/>
<polygon fill="midnightblue" stroke="midnightblue" points="369.77,-38.7986 359.222,-39.7892 368.086,-45.5929 369.77,-38.7986"/>
</g>
<!-- Node5 -->
<g id="node5" class="node"><title>Node5</title>
<polygon fill="white" stroke="#bfbfbf" points="377.5,-11.5 377.5,-30.5 426.5,-30.5 426.5,-11.5 377.5,-11.5"/>
<text text-anchor="middle" x="402" y="-18.5" font-family="Helvetica,sans-Serif" font-size="10.00">stdint.h</text>
</g>
<!-- Node1&#45;&gt;Node5 -->
<g id="edge4" class="edge"><title>Node1&#45;&gt;Node5</title>
<path fill="none" stroke="midnightblue" d="M533.336,-78.4862C506.941,-70.4647 467.585,-57.3986 435,-42 431.224,-40.2155 427.33,-38.114 423.599,-35.9558"/>
<polygon fill="midnightblue" stroke="midnightblue" points="425.186,-32.8246 414.823,-30.6222 421.551,-38.8066 425.186,-32.8246"/>
</g>
<!-- Node6 -->
<g id="node6" class="node"><title>Node6</title>
<polygon fill="white" stroke="#bfbfbf" points="444.5,-11.5 444.5,-30.5 515.5,-30.5 515.5,-11.5 444.5,-11.5"/>
<text text-anchor="middle" x="480" y="-18.5" font-family="Helvetica,sans-Serif" font-size="10.00">platform.hpp</text>
</g>
<!-- Node1&#45;&gt;Node6 -->
<g id="edge5" class="edge"><title>Node1&#45;&gt;Node6</title>
<path fill="none" stroke="midnightblue" d="M551.806,-78.2338C538.366,-67.708 515.6,-49.8793 499.304,-37.1174"/>
<polygon fill="midnightblue" stroke="midnightblue" points="501.047,-34.0374 491.016,-30.6273 496.731,-39.5486 501.047,-34.0374"/>
</g>
<!-- Node7 -->
<g id="node7" class="node"><title>Node7</title>
<polygon fill="white" stroke="#bfbfbf" points="534,-11.5 534,-30.5 592,-30.5 592,-11.5 534,-11.5"/>
<text text-anchor="middle" x="563" y="-18.5" font-family="Helvetica,sans-Serif" font-size="10.00">likely.hpp</text>
</g>
<!-- Node1&#45;&gt;Node7 -->
<g id="edge6" class="edge"><title>Node1&#45;&gt;Node7</title>
<path fill="none" stroke="midnightblue" d="M563,-78.2338C563,-68.6826 563,-53.1183 563,-40.7829"/>
<polygon fill="midnightblue" stroke="midnightblue" points="566.5,-40.6273 563,-30.6273 559.5,-40.6273 566.5,-40.6273"/>
</g>
<!-- Node8 -->
<g id="node8" class="node"><title>Node8</title>
<polygon fill="white" stroke="#bfbfbf" points="610,-11.5 610,-30.5 672,-30.5 672,-11.5 610,-11.5"/>
<text text-anchor="middle" x="641" y="-18.5" font-family="Helvetica,sans-Serif" font-size="10.00">config.hpp</text>
</g>
<!-- Node1&#45;&gt;Node8 -->
<g id="edge7" class="edge"><title>Node1&#45;&gt;Node8</title>
<path fill="none" stroke="midnightblue" d="M573.519,-78.2338C586.15,-67.708 607.545,-49.8793 622.859,-37.1174"/>
<polygon fill="midnightblue" stroke="midnightblue" points="625.206,-39.718 630.647,-30.6273 620.724,-34.3404 625.206,-39.718"/>
</g>
<!-- Node9 -->
<g id="node9" class="node"><title>Node9</title>
<polygon fill="white" stroke="#bfbfbf" points="690.5,-11.5 690.5,-30.5 737.5,-30.5 737.5,-11.5 690.5,-11.5"/>
<text text-anchor="middle" x="714" y="-18.5" font-family="Helvetica,sans-Serif" font-size="10.00">err.hpp</text>
</g>
<!-- Node1&#45;&gt;Node9 -->
<g id="edge8" class="edge"><title>Node1&#45;&gt;Node9</title>
<path fill="none" stroke="midnightblue" d="M589.077,-78.3573C613.135,-70.0611 649.617,-56.6559 680,-42 683.955,-40.092 688.062,-37.885 691.997,-35.6485"/>
<polygon fill="midnightblue" stroke="midnightblue" points="693.881,-38.6011 700.713,-30.5032 690.322,-32.5731 693.881,-38.6011"/>
</g>
<!-- Node10 -->
<g id="node10" class="node"><title>Node10</title>
<polygon fill="white" stroke="#bfbfbf" points="756,-11.5 756,-30.5 808,-30.5 808,-11.5 756,-11.5"/>
<text text-anchor="middle" x="782" y="-18.5" font-family="Helvetica,sans-Serif" font-size="10.00">stddef.h</text>
</g>
<!-- Node1&#45;&gt;Node10 -->
<g id="edge9" class="edge"><title>Node1&#45;&gt;Node10</title>
<path fill="none" stroke="midnightblue" d="M600.699,-80.7673C638.341,-73.8456 697.425,-61.0703 746,-42 750.463,-40.2478 755.058,-38.0411 759.41,-35.7383"/>
<polygon fill="midnightblue" stroke="midnightblue" points="761.401,-38.6344 768.403,-30.6828 757.971,-32.5325 761.401,-38.6344"/>
</g>
<!-- Node11 -->
<g id="node11" class="node"><title>Node11</title>
<polygon fill="white" stroke="#bfbfbf" points="826,-11.5 826,-30.5 888,-30.5 888,-11.5 826,-11.5"/>
<text text-anchor="middle" x="857" y="-18.5" font-family="Helvetica,sans-Serif" font-size="10.00">sys/time.h</text>
</g>
<!-- Node1&#45;&gt;Node11 -->
<g id="edge10" class="edge"><title>Node1&#45;&gt;Node11</title>
<path fill="none" stroke="midnightblue" d="M600.848,-83.7287C651.221,-78.6057 742.594,-66.6157 817,-42 822.436,-40.2015 828.06,-37.7794 833.312,-35.2422"/>
<polygon fill="midnightblue" stroke="midnightblue" points="834.943,-38.3392 842.244,-30.6609 831.748,-32.1107 834.943,-38.3392"/>
</g>
<!-- Node12 -->
<g id="node12" class="node"><title>Node12</title>
<polygon fill="white" stroke="#bfbfbf" points="906,-11.5 906,-30.5 950,-30.5 950,-11.5 906,-11.5"/>
<text text-anchor="middle" x="928" y="-18.5" font-family="Helvetica,sans-Serif" font-size="10.00">time.h</text>
</g>
<!-- Node1&#45;&gt;Node12 -->
<g id="edge11" class="edge"><title>Node1&#45;&gt;Node12</title>
<path fill="none" stroke="midnightblue" d="M600.676,-87.0199C663.7,-85.9433 793.665,-78.9454 896,-42 900.159,-40.4984 904.35,-38.3981 908.266,-36.1194"/>
<polygon fill="midnightblue" stroke="midnightblue" points="910.231,-39.0177 916.763,-30.676 906.454,-33.1236 910.231,-39.0177"/>
</g>
</g>
</svg>
