<?xml version="1.0" encoding="UTF-8" standalone="no"?>
<!DOCTYPE svg PUBLIC "-//W3C//DTD SVG 1.1//EN"
 "http://www.w3.org/Graphics/SVG/1.1/DTD/svg11.dtd">
<!-- Generated by graphviz version 2.36.0 (20140111.2315)
 -->
<!-- Title: src/address.cpp Pages: 1 -->
<!--zoomable 106 -->
<svg id="main" version="1.1" xmlns="http://www.w3.org/2000/svg" xmlns:xlink="http://www.w3.org/1999/xlink" xml:space="preserve" onload="init(evt)">
<style type="text/css"><![CDATA[
.edge:hover path { stroke: red; }
.edge:hover polygon { stroke: red; fill: red; }
]]></style>
<script type="text/javascript"><![CDATA[
var edges = document.getElementsByTagName('g');
if (edges && edges.length) {
  for (var i=0;i<edges.length;i++) {
    if (edges[i].id.substr(0,4)=='edge') {
      edges[i].setAttribute('class','edge');
    }
  }
}
]]></script>
        <defs>
                <circle id="rim" cx="0" cy="0" r="7"/>
                <circle id="rim2" cx="0" cy="0" r="3.5"/>
                <g id="zoomPlus">
                        <use xlink:href="#rim" fill="#404040">
                                <set attributeName="fill" to="#808080" begin="zoomplus.mouseover" end="zoomplus.mouseout"/>
                        </use>
                        <path d="M-4,0h8M0,-4v8" fill="none" stroke="white" stroke-width="1.5" pointer-events="none"/>
                </g>
                <g id="zoomMin">
                        <use xlink:href="#rim" fill="#404040">
                                <set attributeName="fill" to="#808080" begin="zoomminus.mouseover" end="zoomminus.mouseout"/>
                        </use>
                        <path d="M-4,0h8" fill="none" stroke="white" stroke-width="1.5" pointer-events="none"/>
                </g>
                <g id="dirArrow">
                        <path fill="none" stroke="white" stroke-width="1.5" d="M0,-3.0v7 M-2.5,-0.5L0,-3.0L2.5,-0.5"/>
                </g>
               <g id="resetDef">
                       <use xlink:href="#rim2" fill="#404040">
                               <set attributeName="fill" to="#808080" begin="reset.mouseover" end="reset.mouseout"/>
                       </use>
               </g>
        </defs>

<script type="text/javascript">
var viewWidth = 1686;
var viewHeight = 106;
var sectionId = 'dynsection-0';
</script>
<script xlink:href="../../svgpan.js"/>
<svg id="graph" class="graph">
<g id="viewport">
<title>src/address.cpp</title>
<polygon fill="white" stroke="none" points="-4,4 -4,-102 1682,-102 1682,4 -4,4"/>
<!-- Node1 -->
<g id="node1" class="node"><title>Node1</title>
<polygon fill="#bfbfbf" stroke="black" points="714,-78.5 714,-97.5 800,-97.5 800,-78.5 714,-78.5"/>
<text text-anchor="middle" x="757" y="-85.5" font-family="Helvetica,sans-Serif" font-size="10.00">src/address.cpp</text>
</g>
<!-- Node2 -->
<g id="node2" class="node"><title>Node2</title>
<polygon fill="white" stroke="#bfbfbf" points="0,-11.5 0,-30.5 70,-30.5 70,-11.5 0,-11.5"/>
<text text-anchor="middle" x="35" y="-18.5" font-family="Helvetica,sans-Serif" font-size="10.00">address.hpp</text>
</g>
<!-- Node1&#45;&gt;Node2 -->
<g id="edge1" class="edge"><title>Node1&#45;&gt;Node2</title>
<path fill="none" stroke="midnightblue" d="M713.629,-86.1524C583.835,-83.296 199.981,-72.4346 79,-42 72.4849,-40.361 65.7414,-37.7911 59.5495,-35.0327"/>
<polygon fill="midnightblue" stroke="midnightblue" points="60.917,-31.8071 50.3856,-30.6498 57.8967,-38.122 60.917,-31.8071"/>
</g>
<!-- Node3 -->
<g id="node3" class="node"><title>Node3</title>
<polygon fill="white" stroke="#bfbfbf" points="88.5,-11.5 88.5,-30.5 129.5,-30.5 129.5,-11.5 88.5,-11.5"/>
<text text-anchor="middle" x="109" y="-18.5" font-family="Helvetica,sans-Serif" font-size="10.00">string</text>
</g>
<!-- Node1&#45;&gt;Node3 -->
<g id="edge2" class="edge"><title>Node1&#45;&gt;Node3</title>
<path fill="none" stroke="midnightblue" d="M713.69,-86.7915C591.232,-85.7397 244.475,-79.4438 138,-42 134.261,-40.685 130.556,-38.7539 127.108,-36.6029"/>
<polygon fill="midnightblue" stroke="midnightblue" points="128.916,-33.5944 118.733,-30.668 124.868,-39.3057 128.916,-33.5944"/>
</g>
<!-- Node4 -->
<g id="node4" class="node"><title>Node4</title>
<polygon fill="white" stroke="#bfbfbf" points="147.5,-11.5 147.5,-30.5 194.5,-30.5 194.5,-11.5 147.5,-11.5"/>
<text text-anchor="middle" x="171" y="-18.5" font-family="Helvetica,sans-Serif" font-size="10.00">err.hpp</text>
</g>
<!-- Node1&#45;&gt;Node4 -->
<g id="edge3" class="edge"><title>Node1&#45;&gt;Node4</title>
<path fill="none" stroke="midnightblue" d="M713.992,-86.049C601.143,-83.1493 298.736,-72.6634 204,-42 199.505,-40.545 194.981,-38.3735 190.787,-35.9909"/>
<polygon fill="midnightblue" stroke="midnightblue" points="192.596,-32.9944 182.268,-30.6339 188.87,-38.9201 192.596,-32.9944"/>
</g>
<!-- Node5 -->
<g id="node5" class="node"><title>Node5</title>
<polygon fill="white" stroke="#bfbfbf" points="213,-6 213,-36 377,-36 377,-6 213,-6"/>
<text text-anchor="start" x="221" y="-24" font-family="Helvetica,sans-Serif" font-size="10.00">/home/hebert/Documentos</text>
<text text-anchor="middle" x="295" y="-13" font-family="Helvetica,sans-Serif" font-size="10.00">/DAS/zeromq&#45;3.2.1/include/zmq.h</text>
</g>
<!-- Node1&#45;&gt;Node5 -->
<g id="edge4" class="edge"><title>Node1&#45;&gt;Node5</title>
<path fill="none" stroke="midnightblue" d="M713.961,-83.1286C644.622,-76.589 504.011,-62.0779 386,-42 379.25,-40.8516 372.245,-39.5362 365.252,-38.1404"/>
<polygon fill="midnightblue" stroke="midnightblue" points="365.548,-34.6283 355.049,-36.048 364.142,-41.4856 365.548,-34.6283"/>
</g>
<!-- Node6 -->
<g id="node6" class="node"><title>Node6</title>
<polygon fill="white" stroke="#bfbfbf" points="395.5,-11.5 395.5,-30.5 442.5,-30.5 442.5,-11.5 395.5,-11.5"/>
<text text-anchor="middle" x="419" y="-18.5" font-family="Helvetica,sans-Serif" font-size="10.00">errno.h</text>
</g>
<!-- Node1&#45;&gt;Node6 -->
<g id="edge5" class="edge"><title>Node1&#45;&gt;Node6</title>
<path fill="none" stroke="midnightblue" d="M713.767,-85.9817C653.447,-83.3758 541.386,-74.191 452,-42 447.746,-40.4678 443.44,-38.3532 439.407,-36.0697"/>
<polygon fill="midnightblue" stroke="midnightblue" points="440.983,-32.9288 430.641,-30.63 437.292,-38.8767 440.983,-32.9288"/>
</g>
<!-- Node7 -->
<g id="node7" class="node"><title>Node7</title>
<polygon fill="white" stroke="#bfbfbf" points="461,-11.5 461,-30.5 513,-30.5 513,-11.5 461,-11.5"/>
<text text-anchor="middle" x="487" y="-18.5" font-family="Helvetica,sans-Serif" font-size="10.00">stddef.h</text>
</g>
<!-- Node1&#45;&gt;Node7 -->
<g id="edge6" class="edge"><title>Node1&#45;&gt;Node7</title>
<path fill="none" stroke="midnightblue" d="M713.834,-83.044C665.807,-77.6651 586.482,-65.843 522,-42 517.522,-40.3442 512.945,-38.1507 508.64,-35.8235"/>
<polygon fill="midnightblue" stroke="midnightblue" points="510.197,-32.68 499.794,-30.6727 506.675,-38.7292 510.197,-32.68"/>
</g>
<!-- Node8 -->
<g id="node8" class="node"><title>Node8</title>
<polygon fill="white" stroke="#bfbfbf" points="531,-11.5 531,-30.5 577,-30.5 577,-11.5 531,-11.5"/>
<text text-anchor="middle" x="554" y="-18.5" font-family="Helvetica,sans-Serif" font-size="10.00">stdio.h</text>
</g>
<!-- Node1&#45;&gt;Node8 -->
<g id="edge7" class="edge"><title>Node1&#45;&gt;Node8</title>
<path fill="none" stroke="midnightblue" d="M713.644,-79.3548C678.341,-72.2491 627.705,-60.0252 586,-42 582.185,-40.3511 578.296,-38.2913 574.603,-36.1255"/>
<polygon fill="midnightblue" stroke="midnightblue" points="576.311,-33.0649 565.985,-30.697 572.581,-38.988 576.311,-33.0649"/>
</g>
<!-- Node9 -->
<g id="node9" class="node"><title>Node9</title>
<polygon fill="white" stroke="#bfbfbf" points="595,-11.5 595,-30.5 647,-30.5 647,-11.5 595,-11.5"/>
<text text-anchor="middle" x="621" y="-18.5" font-family="Helvetica,sans-Serif" font-size="10.00">assert.h</text>
</g>
<!-- Node1&#45;&gt;Node9 -->
<g id="edge8" class="edge"><title>Node1&#45;&gt;Node9</title>
<path fill="none" stroke="midnightblue" d="M736.213,-78.4577C715.593,-69.8168 683.225,-55.7998 656,-42 652.067,-40.0066 647.951,-37.783 643.979,-35.5634"/>
<polygon fill="midnightblue" stroke="midnightblue" points="645.546,-32.4279 635.128,-30.5013 642.071,-38.5043 645.546,-32.4279"/>
</g>
<!-- Node10 -->
<g id="node10" class="node"><title>Node10</title>
<polygon fill="white" stroke="#bfbfbf" points="665.5,-11.5 665.5,-30.5 714.5,-30.5 714.5,-11.5 665.5,-11.5"/>
<text text-anchor="middle" x="690" y="-18.5" font-family="Helvetica,sans-Serif" font-size="10.00">string.h</text>
</g>
<!-- Node1&#45;&gt;Node10 -->
<g id="edge9" class="edge"><title>Node1&#45;&gt;Node10</title>
<path fill="none" stroke="midnightblue" d="M747.964,-78.2338C737.315,-67.903 719.415,-50.5371 706.319,-37.8315"/>
<polygon fill="midnightblue" stroke="midnightblue" points="708.507,-35.0784 698.893,-30.6273 703.633,-40.1026 708.507,-35.0784"/>
</g>
<!-- Node11 -->
<g id="node11" class="node"><title>Node11</title>
<polygon fill="white" stroke="#bfbfbf" points="733,-11.5 733,-30.5 781,-30.5 781,-11.5 733,-11.5"/>
<text text-anchor="middle" x="757" y="-18.5" font-family="Helvetica,sans-Serif" font-size="10.00">stdlib.h</text>
</g>
<!-- Node1&#45;&gt;Node11 -->
<g id="edge10" class="edge"><title>Node1&#45;&gt;Node11</title>
<path fill="none" stroke="midnightblue" d="M757,-78.2338C757,-68.6826 757,-53.1183 757,-40.7829"/>
<polygon fill="midnightblue" stroke="midnightblue" points="760.5,-40.6273 757,-30.6273 753.5,-40.6273 760.5,-40.6273"/>
</g>
<!-- Node12 -->
<g id="node12" class="node"><title>Node12</title>
<polygon fill="white" stroke="#bfbfbf" points="799,-0.5 799,-41.5 931,-41.5 931,-0.5 799,-0.5"/>
<text text-anchor="start" x="807" y="-29.5" font-family="Helvetica,sans-Serif" font-size="10.00">/home/hebert/Documentos</text>
<text text-anchor="start" x="807" y="-18.5" font-family="Helvetica,sans-Serif" font-size="10.00">/DAS/zeromq&#45;3.2.1/src</text>
<text text-anchor="middle" x="865" y="-7.5" font-family="Helvetica,sans-Serif" font-size="10.00">/platform.hpp</text>
</g>
<!-- Node1&#45;&gt;Node12 -->
<g id="edge11" class="edge"><title>Node1&#45;&gt;Node12</title>
<path fill="none" stroke="midnightblue" d="M771.565,-78.2338C784.925,-70.1933 805.365,-57.8913 823.725,-46.8417"/>
<polygon fill="midnightblue" stroke="midnightblue" points="825.767,-49.6975 832.53,-41.5421 822.157,-43.7 825.767,-49.6975"/>
</g>
<!-- Node13 -->
<g id="node13" class="node"><title>Node13</title>
<polygon fill="white" stroke="#bfbfbf" points="949,-0.5 949,-41.5 1081,-41.5 1081,-0.5 949,-0.5"/>
<text text-anchor="start" x="957" y="-29.5" font-family="Helvetica,sans-Serif" font-size="10.00">/home/hebert/Documentos</text>
<text text-anchor="start" x="957" y="-18.5" font-family="Helvetica,sans-Serif" font-size="10.00">/DAS/zeromq&#45;3.2.1/src</text>
<text text-anchor="middle" x="1015" y="-7.5" font-family="Helvetica,sans-Serif" font-size="10.00">/likely.hpp</text>
</g>
<!-- Node1&#45;&gt;Node13 -->
<g id="edge12" class="edge"><title>Node1&#45;&gt;Node13</title>
<path fill="none" stroke="midnightblue" d="M792.475,-78.4933C827.362,-70.0796 882.382,-56.6831 938.938,-42.2518"/>
<polygon fill="midnightblue" stroke="midnightblue" points="939.945,-45.6071 948.765,-39.7376 938.209,-38.8255 939.945,-45.6071"/>
</g>
<!-- Node14 -->
<g id="node14" class="node"><title>Node14</title>
<polygon fill="white" stroke="#bfbfbf" points="1099.5,-11.5 1099.5,-30.5 1148.5,-30.5 1148.5,-11.5 1099.5,-11.5"/>
<text text-anchor="middle" x="1124" y="-18.5" font-family="Helvetica,sans-Serif" font-size="10.00">netdb.h</text>
</g>
<!-- Node1&#45;&gt;Node14 -->
<g id="edge13" class="edge"><title>Node1&#45;&gt;Node14</title>
<path fill="none" stroke="midnightblue" d="M800.035,-86.5717C864.719,-84.7432 990.072,-76.5657 1090,-42 1094.49,-40.4469 1099.04,-38.2668 1103.3,-35.9135"/>
<polygon fill="midnightblue" stroke="midnightblue" points="1105.24,-38.8302 1111.98,-30.6617 1101.62,-32.8397 1105.24,-38.8302"/>
</g>
<!-- Node15 -->
<g id="node15" class="node"><title>Node15</title>
<polygon fill="white" stroke="#bfbfbf" points="1166.5,-11.5 1166.5,-30.5 1255.5,-30.5 1255.5,-11.5 1166.5,-11.5"/>
<text text-anchor="middle" x="1211" y="-18.5" font-family="Helvetica,sans-Serif" font-size="10.00">tcp_address.hpp</text>
</g>
<!-- Node1&#45;&gt;Node15 -->
<g id="edge14" class="edge"><title>Node1&#45;&gt;Node15</title>
<path fill="none" stroke="midnightblue" d="M800.21,-85.567C874.203,-82.3558 1029.52,-72.3013 1157,-42 1165.21,-40.0493 1173.87,-37.2119 1181.8,-34.2841"/>
<polygon fill="midnightblue" stroke="midnightblue" points="1183.29,-37.4592 1191.35,-30.5873 1180.76,-30.9306 1183.29,-37.4592"/>
</g>
<!-- Node16 -->
<g id="node16" class="node"><title>Node16</title>
<polygon fill="white" stroke="#bfbfbf" points="1273.5,-11.5 1273.5,-30.5 1346.5,-30.5 1346.5,-11.5 1273.5,-11.5"/>
<text text-anchor="middle" x="1310" y="-18.5" font-family="Helvetica,sans-Serif" font-size="10.00">sys/socket.h</text>
</g>
<!-- Node1&#45;&gt;Node16 -->
<g id="edge15" class="edge"><title>Node1&#45;&gt;Node16</title>
<path fill="none" stroke="midnightblue" d="M800.175,-87.7882C888.66,-88.4017 1096.37,-84.6826 1264,-42 1270.92,-40.2387 1278.12,-37.5548 1284.72,-34.7198"/>
<polygon fill="midnightblue" stroke="midnightblue" points="1286.21,-37.888 1293.85,-30.5478 1283.3,-31.5214 1286.21,-37.888"/>
</g>
<!-- Node17 -->
<g id="node17" class="node"><title>Node17</title>
<polygon fill="white" stroke="#bfbfbf" points="1364.5,-11.5 1364.5,-30.5 1429.5,-30.5 1429.5,-11.5 1364.5,-11.5"/>
<text text-anchor="middle" x="1397" y="-18.5" font-family="Helvetica,sans-Serif" font-size="10.00">netinet/in.h</text>
</g>
<!-- Node1&#45;&gt;Node17 -->
<g id="edge16" class="edge"><title>Node1&#45;&gt;Node17</title>
<path fill="none" stroke="midnightblue" d="M800.289,-85.8065C919.4,-82.1955 1250.1,-69.8782 1355,-42 1361.1,-40.3787 1367.39,-37.8833 1373.19,-35.1985"/>
<polygon fill="midnightblue" stroke="midnightblue" points="1374.97,-38.2208 1382.35,-30.6224 1371.84,-31.958 1374.97,-38.2208"/>
</g>
<!-- Node18 -->
<g id="node18" class="node"><title>Node18</title>
<polygon fill="white" stroke="#bfbfbf" points="1448,-11.5 1448,-30.5 1536,-30.5 1536,-11.5 1448,-11.5"/>
<text text-anchor="middle" x="1492" y="-18.5" font-family="Helvetica,sans-Serif" font-size="10.00">ipc_address.hpp</text>
</g>
<!-- Node1&#45;&gt;Node18 -->
<g id="edge17" class="edge"><title>Node1&#45;&gt;Node18</title>
<path fill="none" stroke="midnightblue" d="M800.01,-85.7791C929.665,-81.8429 1315.32,-68.1932 1438,-42 1446.48,-40.1895 1455.41,-37.31 1463.52,-34.2937"/>
<polygon fill="midnightblue" stroke="midnightblue" points="1464.88,-37.5203 1472.91,-30.6094 1462.32,-31.004 1464.88,-37.5203"/>
</g>
<!-- Node19 -->
<g id="node19" class="node"><title>Node19</title>
<polygon fill="white" stroke="#bfbfbf" points="1554,-11.5 1554,-30.5 1608,-30.5 1608,-11.5 1554,-11.5"/>
<text text-anchor="middle" x="1581" y="-18.5" font-family="Helvetica,sans-Serif" font-size="10.00">sys/un.h</text>
</g>
<!-- Node1&#45;&gt;Node19 -->
<g id="edge18" class="edge"><title>Node1&#45;&gt;Node19</title>
<path fill="none" stroke="midnightblue" d="M800.202,-86.9956C943.563,-86.5971 1402.46,-82.1387 1544,-42 1549.22,-40.5189 1554.53,-38.2114 1559.44,-35.6823"/>
<polygon fill="midnightblue" stroke="midnightblue" points="1561.26,-38.6723 1568.24,-30.7048 1557.82,-32.5782 1561.26,-38.6723"/>
</g>
<!-- Node20 -->
<g id="node20" class="node"><title>Node20</title>
<polygon fill="white" stroke="#bfbfbf" points="1626,-11.5 1626,-30.5 1678,-30.5 1678,-11.5 1626,-11.5"/>
<text text-anchor="middle" x="1652" y="-18.5" font-family="Helvetica,sans-Serif" font-size="10.00">sstream</text>
</g>
<!-- Node1&#45;&gt;Node20 -->
<g id="edge19" class="edge"><title>Node1&#45;&gt;Node20</title>
<path fill="none" stroke="midnightblue" d="M800.223,-87.3699C952.237,-88.263 1461.45,-87.6933 1617,-42 1621.94,-40.5478 1626.94,-38.2766 1631.55,-35.7777"/>
<polygon fill="midnightblue" stroke="midnightblue" points="1633.54,-38.6614 1640.32,-30.5178 1629.94,-32.6575 1633.54,-38.6614"/>
</g>
</g>
</svg>
        <g id="navigator" transform="translate(0 0)" fill="#404254">
                <rect fill="#f2f5e9" fill-opacity="0.5" stroke="#606060" stroke-width=".5" x="0" y="0" width="60" height="60"/>
                <use id="zoomplus" xlink:href="#zoomPlus" x="17" y="9" onmousedown="handleZoom(evt,'in')"/>
                <use id="zoomminus" xlink:href="#zoomMin" x="42" y="9" onmousedown="handleZoom(evt,'out')"/>
                <use id="reset" xlink:href="#resetDef" x="30" y="36" onmousedown="handleReset()"/>
                <g id="arrowUp" xlink:href="#dirArrow" transform="translate(30 24)" onmousedown="handlePan(0,-1)">
                  <use xlink:href="#rim" fill="#404040">
                        <set attributeName="fill" to="#808080" begin="arrowUp.mouseover" end="arrowUp.mouseout"/>
                  </use>
                  <path fill="none" stroke="white" stroke-width="1.5" d="M0,-3.0v7 M-2.5,-0.5L0,-3.0L2.5,-0.5"/>
                </g>
                <g id="arrowRight" xlink:href="#dirArrow" transform="rotate(90) translate(36 -43)" onmousedown="handlePan(1,0)">
                  <use xlink:href="#rim" fill="#404040">
                        <set attributeName="fill" to="#808080" begin="arrowRight.mouseover" end="arrowRight.mouseout"/>
                  </use>
                  <path fill="none" stroke="white" stroke-width="1.5" d="M0,-3.0v7 M-2.5,-0.5L0,-3.0L2.5,-0.5"/>
                </g>
                <g id="arrowDown" xlink:href="#dirArrow" transform="rotate(180) translate(-30 -48)" onmousedown="handlePan(0,1)">
                  <use xlink:href="#rim" fill="#404040">
                        <set attributeName="fill" to="#808080" begin="arrowDown.mouseover" end="arrowDown.mouseout"/>
                  </use>
                  <path fill="none" stroke="white" stroke-width="1.5" d="M0,-3.0v7 M-2.5,-0.5L0,-3.0L2.5,-0.5"/>
                </g>
                <g id="arrowLeft" xlink:href="#dirArrow" transform="rotate(270) translate(-36 17)" onmousedown="handlePan(-1,0)">
                  <use xlink:href="#rim" fill="#404040">
                        <set attributeName="fill" to="#808080" begin="arrowLeft.mouseover" end="arrowLeft.mouseout"/>
                  </use>
                  <path fill="none" stroke="white" stroke-width="1.5" d="M0,-3.0v7 M-2.5,-0.5L0,-3.0L2.5,-0.5"/>
                </g>
        </g>
        <svg viewBox="0 0 15 15" width="100%" height="30px" preserveAspectRatio="xMaxYMin meet">
         <g id="arrow_out" transform="scale(0.3 0.3)">
          <a xlink:href="address_8cpp__incl_org.svg" target="_base">
           <rect id="button" ry="5" rx="5" y="6" x="6" height="38" width="38"
                fill="#f2f5e9" fill-opacity="0.5" stroke="#606060" stroke-width="1.0"/>
           <path id="arrow"
             d="M 11.500037,31.436501 C 11.940474,20.09759 22.043105,11.32322 32.158766,21.979434 L 37.068811,17.246167 C 37.068811,17.246167 37.088388,32 37.088388,32 L 22.160133,31.978069 C 22.160133,31.978069 26.997745,27.140456 26.997745,27.140456 C 18.528582,18.264221 13.291696,25.230495 11.500037,31.436501 z"
             style="fill:#404040;"/>
          </a>
         </g>
        </svg>
</svg>
