<?xml version="1.0" encoding="UTF-8" standalone="no"?>
<!DOCTYPE svg PUBLIC "-//W3C//DTD SVG 1.1//EN"
 "http://www.w3.org/Graphics/SVG/1.1/DTD/svg11.dtd">
<!-- Generated by graphviz version 2.36.0 (20140111.2315)
 -->
<!-- Title: src/ipc_connecter.cpp Pages: 1 -->
<!--zoomable 106 -->
<svg id="main" version="1.1" xmlns="http://www.w3.org/2000/svg" xmlns:xlink="http://www.w3.org/1999/xlink" xml:space="preserve" onload="init(evt)">
<style type="text/css"><![CDATA[
.edge:hover path { stroke: red; }
.edge:hover polygon { stroke: red; fill: red; }
]]></style>
<script type="text/javascript"><![CDATA[
var edges = document.getElementsByTagName('g');
if (edges && edges.length) {
  for (var i=0;i<edges.length;i++) {
    if (edges[i].id.substr(0,4)=='edge') {
      edges[i].setAttribute('class','edge');
    }
  }
}
]]></script>
        <defs>
                <circle id="rim" cx="0" cy="0" r="7"/>
                <circle id="rim2" cx="0" cy="0" r="3.5"/>
                <g id="zoomPlus">
                        <use xlink:href="#rim" fill="#404040">
                                <set attributeName="fill" to="#808080" begin="zoomplus.mouseover" end="zoomplus.mouseout"/>
                        </use>
                        <path d="M-4,0h8M0,-4v8" fill="none" stroke="white" stroke-width="1.5" pointer-events="none"/>
                </g>
                <g id="zoomMin">
                        <use xlink:href="#rim" fill="#404040">
                                <set attributeName="fill" to="#808080" begin="zoomminus.mouseover" end="zoomminus.mouseout"/>
                        </use>
                        <path d="M-4,0h8" fill="none" stroke="white" stroke-width="1.5" pointer-events="none"/>
                </g>
                <g id="dirArrow">
                        <path fill="none" stroke="white" stroke-width="1.5" d="M0,-3.0v7 M-2.5,-0.5L0,-3.0L2.5,-0.5"/>
                </g>
               <g id="resetDef">
                       <use xlink:href="#rim2" fill="#404040">
                               <set attributeName="fill" to="#808080" begin="reset.mouseover" end="reset.mouseout"/>
                       </use>
               </g>
        </defs>

<script type="text/javascript">
var viewWidth = 3259;
var viewHeight = 106;
var sectionId = 'dynsection-0';
</script>
<script xlink:href="../../svgpan.js"/>
<svg id="graph" class="graph">
<g id="viewport">
<title>src/ipc_connecter.cpp</title>
<polygon fill="white" stroke="none" points="-4,4 -4,-102 3255,-102 3255,4 -4,4"/>
<!-- Node1 -->
<g id="node1" class="node"><title>Node1</title>
<polygon fill="#bfbfbf" stroke="black" points="1773.5,-78.5 1773.5,-97.5 1886.5,-97.5 1886.5,-78.5 1773.5,-78.5"/>
<text text-anchor="middle" x="1830" y="-85.5" font-family="Helvetica,sans-Serif" font-size="10.00">src/ipc_connecter.cpp</text>
</g>
<!-- Node2 -->
<g id="node2" class="node"><title>Node2</title>
<polygon fill="white" stroke="#bfbfbf" points="0,-11.5 0,-30.5 96,-30.5 96,-11.5 0,-11.5"/>
<text text-anchor="middle" x="48" y="-18.5" font-family="Helvetica,sans-Serif" font-size="10.00">ipc_connecter.hpp</text>
</g>
<!-- Node1&#45;&gt;Node2 -->
<g id="edge1" class="edge"><title>Node1&#45;&gt;Node2</title>
<path fill="none" stroke="midnightblue" d="M1773.21,-86.5667C1493.8,-84.2939 271.843,-72.6653 105,-42 95.7072,-40.292 85.8956,-37.3091 77.0812,-34.1602"/>
<polygon fill="midnightblue" stroke="midnightblue" points="78.2258,-30.8513 67.6341,-30.5936 75.7533,-37.4001 78.2258,-30.8513"/>
</g>
<!-- Node3 -->
<g id="node3" class="node"><title>Node3</title>
<polygon fill="white" stroke="#bfbfbf" points="114,-0.5 114,-41.5 246,-41.5 246,-0.5 114,-0.5"/>
<text text-anchor="start" x="122" y="-29.5" font-family="Helvetica,sans-Serif" font-size="10.00">/home/hebert/Documentos</text>
<text text-anchor="start" x="122" y="-18.5" font-family="Helvetica,sans-Serif" font-size="10.00">/DAS/zeromq&#45;3.2.1/src</text>
<text text-anchor="middle" x="180" y="-7.5" font-family="Helvetica,sans-Serif" font-size="10.00">/platform.hpp</text>
</g>
<!-- Node1&#45;&gt;Node3 -->
<g id="edge2" class="edge"><title>Node1&#45;&gt;Node3</title>
<path fill="none" stroke="midnightblue" d="M1773.28,-87.1402C1530.57,-87.4723 577.605,-85.9781 256.321,-41.9606"/>
<polygon fill="midnightblue" stroke="midnightblue" points="256.472,-38.4472 246.08,-40.5116 255.491,-45.3781 256.472,-38.4472"/>
</g>
<!-- Node4 -->
<g id="node4" class="node"><title>Node4</title>
<polygon fill="white" stroke="#bfbfbf" points="264,-0.5 264,-41.5 396,-41.5 396,-0.5 264,-0.5"/>
<text text-anchor="start" x="272" y="-29.5" font-family="Helvetica,sans-Serif" font-size="10.00">/home/hebert/Documentos</text>
<text text-anchor="start" x="272" y="-18.5" font-family="Helvetica,sans-Serif" font-size="10.00">/DAS/zeromq&#45;3.2.1/src</text>
<text text-anchor="middle" x="330" y="-7.5" font-family="Helvetica,sans-Serif" font-size="10.00">/fd.hpp</text>
</g>
<!-- Node1&#45;&gt;Node4 -->
<g id="edge3" class="edge"><title>Node1&#45;&gt;Node4</title>
<path fill="none" stroke="midnightblue" d="M1773.33,-86.9409C1545.64,-86.4393 696.135,-81.9654 406.159,-41.9395"/>
<polygon fill="midnightblue" stroke="midnightblue" points="406.476,-38.4493 396.082,-40.5006 405.486,-45.379 406.476,-38.4493"/>
</g>
<!-- Node5 -->
<g id="node5" class="node"><title>Node5</title>
<polygon fill="white" stroke="#bfbfbf" points="414,-0.5 414,-41.5 546,-41.5 546,-0.5 414,-0.5"/>
<text text-anchor="start" x="422" y="-29.5" font-family="Helvetica,sans-Serif" font-size="10.00">/home/hebert/Documentos</text>
<text text-anchor="start" x="422" y="-18.5" font-family="Helvetica,sans-Serif" font-size="10.00">/DAS/zeromq&#45;3.2.1/src</text>
<text text-anchor="middle" x="480" y="-7.5" font-family="Helvetica,sans-Serif" font-size="10.00">/own.hpp</text>
</g>
<!-- Node1&#45;&gt;Node5 -->
<g id="edge4" class="edge"><title>Node1&#45;&gt;Node5</title>
<path fill="none" stroke="midnightblue" d="M1773.2,-86.6945C1561.12,-85.2935 815.051,-77.9671 556.195,-41.946"/>
<polygon fill="midnightblue" stroke="midnightblue" points="556.481,-38.4511 546.084,-40.4869 555.481,-45.3794 556.481,-38.4511"/>
</g>
<!-- Node6 -->
<g id="node6" class="node"><title>Node6</title>
<polygon fill="white" stroke="#bfbfbf" points="564,-0.5 564,-41.5 696,-41.5 696,-0.5 564,-0.5"/>
<text text-anchor="start" x="572" y="-29.5" font-family="Helvetica,sans-Serif" font-size="10.00">/home/hebert/Documentos</text>
<text text-anchor="start" x="572" y="-18.5" font-family="Helvetica,sans-Serif" font-size="10.00">/DAS/zeromq&#45;3.2.1/src</text>
<text text-anchor="middle" x="630" y="-7.5" font-family="Helvetica,sans-Serif" font-size="10.00">/stdint.hpp</text>
</g>
<!-- Node1&#45;&gt;Node6 -->
<g id="edge5" class="edge"><title>Node1&#45;&gt;Node6</title>
<path fill="none" stroke="midnightblue" d="M1773.2,-86.3835C1577.94,-84.0096 934.223,-74.0086 706.298,-41.9629"/>
<polygon fill="midnightblue" stroke="midnightblue" points="706.487,-38.4535 696.086,-40.4697 705.475,-45.3798 706.487,-38.4535"/>
</g>
<!-- Node7 -->
<g id="node7" class="node"><title>Node7</title>
<polygon fill="white" stroke="#bfbfbf" points="714,-0.5 714,-41.5 846,-41.5 846,-0.5 714,-0.5"/>
<text text-anchor="start" x="722" y="-29.5" font-family="Helvetica,sans-Serif" font-size="10.00">/home/hebert/Documentos</text>
<text text-anchor="start" x="722" y="-18.5" font-family="Helvetica,sans-Serif" font-size="10.00">/DAS/zeromq&#45;3.2.1/src</text>
<text text-anchor="middle" x="780" y="-7.5" font-family="Helvetica,sans-Serif" font-size="10.00">/io_object.hpp</text>
</g>
<!-- Node1&#45;&gt;Node7 -->
<g id="edge6" class="edge"><title>Node1&#45;&gt;Node7</title>
<path fill="none" stroke="midnightblue" d="M1773.4,-85.982C1596.23,-82.5485 1052.88,-70.0851 856.039,-41.93"/>
<polygon fill="midnightblue" stroke="midnightblue" points="856.496,-38.4596 846.09,-40.4471 855.464,-45.3831 856.496,-38.4596"/>
</g>
<!-- Node8 -->
<g id="node8" class="node"><title>Node8</title>
<polygon fill="white" stroke="#bfbfbf" points="864.5,-11.5 864.5,-30.5 899.5,-30.5 899.5,-11.5 864.5,-11.5"/>
<text text-anchor="middle" x="882" y="-18.5" font-family="Helvetica,sans-Serif" font-size="10.00">new</text>
</g>
<!-- Node1&#45;&gt;Node8 -->
<g id="edge7" class="edge"><title>Node1&#45;&gt;Node8</title>
<path fill="none" stroke="midnightblue" d="M1773.18,-86.1989C1584.91,-83.2725 988.898,-71.7349 908,-42 904.582,-40.7438 901.25,-38.8676 898.174,-36.7593"/>
<polygon fill="midnightblue" stroke="midnightblue" points="900.331,-34.0028 890.323,-30.5255 895.978,-39.4848 900.331,-34.0028"/>
</g>
<!-- Node9 -->
<g id="node9" class="node"><title>Node9</title>
<polygon fill="white" stroke="#bfbfbf" points="917.5,-11.5 917.5,-30.5 958.5,-30.5 958.5,-11.5 917.5,-11.5"/>
<text text-anchor="middle" x="938" y="-18.5" font-family="Helvetica,sans-Serif" font-size="10.00">string</text>
</g>
<!-- Node1&#45;&gt;Node9 -->
<g id="edge8" class="edge"><title>Node1&#45;&gt;Node9</title>
<path fill="none" stroke="midnightblue" d="M1773.44,-85.8374C1593.7,-81.8954 1042.9,-67.8217 967,-42 963.074,-40.6642 959.193,-38.6328 955.608,-36.3679"/>
<polygon fill="midnightblue" stroke="midnightblue" points="957.619,-33.5031 947.453,-30.5204 953.54,-39.1919 957.619,-33.5031"/>
</g>
<!-- Node10 -->
<g id="node10" class="node"><title>Node10</title>
<polygon fill="white" stroke="#bfbfbf" points="976.5,-11.5 976.5,-30.5 1075.5,-30.5 1075.5,-11.5 976.5,-11.5"/>
<text text-anchor="middle" x="1026" y="-18.5" font-family="Helvetica,sans-Serif" font-size="10.00">stream_engine.hpp</text>
</g>
<!-- Node1&#45;&gt;Node10 -->
<g id="edge9" class="edge"><title>Node1&#45;&gt;Node10</title>
<path fill="none" stroke="midnightblue" d="M1773.3,-85.5284C1622.97,-81.3146 1216.69,-67.8147 1085,-42 1075.41,-40.1206 1065.25,-37.0775 1056.1,-33.9259"/>
<polygon fill="midnightblue" stroke="midnightblue" points="1057.25,-30.6197 1046.66,-30.5134 1054.87,-37.2032 1057.25,-30.6197"/>
</g>
<!-- Node11 -->
<g id="node11" class="node"><title>Node11</title>
<polygon fill="white" stroke="#bfbfbf" points="1094,-11.5 1094,-30.5 1146,-30.5 1146,-11.5 1094,-11.5"/>
<text text-anchor="middle" x="1120" y="-18.5" font-family="Helvetica,sans-Serif" font-size="10.00">stddef.h</text>
</g>
<!-- Node1&#45;&gt;Node11 -->
<g id="edge10" class="edge"><title>Node1&#45;&gt;Node11</title>
<path fill="none" stroke="midnightblue" d="M1773.26,-86.4817C1632.44,-84.6742 1270.05,-76.6899 1155,-42 1150.15,-40.5365 1145.24,-38.2999 1140.69,-35.8449"/>
<polygon fill="midnightblue" stroke="midnightblue" points="1142.39,-32.7843 1132.01,-30.6766 1138.81,-38.7992 1142.39,-32.7843"/>
</g>
<!-- Node12 -->
<g id="node12" class="node"><title>Node12</title>
<polygon fill="white" stroke="#bfbfbf" points="1164,-0.5 1164,-41.5 1296,-41.5 1296,-0.5 1164,-0.5"/>
<text text-anchor="start" x="1172" y="-29.5" font-family="Helvetica,sans-Serif" font-size="10.00">/home/hebert/Documentos</text>
<text text-anchor="start" x="1172" y="-18.5" font-family="Helvetica,sans-Serif" font-size="10.00">/DAS/zeromq&#45;3.2.1/src</text>
<text text-anchor="middle" x="1230" y="-7.5" font-family="Helvetica,sans-Serif" font-size="10.00">/i_engine.hpp</text>
</g>
<!-- Node1&#45;&gt;Node12 -->
<g id="edge11" class="edge"><title>Node1&#45;&gt;Node12</title>
<path fill="none" stroke="midnightblue" d="M1773.25,-85.3886C1678.31,-81.9824 1481.23,-71.8801 1306.03,-42.0177"/>
<polygon fill="midnightblue" stroke="midnightblue" points="1306.56,-38.5588 1296.11,-40.3027 1305.37,-45.4563 1306.56,-38.5588"/>
</g>
<!-- Node13 -->
<g id="node13" class="node"><title>Node13</title>
<polygon fill="white" stroke="#bfbfbf" points="1314,-0.5 1314,-41.5 1446,-41.5 1446,-0.5 1314,-0.5"/>
<text text-anchor="start" x="1322" y="-29.5" font-family="Helvetica,sans-Serif" font-size="10.00">/home/hebert/Documentos</text>
<text text-anchor="start" x="1322" y="-18.5" font-family="Helvetica,sans-Serif" font-size="10.00">/DAS/zeromq&#45;3.2.1/src</text>
<text text-anchor="middle" x="1380" y="-7.5" font-family="Helvetica,sans-Serif" font-size="10.00">/i_msg_sink.hpp</text>
</g>
<!-- Node1&#45;&gt;Node13 -->
<g id="edge12" class="edge"><title>Node1&#45;&gt;Node13</title>
<path fill="none" stroke="midnightblue" d="M1773.39,-82.7131C1701.65,-76.7248 1574.1,-64.2263 1456.07,-42.0703"/>
<polygon fill="midnightblue" stroke="midnightblue" points="1456.61,-38.6118 1446.14,-40.1787 1455.3,-45.4882 1456.61,-38.6118"/>
</g>
<!-- Node14 -->
<g id="node14" class="node"><title>Node14</title>
<polygon fill="white" stroke="#bfbfbf" points="1464,-0.5 1464,-41.5 1596,-41.5 1596,-0.5 1464,-0.5"/>
<text text-anchor="start" x="1472" y="-29.5" font-family="Helvetica,sans-Serif" font-size="10.00">/home/hebert/Documentos</text>
<text text-anchor="start" x="1472" y="-18.5" font-family="Helvetica,sans-Serif" font-size="10.00">/DAS/zeromq&#45;3.2.1/src</text>
<text text-anchor="middle" x="1530" y="-7.5" font-family="Helvetica,sans-Serif" font-size="10.00">/i_encoder.hpp</text>
</g>
<!-- Node1&#45;&gt;Node14 -->
<g id="edge13" class="edge"><title>Node1&#45;&gt;Node14</title>
<path fill="none" stroke="midnightblue" d="M1782.84,-78.4662C1739.33,-70.3904 1672.71,-57.5201 1606.03,-42.1768"/>
<polygon fill="midnightblue" stroke="midnightblue" points="1606.73,-38.7455 1596.2,-39.8954 1605.15,-45.5645 1606.73,-38.7455"/>
</g>
<!-- Node15 -->
<g id="node15" class="node"><title>Node15</title>
<polygon fill="white" stroke="#bfbfbf" points="1614,-0.5 1614,-41.5 1746,-41.5 1746,-0.5 1614,-0.5"/>
<text text-anchor="start" x="1622" y="-29.5" font-family="Helvetica,sans-Serif" font-size="10.00">/home/hebert/Documentos</text>
<text text-anchor="start" x="1622" y="-18.5" font-family="Helvetica,sans-Serif" font-size="10.00">/DAS/zeromq&#45;3.2.1/src</text>
<text text-anchor="middle" x="1680" y="-7.5" font-family="Helvetica,sans-Serif" font-size="10.00">/i_decoder.hpp</text>
</g>
<!-- Node1&#45;&gt;Node15 -->
<g id="edge14" class="edge"><title>Node1&#45;&gt;Node15</title>
<path fill="none" stroke="midnightblue" d="M1810.08,-78.3685C1790.92,-70.0642 1761.06,-57.1263 1734.78,-45.7391"/>
<polygon fill="midnightblue" stroke="midnightblue" points="1735.86,-42.3901 1725.29,-41.6254 1733.07,-48.813 1735.86,-42.3901"/>
</g>
<!-- Node16 -->
<g id="node16" class="node"><title>Node16</title>
<polygon fill="white" stroke="#bfbfbf" points="1764,-0.5 1764,-41.5 1896,-41.5 1896,-0.5 1764,-0.5"/>
<text text-anchor="start" x="1772" y="-29.5" font-family="Helvetica,sans-Serif" font-size="10.00">/home/hebert/Documentos</text>
<text text-anchor="start" x="1772" y="-18.5" font-family="Helvetica,sans-Serif" font-size="10.00">/DAS/zeromq&#45;3.2.1/src</text>
<text text-anchor="middle" x="1830" y="-7.5" font-family="Helvetica,sans-Serif" font-size="10.00">/options.hpp</text>
</g>
<!-- Node1&#45;&gt;Node16 -->
<g id="edge15" class="edge"><title>Node1&#45;&gt;Node16</title>
<path fill="none" stroke="midnightblue" d="M1830,-78.2338C1830,-71.3628 1830,-61.3799 1830,-51.7259"/>
<polygon fill="midnightblue" stroke="midnightblue" points="1833.5,-51.542 1830,-41.5421 1826.5,-51.5421 1833.5,-51.542"/>
</g>
<!-- Node17 -->
<g id="node17" class="node"><title>Node17</title>
<polygon fill="white" stroke="#bfbfbf" points="1914,-0.5 1914,-41.5 2046,-41.5 2046,-0.5 1914,-0.5"/>
<text text-anchor="start" x="1922" y="-29.5" font-family="Helvetica,sans-Serif" font-size="10.00">/home/hebert/Documentos</text>
<text text-anchor="start" x="1922" y="-18.5" font-family="Helvetica,sans-Serif" font-size="10.00">/DAS/zeromq&#45;3.2.1/src</text>
<text text-anchor="middle" x="1980" y="-7.5" font-family="Helvetica,sans-Serif" font-size="10.00">/socket_base.hpp</text>
</g>
<!-- Node1&#45;&gt;Node17 -->
<g id="edge16" class="edge"><title>Node1&#45;&gt;Node17</title>
<path fill="none" stroke="midnightblue" d="M1849.92,-78.3685C1869.08,-70.0642 1898.94,-57.1263 1925.22,-45.7391"/>
<polygon fill="midnightblue" stroke="midnightblue" points="1926.93,-48.813 1934.71,-41.6254 1924.14,-42.3901 1926.93,-48.813"/>
</g>
<!-- Node18 -->
<g id="node18" class="node"><title>Node18</title>
<polygon fill="white" stroke="#bfbfbf" points="2064,-6 2064,-36 2228,-36 2228,-6 2064,-6"/>
<text text-anchor="start" x="2072" y="-24" font-family="Helvetica,sans-Serif" font-size="10.00">/home/hebert/Documentos</text>
<text text-anchor="middle" x="2146" y="-13" font-family="Helvetica,sans-Serif" font-size="10.00">/DAS/zeromq&#45;3.2.1/include/zmq.h</text>
</g>
<!-- Node1&#45;&gt;Node18 -->
<g id="edge17" class="edge"><title>Node1&#45;&gt;Node18</title>
<path fill="none" stroke="midnightblue" d="M1874.03,-78.4507C1919.42,-69.5756 1992.23,-55.1733 2055,-42 2060.78,-40.7868 2066.76,-39.5128 2072.77,-38.22"/>
<polygon fill="midnightblue" stroke="midnightblue" points="2073.85,-41.5685 2082.88,-36.034 2072.37,-34.7267 2073.85,-41.5685"/>
</g>
<!-- Node19 -->
<g id="node19" class="node"><title>Node19</title>
<polygon fill="white" stroke="#bfbfbf" points="2246.5,-11.5 2246.5,-30.5 2321.5,-30.5 2321.5,-11.5 2246.5,-11.5"/>
<text text-anchor="middle" x="2284" y="-18.5" font-family="Helvetica,sans-Serif" font-size="10.00">io_thread.hpp</text>
</g>
<!-- Node1&#45;&gt;Node19 -->
<g id="edge18" class="edge"><title>Node1&#45;&gt;Node19</title>
<path fill="none" stroke="midnightblue" d="M1886.57,-85.9331C1966.06,-83.2715 2114.76,-74.0236 2237,-42 2243.92,-40.1881 2251.14,-37.5337 2257.79,-34.7472"/>
<polygon fill="midnightblue" stroke="midnightblue" points="2259.29,-37.9076 2267.02,-30.653 2256.46,-31.509 2259.29,-37.9076"/>
</g>
<!-- Node20 -->
<g id="node20" class="node"><title>Node20</title>
<polygon fill="white" stroke="#bfbfbf" points="2339.5,-11.5 2339.5,-30.5 2410.5,-30.5 2410.5,-11.5 2339.5,-11.5"/>
<text text-anchor="middle" x="2375" y="-18.5" font-family="Helvetica,sans-Serif" font-size="10.00">platform.hpp</text>
</g>
<!-- Node1&#45;&gt;Node20 -->
<g id="edge19" class="edge"><title>Node1&#45;&gt;Node20</title>
<path fill="none" stroke="midnightblue" d="M1886.51,-87.883C1980.24,-88.0313 2173.09,-82.7335 2330,-42 2336.63,-40.2801 2343.51,-37.6798 2349.84,-34.918"/>
<polygon fill="midnightblue" stroke="midnightblue" points="2351.63,-37.9443 2359.22,-30.5484 2348.67,-31.5992 2351.63,-37.9443"/>
</g>
<!-- Node21 -->
<g id="node21" class="node"><title>Node21</title>
<polygon fill="white" stroke="#bfbfbf" points="2429,-11.5 2429,-30.5 2497,-30.5 2497,-11.5 2429,-11.5"/>
<text text-anchor="middle" x="2463" y="-18.5" font-family="Helvetica,sans-Serif" font-size="10.00">random.hpp</text>
</g>
<!-- Node1&#45;&gt;Node21 -->
<g id="edge20" class="edge"><title>Node1&#45;&gt;Node21</title>
<path fill="none" stroke="midnightblue" d="M1886.53,-85.1954C2013.77,-80.7271 2319.3,-67.6112 2419,-42 2425.51,-40.3286 2432.25,-37.7464 2438.44,-34.9867"/>
<polygon fill="midnightblue" stroke="midnightblue" points="2440.09,-38.0773 2447.6,-30.6091 2437.07,-31.7608 2440.09,-38.0773"/>
</g>
<!-- Node22 -->
<g id="node22" class="node"><title>Node22</title>
<polygon fill="white" stroke="#bfbfbf" points="2515.5,-11.5 2515.5,-30.5 2562.5,-30.5 2562.5,-11.5 2515.5,-11.5"/>
<text text-anchor="middle" x="2539" y="-18.5" font-family="Helvetica,sans-Serif" font-size="10.00">err.hpp</text>
</g>
<!-- Node1&#45;&gt;Node22 -->
<g id="edge21" class="edge"><title>Node1&#45;&gt;Node22</title>
<path fill="none" stroke="midnightblue" d="M1886.62,-86.6684C2027.59,-85.2946 2391.17,-78.2362 2506,-42 2510.51,-40.5781 2515.03,-38.4215 2519.23,-36.0431"/>
<polygon fill="midnightblue" stroke="midnightblue" points="2521.15,-38.9706 2527.75,-30.681 2517.42,-33.0468 2521.15,-38.9706"/>
</g>
<!-- Node23 -->
<g id="node23" class="node"><title>Node23</title>
<polygon fill="white" stroke="#bfbfbf" points="2580.5,-11.5 2580.5,-30.5 2623.5,-30.5 2623.5,-11.5 2580.5,-11.5"/>
<text text-anchor="middle" x="2602" y="-18.5" font-family="Helvetica,sans-Serif" font-size="10.00">ip.hpp</text>
</g>
<!-- Node1&#45;&gt;Node23 -->
<g id="edge22" class="edge"><title>Node1&#45;&gt;Node23</title>
<path fill="none" stroke="midnightblue" d="M1886.57,-87.2524C2037.01,-87.3397 2444.09,-83.6073 2571,-42 2575.06,-40.6687 2579.11,-38.6729 2582.88,-36.4494"/>
<polygon fill="midnightblue" stroke="midnightblue" points="2585.13,-39.1562 2591.51,-30.7017 2581.25,-33.329 2585.13,-39.1562"/>
</g>
<!-- Node24 -->
<g id="node24" class="node"><title>Node24</title>
<polygon fill="white" stroke="#bfbfbf" points="2642,-11.5 2642,-30.5 2712,-30.5 2712,-11.5 2642,-11.5"/>
<text text-anchor="middle" x="2677" y="-18.5" font-family="Helvetica,sans-Serif" font-size="10.00">address.hpp</text>
</g>
<!-- Node1&#45;&gt;Node24 -->
<g id="edge23" class="edge"><title>Node1&#45;&gt;Node24</title>
<path fill="none" stroke="midnightblue" d="M1886.56,-86.4718C2044.91,-84.5741 2490.26,-76.2557 2632,-42 2638.65,-40.392 2645.55,-37.8336 2651.88,-35.0766"/>
<polygon fill="midnightblue" stroke="midnightblue" points="2653.68,-38.0981 2661.25,-30.6886 2650.71,-31.7583 2653.68,-38.0981"/>
</g>
<!-- Node25 -->
<g id="node25" class="node"><title>Node25</title>
<polygon fill="white" stroke="#bfbfbf" points="2730,-11.5 2730,-30.5 2818,-30.5 2818,-11.5 2730,-11.5"/>
<text text-anchor="middle" x="2774" y="-18.5" font-family="Helvetica,sans-Serif" font-size="10.00">ipc_address.hpp</text>
</g>
<!-- Node1&#45;&gt;Node25 -->
<g id="edge24" class="edge"><title>Node1&#45;&gt;Node25</title>
<path fill="none" stroke="midnightblue" d="M1886.57,-86.4291C2056.5,-84.3536 2560.57,-75.4663 2721,-42 2729.26,-40.2773 2737.93,-37.4634 2745.82,-34.4832"/>
<polygon fill="midnightblue" stroke="midnightblue" points="2747.31,-37.6558 2755.29,-30.6887 2744.71,-31.1576 2747.31,-37.6558"/>
</g>
<!-- Node26 -->
<g id="node26" class="node"><title>Node26</title>
<polygon fill="white" stroke="#bfbfbf" points="2836.5,-11.5 2836.5,-30.5 2931.5,-30.5 2931.5,-11.5 2836.5,-11.5"/>
<text text-anchor="middle" x="2884" y="-18.5" font-family="Helvetica,sans-Serif" font-size="10.00">session_base.hpp</text>
</g>
<!-- Node1&#45;&gt;Node26 -->
<g id="edge25" class="edge"><title>Node1&#45;&gt;Node26</title>
<path fill="none" stroke="midnightblue" d="M1886.62,-86.5707C2069.64,-84.8491 2643.97,-76.745 2826,-42 2835.35,-40.2153 2845.24,-37.2394 2854.15,-34.1214"/>
<polygon fill="midnightblue" stroke="midnightblue" points="2855.55,-37.3377 2863.72,-30.5967 2853.13,-30.7692 2855.55,-37.3377"/>
</g>
<!-- Node27 -->
<g id="node27" class="node"><title>Node27</title>
<polygon fill="white" stroke="#bfbfbf" points="2949.5,-11.5 2949.5,-30.5 3000.5,-30.5 3000.5,-11.5 2949.5,-11.5"/>
<text text-anchor="middle" x="2975" y="-18.5" font-family="Helvetica,sans-Serif" font-size="10.00">unistd.h</text>
</g>
<!-- Node1&#45;&gt;Node27 -->
<g id="edge26" class="edge"><title>Node1&#45;&gt;Node27</title>
<path fill="none" stroke="midnightblue" d="M1886.86,-86.2744C2099.18,-83.3487 2838.57,-71.148 2940,-42 2944.95,-40.5769 2949.95,-38.3181 2954.56,-35.822"/>
<polygon fill="midnightblue" stroke="midnightblue" points="2956.56,-38.7039 2963.33,-30.5569 2952.96,-32.7019 2956.56,-38.7039"/>
</g>
<!-- Node28 -->
<g id="node28" class="node"><title>Node28</title>
<polygon fill="white" stroke="#bfbfbf" points="3019,-11.5 3019,-30.5 3087,-30.5 3087,-11.5 3019,-11.5"/>
<text text-anchor="middle" x="3053" y="-18.5" font-family="Helvetica,sans-Serif" font-size="10.00">sys/types.h</text>
</g>
<!-- Node1&#45;&gt;Node28 -->
<g id="edge27" class="edge"><title>Node1&#45;&gt;Node28</title>
<path fill="none" stroke="midnightblue" d="M1886.51,-86.126C2106.54,-82.5475 2899.31,-67.9606 3009,-42 3015.64,-40.4275 3022.51,-37.8338 3028.79,-35.0271"/>
<polygon fill="midnightblue" stroke="midnightblue" points="3030.56,-38.0569 3038.04,-30.5573 3027.52,-31.753 3030.56,-38.0569"/>
</g>
<!-- Node29 -->
<g id="node29" class="node"><title>Node29</title>
<polygon fill="white" stroke="#bfbfbf" points="3105.5,-11.5 3105.5,-30.5 3178.5,-30.5 3178.5,-11.5 3105.5,-11.5"/>
<text text-anchor="middle" x="3142" y="-18.5" font-family="Helvetica,sans-Serif" font-size="10.00">sys/socket.h</text>
</g>
<!-- Node1&#45;&gt;Node29 -->
<g id="edge28" class="edge"><title>Node1&#45;&gt;Node29</title>
<path fill="none" stroke="midnightblue" d="M1886.7,-86.2292C2117.19,-82.9266 2977.29,-68.8983 3096,-42 3103.08,-40.3967 3110.42,-37.7187 3117.1,-34.8354"/>
<polygon fill="midnightblue" stroke="midnightblue" points="3118.72,-37.9443 3126.32,-30.5653 3115.78,-31.5927 3118.72,-37.9443"/>
</g>
<!-- Node30 -->
<g id="node30" class="node"><title>Node30</title>
<polygon fill="white" stroke="#bfbfbf" points="3197,-11.5 3197,-30.5 3251,-30.5 3251,-11.5 3197,-11.5"/>
<text text-anchor="middle" x="3224" y="-18.5" font-family="Helvetica,sans-Serif" font-size="10.00">sys/un.h</text>
</g>
<!-- Node1&#45;&gt;Node30 -->
<g id="edge29" class="edge"><title>Node1&#45;&gt;Node30</title>
<path fill="none" stroke="midnightblue" d="M1886.72,-86.6527C2127.74,-84.9693 3060.36,-76.2784 3187,-42 3192.33,-40.5584 3197.73,-38.2253 3202.71,-35.6527"/>
<polygon fill="midnightblue" stroke="midnightblue" points="3204.65,-38.5737 3211.6,-30.5816 3201.18,-32.4918 3204.65,-38.5737"/>
</g>
</g>
</svg>
        <g id="navigator" transform="translate(0 0)" fill="#404254">
                <rect fill="#f2f5e9" fill-opacity="0.5" stroke="#606060" stroke-width=".5" x="0" y="0" width="60" height="60"/>
                <use id="zoomplus" xlink:href="#zoomPlus" x="17" y="9" onmousedown="handleZoom(evt,'in')"/>
                <use id="zoomminus" xlink:href="#zoomMin" x="42" y="9" onmousedown="handleZoom(evt,'out')"/>
                <use id="reset" xlink:href="#resetDef" x="30" y="36" onmousedown="handleReset()"/>
                <g id="arrowUp" xlink:href="#dirArrow" transform="translate(30 24)" onmousedown="handlePan(0,-1)">
                  <use xlink:href="#rim" fill="#404040">
                        <set attributeName="fill" to="#808080" begin="arrowUp.mouseover" end="arrowUp.mouseout"/>
                  </use>
                  <path fill="none" stroke="white" stroke-width="1.5" d="M0,-3.0v7 M-2.5,-0.5L0,-3.0L2.5,-0.5"/>
                </g>
                <g id="arrowRight" xlink:href="#dirArrow" transform="rotate(90) translate(36 -43)" onmousedown="handlePan(1,0)">
                  <use xlink:href="#rim" fill="#404040">
                        <set attributeName="fill" to="#808080" begin="arrowRight.mouseover" end="arrowRight.mouseout"/>
                  </use>
                  <path fill="none" stroke="white" stroke-width="1.5" d="M0,-3.0v7 M-2.5,-0.5L0,-3.0L2.5,-0.5"/>
                </g>
                <g id="arrowDown" xlink:href="#dirArrow" transform="rotate(180) translate(-30 -48)" onmousedown="handlePan(0,1)">
                  <use xlink:href="#rim" fill="#404040">
                        <set attributeName="fill" to="#808080" begin="arrowDown.mouseover" end="arrowDown.mouseout"/>
                  </use>
                  <path fill="none" stroke="white" stroke-width="1.5" d="M0,-3.0v7 M-2.5,-0.5L0,-3.0L2.5,-0.5"/>
                </g>
                <g id="arrowLeft" xlink:href="#dirArrow" transform="rotate(270) translate(-36 17)" onmousedown="handlePan(-1,0)">
                  <use xlink:href="#rim" fill="#404040">
                        <set attributeName="fill" to="#808080" begin="arrowLeft.mouseover" end="arrowLeft.mouseout"/>
                  </use>
                  <path fill="none" stroke="white" stroke-width="1.5" d="M0,-3.0v7 M-2.5,-0.5L0,-3.0L2.5,-0.5"/>
                </g>
        </g>
        <svg viewBox="0 0 15 15" width="100%" height="30px" preserveAspectRatio="xMaxYMin meet">
         <g id="arrow_out" transform="scale(0.3 0.3)">
          <a xlink:href="ipc__connecter_8cpp__incl_org.svg" target="_base">
           <rect id="button" ry="5" rx="5" y="6" x="6" height="38" width="38"
                fill="#f2f5e9" fill-opacity="0.5" stroke="#606060" stroke-width="1.0"/>
           <path id="arrow"
             d="M 11.500037,31.436501 C 11.940474,20.09759 22.043105,11.32322 32.158766,21.979434 L 37.068811,17.246167 C 37.068811,17.246167 37.088388,32 37.088388,32 L 22.160133,31.978069 C 22.160133,31.978069 26.997745,27.140456 26.997745,27.140456 C 18.528582,18.264221 13.291696,25.230495 11.500037,31.436501 z"
             style="fill:#404040;"/>
          </a>
         </g>
        </svg>
</svg>
