<?xml version="1.0" encoding="UTF-8" standalone="no"?>
<!DOCTYPE svg PUBLIC "-//W3C//DTD SVG 1.1//EN"
 "http://www.w3.org/Graphics/SVG/1.1/DTD/svg11.dtd">
<!-- Generated by graphviz version 2.36.0 (20140111.2315)
 -->
<!-- Title: src/tcp_address.cpp Pages: 1 -->
<svg width="914pt" height="84pt"
 viewBox="0.00 0.00 914.00 84.00" xmlns="http://www.w3.org/2000/svg" xmlns:xlink="http://www.w3.org/1999/xlink">
<g id="graph0" class="graph" transform="scale(1 1) rotate(0) translate(4 80)">
<title>src/tcp_address.cpp</title>
<polygon fill="white" stroke="none" points="-4,4 -4,-80 910,-80 910,4 -4,4"/>
<!-- Node1 -->
<g id="node1" class="node"><title>Node1</title>
<polygon fill="#bfbfbf" stroke="black" points="404.5,-56.5 404.5,-75.5 509.5,-75.5 509.5,-56.5 404.5,-56.5"/>
<text text-anchor="middle" x="457" y="-63.5" font-family="Helvetica,sans-Serif" font-size="10.00">src/tcp_address.cpp</text>
</g>
<!-- Node2 -->
<g id="node2" class="node"><title>Node2</title>
<polygon fill="white" stroke="#bfbfbf" points="-0.5,-0.5 -0.5,-19.5 40.5,-19.5 40.5,-0.5 -0.5,-0.5"/>
<text text-anchor="middle" x="20" y="-7.5" font-family="Helvetica,sans-Serif" font-size="10.00">string</text>
</g>
<!-- Node1&#45;&gt;Node2 -->
<g id="edge1" class="edge"><title>Node1&#45;&gt;Node2</title>
<path fill="none" stroke="midnightblue" d="M404.49,-62.2444C328.405,-57.5829 183.058,-46.1674 50.4613,-19.7093"/>
<polygon fill="midnightblue" stroke="midnightblue" points="51.0281,-16.2531 40.5318,-17.6946 49.6361,-23.1133 51.0281,-16.2531"/>
</g>
<!-- Node3 -->
<g id="node3" class="node"><title>Node3</title>
<polygon fill="white" stroke="#bfbfbf" points="59,-0.5 59,-19.5 111,-19.5 111,-0.5 59,-0.5"/>
<text text-anchor="middle" x="85" y="-7.5" font-family="Helvetica,sans-Serif" font-size="10.00">sstream</text>
</g>
<!-- Node1&#45;&gt;Node3 -->
<g id="edge2" class="edge"><title>Node1&#45;&gt;Node3</title>
<path fill="none" stroke="midnightblue" d="M404.439,-59.9391C339.884,-53.289 226.902,-40.2439 121.176,-20.0334"/>
<polygon fill="midnightblue" stroke="midnightblue" points="121.78,-16.5855 111.297,-18.1196 120.449,-23.4577 121.78,-16.5855"/>
</g>
<!-- Node4 -->
<g id="node4" class="node"><title>Node4</title>
<polygon fill="white" stroke="#bfbfbf" points="129.5,-0.5 129.5,-19.5 218.5,-19.5 218.5,-0.5 129.5,-0.5"/>
<text text-anchor="middle" x="174" y="-7.5" font-family="Helvetica,sans-Serif" font-size="10.00">tcp_address.hpp</text>
</g>
<!-- Node1&#45;&gt;Node4 -->
<g id="edge3" class="edge"><title>Node1&#45;&gt;Node4</title>
<path fill="none" stroke="midnightblue" d="M412.158,-56.4435C362.375,-46.9444 282.017,-31.611 228.608,-21.4198"/>
<polygon fill="midnightblue" stroke="midnightblue" points="229.111,-17.9528 218.632,-19.5164 227.799,-24.8288 229.111,-17.9528"/>
</g>
<!-- Node5 -->
<g id="node5" class="node"><title>Node5</title>
<polygon fill="white" stroke="#bfbfbf" points="236.5,-0.5 236.5,-19.5 307.5,-19.5 307.5,-0.5 236.5,-0.5"/>
<text text-anchor="middle" x="272" y="-7.5" font-family="Helvetica,sans-Serif" font-size="10.00">platform.hpp</text>
</g>
<!-- Node1&#45;&gt;Node5 -->
<g id="edge4" class="edge"><title>Node1&#45;&gt;Node5</title>
<path fill="none" stroke="midnightblue" d="M427.686,-56.4435C396.158,-47.2406 345.869,-32.5617 311.014,-22.3879"/>
<polygon fill="midnightblue" stroke="midnightblue" points="311.757,-18.9587 301.177,-19.5164 309.795,-25.6783 311.757,-18.9587"/>
</g>
<!-- Node6 -->
<g id="node6" class="node"><title>Node6</title>
<polygon fill="white" stroke="#bfbfbf" points="325.5,-0.5 325.5,-19.5 384.5,-19.5 384.5,-0.5 325.5,-0.5"/>
<text text-anchor="middle" x="355" y="-7.5" font-family="Helvetica,sans-Serif" font-size="10.00">stdint.hpp</text>
</g>
<!-- Node1&#45;&gt;Node6 -->
<g id="edge5" class="edge"><title>Node1&#45;&gt;Node6</title>
<path fill="none" stroke="midnightblue" d="M440.612,-56.324C424.329,-47.7034 399.133,-34.3643 380.284,-24.3855"/>
<polygon fill="midnightblue" stroke="midnightblue" points="381.823,-21.2402 371.347,-19.6545 378.548,-27.4267 381.823,-21.2402"/>
</g>
<!-- Node7 -->
<g id="node7" class="node"><title>Node7</title>
<polygon fill="white" stroke="#bfbfbf" points="402.5,-0.5 402.5,-19.5 449.5,-19.5 449.5,-0.5 402.5,-0.5"/>
<text text-anchor="middle" x="426" y="-7.5" font-family="Helvetica,sans-Serif" font-size="10.00">err.hpp</text>
</g>
<!-- Node1&#45;&gt;Node7 -->
<g id="edge6" class="edge"><title>Node1&#45;&gt;Node7</title>
<path fill="none" stroke="midnightblue" d="M451.881,-56.083C447.592,-48.6127 441.342,-37.7244 436.058,-28.5199"/>
<polygon fill="midnightblue" stroke="midnightblue" points="439.038,-26.6811 431.024,-19.7511 432.967,-30.1662 439.038,-26.6811"/>
</g>
<!-- Node8 -->
<g id="node8" class="node"><title>Node8</title>
<polygon fill="white" stroke="#bfbfbf" points="467.5,-0.5 467.5,-19.5 510.5,-19.5 510.5,-0.5 467.5,-0.5"/>
<text text-anchor="middle" x="489" y="-7.5" font-family="Helvetica,sans-Serif" font-size="10.00">ip.hpp</text>
</g>
<!-- Node1&#45;&gt;Node8 -->
<g id="edge7" class="edge"><title>Node1&#45;&gt;Node8</title>
<path fill="none" stroke="midnightblue" d="M462.284,-56.083C466.711,-48.6127 473.163,-37.7244 478.618,-28.5199"/>
<polygon fill="midnightblue" stroke="midnightblue" points="481.727,-30.1383 483.814,-19.7511 475.705,-26.5697 481.727,-30.1383"/>
</g>
<!-- Node9 -->
<g id="node9" class="node"><title>Node9</title>
<polygon fill="white" stroke="#bfbfbf" points="529,-0.5 529,-19.5 597,-19.5 597,-0.5 529,-0.5"/>
<text text-anchor="middle" x="563" y="-7.5" font-family="Helvetica,sans-Serif" font-size="10.00">sys/types.h</text>
</g>
<!-- Node1&#45;&gt;Node9 -->
<g id="edge8" class="edge"><title>Node1&#45;&gt;Node9</title>
<path fill="none" stroke="midnightblue" d="M474.031,-56.324C491.03,-47.6641 517.376,-34.2424 536.993,-24.249"/>
<polygon fill="midnightblue" stroke="midnightblue" points="538.69,-27.3125 546.012,-19.6545 535.512,-21.0752 538.69,-27.3125"/>
</g>
<!-- Node10 -->
<g id="node10" class="node"><title>Node10</title>
<polygon fill="white" stroke="#bfbfbf" points="615,-0.5 615,-19.5 677,-19.5 677,-0.5 615,-0.5"/>
<text text-anchor="middle" x="646" y="-7.5" font-family="Helvetica,sans-Serif" font-size="10.00">arpa/inet.h</text>
</g>
<!-- Node1&#45;&gt;Node10 -->
<g id="edge9" class="edge"><title>Node1&#45;&gt;Node10</title>
<path fill="none" stroke="midnightblue" d="M486.948,-56.4435C519.158,-47.2406 570.534,-32.5617 606.142,-22.3879"/>
<polygon fill="midnightblue" stroke="midnightblue" points="607.539,-25.629 616.192,-19.5164 605.616,-18.8984 607.539,-25.629"/>
</g>
<!-- Node11 -->
<g id="node11" class="node"><title>Node11</title>
<polygon fill="white" stroke="#bfbfbf" points="695.5,-0.5 695.5,-19.5 766.5,-19.5 766.5,-0.5 695.5,-0.5"/>
<text text-anchor="middle" x="731" y="-7.5" font-family="Helvetica,sans-Serif" font-size="10.00">netinet/tcp.h</text>
</g>
<!-- Node1&#45;&gt;Node11 -->
<g id="edge10" class="edge"><title>Node1&#45;&gt;Node11</title>
<path fill="none" stroke="midnightblue" d="M500.416,-56.4435C550.92,-46.4902 633.927,-30.1313 685.362,-19.9944"/>
<polygon fill="midnightblue" stroke="midnightblue" points="686.074,-23.4213 695.209,-18.0537 684.721,-16.5535 686.074,-23.4213"/>
</g>
<!-- Node12 -->
<g id="node12" class="node"><title>Node12</title>
<polygon fill="white" stroke="#bfbfbf" points="784.5,-0.5 784.5,-19.5 833.5,-19.5 833.5,-0.5 784.5,-0.5"/>
<text text-anchor="middle" x="809" y="-7.5" font-family="Helvetica,sans-Serif" font-size="10.00">netdb.h</text>
</g>
<!-- Node1&#45;&gt;Node12 -->
<g id="edge11" class="edge"><title>Node1&#45;&gt;Node12</title>
<path fill="none" stroke="midnightblue" d="M509.656,-59.4797C570.952,-52.624 675.366,-39.619 774.331,-19.9182"/>
<polygon fill="midnightblue" stroke="midnightblue" points="775.087,-23.3362 784.197,-17.9278 773.703,-16.4744 775.087,-23.3362"/>
</g>
<!-- Node13 -->
<g id="node13" class="node"><title>Node13</title>
<polygon fill="white" stroke="#bfbfbf" points="852,-0.5 852,-19.5 906,-19.5 906,-0.5 852,-0.5"/>
<text text-anchor="middle" x="879" y="-7.5" font-family="Helvetica,sans-Serif" font-size="10.00">ifaddrs.h</text>
</g>
<!-- Node1&#45;&gt;Node13 -->
<g id="edge12" class="edge"><title>Node1&#45;&gt;Node13</title>
<path fill="none" stroke="midnightblue" d="M509.607,-60.9029C582.058,-54.808 716.755,-41.855 841.49,-19.8663"/>
<polygon fill="midnightblue" stroke="midnightblue" points="842.372,-23.2642 851.6,-18.0599 841.141,-16.3733 842.372,-23.2642"/>
</g>
</g>
</svg>
