<?xml version="1.0" encoding="UTF-8" standalone="no"?>
<!DOCTYPE svg PUBLIC "-//W3C//DTD SVG 1.1//EN"
 "http://www.w3.org/Graphics/SVG/1.1/DTD/svg11.dtd">
<!-- Generated by graphviz version 2.36.0 (20140111.2315)
 -->
<!-- Title: src/ipc_listener.cpp Pages: 1 -->
<!--zoomable 106 -->
<svg id="main" version="1.1" xmlns="http://www.w3.org/2000/svg" xmlns:xlink="http://www.w3.org/1999/xlink" xml:space="preserve" onload="init(evt)">
<style type="text/css"><![CDATA[
.edge:hover path { stroke: red; }
.edge:hover polygon { stroke: red; fill: red; }
]]></style>
<script type="text/javascript"><![CDATA[
var edges = document.getElementsByTagName('g');
if (edges && edges.length) {
  for (var i=0;i<edges.length;i++) {
    if (edges[i].id.substr(0,4)=='edge') {
      edges[i].setAttribute('class','edge');
    }
  }
}
]]></script>
        <defs>
                <circle id="rim" cx="0" cy="0" r="7"/>
                <circle id="rim2" cx="0" cy="0" r="3.5"/>
                <g id="zoomPlus">
                        <use xlink:href="#rim" fill="#404040">
                                <set attributeName="fill" to="#808080" begin="zoomplus.mouseover" end="zoomplus.mouseout"/>
                        </use>
                        <path d="M-4,0h8M0,-4v8" fill="none" stroke="white" stroke-width="1.5" pointer-events="none"/>
                </g>
                <g id="zoomMin">
                        <use xlink:href="#rim" fill="#404040">
                                <set attributeName="fill" to="#808080" begin="zoomminus.mouseover" end="zoomminus.mouseout"/>
                        </use>
                        <path d="M-4,0h8" fill="none" stroke="white" stroke-width="1.5" pointer-events="none"/>
                </g>
                <g id="dirArrow">
                        <path fill="none" stroke="white" stroke-width="1.5" d="M0,-3.0v7 M-2.5,-0.5L0,-3.0L2.5,-0.5"/>
                </g>
               <g id="resetDef">
                       <use xlink:href="#rim2" fill="#404040">
                               <set attributeName="fill" to="#808080" begin="reset.mouseover" end="reset.mouseout"/>
                       </use>
               </g>
        </defs>

<script type="text/javascript">
var viewWidth = 2063;
var viewHeight = 106;
var sectionId = 'dynsection-0';
</script>
<script xlink:href="../../svgpan.js"/>
<svg id="graph" class="graph">
<g id="viewport">
<title>src/ipc_listener.cpp</title>
<polygon fill="white" stroke="none" points="-4,4 -4,-102 2059,-102 2059,4 -4,4"/>
<!-- Node1 -->
<g id="node1" class="node"><title>Node1</title>
<polygon fill="#bfbfbf" stroke="black" points="1144.5,-78.5 1144.5,-97.5 1245.5,-97.5 1245.5,-78.5 1144.5,-78.5"/>
<text text-anchor="middle" x="1195" y="-85.5" font-family="Helvetica,sans-Serif" font-size="10.00">src/ipc_listener.cpp</text>
</g>
<!-- Node2 -->
<g id="node2" class="node"><title>Node2</title>
<polygon fill="white" stroke="#bfbfbf" points="-0.5,-11.5 -0.5,-30.5 84.5,-30.5 84.5,-11.5 -0.5,-11.5"/>
<text text-anchor="middle" x="42" y="-18.5" font-family="Helvetica,sans-Serif" font-size="10.00">ipc_listener.hpp</text>
</g>
<!-- Node1&#45;&gt;Node2 -->
<g id="edge1" class="edge"><title>Node1&#45;&gt;Node2</title>
<path fill="none" stroke="midnightblue" d="M1144.22,-87.1119C956.027,-87.1873 298.667,-84.3435 94,-42 85.7417,-40.2914 77.077,-37.4268 69.2405,-34.3918"/>
<polygon fill="midnightblue" stroke="midnightblue" points="70.43,-31.0966 59.8503,-30.5304 67.7678,-37.5706 70.43,-31.0966"/>
</g>
<!-- Node3 -->
<g id="node3" class="node"><title>Node3</title>
<polygon fill="white" stroke="#bfbfbf" points="103,-0.5 103,-41.5 235,-41.5 235,-0.5 103,-0.5"/>
<text text-anchor="start" x="111" y="-29.5" font-family="Helvetica,sans-Serif" font-size="10.00">/home/hebert/Documentos</text>
<text text-anchor="start" x="111" y="-18.5" font-family="Helvetica,sans-Serif" font-size="10.00">/DAS/zeromq&#45;3.2.1/src</text>
<text text-anchor="middle" x="169" y="-7.5" font-family="Helvetica,sans-Serif" font-size="10.00">/platform.hpp</text>
</g>
<!-- Node1&#45;&gt;Node3 -->
<g id="edge2" class="edge"><title>Node1&#45;&gt;Node3</title>
<path fill="none" stroke="midnightblue" d="M1144.34,-86.028C976.586,-82.5902 439.337,-69.7706 245.179,-41.9506"/>
<polygon fill="midnightblue" stroke="midnightblue" points="245.498,-38.4595 235.09,-40.4428 244.463,-45.3826 245.498,-38.4595"/>
</g>
<!-- Node4 -->
<g id="node4" class="node"><title>Node4</title>
<polygon fill="white" stroke="#bfbfbf" points="253.5,-11.5 253.5,-30.5 294.5,-30.5 294.5,-11.5 253.5,-11.5"/>
<text text-anchor="middle" x="274" y="-18.5" font-family="Helvetica,sans-Serif" font-size="10.00">string</text>
</g>
<!-- Node1&#45;&gt;Node4 -->
<g id="edge3" class="edge"><title>Node1&#45;&gt;Node4</title>
<path fill="none" stroke="midnightblue" d="M1144.21,-86.0084C967.164,-82.3359 383.688,-68.3398 304,-42 299.97,-40.6678 295.969,-38.638 292.266,-36.3737"/>
<polygon fill="midnightblue" stroke="midnightblue" points="294.038,-33.3433 283.825,-30.5256 290.052,-39.0974 294.038,-33.3433"/>
</g>
<!-- Node5 -->
<g id="node5" class="node"><title>Node5</title>
<polygon fill="white" stroke="#bfbfbf" points="313,-0.5 313,-41.5 445,-41.5 445,-0.5 313,-0.5"/>
<text text-anchor="start" x="321" y="-29.5" font-family="Helvetica,sans-Serif" font-size="10.00">/home/hebert/Documentos</text>
<text text-anchor="start" x="321" y="-18.5" font-family="Helvetica,sans-Serif" font-size="10.00">/DAS/zeromq&#45;3.2.1/src</text>
<text text-anchor="middle" x="379" y="-7.5" font-family="Helvetica,sans-Serif" font-size="10.00">/fd.hpp</text>
</g>
<!-- Node1&#45;&gt;Node5 -->
<g id="edge4" class="edge"><title>Node1&#45;&gt;Node5</title>
<path fill="none" stroke="midnightblue" d="M1144.3,-87.3961C1025.31,-87.5819 718.903,-83.7384 455.247,-42.0219"/>
<polygon fill="midnightblue" stroke="midnightblue" points="455.526,-38.522 445.098,-40.3938 454.417,-45.4336 455.526,-38.522"/>
</g>
<!-- Node6 -->
<g id="node6" class="node"><title>Node6</title>
<polygon fill="white" stroke="#bfbfbf" points="463,-0.5 463,-41.5 595,-41.5 595,-0.5 463,-0.5"/>
<text text-anchor="start" x="471" y="-29.5" font-family="Helvetica,sans-Serif" font-size="10.00">/home/hebert/Documentos</text>
<text text-anchor="start" x="471" y="-18.5" font-family="Helvetica,sans-Serif" font-size="10.00">/DAS/zeromq&#45;3.2.1/src</text>
<text text-anchor="middle" x="529" y="-7.5" font-family="Helvetica,sans-Serif" font-size="10.00">/own.hpp</text>
</g>
<!-- Node1&#45;&gt;Node6 -->
<g id="edge5" class="edge"><title>Node1&#45;&gt;Node6</title>
<path fill="none" stroke="midnightblue" d="M1144.41,-86.286C1043.45,-84.1838 809.766,-75.9264 605.137,-42.0239"/>
<polygon fill="midnightblue" stroke="midnightblue" points="605.549,-38.5442 595.107,-40.3375 604.389,-45.4473 605.549,-38.5442"/>
</g>
<!-- Node7 -->
<g id="node7" class="node"><title>Node7</title>
<polygon fill="white" stroke="#bfbfbf" points="613,-0.5 613,-41.5 745,-41.5 745,-0.5 613,-0.5"/>
<text text-anchor="start" x="621" y="-29.5" font-family="Helvetica,sans-Serif" font-size="10.00">/home/hebert/Documentos</text>
<text text-anchor="start" x="621" y="-18.5" font-family="Helvetica,sans-Serif" font-size="10.00">/DAS/zeromq&#45;3.2.1/src</text>
<text text-anchor="middle" x="679" y="-7.5" font-family="Helvetica,sans-Serif" font-size="10.00">/stdint.hpp</text>
</g>
<!-- Node1&#45;&gt;Node7 -->
<g id="edge6" class="edge"><title>Node1&#45;&gt;Node7</title>
<path fill="none" stroke="midnightblue" d="M1144.37,-84.4548C1063.84,-79.8343 901.548,-68.1889 755.186,-42.0671"/>
<polygon fill="midnightblue" stroke="midnightblue" points="755.588,-38.583 745.124,-40.2435 754.34,-45.4708 755.588,-38.583"/>
</g>
<!-- Node8 -->
<g id="node8" class="node"><title>Node8</title>
<polygon fill="white" stroke="#bfbfbf" points="763,-0.5 763,-41.5 895,-41.5 895,-0.5 763,-0.5"/>
<text text-anchor="start" x="771" y="-29.5" font-family="Helvetica,sans-Serif" font-size="10.00">/home/hebert/Documentos</text>
<text text-anchor="start" x="771" y="-18.5" font-family="Helvetica,sans-Serif" font-size="10.00">/DAS/zeromq&#45;3.2.1/src</text>
<text text-anchor="middle" x="829" y="-7.5" font-family="Helvetica,sans-Serif" font-size="10.00">/io_object.hpp</text>
</g>
<!-- Node1&#45;&gt;Node8 -->
<g id="edge7" class="edge"><title>Node1&#45;&gt;Node8</title>
<path fill="none" stroke="midnightblue" d="M1144.5,-80.8611C1088.33,-73.6619 994.744,-60.5639 905.211,-42.1483"/>
<polygon fill="midnightblue" stroke="midnightblue" points="905.665,-38.6678 895.161,-40.0549 904.237,-45.5207 905.665,-38.6678"/>
</g>
<!-- Node9 -->
<g id="node9" class="node"><title>Node9</title>
<polygon fill="white" stroke="#bfbfbf" points="913.5,-11.5 913.5,-30.5 948.5,-30.5 948.5,-11.5 913.5,-11.5"/>
<text text-anchor="middle" x="931" y="-18.5" font-family="Helvetica,sans-Serif" font-size="10.00">new</text>
</g>
<!-- Node1&#45;&gt;Node9 -->
<g id="edge8" class="edge"><title>Node1&#45;&gt;Node9</title>
<path fill="none" stroke="midnightblue" d="M1144.2,-84.2505C1094.56,-80.0115 1017.82,-69.256 957,-42 953.882,-40.6027 950.797,-38.7618 947.901,-36.7619"/>
<polygon fill="midnightblue" stroke="midnightblue" points="949.98,-33.9447 939.937,-30.5702 945.684,-39.4711 949.98,-33.9447"/>
</g>
<!-- Node10 -->
<g id="node10" class="node"><title>Node10</title>
<polygon fill="white" stroke="#bfbfbf" points="966.5,-11.5 966.5,-30.5 1015.5,-30.5 1015.5,-11.5 966.5,-11.5"/>
<text text-anchor="middle" x="991" y="-18.5" font-family="Helvetica,sans-Serif" font-size="10.00">string.h</text>
</g>
<!-- Node1&#45;&gt;Node10 -->
<g id="edge9" class="edge"><title>Node1&#45;&gt;Node10</title>
<path fill="none" stroke="midnightblue" d="M1148.08,-78.4551C1113.04,-71.1718 1064.41,-59.1391 1024,-42 1019.98,-40.2934 1015.86,-38.1574 1011.96,-35.9218"/>
<polygon fill="midnightblue" stroke="midnightblue" points="1013.75,-32.9154 1003.39,-30.6799 1010.1,-38.8858 1013.75,-32.9154"/>
</g>
<!-- Node11 -->
<g id="node11" class="node"><title>Node11</title>
<polygon fill="white" stroke="#bfbfbf" points="1033.5,-11.5 1033.5,-30.5 1132.5,-30.5 1132.5,-11.5 1033.5,-11.5"/>
<text text-anchor="middle" x="1083" y="-18.5" font-family="Helvetica,sans-Serif" font-size="10.00">stream_engine.hpp</text>
</g>
<!-- Node1&#45;&gt;Node11 -->
<g id="edge10" class="edge"><title>Node1&#45;&gt;Node11</title>
<path fill="none" stroke="midnightblue" d="M1179.9,-78.2338C1161.09,-67.3182 1128.75,-48.5487 1106.64,-35.7209"/>
<polygon fill="midnightblue" stroke="midnightblue" points="1108.27,-32.6197 1097.87,-30.6273 1104.76,-38.674 1108.27,-32.6197"/>
</g>
<!-- Node12 -->
<g id="node12" class="node"><title>Node12</title>
<polygon fill="white" stroke="#bfbfbf" points="1151,-11.5 1151,-30.5 1239,-30.5 1239,-11.5 1151,-11.5"/>
<text text-anchor="middle" x="1195" y="-18.5" font-family="Helvetica,sans-Serif" font-size="10.00">ipc_address.hpp</text>
</g>
<!-- Node1&#45;&gt;Node12 -->
<g id="edge11" class="edge"><title>Node1&#45;&gt;Node12</title>
<path fill="none" stroke="midnightblue" d="M1195,-78.2338C1195,-68.6826 1195,-53.1183 1195,-40.7829"/>
<polygon fill="midnightblue" stroke="midnightblue" points="1198.5,-40.6273 1195,-30.6273 1191.5,-40.6273 1198.5,-40.6273"/>
</g>
<!-- Node13 -->
<g id="node13" class="node"><title>Node13</title>
<polygon fill="white" stroke="#bfbfbf" points="1256.5,-11.5 1256.5,-30.5 1331.5,-30.5 1331.5,-11.5 1256.5,-11.5"/>
<text text-anchor="middle" x="1294" y="-18.5" font-family="Helvetica,sans-Serif" font-size="10.00">io_thread.hpp</text>
</g>
<!-- Node1&#45;&gt;Node13 -->
<g id="edge12" class="edge"><title>Node1&#45;&gt;Node13</title>
<path fill="none" stroke="midnightblue" d="M1208.35,-78.2338C1224.75,-67.4644 1252.8,-49.05 1272.31,-36.2395"/>
<polygon fill="midnightblue" stroke="midnightblue" points="1274.42,-39.0415 1280.86,-30.6273 1270.58,-33.19 1274.42,-39.0415"/>
</g>
<!-- Node14 -->
<g id="node14" class="node"><title>Node14</title>
<polygon fill="white" stroke="#bfbfbf" points="1349.5,-11.5 1349.5,-30.5 1444.5,-30.5 1444.5,-11.5 1349.5,-11.5"/>
<text text-anchor="middle" x="1397" y="-18.5" font-family="Helvetica,sans-Serif" font-size="10.00">session_base.hpp</text>
</g>
<!-- Node1&#45;&gt;Node14 -->
<g id="edge13" class="edge"><title>Node1&#45;&gt;Node14</title>
<path fill="none" stroke="midnightblue" d="M1223.71,-78.4274C1253.04,-69.5926 1299.83,-55.275 1340,-42 1347.7,-39.4547 1355.95,-36.6218 1363.72,-33.9075"/>
<polygon fill="midnightblue" stroke="midnightblue" points="1364.95,-37.1857 1373.22,-30.5632 1362.62,-30.583 1364.95,-37.1857"/>
</g>
<!-- Node15 -->
<g id="node15" class="node"><title>Node15</title>
<polygon fill="white" stroke="#bfbfbf" points="1463,-11.5 1463,-30.5 1525,-30.5 1525,-11.5 1463,-11.5"/>
<text text-anchor="middle" x="1494" y="-18.5" font-family="Helvetica,sans-Serif" font-size="10.00">config.hpp</text>
</g>
<!-- Node1&#45;&gt;Node15 -->
<g id="edge14" class="edge"><title>Node1&#45;&gt;Node15</title>
<path fill="none" stroke="midnightblue" d="M1245.96,-82.3818C1298.75,-76.6156 1383.14,-64.6287 1453,-42 1458.56,-40.2001 1464.31,-37.7773 1469.7,-35.24"/>
<polygon fill="midnightblue" stroke="midnightblue" points="1471.48,-38.2633 1478.85,-30.6589 1468.34,-32.0031 1471.48,-38.2633"/>
</g>
<!-- Node16 -->
<g id="node16" class="node"><title>Node16</title>
<polygon fill="white" stroke="#bfbfbf" points="1543.5,-11.5 1543.5,-30.5 1590.5,-30.5 1590.5,-11.5 1543.5,-11.5"/>
<text text-anchor="middle" x="1567" y="-18.5" font-family="Helvetica,sans-Serif" font-size="10.00">err.hpp</text>
</g>
<!-- Node1&#45;&gt;Node16 -->
<g id="edge15" class="edge"><title>Node1&#45;&gt;Node16</title>
<path fill="none" stroke="midnightblue" d="M1245.69,-86.478C1313.08,-84.3985 1435.06,-75.7699 1533,-42 1537.49,-40.4513 1542.05,-38.2732 1546.3,-35.9206"/>
<polygon fill="midnightblue" stroke="midnightblue" points="1548.24,-38.8371 1554.99,-30.6682 1544.62,-32.8467 1548.24,-38.8371"/>
</g>
<!-- Node17 -->
<g id="node17" class="node"><title>Node17</title>
<polygon fill="white" stroke="#bfbfbf" points="1608.5,-11.5 1608.5,-30.5 1651.5,-30.5 1651.5,-11.5 1608.5,-11.5"/>
<text text-anchor="middle" x="1630" y="-18.5" font-family="Helvetica,sans-Serif" font-size="10.00">ip.hpp</text>
</g>
<!-- Node1&#45;&gt;Node17 -->
<g id="edge16" class="edge"><title>Node1&#45;&gt;Node17</title>
<path fill="none" stroke="midnightblue" d="M1245.79,-84.25C1339.33,-78.7078 1535.09,-64.7476 1599,-42 1603.03,-40.5671 1607.06,-38.5226 1610.82,-36.2827"/>
<polygon fill="midnightblue" stroke="midnightblue" points="1613.06,-38.9947 1619.46,-30.5489 1609.19,-33.1622 1613.06,-38.9947"/>
</g>
<!-- Node18 -->
<g id="node18" class="node"><title>Node18</title>
<polygon fill="white" stroke="#bfbfbf" points="1669.5,-11.5 1669.5,-30.5 1760.5,-30.5 1760.5,-11.5 1669.5,-11.5"/>
<text text-anchor="middle" x="1715" y="-18.5" font-family="Helvetica,sans-Serif" font-size="10.00">socket_base.hpp</text>
</g>
<!-- Node1&#45;&gt;Node18 -->
<g id="edge17" class="edge"><title>Node1&#45;&gt;Node18</title>
<path fill="none" stroke="midnightblue" d="M1245.55,-86.2618C1331.66,-84.0856 1511.88,-75.5314 1660,-42 1668.52,-40.0703 1677.53,-37.1791 1685.73,-34.1906"/>
<polygon fill="midnightblue" stroke="midnightblue" points="1687.16,-37.3928 1695.25,-30.555 1684.66,-30.8536 1687.16,-37.3928"/>
</g>
<!-- Node19 -->
<g id="node19" class="node"><title>Node19</title>
<polygon fill="white" stroke="#bfbfbf" points="1778.5,-11.5 1778.5,-30.5 1829.5,-30.5 1829.5,-11.5 1778.5,-11.5"/>
<text text-anchor="middle" x="1804" y="-18.5" font-family="Helvetica,sans-Serif" font-size="10.00">unistd.h</text>
</g>
<!-- Node1&#45;&gt;Node19 -->
<g id="edge18" class="edge"><title>Node1&#45;&gt;Node19</title>
<path fill="none" stroke="midnightblue" d="M1245.7,-85.8631C1367.17,-82.6848 1671.91,-71.8928 1769,-42 1773.85,-40.5082 1778.75,-38.2593 1783.29,-35.8012"/>
<polygon fill="midnightblue" stroke="midnightblue" points="1785.17,-38.757 1791.98,-30.6374 1781.59,-32.7404 1785.17,-38.757"/>
</g>
<!-- Node20 -->
<g id="node20" class="node"><title>Node20</title>
<polygon fill="white" stroke="#bfbfbf" points="1847.5,-11.5 1847.5,-30.5 1920.5,-30.5 1920.5,-11.5 1847.5,-11.5"/>
<text text-anchor="middle" x="1884" y="-18.5" font-family="Helvetica,sans-Serif" font-size="10.00">sys/socket.h</text>
</g>
<!-- Node1&#45;&gt;Node20 -->
<g id="edge19" class="edge"><title>Node1&#45;&gt;Node20</title>
<path fill="none" stroke="midnightblue" d="M1245.71,-85.67C1377.06,-81.871 1725.91,-69.4312 1838,-42 1844.93,-40.3033 1852.14,-37.6427 1858.74,-34.8094"/>
<polygon fill="midnightblue" stroke="midnightblue" points="1860.23,-37.9752 1867.87,-30.6269 1857.32,-31.6117 1860.23,-37.9752"/>
</g>
<!-- Node21 -->
<g id="node21" class="node"><title>Node21</title>
<polygon fill="white" stroke="#bfbfbf" points="1939,-11.5 1939,-30.5 1983,-30.5 1983,-11.5 1939,-11.5"/>
<text text-anchor="middle" x="1961" y="-18.5" font-family="Helvetica,sans-Serif" font-size="10.00">fcntl.h</text>
</g>
<!-- Node1&#45;&gt;Node21 -->
<g id="edge20" class="edge"><title>Node1&#45;&gt;Node21</title>
<path fill="none" stroke="midnightblue" d="M1245.73,-87.1228C1390.18,-86.9637 1801.49,-82.8346 1929,-42 1933.28,-40.6289 1937.57,-38.5556 1941.55,-36.2553"/>
<polygon fill="midnightblue" stroke="midnightblue" points="1943.64,-39.0706 1950.13,-30.699 1939.84,-33.1939 1943.64,-39.0706"/>
</g>
<!-- Node22 -->
<g id="node22" class="node"><title>Node22</title>
<polygon fill="white" stroke="#bfbfbf" points="2001,-11.5 2001,-30.5 2055,-30.5 2055,-11.5 2001,-11.5"/>
<text text-anchor="middle" x="2028" y="-18.5" font-family="Helvetica,sans-Serif" font-size="10.00">sys/un.h</text>
</g>
<!-- Node1&#45;&gt;Node22 -->
<g id="edge21" class="edge"><title>Node1&#45;&gt;Node22</title>
<path fill="none" stroke="midnightblue" d="M1245.76,-87.0103C1398.19,-86.5887 1850.08,-81.9135 1991,-42 1996.31,-40.4963 2001.71,-38.1379 2006.68,-35.5602"/>
<polygon fill="midnightblue" stroke="midnightblue" points="2008.62,-38.4848 2015.58,-30.5005 2005.16,-32.3991 2008.62,-38.4848"/>
</g>
</g>
</svg>
        <g id="navigator" transform="translate(0 0)" fill="#404254">
                <rect fill="#f2f5e9" fill-opacity="0.5" stroke="#606060" stroke-width=".5" x="0" y="0" width="60" height="60"/>
                <use id="zoomplus" xlink:href="#zoomPlus" x="17" y="9" onmousedown="handleZoom(evt,'in')"/>
                <use id="zoomminus" xlink:href="#zoomMin" x="42" y="9" onmousedown="handleZoom(evt,'out')"/>
                <use id="reset" xlink:href="#resetDef" x="30" y="36" onmousedown="handleReset()"/>
                <g id="arrowUp" xlink:href="#dirArrow" transform="translate(30 24)" onmousedown="handlePan(0,-1)">
                  <use xlink:href="#rim" fill="#404040">
                        <set attributeName="fill" to="#808080" begin="arrowUp.mouseover" end="arrowUp.mouseout"/>
                  </use>
                  <path fill="none" stroke="white" stroke-width="1.5" d="M0,-3.0v7 M-2.5,-0.5L0,-3.0L2.5,-0.5"/>
                </g>
                <g id="arrowRight" xlink:href="#dirArrow" transform="rotate(90) translate(36 -43)" onmousedown="handlePan(1,0)">
                  <use xlink:href="#rim" fill="#404040">
                        <set attributeName="fill" to="#808080" begin="arrowRight.mouseover" end="arrowRight.mouseout"/>
                  </use>
                  <path fill="none" stroke="white" stroke-width="1.5" d="M0,-3.0v7 M-2.5,-0.5L0,-3.0L2.5,-0.5"/>
                </g>
                <g id="arrowDown" xlink:href="#dirArrow" transform="rotate(180) translate(-30 -48)" onmousedown="handlePan(0,1)">
                  <use xlink:href="#rim" fill="#404040">
                        <set attributeName="fill" to="#808080" begin="arrowDown.mouseover" end="arrowDown.mouseout"/>
                  </use>
                  <path fill="none" stroke="white" stroke-width="1.5" d="M0,-3.0v7 M-2.5,-0.5L0,-3.0L2.5,-0.5"/>
                </g>
                <g id="arrowLeft" xlink:href="#dirArrow" transform="rotate(270) translate(-36 17)" onmousedown="handlePan(-1,0)">
                  <use xlink:href="#rim" fill="#404040">
                        <set attributeName="fill" to="#808080" begin="arrowLeft.mouseover" end="arrowLeft.mouseout"/>
                  </use>
                  <path fill="none" stroke="white" stroke-width="1.5" d="M0,-3.0v7 M-2.5,-0.5L0,-3.0L2.5,-0.5"/>
                </g>
        </g>
        <svg viewBox="0 0 15 15" width="100%" height="30px" preserveAspectRatio="xMaxYMin meet">
         <g id="arrow_out" transform="scale(0.3 0.3)">
          <a xlink:href="ipc__listener_8cpp__incl_org.svg" target="_base">
           <rect id="button" ry="5" rx="5" y="6" x="6" height="38" width="38"
                fill="#f2f5e9" fill-opacity="0.5" stroke="#606060" stroke-width="1.0"/>
           <path id="arrow"
             d="M 11.500037,31.436501 C 11.940474,20.09759 22.043105,11.32322 32.158766,21.979434 L 37.068811,17.246167 C 37.068811,17.246167 37.088388,32 37.088388,32 L 22.160133,31.978069 C 22.160133,31.978069 26.997745,27.140456 26.997745,27.140456 C 18.528582,18.264221 13.291696,25.230495 11.500037,31.436501 z"
             style="fill:#404040;"/>
          </a>
         </g>
        </svg>
</svg>
