<?xml version="1.0" encoding="UTF-8" standalone="no"?>
<!DOCTYPE svg PUBLIC "-//W3C//DTD SVG 1.1//EN"
 "http://www.w3.org/Graphics/SVG/1.1/DTD/svg11.dtd">
<!-- Generated by graphviz version 2.36.0 (20140111.2315)
 -->
<!-- Title: src/zmq.cpp Pages: 1 -->
<!--zoomable 84 -->
<svg id="main" version="1.1" xmlns="http://www.w3.org/2000/svg" xmlns:xlink="http://www.w3.org/1999/xlink" xml:space="preserve" onload="init(evt)">
<style type="text/css"><![CDATA[
.edge:hover path { stroke: red; }
.edge:hover polygon { stroke: red; fill: red; }
]]></style>
<script type="text/javascript"><![CDATA[
var edges = document.getElementsByTagName('g');
if (edges && edges.length) {
  for (var i=0;i<edges.length;i++) {
    if (edges[i].id.substr(0,4)=='edge') {
      edges[i].setAttribute('class','edge');
    }
  }
}
]]></script>
        <defs>
                <circle id="rim" cx="0" cy="0" r="7"/>
                <circle id="rim2" cx="0" cy="0" r="3.5"/>
                <g id="zoomPlus">
                        <use xlink:href="#rim" fill="#404040">
                                <set attributeName="fill" to="#808080" begin="zoomplus.mouseover" end="zoomplus.mouseout"/>
                        </use>
                        <path d="M-4,0h8M0,-4v8" fill="none" stroke="white" stroke-width="1.5" pointer-events="none"/>
                </g>
                <g id="zoomMin">
                        <use xlink:href="#rim" fill="#404040">
                                <set attributeName="fill" to="#808080" begin="zoomminus.mouseover" end="zoomminus.mouseout"/>
                        </use>
                        <path d="M-4,0h8" fill="none" stroke="white" stroke-width="1.5" pointer-events="none"/>
                </g>
                <g id="dirArrow">
                        <path fill="none" stroke="white" stroke-width="1.5" d="M0,-3.0v7 M-2.5,-0.5L0,-3.0L2.5,-0.5"/>
                </g>
               <g id="resetDef">
                       <use xlink:href="#rim2" fill="#404040">
                               <set attributeName="fill" to="#808080" begin="reset.mouseover" end="reset.mouseout"/>
                       </use>
               </g>
        </defs>

<script type="text/javascript">
var viewWidth = 1336;
var viewHeight = 84;
var sectionId = 'dynsection-0';
</script>
<script xlink:href="../../svgpan.js"/>
<svg id="graph" class="graph">
<g id="viewport">
<title>src/zmq.cpp</title>
<polygon fill="white" stroke="none" points="-4,4 -4,-80 1332,-80 1332,4 -4,4"/>
<!-- Node1 -->
<g id="node1" class="node"><title>Node1</title>
<polygon fill="#bfbfbf" stroke="black" points="622.5,-56.5 622.5,-75.5 693.5,-75.5 693.5,-56.5 622.5,-56.5"/>
<text text-anchor="middle" x="658" y="-63.5" font-family="Helvetica,sans-Serif" font-size="10.00">src/zmq.cpp</text>
</g>
<!-- Node2 -->
<g id="node2" class="node"><title>Node2</title>
<polygon fill="white" stroke="#bfbfbf" points="-0.5,-0.5 -0.5,-19.5 70.5,-19.5 70.5,-0.5 -0.5,-0.5"/>
<text text-anchor="middle" x="35" y="-7.5" font-family="Helvetica,sans-Serif" font-size="10.00">platform.hpp</text>
</g>
<!-- Node1&#45;&gt;Node2 -->
<g id="edge1" class="edge"><title>Node1&#45;&gt;Node2</title>
<path fill="none" stroke="midnightblue" d="M622.324,-63.709C532.893,-60.1561 291.827,-48.6248 80.8202,-19.9398"/>
<polygon fill="midnightblue" stroke="midnightblue" points="81.1794,-16.4564 70.7957,-18.5609 80.2254,-23.3911 81.1794,-16.4564"/>
</g>
<!-- Node3 -->
<g id="node3" class="node"><title>Node3</title>
<polygon fill="white" stroke="#bfbfbf" points="89,-0.5 89,-19.5 129,-19.5 129,-0.5 89,-0.5"/>
<text text-anchor="middle" x="109" y="-7.5" font-family="Helvetica,sans-Serif" font-size="10.00">poll.h</text>
</g>
<!-- Node1&#45;&gt;Node3 -->
<g id="edge2" class="edge"><title>Node1&#45;&gt;Node3</title>
<path fill="none" stroke="midnightblue" d="M622.326,-64.5392C539.031,-62.9056 325.312,-55.4873 139.107,-19.7993"/>
<polygon fill="midnightblue" stroke="midnightblue" points="139.625,-16.3343 129.14,-17.8563 138.285,-23.205 139.625,-16.3343"/>
</g>
<!-- Node4 -->
<g id="node4" class="node"><title>Node4</title>
<polygon fill="white" stroke="#bfbfbf" points="147,-0.5 147,-19.5 233,-19.5 233,-0.5 147,-0.5"/>
<text text-anchor="middle" x="190" y="-7.5" font-family="Helvetica,sans-Serif" font-size="10.00">../include/zmq.h</text>
</g>
<!-- Node1&#45;&gt;Node4 -->
<g id="edge3" class="edge"><title>Node1&#45;&gt;Node4</title>
<path fill="none" stroke="midnightblue" d="M622.291,-61.9092C551.839,-55.6449 389.773,-40.411 243.176,-20.0855"/>
<polygon fill="midnightblue" stroke="midnightblue" points="243.485,-16.5948 233.097,-18.6765 242.516,-23.5274 243.485,-16.5948"/>
</g>
<!-- Node5 -->
<g id="node5" class="node"><title>Node5</title>
<polygon fill="white" stroke="#bfbfbf" points="251.5,-0.5 251.5,-19.5 302.5,-19.5 302.5,-0.5 251.5,-0.5"/>
<text text-anchor="middle" x="277" y="-7.5" font-family="Helvetica,sans-Serif" font-size="10.00">unistd.h</text>
</g>
<!-- Node1&#45;&gt;Node5 -->
<g id="edge4" class="edge"><title>Node1&#45;&gt;Node5</title>
<path fill="none" stroke="midnightblue" d="M622.406,-61.8213C561.155,-56.0381 431.746,-42.4496 312.558,-19.8754"/>
<polygon fill="midnightblue" stroke="midnightblue" points="313.013,-16.3988 302.532,-17.9502 311.693,-23.2732 313.013,-16.3988"/>
</g>
<!-- Node6 -->
<g id="node6" class="node"><title>Node6</title>
<polygon fill="white" stroke="#bfbfbf" points="321,-0.5 321,-19.5 377,-19.5 377,-0.5 321,-0.5"/>
<text text-anchor="middle" x="349" y="-7.5" font-family="Helvetica,sans-Serif" font-size="10.00">sys/uio.h</text>
</g>
<!-- Node1&#45;&gt;Node6 -->
<g id="edge5" class="edge"><title>Node1&#45;&gt;Node6</title>
<path fill="none" stroke="midnightblue" d="M622.201,-59.948C571.872,-52.6555 477.144,-38.2371 387.059,-20.0951"/>
<polygon fill="midnightblue" stroke="midnightblue" points="387.73,-16.6599 377.233,-18.0973 386.335,-23.5196 387.73,-16.6599"/>
</g>
<!-- Node7 -->
<g id="node7" class="node"><title>Node7</title>
<polygon fill="white" stroke="#bfbfbf" points="395.5,-0.5 395.5,-19.5 444.5,-19.5 444.5,-0.5 395.5,-0.5"/>
<text text-anchor="middle" x="420" y="-7.5" font-family="Helvetica,sans-Serif" font-size="10.00">string.h</text>
</g>
<!-- Node1&#45;&gt;Node7 -->
<g id="edge6" class="edge"><title>Node1&#45;&gt;Node7</title>
<path fill="none" stroke="midnightblue" d="M622.15,-57.5643C583.321,-49.4063 519.322,-35.6593 454.791,-20.114"/>
<polygon fill="midnightblue" stroke="midnightblue" points="455.395,-16.6592 444.852,-17.7063 453.747,-23.4624 455.395,-16.6592"/>
</g>
<!-- Node8 -->
<g id="node8" class="node"><title>Node8</title>
<polygon fill="white" stroke="#bfbfbf" points="463,-0.5 463,-19.5 511,-19.5 511,-0.5 463,-0.5"/>
<text text-anchor="middle" x="487" y="-7.5" font-family="Helvetica,sans-Serif" font-size="10.00">stdlib.h</text>
</g>
<!-- Node1&#45;&gt;Node8 -->
<g id="edge7" class="edge"><title>Node1&#45;&gt;Node8</title>
<path fill="none" stroke="midnightblue" d="M630.905,-56.4435C601.162,-47.0513 553.358,-31.9553 521.092,-21.7658"/>
<polygon fill="midnightblue" stroke="midnightblue" points="521.794,-18.3172 511.204,-18.6433 519.686,-24.9923 521.794,-18.3172"/>
</g>
<!-- Node9 -->
<g id="node9" class="node"><title>Node9</title>
<polygon fill="white" stroke="#bfbfbf" points="529.5,-0.5 529.5,-19.5 564.5,-19.5 564.5,-0.5 529.5,-0.5"/>
<text text-anchor="middle" x="547" y="-7.5" font-family="Helvetica,sans-Serif" font-size="10.00">new</text>
</g>
<!-- Node1&#45;&gt;Node9 -->
<g id="edge8" class="edge"><title>Node1&#45;&gt;Node9</title>
<path fill="none" stroke="midnightblue" d="M640.166,-56.324C622.284,-47.6247 594.525,-34.1202 573.954,-24.113"/>
<polygon fill="midnightblue" stroke="midnightblue" points="575.313,-20.8819 564.79,-19.6545 572.251,-27.1765 575.313,-20.8819"/>
</g>
<!-- Node10 -->
<g id="node10" class="node"><title>Node10</title>
<polygon fill="white" stroke="#bfbfbf" points="582.5,-0.5 582.5,-19.5 641.5,-19.5 641.5,-0.5 582.5,-0.5"/>
<text text-anchor="middle" x="612" y="-7.5" font-family="Helvetica,sans-Serif" font-size="10.00">proxy.hpp</text>
</g>
<!-- Node1&#45;&gt;Node10 -->
<g id="edge9" class="edge"><title>Node1&#45;&gt;Node10</title>
<path fill="none" stroke="midnightblue" d="M650.404,-56.083C643.773,-48.2982 633.979,-36.8015 625.942,-27.3665"/>
<polygon fill="midnightblue" stroke="midnightblue" points="628.604,-25.0939 619.455,-19.7511 623.275,-29.6332 628.604,-25.0939"/>
</g>
<!-- Node11 -->
<g id="node11" class="node"><title>Node11</title>
<polygon fill="white" stroke="#bfbfbf" points="659.5,-0.5 659.5,-19.5 750.5,-19.5 750.5,-0.5 659.5,-0.5"/>
<text text-anchor="middle" x="705" y="-7.5" font-family="Helvetica,sans-Serif" font-size="10.00">socket_base.hpp</text>
</g>
<!-- Node1&#45;&gt;Node11 -->
<g id="edge10" class="edge"><title>Node1&#45;&gt;Node11</title>
<path fill="none" stroke="midnightblue" d="M665.761,-56.083C672.537,-48.2982 682.543,-36.8015 690.755,-27.3665"/>
<polygon fill="midnightblue" stroke="midnightblue" points="693.458,-29.592 697.383,-19.7511 688.178,-24.9963 693.458,-29.592"/>
</g>
<!-- Node12 -->
<g id="node12" class="node"><title>Node12</title>
<polygon fill="white" stroke="#bfbfbf" points="768.5,-0.5 768.5,-19.5 827.5,-19.5 827.5,-0.5 768.5,-0.5"/>
<text text-anchor="middle" x="798" y="-7.5" font-family="Helvetica,sans-Serif" font-size="10.00">stdint.hpp</text>
</g>
<!-- Node1&#45;&gt;Node12 -->
<g id="edge11" class="edge"><title>Node1&#45;&gt;Node12</title>
<path fill="none" stroke="midnightblue" d="M680.183,-56.4435C703.428,-47.4776 740.149,-33.314 766.415,-23.1827"/>
<polygon fill="midnightblue" stroke="midnightblue" points="767.85,-26.3807 775.92,-19.5164 765.331,-19.8497 767.85,-26.3807"/>
</g>
<!-- Node13 -->
<g id="node13" class="node"><title>Node13</title>
<polygon fill="white" stroke="#bfbfbf" points="846,-0.5 846,-19.5 908,-19.5 908,-0.5 846,-0.5"/>
<text text-anchor="middle" x="877" y="-7.5" font-family="Helvetica,sans-Serif" font-size="10.00">config.hpp</text>
</g>
<!-- Node1&#45;&gt;Node13 -->
<g id="edge12" class="edge"><title>Node1&#45;&gt;Node13</title>
<path fill="none" stroke="midnightblue" d="M692.701,-56.4435C731.588,-46.8551 794.582,-31.3223 835.902,-21.1339"/>
<polygon fill="midnightblue" stroke="midnightblue" points="836.783,-24.5214 845.654,-18.729 835.107,-17.7249 836.783,-24.5214"/>
</g>
<!-- Node14 -->
<g id="node14" class="node"><title>Node14</title>
<polygon fill="white" stroke="#bfbfbf" points="926,-0.5 926,-19.5 984,-19.5 984,-0.5 926,-0.5"/>
<text text-anchor="middle" x="955" y="-7.5" font-family="Helvetica,sans-Serif" font-size="10.00">likely.hpp</text>
</g>
<!-- Node1&#45;&gt;Node14 -->
<g id="edge13" class="edge"><title>Node1&#45;&gt;Node14</title>
<path fill="none" stroke="midnightblue" d="M693.587,-59.4182C741.605,-51.7497 830.024,-37.1489 915.752,-19.9519"/>
<polygon fill="midnightblue" stroke="midnightblue" points="916.541,-23.3634 925.65,-17.9523 915.155,-16.5021 916.541,-23.3634"/>
</g>
<!-- Node15 -->
<g id="node15" class="node"><title>Node15</title>
<polygon fill="white" stroke="#bfbfbf" points="1002.5,-0.5 1002.5,-19.5 1061.5,-19.5 1061.5,-0.5 1002.5,-0.5"/>
<text text-anchor="middle" x="1032" y="-7.5" font-family="Helvetica,sans-Serif" font-size="10.00">clock.hpp</text>
</g>
<!-- Node1&#45;&gt;Node15 -->
<g id="edge14" class="edge"><title>Node1&#45;&gt;Node15</title>
<path fill="none" stroke="midnightblue" d="M693.75,-61.222C755.042,-54.5132 884.02,-39.3837 992,-20 992.105,-19.9811 992.21,-19.9622 992.316,-19.9431"/>
<polygon fill="midnightblue" stroke="midnightblue" points="993.213,-23.334 1002.35,-17.9739 991.865,-16.465 993.213,-23.334"/>
</g>
<!-- Node16 -->
<g id="node16" class="node"><title>Node16</title>
<polygon fill="white" stroke="#bfbfbf" points="1079.5,-0.5 1079.5,-19.5 1128.5,-19.5 1128.5,-0.5 1079.5,-0.5"/>
<text text-anchor="middle" x="1104" y="-7.5" font-family="Helvetica,sans-Serif" font-size="10.00">ctx.hpp</text>
</g>
<!-- Node1&#45;&gt;Node16 -->
<g id="edge15" class="edge"><title>Node1&#45;&gt;Node16</title>
<path fill="none" stroke="midnightblue" d="M693.533,-62.9202C763.601,-58.4325 924.607,-46.2071 1069.27,-19.859"/>
<polygon fill="midnightblue" stroke="midnightblue" points="1070.02,-23.2801 1079.22,-18.0203 1068.75,-16.3968 1070.02,-23.2801"/>
</g>
<!-- Node17 -->
<g id="node17" class="node"><title>Node17</title>
<polygon fill="white" stroke="#bfbfbf" points="1146.5,-0.5 1146.5,-19.5 1193.5,-19.5 1193.5,-0.5 1146.5,-0.5"/>
<text text-anchor="middle" x="1170" y="-7.5" font-family="Helvetica,sans-Serif" font-size="10.00">err.hpp</text>
</g>
<!-- Node1&#45;&gt;Node17 -->
<g id="edge16" class="edge"><title>Node1&#45;&gt;Node17</title>
<path fill="none" stroke="midnightblue" d="M693.74,-63.7502C772.213,-60.5561 965.509,-50.2297 1136.39,-19.7801"/>
<polygon fill="midnightblue" stroke="midnightblue" points="1137.1,-23.2087 1146.32,-17.9839 1135.86,-16.3206 1137.1,-23.2087"/>
</g>
<!-- Node18 -->
<g id="node18" class="node"><title>Node18</title>
<polygon fill="white" stroke="#bfbfbf" points="1212,-0.5 1212,-19.5 1266,-19.5 1266,-0.5 1212,-0.5"/>
<text text-anchor="middle" x="1239" y="-7.5" font-family="Helvetica,sans-Serif" font-size="10.00">msg.hpp</text>
</g>
<!-- Node1&#45;&gt;Node18 -->
<g id="edge17" class="edge"><title>Node1&#45;&gt;Node18</title>
<path fill="none" stroke="midnightblue" d="M693.555,-63.9781C779.286,-61.1053 1004.23,-51.1342 1201.64,-19.7714"/>
<polygon fill="midnightblue" stroke="midnightblue" points="1202.3,-23.2106 1211.62,-18.1647 1201.19,-16.2997 1202.3,-23.2106"/>
</g>
<!-- Node19 -->
<g id="node19" class="node"><title>Node19</title>
<polygon fill="white" stroke="#bfbfbf" points="1284,-0.5 1284,-19.5 1328,-19.5 1328,-0.5 1284,-0.5"/>
<text text-anchor="middle" x="1306" y="-7.5" font-family="Helvetica,sans-Serif" font-size="10.00">fd.hpp</text>
</g>
<!-- Node1&#45;&gt;Node19 -->
<g id="edge18" class="edge"><title>Node1&#45;&gt;Node19</title>
<path fill="none" stroke="midnightblue" d="M693.799,-65.0001C787.722,-64.4477 1048.9,-59.3524 1273.78,-19.8407"/>
<polygon fill="midnightblue" stroke="midnightblue" points="1274.55,-23.2578 1283.78,-18.0556 1273.32,-16.3667 1274.55,-23.2578"/>
</g>
</g>
</svg>
        <g id="navigator" transform="translate(0 0)" fill="#404254">
                <rect fill="#f2f5e9" fill-opacity="0.5" stroke="#606060" stroke-width=".5" x="0" y="0" width="60" height="60"/>
                <use id="zoomplus" xlink:href="#zoomPlus" x="17" y="9" onmousedown="handleZoom(evt,'in')"/>
                <use id="zoomminus" xlink:href="#zoomMin" x="42" y="9" onmousedown="handleZoom(evt,'out')"/>
                <use id="reset" xlink:href="#resetDef" x="30" y="36" onmousedown="handleReset()"/>
                <g id="arrowUp" xlink:href="#dirArrow" transform="translate(30 24)" onmousedown="handlePan(0,-1)">
                  <use xlink:href="#rim" fill="#404040">
                        <set attributeName="fill" to="#808080" begin="arrowUp.mouseover" end="arrowUp.mouseout"/>
                  </use>
                  <path fill="none" stroke="white" stroke-width="1.5" d="M0,-3.0v7 M-2.5,-0.5L0,-3.0L2.5,-0.5"/>
                </g>
                <g id="arrowRight" xlink:href="#dirArrow" transform="rotate(90) translate(36 -43)" onmousedown="handlePan(1,0)">
                  <use xlink:href="#rim" fill="#404040">
                        <set attributeName="fill" to="#808080" begin="arrowRight.mouseover" end="arrowRight.mouseout"/>
                  </use>
                  <path fill="none" stroke="white" stroke-width="1.5" d="M0,-3.0v7 M-2.5,-0.5L0,-3.0L2.5,-0.5"/>
                </g>
                <g id="arrowDown" xlink:href="#dirArrow" transform="rotate(180) translate(-30 -48)" onmousedown="handlePan(0,1)">
                  <use xlink:href="#rim" fill="#404040">
                        <set attributeName="fill" to="#808080" begin="arrowDown.mouseover" end="arrowDown.mouseout"/>
                  </use>
                  <path fill="none" stroke="white" stroke-width="1.5" d="M0,-3.0v7 M-2.5,-0.5L0,-3.0L2.5,-0.5"/>
                </g>
                <g id="arrowLeft" xlink:href="#dirArrow" transform="rotate(270) translate(-36 17)" onmousedown="handlePan(-1,0)">
                  <use xlink:href="#rim" fill="#404040">
                        <set attributeName="fill" to="#808080" begin="arrowLeft.mouseover" end="arrowLeft.mouseout"/>
                  </use>
                  <path fill="none" stroke="white" stroke-width="1.5" d="M0,-3.0v7 M-2.5,-0.5L0,-3.0L2.5,-0.5"/>
                </g>
        </g>
        <svg viewBox="0 0 15 15" width="100%" height="30px" preserveAspectRatio="xMaxYMin meet">
         <g id="arrow_out" transform="scale(0.3 0.3)">
          <a xlink:href="zmq_8cpp__incl_org.svg" target="_base">
           <rect id="button" ry="5" rx="5" y="6" x="6" height="38" width="38"
                fill="#f2f5e9" fill-opacity="0.5" stroke="#606060" stroke-width="1.0"/>
           <path id="arrow"
             d="M 11.500037,31.436501 C 11.940474,20.09759 22.043105,11.32322 32.158766,21.979434 L 37.068811,17.246167 C 37.068811,17.246167 37.088388,32 37.088388,32 L 22.160133,31.978069 C 22.160133,31.978069 26.997745,27.140456 26.997745,27.140456 C 18.528582,18.264221 13.291696,25.230495 11.500037,31.436501 z"
             style="fill:#404040;"/>
          </a>
         </g>
        </svg>
</svg>
