<?xml version="1.0" encoding="UTF-8" standalone="no"?>
<!DOCTYPE svg PUBLIC "-//W3C//DTD SVG 1.1//EN"
 "http://www.w3.org/Graphics/SVG/1.1/DTD/svg11.dtd">
<!-- Generated by graphviz version 2.36.0 (20140111.2315)
 -->
<!-- Title: src/random.cpp Pages: 1 -->
<svg width="455pt" height="84pt"
 viewBox="0.00 0.00 455.00 84.00" xmlns="http://www.w3.org/2000/svg" xmlns:xlink="http://www.w3.org/1999/xlink">
<g id="graph0" class="graph" transform="scale(1 1) rotate(0) translate(4 80)">
<title>src/random.cpp</title>
<polygon fill="white" stroke="none" points="-4,4 -4,-80 451,-80 451,4 -4,4"/>
<!-- Node1 -->
<g id="node1" class="node"><title>Node1</title>
<polygon fill="#bfbfbf" stroke="black" points="178,-56.5 178,-75.5 262,-75.5 262,-56.5 178,-56.5"/>
<text text-anchor="middle" x="220" y="-63.5" font-family="Helvetica,sans-Serif" font-size="10.00">src/random.cpp</text>
</g>
<!-- Node2 -->
<g id="node2" class="node"><title>Node2</title>
<polygon fill="white" stroke="#bfbfbf" points="0,-0.5 0,-19.5 48,-19.5 48,-0.5 0,-0.5"/>
<text text-anchor="middle" x="24" y="-7.5" font-family="Helvetica,sans-Serif" font-size="10.00">stdlib.h</text>
</g>
<!-- Node1&#45;&gt;Node2 -->
<g id="edge1" class="edge"><title>Node1&#45;&gt;Node2</title>
<path fill="none" stroke="midnightblue" d="M188.943,-56.4435C153.226,-46.6031 94.7836,-30.5016 57.9071,-20.3418"/>
<polygon fill="midnightblue" stroke="midnightblue" points="58.6852,-16.9258 48.1148,-17.6439 56.8259,-23.6744 58.6852,-16.9258"/>
</g>
<!-- Node3 -->
<g id="node3" class="node"><title>Node3</title>
<polygon fill="white" stroke="#bfbfbf" points="66.5,-0.5 66.5,-19.5 137.5,-19.5 137.5,-0.5 66.5,-0.5"/>
<text text-anchor="middle" x="102" y="-7.5" font-family="Helvetica,sans-Serif" font-size="10.00">platform.hpp</text>
</g>
<!-- Node1&#45;&gt;Node3 -->
<g id="edge2" class="edge"><title>Node1&#45;&gt;Node3</title>
<path fill="none" stroke="midnightblue" d="M201.303,-56.4435C182.056,-47.6356 151.848,-33.8116 129.8,-23.722"/>
<polygon fill="midnightblue" stroke="midnightblue" points="131.16,-20.4951 120.61,-19.5164 128.247,-26.8603 131.16,-20.4951"/>
</g>
<!-- Node4 -->
<g id="node4" class="node"><title>Node4</title>
<polygon fill="white" stroke="#bfbfbf" points="155.5,-0.5 155.5,-19.5 206.5,-19.5 206.5,-0.5 155.5,-0.5"/>
<text text-anchor="middle" x="181" y="-7.5" font-family="Helvetica,sans-Serif" font-size="10.00">unistd.h</text>
</g>
<!-- Node1&#45;&gt;Node4 -->
<g id="edge3" class="edge"><title>Node1&#45;&gt;Node4</title>
<path fill="none" stroke="midnightblue" d="M213.56,-56.083C208.051,-48.4554 199.969,-37.2645 193.235,-27.9408"/>
<polygon fill="midnightblue" stroke="midnightblue" points="196.013,-25.8087 187.32,-19.7511 190.338,-29.9071 196.013,-25.8087"/>
</g>
<!-- Node5 -->
<g id="node5" class="node"><title>Node5</title>
<polygon fill="white" stroke="#bfbfbf" points="225,-0.5 225,-19.5 293,-19.5 293,-0.5 225,-0.5"/>
<text text-anchor="middle" x="259" y="-7.5" font-family="Helvetica,sans-Serif" font-size="10.00">random.hpp</text>
</g>
<!-- Node1&#45;&gt;Node5 -->
<g id="edge4" class="edge"><title>Node1&#45;&gt;Node5</title>
<path fill="none" stroke="midnightblue" d="M226.44,-56.083C231.949,-48.4554 240.031,-37.2645 246.765,-27.9408"/>
<polygon fill="midnightblue" stroke="midnightblue" points="249.662,-29.9071 252.68,-19.7511 243.987,-25.8087 249.662,-29.9071"/>
</g>
<!-- Node6 -->
<g id="node6" class="node"><title>Node6</title>
<polygon fill="white" stroke="#bfbfbf" points="311.5,-0.5 311.5,-19.5 370.5,-19.5 370.5,-0.5 311.5,-0.5"/>
<text text-anchor="middle" x="341" y="-7.5" font-family="Helvetica,sans-Serif" font-size="10.00">stdint.hpp</text>
</g>
<!-- Node1&#45;&gt;Node6 -->
<g id="edge5" class="edge"><title>Node1&#45;&gt;Node6</title>
<path fill="none" stroke="midnightblue" d="M239.173,-56.4435C258.909,-47.6356 289.885,-33.8116 312.493,-23.722"/>
<polygon fill="midnightblue" stroke="midnightblue" points="314.211,-26.788 321.917,-19.5164 311.359,-20.3957 314.211,-26.788"/>
</g>
<!-- Node7 -->
<g id="node7" class="node"><title>Node7</title>
<polygon fill="white" stroke="#bfbfbf" points="388.5,-0.5 388.5,-19.5 447.5,-19.5 447.5,-0.5 388.5,-0.5"/>
<text text-anchor="middle" x="418" y="-7.5" font-family="Helvetica,sans-Serif" font-size="10.00">clock.hpp</text>
</g>
<!-- Node1&#45;&gt;Node7 -->
<g id="edge6" class="edge"><title>Node1&#45;&gt;Node7</title>
<path fill="none" stroke="midnightblue" d="M251.374,-56.4435C285.761,-47.0652 341,-32.0001 378.359,-21.8112"/>
<polygon fill="midnightblue" stroke="midnightblue" points="379.663,-25.0834 388.39,-19.0755 377.821,-18.33 379.663,-25.0834"/>
</g>
</g>
</svg>
