<?xml version="1.0" encoding="UTF-8" standalone="no"?>
<!DOCTYPE svg PUBLIC "-//W3C//DTD SVG 1.1//EN"
 "http://www.w3.org/Graphics/SVG/1.1/DTD/svg11.dtd">
<!-- Generated by graphviz version 2.36.0 (20140111.2315)
 -->
<!-- Title: src/v1_encoder.cpp Pages: 1 -->
<svg width="345pt" height="84pt"
 viewBox="0.00 0.00 345.00 84.00" xmlns="http://www.w3.org/2000/svg" xmlns:xlink="http://www.w3.org/1999/xlink">
<g id="graph0" class="graph" transform="scale(1 1) rotate(0) translate(4 80)">
<title>src/v1_encoder.cpp</title>
<polygon fill="white" stroke="none" points="-4,4 -4,-80 341,-80 341,4 -4,4"/>
<!-- Node1 -->
<g id="node1" class="node"><title>Node1</title>
<polygon fill="#bfbfbf" stroke="black" points="141,-56.5 141,-75.5 243,-75.5 243,-56.5 141,-56.5"/>
<text text-anchor="middle" x="192" y="-63.5" font-family="Helvetica,sans-Serif" font-size="10.00">src/v1_encoder.cpp</text>
</g>
<!-- Node2 -->
<g id="node2" class="node"><title>Node2</title>
<polygon fill="white" stroke="#bfbfbf" points="0,-0.5 0,-19.5 86,-19.5 86,-0.5 0,-0.5"/>
<text text-anchor="middle" x="43" y="-7.5" font-family="Helvetica,sans-Serif" font-size="10.00">v1_protocol.hpp</text>
</g>
<!-- Node1&#45;&gt;Node2 -->
<g id="edge1" class="edge"><title>Node1&#45;&gt;Node2</title>
<path fill="none" stroke="midnightblue" d="M168.391,-56.4435C143.542,-47.4381 104.226,-33.1891 76.2464,-23.049"/>
<polygon fill="midnightblue" stroke="midnightblue" points="77.0932,-19.6332 66.499,-19.5164 74.7081,-26.2144 77.0932,-19.6332"/>
</g>
<!-- Node3 -->
<g id="node3" class="node"><title>Node3</title>
<polygon fill="white" stroke="#bfbfbf" points="104,-0.5 104,-19.5 190,-19.5 190,-0.5 104,-0.5"/>
<text text-anchor="middle" x="147" y="-7.5" font-family="Helvetica,sans-Serif" font-size="10.00">v1_encoder.hpp</text>
</g>
<!-- Node1&#45;&gt;Node3 -->
<g id="edge2" class="edge"><title>Node1&#45;&gt;Node3</title>
<path fill="none" stroke="midnightblue" d="M184.569,-56.083C178.147,-48.3768 168.694,-37.0333 160.878,-27.6531"/>
<polygon fill="midnightblue" stroke="midnightblue" points="163.383,-25.1927 154.293,-19.7511 158.006,-29.674 163.383,-25.1927"/>
</g>
<!-- Node4 -->
<g id="node4" class="node"><title>Node4</title>
<polygon fill="white" stroke="#bfbfbf" points="208,-0.5 208,-19.5 266,-19.5 266,-0.5 208,-0.5"/>
<text text-anchor="middle" x="237" y="-7.5" font-family="Helvetica,sans-Serif" font-size="10.00">likely.hpp</text>
</g>
<!-- Node1&#45;&gt;Node4 -->
<g id="edge3" class="edge"><title>Node1&#45;&gt;Node4</title>
<path fill="none" stroke="midnightblue" d="M199.431,-56.083C205.853,-48.3768 215.306,-37.0333 223.122,-27.6531"/>
<polygon fill="midnightblue" stroke="midnightblue" points="225.994,-29.674 229.707,-19.7511 220.617,-25.1927 225.994,-29.674"/>
</g>
<!-- Node5 -->
<g id="node5" class="node"><title>Node5</title>
<polygon fill="white" stroke="#bfbfbf" points="284.5,-0.5 284.5,-19.5 337.5,-19.5 337.5,-0.5 284.5,-0.5"/>
<text text-anchor="middle" x="311" y="-7.5" font-family="Helvetica,sans-Serif" font-size="10.00">wire.hpp</text>
</g>
<!-- Node1&#45;&gt;Node5 -->
<g id="edge4" class="edge"><title>Node1&#45;&gt;Node5</title>
<path fill="none" stroke="midnightblue" d="M210.856,-56.4435C230.266,-47.6356 260.73,-33.8116 282.965,-23.722"/>
<polygon fill="midnightblue" stroke="midnightblue" points="284.572,-26.836 292.232,-19.5164 281.68,-20.4615 284.572,-26.836"/>
</g>
</g>
</svg>
