<?xml version="1.0" encoding="UTF-8" standalone="no"?>
<!DOCTYPE svg PUBLIC "-//W3C//DTD SVG 1.1//EN"
 "http://www.w3.org/Graphics/SVG/1.1/DTD/svg11.dtd">
<!-- Generated by graphviz version 2.36.0 (20140111.2315)
 -->
<!-- Title: src/stream_engine.cpp Pages: 1 -->
<svg width="2853pt" height="106pt"
 viewBox="0.00 0.00 2853.00 106.00" xmlns="http://www.w3.org/2000/svg" xmlns:xlink="http://www.w3.org/1999/xlink">
<g id="graph0" class="graph" transform="scale(1 1) rotate(0) translate(4 102)">
<title>src/stream_engine.cpp</title>
<polygon fill="white" stroke="none" points="-4,4 -4,-102 2849,-102 2849,4 -4,4"/>
<!-- Node1 -->
<g id="node1" class="node"><title>Node1</title>
<polygon fill="#bfbfbf" stroke="black" points="1140,-78.5 1140,-97.5 1256,-97.5 1256,-78.5 1140,-78.5"/>
<text text-anchor="middle" x="1198" y="-85.5" font-family="Helvetica,sans-Serif" font-size="10.00">src/stream_engine.cpp</text>
</g>
<!-- Node2 -->
<g id="node2" class="node"><title>Node2</title>
<polygon fill="white" stroke="#bfbfbf" points="-0.5,-11.5 -0.5,-30.5 70.5,-30.5 70.5,-11.5 -0.5,-11.5"/>
<text text-anchor="middle" x="35" y="-18.5" font-family="Helvetica,sans-Serif" font-size="10.00">platform.hpp</text>
</g>
<!-- Node1&#45;&gt;Node2 -->
<g id="edge1" class="edge"><title>Node1&#45;&gt;Node2</title>
<path fill="none" stroke="midnightblue" d="M1139.65,-85.9674C924.45,-81.9788 182.326,-66.5651 79,-42 72.357,-40.4207 65.4914,-37.8245 59.2159,-35.0176"/>
<polygon fill="midnightblue" stroke="midnightblue" points="60.4843,-31.7435 49.957,-30.5491 57.4417,-38.0477 60.4843,-31.7435"/>
</g>
<!-- Node3 -->
<g id="node3" class="node"><title>Node3</title>
<polygon fill="white" stroke="#bfbfbf" points="88.5,-11.5 88.5,-30.5 139.5,-30.5 139.5,-11.5 88.5,-11.5"/>
<text text-anchor="middle" x="114" y="-18.5" font-family="Helvetica,sans-Serif" font-size="10.00">unistd.h</text>
</g>
<!-- Node1&#45;&gt;Node3 -->
<g id="edge2" class="edge"><title>Node1&#45;&gt;Node3</title>
<path fill="none" stroke="midnightblue" d="M1140,-86.1546C933.752,-82.9231 243.092,-70.0948 148,-42 143.165,-40.5714 138.298,-38.3102 133.819,-35.8136"/>
<polygon fill="midnightblue" stroke="midnightblue" points="135.648,-32.8295 125.301,-30.5495 131.968,-38.7841 135.648,-32.8295"/>
</g>
<!-- Node4 -->
<g id="node4" class="node"><title>Node4</title>
<polygon fill="white" stroke="#bfbfbf" points="157.5,-11.5 157.5,-30.5 230.5,-30.5 230.5,-11.5 157.5,-11.5"/>
<text text-anchor="middle" x="194" y="-18.5" font-family="Helvetica,sans-Serif" font-size="10.00">sys/socket.h</text>
</g>
<!-- Node1&#45;&gt;Node4 -->
<g id="edge3" class="edge"><title>Node1&#45;&gt;Node4</title>
<path fill="none" stroke="midnightblue" d="M1139.98,-87.0166C959.935,-86.6374 412.512,-82.1257 240,-42 232.934,-40.3564 225.595,-37.6643 218.909,-34.7803"/>
<polygon fill="midnightblue" stroke="midnightblue" points="220.235,-31.5373 209.689,-30.5174 217.297,-37.891 220.235,-31.5373"/>
</g>
<!-- Node5 -->
<g id="node5" class="node"><title>Node5</title>
<polygon fill="white" stroke="#bfbfbf" points="249,-11.5 249,-30.5 311,-30.5 311,-11.5 249,-11.5"/>
<text text-anchor="middle" x="280" y="-18.5" font-family="Helvetica,sans-Serif" font-size="10.00">arpa/inet.h</text>
</g>
<!-- Node1&#45;&gt;Node5 -->
<g id="edge4" class="edge"><title>Node1&#45;&gt;Node5</title>
<path fill="none" stroke="midnightblue" d="M1139.98,-87.1172C970.029,-86.9733 475.535,-82.9475 320,-42 314.181,-40.4681 308.219,-38.0307 302.735,-35.3765"/>
<polygon fill="midnightblue" stroke="midnightblue" points="303.989,-32.0814 293.511,-30.5136 300.725,-38.2735 303.989,-32.0814"/>
</g>
<!-- Node6 -->
<g id="node6" class="node"><title>Node6</title>
<polygon fill="white" stroke="#bfbfbf" points="329.5,-11.5 329.5,-30.5 400.5,-30.5 400.5,-11.5 329.5,-11.5"/>
<text text-anchor="middle" x="365" y="-18.5" font-family="Helvetica,sans-Serif" font-size="10.00">netinet/tcp.h</text>
</g>
<!-- Node1&#45;&gt;Node6 -->
<g id="edge5" class="edge"><title>Node1&#45;&gt;Node6</title>
<path fill="none" stroke="midnightblue" d="M1139.8,-86.4507C981.815,-84.5197 547.539,-76.1672 409,-42 402.477,-40.3914 395.731,-37.8327 389.539,-35.0756"/>
<polygon fill="midnightblue" stroke="midnightblue" points="390.907,-31.8503 380.376,-30.6878 387.884,-38.1637 390.907,-31.8503"/>
</g>
<!-- Node7 -->
<g id="node7" class="node"><title>Node7</title>
<polygon fill="white" stroke="#bfbfbf" points="418.5,-11.5 418.5,-30.5 483.5,-30.5 483.5,-11.5 418.5,-11.5"/>
<text text-anchor="middle" x="451" y="-18.5" font-family="Helvetica,sans-Serif" font-size="10.00">netinet/in.h</text>
</g>
<!-- Node1&#45;&gt;Node7 -->
<g id="edge6" class="edge"><title>Node1&#45;&gt;Node7</title>
<path fill="none" stroke="midnightblue" d="M1139.86,-86.1935C993.675,-83.702 613.772,-74.2309 492,-42 486.016,-40.4162 479.865,-37.9353 474.205,-35.2528"/>
<polygon fill="midnightblue" stroke="midnightblue" points="475.759,-32.1159 465.263,-30.6705 472.566,-38.3457 475.759,-32.1159"/>
</g>
<!-- Node8 -->
<g id="node8" class="node"><title>Node8</title>
<polygon fill="white" stroke="#bfbfbf" points="501.5,-11.5 501.5,-30.5 550.5,-30.5 550.5,-11.5 501.5,-11.5"/>
<text text-anchor="middle" x="526" y="-18.5" font-family="Helvetica,sans-Serif" font-size="10.00">netdb.h</text>
</g>
<!-- Node1&#45;&gt;Node8 -->
<g id="edge7" class="edge"><title>Node1&#45;&gt;Node8</title>
<path fill="none" stroke="midnightblue" d="M1139.87,-86.2896C1003.66,-84.0808 667.304,-75.3188 560,-42 555.387,-40.5676 550.735,-38.4064 546.416,-36.0266"/>
<polygon fill="midnightblue" stroke="midnightblue" points="547.995,-32.8899 537.636,-30.6661 544.347,-38.8644 547.995,-32.8899"/>
</g>
<!-- Node9 -->
<g id="node9" class="node"><title>Node9</title>
<polygon fill="white" stroke="#bfbfbf" points="569,-11.5 569,-30.5 613,-30.5 613,-11.5 569,-11.5"/>
<text text-anchor="middle" x="591" y="-18.5" font-family="Helvetica,sans-Serif" font-size="10.00">fcntl.h</text>
</g>
<!-- Node1&#45;&gt;Node9 -->
<g id="edge8" class="edge"><title>Node1&#45;&gt;Node9</title>
<path fill="none" stroke="midnightblue" d="M1139.59,-86.0569C1012.91,-83.4265 716.682,-73.9522 622,-42 617.951,-40.6336 613.907,-38.621 610.14,-36.3918"/>
<polygon fill="midnightblue" stroke="midnightblue" points="611.769,-33.2714 601.504,-30.6489 607.893,-39.1005 611.769,-33.2714"/>
</g>
<!-- Node10 -->
<g id="node10" class="node"><title>Node10</title>
<polygon fill="white" stroke="#bfbfbf" points="631.5,-11.5 631.5,-30.5 680.5,-30.5 680.5,-11.5 631.5,-11.5"/>
<text text-anchor="middle" x="656" y="-18.5" font-family="Helvetica,sans-Serif" font-size="10.00">string.h</text>
</g>
<!-- Node1&#45;&gt;Node10 -->
<g id="edge9" class="edge"><title>Node1&#45;&gt;Node10</title>
<path fill="none" stroke="midnightblue" d="M1139.96,-85.1706C1024.8,-81.0016 771.409,-68.9917 689,-42 684.51,-40.5293 679.989,-38.3508 675.795,-35.9662"/>
<polygon fill="midnightblue" stroke="midnightblue" points="677.604,-32.9696 667.275,-30.6116 673.879,-38.8962 677.604,-32.9696"/>
</g>
<!-- Node11 -->
<g id="node11" class="node"><title>Node11</title>
<polygon fill="white" stroke="#bfbfbf" points="698.5,-11.5 698.5,-30.5 733.5,-30.5 733.5,-11.5 698.5,-11.5"/>
<text text-anchor="middle" x="716" y="-18.5" font-family="Helvetica,sans-Serif" font-size="10.00">new</text>
</g>
<!-- Node1&#45;&gt;Node11 -->
<g id="edge10" class="edge"><title>Node1&#45;&gt;Node11</title>
<path fill="none" stroke="midnightblue" d="M1139.65,-85.2254C1033.43,-81.3413 812.913,-70.0796 742,-42 738.823,-40.742 735.707,-38.9751 732.798,-37.0069"/>
<polygon fill="midnightblue" stroke="midnightblue" points="734.877,-34.19 724.837,-30.8061 730.576,-39.7124 734.877,-34.19"/>
</g>
<!-- Node12 -->
<g id="node12" class="node"><title>Node12</title>
<polygon fill="white" stroke="#bfbfbf" points="751.5,-11.5 751.5,-30.5 850.5,-30.5 850.5,-11.5 751.5,-11.5"/>
<text text-anchor="middle" x="801" y="-18.5" font-family="Helvetica,sans-Serif" font-size="10.00">stream_engine.hpp</text>
</g>
<!-- Node1&#45;&gt;Node12 -->
<g id="edge11" class="edge"><title>Node1&#45;&gt;Node12</title>
<path fill="none" stroke="midnightblue" d="M1139.78,-82.8337C1071.73,-77.1475 956.07,-64.9347 859,-42 850.134,-39.9052 840.718,-36.9776 832.109,-34.0076"/>
<polygon fill="midnightblue" stroke="midnightblue" points="833.05,-30.6268 822.455,-30.5489 830.689,-37.2167 833.05,-30.6268"/>
</g>
<!-- Node13 -->
<g id="node13" class="node"><title>Node13</title>
<polygon fill="white" stroke="#bfbfbf" points="868.5,-11.5 868.5,-30.5 943.5,-30.5 943.5,-11.5 868.5,-11.5"/>
<text text-anchor="middle" x="906" y="-18.5" font-family="Helvetica,sans-Serif" font-size="10.00">io_thread.hpp</text>
</g>
<!-- Node1&#45;&gt;Node13 -->
<g id="edge12" class="edge"><title>Node1&#45;&gt;Node13</title>
<path fill="none" stroke="midnightblue" d="M1139.95,-80.2031C1089.53,-73.4 1014.93,-61.1571 952,-42 945.549,-40.036 938.792,-37.4302 932.503,-34.7505"/>
<polygon fill="midnightblue" stroke="midnightblue" points="933.678,-31.442 923.12,-30.5605 930.824,-37.8337 933.678,-31.442"/>
</g>
<!-- Node14 -->
<g id="node14" class="node"><title>Node14</title>
<polygon fill="white" stroke="#bfbfbf" points="961.5,-11.5 961.5,-30.5 1056.5,-30.5 1056.5,-11.5 961.5,-11.5"/>
<text text-anchor="middle" x="1009" y="-18.5" font-family="Helvetica,sans-Serif" font-size="10.00">session_base.hpp</text>
</g>
<!-- Node1&#45;&gt;Node14 -->
<g id="edge13" class="edge"><title>Node1&#45;&gt;Node14</title>
<path fill="none" stroke="midnightblue" d="M1172.67,-78.44C1146.08,-69.436 1103.07,-54.8214 1066,-42 1058.49,-39.4018 1050.43,-36.5891 1042.8,-33.9166"/>
<polygon fill="midnightblue" stroke="midnightblue" points="1043.71,-30.5246 1033.11,-30.514 1041.39,-37.1293 1043.71,-30.5246"/>
</g>
<!-- Node15 -->
<g id="node15" class="node"><title>Node15</title>
<polygon fill="white" stroke="#bfbfbf" points="1075,-11.5 1075,-30.5 1145,-30.5 1145,-11.5 1075,-11.5"/>
<text text-anchor="middle" x="1110" y="-18.5" font-family="Helvetica,sans-Serif" font-size="10.00">encoder.hpp</text>
</g>
<!-- Node1&#45;&gt;Node15 -->
<g id="edge14" class="edge"><title>Node1&#45;&gt;Node15</title>
<path fill="none" stroke="midnightblue" d="M1186.13,-78.2338C1171.75,-67.6106 1147.3,-49.5485 1129.99,-36.7642"/>
<polygon fill="midnightblue" stroke="midnightblue" points="1131.8,-33.7534 1121.68,-30.6273 1127.64,-39.384 1131.8,-33.7534"/>
</g>
<!-- Node16 -->
<g id="node16" class="node"><title>Node16</title>
<polygon fill="white" stroke="#bfbfbf" points="1163,-11.5 1163,-30.5 1233,-30.5 1233,-11.5 1163,-11.5"/>
<text text-anchor="middle" x="1198" y="-18.5" font-family="Helvetica,sans-Serif" font-size="10.00">decoder.hpp</text>
</g>
<!-- Node1&#45;&gt;Node16 -->
<g id="edge15" class="edge"><title>Node1&#45;&gt;Node16</title>
<path fill="none" stroke="midnightblue" d="M1198,-78.2338C1198,-68.6826 1198,-53.1183 1198,-40.7829"/>
<polygon fill="midnightblue" stroke="midnightblue" points="1201.5,-40.6273 1198,-30.6273 1194.5,-40.6273 1201.5,-40.6273"/>
</g>
<!-- Node17 -->
<g id="node17" class="node"><title>Node17</title>
<polygon fill="white" stroke="#bfbfbf" points="1251,-11.5 1251,-30.5 1337,-30.5 1337,-11.5 1251,-11.5"/>
<text text-anchor="middle" x="1294" y="-18.5" font-family="Helvetica,sans-Serif" font-size="10.00">v1_encoder.hpp</text>
</g>
<!-- Node1&#45;&gt;Node17 -->
<g id="edge16" class="edge"><title>Node1&#45;&gt;Node17</title>
<path fill="none" stroke="midnightblue" d="M1210.95,-78.2338C1226.85,-67.4644 1254.05,-49.05 1272.97,-36.2395"/>
<polygon fill="midnightblue" stroke="midnightblue" points="1274.94,-39.1321 1281.26,-30.6273 1271.02,-33.3357 1274.94,-39.1321"/>
</g>
<!-- Node18 -->
<g id="node18" class="node"><title>Node18</title>
<polygon fill="white" stroke="#bfbfbf" points="1355,-0.5 1355,-41.5 1487,-41.5 1487,-0.5 1355,-0.5"/>
<text text-anchor="start" x="1363" y="-29.5" font-family="Helvetica,sans-Serif" font-size="10.00">/home/hebert/Documentos</text>
<text text-anchor="start" x="1363" y="-18.5" font-family="Helvetica,sans-Serif" font-size="10.00">/DAS/zeromq&#45;3.2.1/src</text>
<text text-anchor="middle" x="1421" y="-7.5" font-family="Helvetica,sans-Serif" font-size="10.00">/msg.hpp</text>
</g>
<!-- Node1&#45;&gt;Node18 -->
<g id="edge17" class="edge"><title>Node1&#45;&gt;Node18</title>
<path fill="none" stroke="midnightblue" d="M1227.61,-78.3685C1257.38,-69.6908 1304.51,-55.9535 1344.79,-44.213"/>
<polygon fill="midnightblue" stroke="midnightblue" points="1345.98,-47.5122 1354.6,-41.3536 1344.02,-40.7919 1345.98,-47.5122"/>
</g>
<!-- Node19 -->
<g id="node19" class="node"><title>Node19</title>
<polygon fill="white" stroke="#bfbfbf" points="1505,-0.5 1505,-41.5 1637,-41.5 1637,-0.5 1505,-0.5"/>
<text text-anchor="start" x="1513" y="-29.5" font-family="Helvetica,sans-Serif" font-size="10.00">/home/hebert/Documentos</text>
<text text-anchor="start" x="1513" y="-18.5" font-family="Helvetica,sans-Serif" font-size="10.00">/DAS/zeromq&#45;3.2.1/src</text>
<text text-anchor="middle" x="1571" y="-7.5" font-family="Helvetica,sans-Serif" font-size="10.00">/i_msg_source.hpp</text>
</g>
<!-- Node1&#45;&gt;Node19 -->
<g id="edge18" class="edge"><title>Node1&#45;&gt;Node19</title>
<path fill="none" stroke="midnightblue" d="M1256.02,-80.1713C1314.15,-72.8962 1406.31,-60.1822 1494.9,-42.1215"/>
<polygon fill="midnightblue" stroke="midnightblue" points="1495.76,-45.5179 1504.84,-40.0678 1494.34,-38.6626 1495.76,-45.5179"/>
</g>
<!-- Node20 -->
<g id="node20" class="node"><title>Node20</title>
<polygon fill="white" stroke="#bfbfbf" points="1655,-0.5 1655,-41.5 1787,-41.5 1787,-0.5 1655,-0.5"/>
<text text-anchor="start" x="1663" y="-29.5" font-family="Helvetica,sans-Serif" font-size="10.00">/home/hebert/Documentos</text>
<text text-anchor="start" x="1663" y="-18.5" font-family="Helvetica,sans-Serif" font-size="10.00">/DAS/zeromq&#45;3.2.1/src</text>
<text text-anchor="middle" x="1721" y="-7.5" font-family="Helvetica,sans-Serif" font-size="10.00">/encoder.hpp</text>
</g>
<!-- Node1&#45;&gt;Node20 -->
<g id="edge19" class="edge"><title>Node1&#45;&gt;Node20</title>
<path fill="none" stroke="midnightblue" d="M1256.05,-84.1505C1339.94,-79.3763 1499.99,-67.8098 1644.91,-42.0477"/>
<polygon fill="midnightblue" stroke="midnightblue" points="1645.66,-45.4698 1654.88,-40.2493 1644.41,-38.5811 1645.66,-45.4698"/>
</g>
<!-- Node21 -->
<g id="node21" class="node"><title>Node21</title>
<polygon fill="white" stroke="#bfbfbf" points="1805,-11.5 1805,-30.5 1891,-30.5 1891,-11.5 1805,-11.5"/>
<text text-anchor="middle" x="1848" y="-18.5" font-family="Helvetica,sans-Serif" font-size="10.00">v1_decoder.hpp</text>
</g>
<!-- Node1&#45;&gt;Node21 -->
<g id="edge20" class="edge"><title>Node1&#45;&gt;Node21</title>
<path fill="none" stroke="midnightblue" d="M1256.26,-84.7802C1385.8,-79.4933 1694.3,-64.8651 1796,-42 1804.1,-40.1801 1812.6,-37.3342 1820.34,-34.3542"/>
<polygon fill="midnightblue" stroke="midnightblue" points="1821.69,-37.5833 1829.64,-30.5751 1819.05,-31.0986 1821.69,-37.5833"/>
</g>
<!-- Node22 -->
<g id="node22" class="node"><title>Node22</title>
<polygon fill="white" stroke="#bfbfbf" points="1909,-0.5 1909,-41.5 2041,-41.5 2041,-0.5 1909,-0.5"/>
<text text-anchor="start" x="1917" y="-29.5" font-family="Helvetica,sans-Serif" font-size="10.00">/home/hebert/Documentos</text>
<text text-anchor="start" x="1917" y="-18.5" font-family="Helvetica,sans-Serif" font-size="10.00">/DAS/zeromq&#45;3.2.1/src</text>
<text text-anchor="middle" x="1975" y="-7.5" font-family="Helvetica,sans-Serif" font-size="10.00">/err.hpp</text>
</g>
<!-- Node1&#45;&gt;Node22 -->
<g id="edge21" class="edge"><title>Node1&#45;&gt;Node22</title>
<path fill="none" stroke="midnightblue" d="M1256.22,-87.1196C1375.39,-86.5327 1655.68,-80.8875 1898.81,-42.0171"/>
<polygon fill="midnightblue" stroke="midnightblue" points="1899.59,-45.4368 1908.9,-40.3814 1898.47,-38.527 1899.59,-45.4368"/>
</g>
<!-- Node23 -->
<g id="node23" class="node"><title>Node23</title>
<polygon fill="white" stroke="#bfbfbf" points="2059,-0.5 2059,-41.5 2191,-41.5 2191,-0.5 2059,-0.5"/>
<text text-anchor="start" x="2067" y="-29.5" font-family="Helvetica,sans-Serif" font-size="10.00">/home/hebert/Documentos</text>
<text text-anchor="start" x="2067" y="-18.5" font-family="Helvetica,sans-Serif" font-size="10.00">/DAS/zeromq&#45;3.2.1/src</text>
<text text-anchor="middle" x="2125" y="-7.5" font-family="Helvetica,sans-Serif" font-size="10.00">/decoder.hpp</text>
</g>
<!-- Node1&#45;&gt;Node23 -->
<g id="edge22" class="edge"><title>Node1&#45;&gt;Node23</title>
<path fill="none" stroke="midnightblue" d="M1256.06,-85.5061C1418.71,-81.0759 1877.6,-66.8407 2048.78,-41.9608"/>
<polygon fill="midnightblue" stroke="midnightblue" points="2049.55,-45.3848 2058.91,-40.4227 2048.49,-38.4642 2049.55,-45.3848"/>
</g>
<!-- Node24 -->
<g id="node24" class="node"><title>Node24</title>
<polygon fill="white" stroke="#bfbfbf" points="2209,-0.5 2209,-41.5 2341,-41.5 2341,-0.5 2209,-0.5"/>
<text text-anchor="start" x="2217" y="-29.5" font-family="Helvetica,sans-Serif" font-size="10.00">/home/hebert/Documentos</text>
<text text-anchor="start" x="2217" y="-18.5" font-family="Helvetica,sans-Serif" font-size="10.00">/DAS/zeromq&#45;3.2.1/src</text>
<text text-anchor="middle" x="2275" y="-7.5" font-family="Helvetica,sans-Serif" font-size="10.00">/i_msg_sink.hpp</text>
</g>
<!-- Node1&#45;&gt;Node24 -->
<g id="edge23" class="edge"><title>Node1&#45;&gt;Node24</title>
<path fill="none" stroke="midnightblue" d="M1256.16,-86.0354C1438.33,-82.7593 1997.19,-70.7084 2199,-41.9238"/>
<polygon fill="midnightblue" stroke="midnightblue" points="2199.53,-45.3829 2208.91,-40.4516 2198.51,-38.4588 2199.53,-45.3829"/>
</g>
<!-- Node25 -->
<g id="node25" class="node"><title>Node25</title>
<polygon fill="white" stroke="#bfbfbf" points="2359,-0.5 2359,-41.5 2491,-41.5 2491,-0.5 2359,-0.5"/>
<text text-anchor="start" x="2367" y="-29.5" font-family="Helvetica,sans-Serif" font-size="10.00">/home/hebert/Documentos</text>
<text text-anchor="start" x="2367" y="-18.5" font-family="Helvetica,sans-Serif" font-size="10.00">/DAS/zeromq&#45;3.2.1/src</text>
<text text-anchor="middle" x="2425" y="-7.5" font-family="Helvetica,sans-Serif" font-size="10.00">/stdint.hpp</text>
</g>
<!-- Node1&#45;&gt;Node25 -->
<g id="edge24" class="edge"><title>Node1&#45;&gt;Node25</title>
<path fill="none" stroke="midnightblue" d="M1256.16,-86.4303C1456.21,-84.2089 2115.92,-74.6447 2348.81,-41.9468"/>
<polygon fill="midnightblue" stroke="midnightblue" points="2349.52,-45.3802 2358.91,-40.4731 2348.51,-38.4535 2349.52,-45.3802"/>
</g>
<!-- Node26 -->
<g id="node26" class="node"><title>Node26</title>
<polygon fill="white" stroke="#bfbfbf" points="2509,-11.5 2509,-30.5 2571,-30.5 2571,-11.5 2509,-11.5"/>
<text text-anchor="middle" x="2540" y="-18.5" font-family="Helvetica,sans-Serif" font-size="10.00">config.hpp</text>
</g>
<!-- Node1&#45;&gt;Node26 -->
<g id="edge25" class="edge"><title>Node1&#45;&gt;Node26</title>
<path fill="none" stroke="midnightblue" d="M1256.35,-86.4466C1493.57,-83.998 2378.69,-72.8593 2500,-42 2505.83,-40.5166 2511.8,-38.0984 2517.28,-35.4473"/>
<polygon fill="midnightblue" stroke="midnightblue" points="2519.3,-38.3416 2526.5,-30.5755 2516.03,-32.1523 2519.3,-38.3416"/>
</g>
<!-- Node27 -->
<g id="node27" class="node"><title>Node27</title>
<polygon fill="white" stroke="#bfbfbf" points="2589.5,-11.5 2589.5,-30.5 2636.5,-30.5 2636.5,-11.5 2589.5,-11.5"/>
<text text-anchor="middle" x="2613" y="-18.5" font-family="Helvetica,sans-Serif" font-size="10.00">err.hpp</text>
</g>
<!-- Node1&#45;&gt;Node27 -->
<g id="edge26" class="edge"><title>Node1&#45;&gt;Node27</title>
<path fill="none" stroke="midnightblue" d="M1256.17,-86.7985C1502.24,-85.7164 2450.84,-79.1512 2579,-42 2583.84,-40.5962 2588.71,-38.3456 2593.19,-35.8514"/>
<polygon fill="midnightblue" stroke="midnightblue" points="2595.05,-38.8204 2601.71,-30.5828 2591.36,-32.8674 2595.05,-38.8204"/>
</g>
<!-- Node28 -->
<g id="node28" class="node"><title>Node28</title>
<polygon fill="white" stroke="#bfbfbf" points="2654.5,-11.5 2654.5,-30.5 2697.5,-30.5 2697.5,-11.5 2654.5,-11.5"/>
<text text-anchor="middle" x="2676" y="-18.5" font-family="Helvetica,sans-Serif" font-size="10.00">ip.hpp</text>
</g>
<!-- Node1&#45;&gt;Node28 -->
<g id="edge27" class="edge"><title>Node1&#45;&gt;Node28</title>
<path fill="none" stroke="midnightblue" d="M1256.41,-87.0277C1510.28,-86.8989 2511.07,-83.7264 2645,-42 2649.27,-40.6712 2653.51,-38.5817 2657.42,-36.2448"/>
<polygon fill="midnightblue" stroke="midnightblue" points="2659.49,-39.0755 2665.82,-30.5843 2655.57,-33.2708 2659.49,-39.0755"/>
</g>
<!-- Node29 -->
<g id="node29" class="node"><title>Node29</title>
<polygon fill="white" stroke="#bfbfbf" points="2716,-11.5 2716,-30.5 2774,-30.5 2774,-11.5 2716,-11.5"/>
<text text-anchor="middle" x="2745" y="-18.5" font-family="Helvetica,sans-Serif" font-size="10.00">likely.hpp</text>
</g>
<!-- Node1&#45;&gt;Node29 -->
<g id="edge28" class="edge"><title>Node1&#45;&gt;Node29</title>
<path fill="none" stroke="midnightblue" d="M1256.14,-86.7797C1515.93,-85.5906 2563.95,-78.55 2706,-42 2711.71,-40.5305 2717.54,-38.1178 2722.89,-35.4676"/>
<polygon fill="midnightblue" stroke="midnightblue" points="2724.75,-38.4379 2731.87,-30.5933 2721.42,-32.2848 2724.75,-38.4379"/>
</g>
<!-- Node30 -->
<g id="node30" class="node"><title>Node30</title>
<polygon fill="white" stroke="#bfbfbf" points="2792.5,-11.5 2792.5,-30.5 2845.5,-30.5 2845.5,-11.5 2792.5,-11.5"/>
<text text-anchor="middle" x="2819" y="-18.5" font-family="Helvetica,sans-Serif" font-size="10.00">wire.hpp</text>
</g>
<!-- Node1&#45;&gt;Node30 -->
<g id="edge29" class="edge"><title>Node1&#45;&gt;Node30</title>
<path fill="none" stroke="midnightblue" d="M1256.37,-86.9417C1524.66,-86.4582 2632.7,-82.0342 2782,-42 2787.33,-40.571 2792.74,-38.2431 2797.71,-35.6715"/>
<polygon fill="midnightblue" stroke="midnightblue" points="2799.65,-38.5918 2806.61,-30.5982 2796.19,-32.5107 2799.65,-38.5918"/>
</g>
</g>
</svg>
